<svg id="Layer_1" data-name="Layer 1" xmlns="http://www.w3.org/2000/svg" viewBox="0 0 401.52 444.9"><defs><style>.cls-1{fill:#fff;}.cls-2{fill:#2f2f2f;}.cls-3{fill:#f05656;}.cls-4{fill:#4474b8;}</style></defs><title>clock</title><path class="cls-1" d="M297.25,400.08l-43.48-84.49A38.88,38.88,0,0,0,271,305.77L314.91,391A9.93,9.93,0,0,1,297.25,400.08Z" transform="translate(-49.24 -27.55)"/><path class="cls-2" d="M409,277.88a165.12,165.12,0,0,1-89,146.57l-4.11-9.31,0.2-.1a22,22,0,0,0,9.47-29.54l-46.64-90.66c0.1-.2.19-0.41,0.28-0.61q0.54-1.17,1-2.4c0.21-.54.4-1.08,0.58-1.62,0.13-.37.25-0.75,0.36-1.13s0.26-.89.38-1.34,0.23-.94.34-1.41,0.19-.88.27-1.33,0.16-.92.23-1.39,0.12-.88.17-1.32a1.35,1.35,0,0,0,0-.2q0.07-.66.12-1.32c0-.44.06-0.88,0.07-1.32s0-1.05,0-1.57a39,39,0,0,0-1.48-10.66q-0.27-.93-0.57-1.83a39.2,39.2,0,0,0-4.62-9.3l-0.67-1c-0.68-1-1.41-1.87-2.18-2.75-0.62-.71-1.26-1.4-1.92-2.06a38.88,38.88,0,0,0-27.56-11.44V112.72A165.16,165.16,0,0,1,409,277.88Z" transform="translate(-49.24 -27.55)"/><path class="cls-3" d="M306.11,413.46a17.9,17.9,0,0,1-16-9.71l-46.77-90.87a35,35,0,1,1,31.06-18L322,387.33a18,18,0,0,1-7.73,24.15A18,18,0,0,1,306.11,413.46Z" transform="translate(-49.24 -27.55)"/><path class="cls-4" d="M450,149.15c-1-3.15-.17-3.78-5.65-12-5.33-8-6.43-7.61-8.9-9.82-2.89-2.57-6.55-4.09-9.77-1.94l-4.88,3.25a7.07,7.07,0,0,0-2,9.77l1.8,2.7-24.23,16.17a194.5,194.5,0,0,0-133-73V64.88h2.71a12,12,0,0,0,12-12v-10c0-6.6-5.64-10.23-12-12-5.43-1.51-5.52-3.33-22.33-3.33-16.36,0-16.87,1.91-22.33,3.33-6.39,1.66-12,5.4-12,12v10a12,12,0,0,0,12,12h2.71V84.29c-98.11,9.87-175,92.92-175,193.59,0,107.29,87.29,194.57,194.57,194.57s194.57-87.29,194.57-194.57a193.42,193.42,0,0,0-30.58-104.61l23.72-15.83,1.86,2.78a7.06,7.06,0,0,0,9.77,2l4.88-3.26C451.26,156.76,451.2,152.83,450,149.15ZM243.82,454.45c-97.36,0-176.57-79.21-176.57-176.57S146.45,101.3,243.82,101.3s176.57,79.21,176.57,176.57S341.18,454.45,243.82,454.45Z" transform="translate(-49.24 -27.55)"/></svg>