<svg id="Layer_1" data-name="Layer 1" xmlns="http://www.w3.org/2000/svg" viewBox="0 0 533.78 465.49"><defs><style>.cls-1{fill:#e0e0e0;}.cls-2{fill:#4474b8;}.cls-3{fill:#231f20;}</style></defs><title>impact-3c</title><circle class="cls-1" cx="110" cy="110" r="110"/><path class="cls-2" d="M1685.13,106.3v-0.11c0-4.79,2.78-7.73,7-9.48-2.95-1.52-5.68-4.23-5.68-8.57V88c0-6.49,6.4-11.06,15.64-11.06s15.64,4.57,15.64,11.06v0.11c0,4.34-2.73,7.05-5.68,8.57,4,1.64,7,4.46,7,9.48v0.11c0,6.88-6.9,11.62-17,11.62S1685.13,113.13,1685.13,106.3Zm21.48-1.47v-0.11c0-2.14-1.78-3.84-4.51-3.84s-4.51,1.69-4.51,3.84v0.11c0,2,1.5,3.95,4.51,3.95S1706.61,106.75,1706.61,104.84Zm-0.45-15.06V89.66a4.08,4.08,0,0,0-8.13,0v0.11A4.07,4.07,0,0,0,1706.17,89.77Z" transform="translate(-1636.61 -17.25)"/><path class="cls-2" d="M1726.15,113.3c-2.95-3-5-7.62-5-14.61V98.57c0-12.35,6.35-21.72,19.09-21.72A22.11,22.11,0,0,1,1754,81.14l-5.62,8.69a12.78,12.78,0,0,0-7.57-2.82c-4.23,0-6.34,3-6.85,7.73a12.84,12.84,0,0,1,8.79-3.5,11.82,11.82,0,0,1,12,12v0.11c0,9.53-7.51,14.67-16.14,14.67C1732.78,118,1729,116.23,1726.15,113.3Zm16.2-9.14V104a4.26,4.26,0,0,0-4.29-4.4,4.12,4.12,0,0,0-4.17,4.34v0.11a4.27,4.27,0,0,0,4.29,4.46A4.14,4.14,0,0,0,1742.35,104.16Z" transform="translate(-1636.61 -17.25)"/><path class="cls-2" d="M1757.88,88.25V88.14c0-6,4.12-11.06,10.63-11.06s10.63,5,10.63,11.06v0.11c0,6-4.29,11.06-10.63,11.06S1757.88,94.29,1757.88,88.25Zm36.29-10.55h8.4L1771,117.19h-8.4Zm-22.77,10.55V88.14c0-2.37-1.34-3.89-2.89-3.89s-2.89,1.47-2.89,3.89v0.11c0,2.37,1.45,3.89,2.89,3.89S1771.41,90.68,1771.41,88.25Zm14.58,18.5v-0.11c0-6,4.12-11.06,10.63-11.06s10.63,5,10.63,11.06v0.11c0,6-4.29,11.06-10.63,11.06S1786,112.79,1786,106.75Zm13.53,0v-0.11c0-2.37-1.34-3.89-2.89-3.89s-2.89,1.47-2.89,3.89v0.11c0,2.37,1.45,3.89,2.89,3.89S1799.51,109.18,1799.51,106.75Z" transform="translate(-1636.61 -17.25)"/><path class="cls-3" d="M1660.11,147.57a6.8,6.8,0,0,1-6.93-6.87A7,7,0,1,1,1660.11,147.57Zm0-11.15a4,4,0,0,0-3.93,4.24,4.07,4.07,0,0,0,4,4.29,4,4,0,0,0,4-4.24A4.07,4.07,0,0,0,1660.11,136.42Z" transform="translate(-1636.61 -17.25)"/><path class="cls-3" d="M1677.23,134.14v2.51h-3.42v10.63h-3V136.64h-1.66v-2.53h1.66v-1c0-2.91,1.43-4.34,4-4.34a7.92,7.92,0,0,1,2.43.35v2.56a5.18,5.18,0,0,0-1.76-.33c-1.14,0-1.73.63-1.73,2v0.73h3.46Z" transform="translate(-1636.61 -17.25)"/><path class="cls-3" d="M1693.09,147.57a6.8,6.8,0,0,1-6.93-6.87A7,7,0,1,1,1693.09,147.57Zm0-11.15a4,4,0,0,0-3.93,4.24,4.07,4.07,0,0,0,4,4.29,4,4,0,0,0,4-4.24A4.07,4.07,0,0,0,1693.09,136.42Z" transform="translate(-1636.61 -17.25)"/><path class="cls-3" d="M1711.72,134h3v13.23h-3v-2.06a4.69,4.69,0,0,1-4.08,2.33c-2.94,0-4.65-2-4.65-5.09V134h3v7.52c0,2.06,1,3.23,2.8,3.23s2.95-1.23,2.95-3.28V134Z" transform="translate(-1636.61 -17.25)"/><path class="cls-3" d="M1721.46,147.27h-3V134h3v3a4.64,4.64,0,0,1,4.63-3.23V137h-0.17c-2.62,0-4.45,1.73-4.45,5.24v5Z" transform="translate(-1636.61 -17.25)"/><path class="cls-3" d="M1740.59,147.52a9.1,9.1,0,0,1-5.54-2l1.34-2.06a7.28,7.28,0,0,0,4.28,1.63c1.29,0,2-.55,2-1.43v0c0-1-1.39-1.38-2.92-1.85-1.93-.55-4.08-1.35-4.08-3.89v-0.05c0-2.51,2.05-4,4.65-4a9,9,0,0,1,4.8,1.5l-1.19,2.16a7.51,7.51,0,0,0-3.69-1.25c-1.16,0-1.83.55-1.83,1.33v0c0,1,1.41,1.35,2.94,1.85,1.91,0.6,4.06,1.48,4.06,3.86v0C1745.44,146.14,1743.31,147.52,1740.59,147.52Z" transform="translate(-1636.61 -17.25)"/><path class="cls-3" d="M1751.84,143.13a1.44,1.44,0,0,0,1.61,1.65,4,4,0,0,0,1.86-.45v2.48a5.19,5.19,0,0,1-2.7.68c-2.2,0-3.76-1-3.76-3.89v-7h-1.66V134h1.66V130.4h3V134h3.51v2.61h-3.51v6.49Z" transform="translate(-1636.61 -17.25)"/><path class="cls-3" d="M1767,134h3v13.23h-3v-2.06a4.69,4.69,0,0,1-4.08,2.33c-2.94,0-4.65-2-4.65-5.09V134h3v7.52c0,2.06,1,3.23,2.8,3.23s2.95-1.23,2.95-3.28V134Z" transform="translate(-1636.61 -17.25)"/><path class="cls-3" d="M1783.56,147.27v-2.21a5.22,5.22,0,0,1-4.45,2.48c-3.07,0-6.06-2.48-6.06-6.89s2.94-6.89,6.06-6.89a5.39,5.39,0,0,1,4.45,2.33V129h3v18.3h-3Zm-3.74-10.88c-2.05,0-3.76,1.6-3.76,4.26s1.73,4.26,3.76,4.26A4.29,4.29,0,0,0,1779.82,136.39Z" transform="translate(-1636.61 -17.25)"/><path class="cls-3" d="M1796.33,145.09a4.72,4.72,0,0,0,3.54-1.58l1.76,1.58a6.8,6.8,0,0,1-12-4.41c0-3.81,2.65-6.92,6.38-6.92,4.16,0,6.26,3.31,6.26,7.14,0,0.28,0,.53,0,0.83h-9.6A3.68,3.68,0,0,0,1796.33,145.09Zm2.92-5.36c-0.2-2-1.34-3.48-3.32-3.48s-3.12,1.43-3.39,3.48h6.71Z" transform="translate(-1636.61 -17.25)"/><path class="cls-3" d="M1808.23,147.27h-3V134h3v2.06a4.69,4.69,0,0,1,4.08-2.33c2.94,0,4.65,2,4.65,5.09v8.42h-3v-7.52c0-2.06-1-3.23-2.8-3.23s-2.95,1.23-2.95,3.28v7.47Z" transform="translate(-1636.61 -17.25)"/><path class="cls-3" d="M1824.18,143.13a1.44,1.44,0,0,0,1.61,1.65,4,4,0,0,0,1.86-.45v2.48a5.19,5.19,0,0,1-2.7.68c-2.2,0-3.76-1-3.76-3.89v-7h-1.66V134h1.66V130.4h3V134h3.51v2.61h-3.51v6.49Z" transform="translate(-1636.61 -17.25)"/><path class="cls-3" d="M1835.19,147.52a9.1,9.1,0,0,1-5.54-2l1.34-2.06a7.28,7.28,0,0,0,4.28,1.63c1.29,0,2-.55,2-1.43v0c0-1-1.39-1.38-2.92-1.85-1.93-.55-4.08-1.35-4.08-3.89v-0.05c0-2.51,2.05-4,4.65-4a9,9,0,0,1,4.8,1.5l-1.19,2.16a7.51,7.51,0,0,0-3.69-1.25c-1.16,0-1.83.55-1.83,1.33v0c0,1,1.41,1.35,2.94,1.85,1.91,0.6,4.06,1.48,4.06,3.86v0C1840,146.14,1837.91,147.52,1835.19,147.52Z" transform="translate(-1636.61 -17.25)"/><path class="cls-3" d="M1684.95,177.65a8.66,8.66,0,0,1-9-9,8.89,8.89,0,0,1,8.93-9.1,9.28,9.28,0,0,1,6.66,2.38l-1.93,2.33a6.74,6.74,0,0,0-4.85-1.88c-3.19,0-5.62,2.81-5.62,6.22,0,3.63,2.35,6.29,5.89,6.29a7,7,0,0,0,4.18-1.33v-3.28h-4.43v-2.68h7.37v7.37A11,11,0,0,1,1684.95,177.65Z" transform="translate(-1636.61 -17.25)"/><path class="cls-3" d="M1707.24,177.35l-4.25-6.12h-3.81v6.12h-3V159.81h7.72c4,0,6.43,2.13,6.43,5.56a5.24,5.24,0,0,1-4.13,5.34l4.68,6.64h-3.59Zm-3.64-14.74h-4.43v5.89h4.45c2.18,0,3.56-1.15,3.56-3S1705.85,162.61,1703.6,162.61Z" transform="translate(-1636.61 -17.25)"/><path class="cls-3" d="M1730.6,177.35h-3.22l-1.76-4.24h-8.19l-1.78,4.24h-3.12l7.62-17.67H1723Zm-9.08-14-3,7h6Z" transform="translate(-1636.61 -17.25)"/><path class="cls-3" d="M1740,177.35h-6.46V159.81H1740c5.44,0,9.2,3.78,9.2,8.75S1745.46,177.35,1740,177.35Zm0-14.74h-3.41v11.93H1740A6,6,0,1,0,1740,162.61Z" transform="translate(-1636.61 -17.25)"/><path class="cls-3" d="M1767.46,169.76c0,5.24-2.92,7.87-7.45,7.87s-7.37-2.63-7.37-7.72v-10.1h3v10c0,3.26,1.66,5,4.38,5s4.35-1.65,4.35-4.89v-10.1h3v10Z" transform="translate(-1636.61 -17.25)"/><path class="cls-3" d="M1787.59,177.35h-3.22l-1.76-4.24h-8.19l-1.78,4.24h-3.12l7.62-17.67H1780Zm-9.08-14-3,7h6Z" transform="translate(-1636.61 -17.25)"/><path class="cls-3" d="M1795.66,177.35h-3.07V162.66h-5.49v-2.86h14.06v2.86h-5.49v14.69Z" transform="translate(-1636.61 -17.25)"/><path class="cls-3" d="M1817.21,162.56h-9.8v4.56h8.69v2.76h-8.69v4.71h9.92v2.76h-13V159.81h12.84v2.76Z" transform="translate(-1636.61 -17.25)"/><circle class="cls-1" cx="227.63" cy="355.49" r="110"/><path class="cls-2" d="M1825.91,358.5h-16l-1.8-7.89,16.23-20.21h12.34v20.16h4v7.94h-4v5.82h-10.78V358.5Zm0-7.79v-8.95l-7.07,8.95h7.07Z" transform="translate(-1636.61 -17.25)"/><path class="cls-2" d="M1842.34,347.58v-0.1c0-9.29,6-17.56,16-17.56s16,8.18,16,17.46v0.1c0,9.29-6,17.56-16,17.56S1842.34,356.87,1842.34,347.58Zm21,0v-0.1c0-4.62-2-7.79-5-7.79s-4.94,3.08-4.94,7.7v0.1c0,4.62,2,7.79,5,7.79S1863.32,352.2,1863.32,347.58Z" transform="translate(-1636.61 -17.25)"/><path class="cls-2" d="M1876.86,339.64v-0.1c0-5.15,3.51-9.43,9.07-9.43s9.07,4.28,9.07,9.43v0.1c0,5.15-3.66,9.43-9.07,9.43S1876.86,344.79,1876.86,339.64Zm31-9H1915l-27,33.68h-7.17Zm-19.42,9v-0.1c0-2-1.14-3.32-2.47-3.32s-2.47,1.25-2.47,3.32v0.1c0,2,1.23,3.32,2.47,3.32S1888.39,341.71,1888.39,339.64Zm12.44,15.78v-0.1c0-5.15,3.51-9.43,9.07-9.43s9.07,4.28,9.07,9.43v0.1c0,5.15-3.66,9.43-9.07,9.43S1900.83,360.57,1900.83,355.43Zm11.54,0v-0.1c0-2-1.14-3.32-2.47-3.32s-2.47,1.25-2.47,3.32v0.1c0,2,1.23,3.32,2.47,3.32S1912.36,357.49,1912.36,355.43Z" transform="translate(-1636.61 -17.25)"/><path class="cls-3" d="M1768.74,388.57a5.43,5.43,0,0,1-5.53-5.48A5.56,5.56,0,1,1,1768.74,388.57Zm0-8.9a3.16,3.16,0,0,0-3.14,3.38,3.25,3.25,0,0,0,3.18,3.42,3.16,3.16,0,0,0,3.16-3.38A3.25,3.25,0,0,0,1768.74,379.66Z" transform="translate(-1636.61 -17.25)"/><path class="cls-3" d="M1782.4,377.84v2h-2.72v8.48h-2.39v-8.48H1776v-2h1.32v-0.76c0-2.32,1.14-3.46,3.2-3.46a6.3,6.3,0,0,1,1.93.28v2a4.16,4.16,0,0,0-1.4-.26c-0.91,0-1.38.5-1.38,1.6v0.58h2.76Z" transform="translate(-1636.61 -17.25)"/><path class="cls-3" d="M1793.67,388.53a7.26,7.26,0,0,1-4.42-1.58l1.07-1.64a5.8,5.8,0,0,0,3.42,1.3c1,0,1.62-.44,1.62-1.14v0c0-.82-1.11-1.1-2.33-1.48-1.54-.44-3.26-1.08-3.26-3.1v0c0-2,1.64-3.22,3.71-3.22a7.16,7.16,0,0,1,3.83,1.2l-0.95,1.72a6,6,0,0,0-2.94-1,1.22,1.22,0,0,0-1.46,1.06v0c0,0.76,1.13,1.08,2.35,1.48,1.52,0.48,3.24,1.18,3.24,3.08v0C1797.54,387.43,1795.84,388.53,1793.67,388.53Z" transform="translate(-1636.61 -17.25)"/><path class="cls-3" d="M1802.65,385a1.15,1.15,0,0,0,1.28,1.32,3.18,3.18,0,0,0,1.48-.36v2a4.14,4.14,0,0,1-2.15.54c-1.76,0-3-.78-3-3.1v-5.56h-1.32v-2.08h1.32v-2.9h2.39v2.9h2.8v2.08h-2.8V385Z" transform="translate(-1636.61 -17.25)"/><path class="cls-3" d="M1814.71,377.76h2.39v10.56h-2.39v-1.64a3.75,3.75,0,0,1-3.26,1.86c-2.35,0-3.71-1.6-3.71-4.06v-6.72h2.39v6c0,1.64.81,2.58,2.23,2.58a2.34,2.34,0,0,0,2.35-2.62v-6Z" transform="translate(-1636.61 -17.25)"/><path class="cls-3" d="M1828,388.33v-1.76a4.16,4.16,0,0,1-3.55,2c-2.45,0-4.84-2-4.84-5.5s2.35-5.5,4.84-5.5a4.3,4.3,0,0,1,3.55,1.86v-5.68h2.39v14.6H1828Zm-3-8.68a3.09,3.09,0,0,0-3,3.4,3.12,3.12,0,0,0,3,3.4A3.42,3.42,0,0,0,1825,379.64Z" transform="translate(-1636.61 -17.25)"/><path class="cls-3" d="M1838.14,386.59a3.77,3.77,0,0,0,2.82-1.26l1.4,1.26a5.48,5.48,0,1,1-4.52-9c3.32,0,5,2.64,5,5.7,0,0.22,0,.42,0,0.66h-7.66A2.94,2.94,0,0,0,1838.14,386.59Zm2.33-4.28c-0.16-1.56-1.07-2.78-2.65-2.78a2.84,2.84,0,0,0-2.7,2.78h5.35Z" transform="translate(-1636.61 -17.25)"/><path class="cls-3" d="M1847.63,388.33h-2.39V377.76h2.39v1.64a3.74,3.74,0,0,1,3.26-1.86c2.35,0,3.71,1.6,3.71,4.06v6.72h-2.39v-6c0-1.64-.81-2.58-2.23-2.58a2.34,2.34,0,0,0-2.35,2.62v6Z" transform="translate(-1636.61 -17.25)"/><path class="cls-3" d="M1860.36,385a1.15,1.15,0,0,0,1.28,1.32,3.18,3.18,0,0,0,1.48-.36v2a4.14,4.14,0,0,1-2.15.54c-1.76,0-3-.78-3-3.1v-5.56h-1.32v-2.08H1858v-2.9h2.39v2.9h2.8v2.08h-2.8V385Z" transform="translate(-1636.61 -17.25)"/><path class="cls-3" d="M1869.15,388.53a7.26,7.26,0,0,1-4.42-1.58l1.07-1.64a5.81,5.81,0,0,0,3.42,1.3c1,0,1.62-.44,1.62-1.14v0c0-.82-1.11-1.1-2.33-1.48-1.54-.44-3.26-1.08-3.26-3.1v0c0-2,1.64-3.22,3.71-3.22a7.16,7.16,0,0,1,3.83,1.2l-0.95,1.72a6,6,0,0,0-2.94-1,1.22,1.22,0,0,0-1.46,1.06v0c0,0.76,1.13,1.08,2.35,1.48,1.52,0.48,3.24,1.18,3.24,3.08v0C1873,387.43,1871.32,388.53,1869.15,388.53Z" transform="translate(-1636.61 -17.25)"/><path class="cls-3" d="M1886.18,388.57a5.36,5.36,0,0,1-5.39-5.48,5.42,5.42,0,0,1,5.41-5.54,5.18,5.18,0,0,1,4.17,1.82l-1.48,1.62a3.49,3.49,0,0,0-2.71-1.32,3.16,3.16,0,0,0-3,3.38,3.2,3.2,0,0,0,3.12,3.42,3.65,3.65,0,0,0,2.71-1.32l1.44,1.44A5.25,5.25,0,0,1,1886.18,388.57Z" transform="translate(-1636.61 -17.25)"/><path class="cls-3" d="M1897.29,388.57a5.43,5.43,0,0,1-5.53-5.48A5.56,5.56,0,1,1,1897.29,388.57Zm0-8.9a3.16,3.16,0,0,0-3.14,3.38,3.25,3.25,0,0,0,3.18,3.42,3.16,3.16,0,0,0,3.16-3.38A3.25,3.25,0,0,0,1897.29,379.66Z" transform="translate(-1636.61 -17.25)"/><path class="cls-3" d="M1907.69,388.33h-2.39V377.76h2.39v1.64a3.74,3.74,0,0,1,3.26-1.86c2.35,0,3.71,1.6,3.71,4.06v6.72h-2.39v-6c0-1.64-.81-2.58-2.23-2.58a2.34,2.34,0,0,0-2.35,2.62v6Z" transform="translate(-1636.61 -17.25)"/><path class="cls-3" d="M1920.43,385a1.15,1.15,0,0,0,1.28,1.32,3.18,3.18,0,0,0,1.48-.36v2a4.14,4.14,0,0,1-2.15.54c-1.76,0-3-.78-3-3.1v-5.56h-1.32v-2.08H1918v-2.9h2.39v2.9h2.8v2.08h-2.8V385Z" transform="translate(-1636.61 -17.25)"/><path class="cls-3" d="M1925.67,376.14v-2.3h2.57v2.3h-2.57Zm0.1,12.18V377.76h2.39v10.56h-2.39Z" transform="translate(-1636.61 -17.25)"/><path class="cls-3" d="M1933.67,388.33h-2.39V377.76h2.39v1.64a3.74,3.74,0,0,1,3.26-1.86c2.35,0,3.71,1.6,3.71,4.06v6.72h-2.39v-6c0-1.64-.81-2.58-2.23-2.58a2.34,2.34,0,0,0-2.35,2.62v6Z" transform="translate(-1636.61 -17.25)"/><path class="cls-3" d="M1950.37,377.76h2.39v10.56h-2.39v-1.64a3.75,3.75,0,0,1-3.26,1.86c-2.35,0-3.71-1.6-3.71-4.06v-6.72h2.39v6c0,1.64.81,2.58,2.23,2.58a2.34,2.34,0,0,0,2.35-2.62v-6Z" transform="translate(-1636.61 -17.25)"/><path class="cls-3" d="M1960.57,386.59a3.77,3.77,0,0,0,2.82-1.26l1.4,1.26a5.48,5.48,0,1,1-4.52-9c3.32,0,5,2.64,5,5.7,0,0.22,0,.42,0,0.66h-7.66A2.94,2.94,0,0,0,1960.57,386.59Zm2.33-4.28c-0.16-1.56-1.07-2.78-2.65-2.78a2.84,2.84,0,0,0-2.7,2.78h5.35Z" transform="translate(-1636.61 -17.25)"/><path class="cls-3" d="M1817.42,409a1.15,1.15,0,0,0,1.28,1.32,3.18,3.18,0,0,0,1.48-.36v2a4.14,4.14,0,0,1-2.15.54c-1.76,0-3-.78-3-3.1v-5.56h-1.32v-2.08H1815v-2.9h2.39v2.9h2.8v2.08h-2.8V409Z" transform="translate(-1636.61 -17.25)"/><path class="cls-3" d="M1827.29,412.57a5.43,5.43,0,0,1-5.53-5.48A5.56,5.56,0,1,1,1827.29,412.57Zm0-8.9a3.16,3.16,0,0,0-3.14,3.38,3.25,3.25,0,0,0,3.18,3.42,3.16,3.16,0,0,0,3.16-3.38A3.25,3.25,0,0,0,1827.29,403.66Z" transform="translate(-1636.61 -17.25)"/><path class="cls-3" d="M1847.92,412.57a7.24,7.24,0,0,1,.1-14.48,7.16,7.16,0,0,1,5.41,2.18l-1.56,1.82a5.46,5.46,0,0,0-3.87-1.74,5,5,0,0,0,0,10,5.39,5.39,0,0,0,4-1.82l1.56,1.6A7.09,7.09,0,0,1,1847.92,412.57Z" transform="translate(-1636.61 -17.25)"/><path class="cls-3" d="M1860.55,412.57a5.43,5.43,0,0,1-5.53-5.48A5.56,5.56,0,1,1,1860.55,412.57Zm0-8.9a3.16,3.16,0,0,0-3.14,3.38,3.25,3.25,0,0,0,3.18,3.42,3.16,3.16,0,0,0,3.16-3.38A3.25,3.25,0,0,0,1860.55,403.66Z" transform="translate(-1636.61 -17.25)"/><path class="cls-3" d="M1868.7,412.33v-14.6h2.39v14.6h-2.39Z" transform="translate(-1636.61 -17.25)"/><path class="cls-3" d="M1874.34,412.33v-14.6h2.39v14.6h-2.39Z" transform="translate(-1636.61 -17.25)"/><path class="cls-3" d="M1884.67,410.59a3.77,3.77,0,0,0,2.82-1.26l1.4,1.26a5.48,5.48,0,1,1-4.52-9c3.32,0,5,2.64,5,5.7,0,0.22,0,.42,0,0.66h-7.66A2.94,2.94,0,0,0,1884.67,410.59Zm2.33-4.28c-0.16-1.56-1.07-2.78-2.65-2.78a2.84,2.84,0,0,0-2.71,2.78H1887Z" transform="translate(-1636.61 -17.25)"/><path class="cls-3" d="M1896.41,415.57a8.89,8.89,0,0,1-4.66-1.26l0.89-1.82a6.73,6.73,0,0,0,3.71,1.12c2.13,0,3.3-1.12,3.3-3.24v-0.82a4.35,4.35,0,0,1-3.67,1.94,5,5,0,0,1,0-9.94,4.48,4.48,0,0,1,3.65,1.8v-1.58H1902v8.4C1902,413.91,1900,415.57,1896.41,415.57Zm0.2-12a2.93,2.93,0,1,0,0,5.86A2.93,2.93,0,1,0,1896.61,403.58Z" transform="translate(-1636.61 -17.25)"/><path class="cls-3" d="M1909.82,410.59a3.77,3.77,0,0,0,2.82-1.26l1.4,1.26a5.48,5.48,0,1,1-4.52-9c3.32,0,5,2.64,5,5.7,0,0.22,0,.42,0,0.66h-7.66A2.94,2.94,0,0,0,1909.82,410.59Zm2.33-4.28c-0.16-1.56-1.07-2.78-2.65-2.78a2.84,2.84,0,0,0-2.7,2.78h5.35Z" transform="translate(-1636.61 -17.25)"/><circle class="cls-1" cx="423.78" cy="164.3" r="110"/><path class="cls-2" d="M2030.07,142.38l-5.41,1.2-2-8.32,9.92-2.74h8.4v33.92h-10.92V142.38Z" transform="translate(-1636.61 -17.25)"/><path class="cls-2" d="M2061.83,128h8.5l-21,44.55h-8.5Z" transform="translate(-1636.61 -17.25)"/><path class="cls-2" d="M2068.14,161.09l6.6-6.88c2.47,2.36,5.08,3.66,7.83,3.66,2.47,0,3.8-1.11,3.8-2.69v-0.1c0-1.64-1.42-2.69-4.37-2.69h-4.7l-1.47-5,7.31-5.87H2070.8v-8.76h25.54v7.75l-7.45,5.68c5,1.35,8.21,4.28,8.21,9.57v0.1c0,7.26-6.27,11.31-13.62,11.31C2076.64,167.16,2071.8,164.89,2068.14,161.09Z" transform="translate(-1636.61 -17.25)"/><path class="cls-3" d="M1963.11,189.23h-2.27v-10h2.27v2.26a3.51,3.51,0,0,1,3.51-2.45v2.43h-0.13c-2,0-3.38,1.31-3.38,4v3.82Z" transform="translate(-1636.61 -17.25)"/><path class="cls-3" d="M1972.82,187.58a3.57,3.57,0,0,0,2.68-1.2l1.33,1.2a5.2,5.2,0,1,1-4.29-8.59c3.15,0,4.74,2.51,4.74,5.41,0,0.21,0,.4,0,0.63H1970A2.79,2.79,0,0,0,1972.82,187.58Zm2.21-4.07a2.59,2.59,0,0,0-2.51-2.64,2.7,2.7,0,0,0-2.57,2.64H1975Z" transform="translate(-1636.61 -17.25)"/><path class="cls-3" d="M1984.15,189.46a5.09,5.09,0,0,1-5.12-5.21,5.14,5.14,0,0,1,5.14-5.26,4.92,4.92,0,0,1,4,1.73l-1.41,1.54a3.32,3.32,0,0,0-2.57-1.25,3,3,0,0,0-2.85,3.21,3,3,0,0,0,3,3.25,3.47,3.47,0,0,0,2.57-1.25l1.37,1.37A5,5,0,0,1,1984.15,189.46Z" transform="translate(-1636.61 -17.25)"/><path class="cls-3" d="M1996.33,189.23V188a4,4,0,0,1-3.21,1.44c-1.87,0-3.53-1.08-3.53-3.1v0c0-2.17,1.71-3.23,4-3.23a8.24,8.24,0,0,1,2.74.42v-0.25c0-1.39-.86-2.15-2.44-2.15a6.82,6.82,0,0,0-2.83.63l-0.62-1.84a8.41,8.41,0,0,1,3.77-.84c2.93,0,4.35,1.56,4.35,4.24v5.95h-2.25Zm0.06-4.26a6.41,6.41,0,0,0-2.27-.4c-1.42,0-2.27.59-2.27,1.61v0a1.65,1.65,0,0,0,1.91,1.48c1.5,0,2.63-.85,2.63-2.11V185Z" transform="translate(-1636.61 -17.25)"/><path class="cls-3" d="M2006.91,189.44a4,4,0,0,1-3.36-1.77v4.6h-2.27V179.2h2.27v1.67a3.94,3.94,0,0,1,3.36-1.88c2.34,0,4.61,1.88,4.61,5.22S2009.27,189.44,2006.91,189.44Zm-0.52-8.45a3.25,3.25,0,0,0,0,6.46A3.26,3.26,0,0,0,2006.39,181Z" transform="translate(-1636.61 -17.25)"/><path class="cls-3" d="M2016.59,186.1a1.09,1.09,0,0,0,1.22,1.25,3,3,0,0,0,1.41-.34v1.88a3.94,3.94,0,0,1-2,.51c-1.67,0-2.85-.74-2.85-2.94v-5.28h-1.26v-2h1.26v-2.75h2.27v2.75h2.66v2h-2.66v4.92Z" transform="translate(-1636.61 -17.25)"/><path class="cls-3" d="M2028,179.2h2.27v10H2028v-1.56a3.56,3.56,0,0,1-3.09,1.77c-2.23,0-3.53-1.52-3.53-3.86V179.2h2.27v5.7c0,1.56.77,2.45,2.12,2.45a2.22,2.22,0,0,0,2.23-2.49V179.2Z" transform="translate(-1636.61 -17.25)"/><path class="cls-3" d="M2035.43,189.23h-2.27v-10h2.27v2.26a3.51,3.51,0,0,1,3.51-2.45v2.43h-0.13c-2,0-3.38,1.31-3.38,4v3.82Z" transform="translate(-1636.61 -17.25)"/><path class="cls-3" d="M2045.14,187.58a3.57,3.57,0,0,0,2.68-1.2l1.33,1.2a5.2,5.2,0,1,1-4.29-8.59c3.15,0,4.74,2.51,4.74,5.41,0,0.21,0,.4,0,0.63h-7.28A2.79,2.79,0,0,0,2045.14,187.58Zm2.21-4.07a2.59,2.59,0,0,0-2.51-2.64,2.7,2.7,0,0,0-2.57,2.64h5.08Z" transform="translate(-1636.61 -17.25)"/><path class="cls-3" d="M2062.1,189.46a5.09,5.09,0,0,1-5.12-5.21,5.14,5.14,0,0,1,5.14-5.26,4.92,4.92,0,0,1,4,1.73l-1.41,1.54a3.32,3.32,0,0,0-2.57-1.25,3,3,0,0,0-2.85,3.21,3,3,0,0,0,3,3.25,3.47,3.47,0,0,0,2.57-1.25l1.37,1.37A5,5,0,0,1,2062.1,189.46Z" transform="translate(-1636.61 -17.25)"/><path class="cls-3" d="M2070.5,189.23h-2.27v-10h2.27v2.26A3.51,3.51,0,0,1,2074,179v2.43h-0.13c-2,0-3.38,1.31-3.38,4v3.82Z" transform="translate(-1636.61 -17.25)"/><path class="cls-3" d="M2080.21,187.58a3.57,3.57,0,0,0,2.68-1.2l1.33,1.2a5.2,5.2,0,1,1-4.29-8.59c3.15,0,4.74,2.51,4.74,5.41,0,0.21,0,.4,0,0.63h-7.28A2.79,2.79,0,0,0,2080.21,187.58Zm2.21-4.07a2.59,2.59,0,0,0-2.51-2.64,2.7,2.7,0,0,0-2.57,2.64h5.08Z" transform="translate(-1636.61 -17.25)"/><path class="cls-3" d="M2094.42,189.23v-1.67a4,4,0,0,1-3.37,1.88c-2.33,0-4.59-1.88-4.59-5.22s2.23-5.22,4.59-5.22a4.08,4.08,0,0,1,3.38,1.77v-5.4h2.27v13.87h-2.27Zm-2.83-8.24a2.93,2.93,0,0,0-2.85,3.23,3,3,0,0,0,2.85,3.23A3.25,3.25,0,0,0,2091.59,181Z" transform="translate(-1636.61 -17.25)"/><path class="cls-3" d="M2099.56,177.66v-2.18H2102v2.18h-2.44Zm0.09,11.57v-10h2.27v10h-2.27Z" transform="translate(-1636.61 -17.25)"/><path class="cls-3" d="M2107.62,186.1a1.09,1.09,0,0,0,1.22,1.25,3,3,0,0,0,1.41-.34v1.88a3.94,3.94,0,0,1-2,.51c-1.67,0-2.85-.74-2.85-2.94v-5.28h-1.26v-2h1.26v-2.75h2.27v2.75h2.66v2h-2.66v4.92Z" transform="translate(-1636.61 -17.25)"/><path class="cls-3" d="M2116,189.42a6.9,6.9,0,0,1-4.2-1.5l1-1.56a5.51,5.51,0,0,0,3.24,1.23c1,0,1.54-.42,1.54-1.08v0c0-.78-1-1-2.21-1.41-1.46-.42-3.09-1-3.09-2.94v0c0-1.9,1.56-3.06,3.53-3.06a6.8,6.8,0,0,1,3.64,1.14l-0.9,1.63a5.7,5.7,0,0,0-2.79-1,1.15,1.15,0,0,0-1.39,1v0c0,0.72,1.07,1,2.23,1.41,1.44,0.46,3.08,1.12,3.08,2.93v0C2119.64,188.38,2118,189.42,2116,189.42Z" transform="translate(-1636.61 -17.25)"/><path class="cls-3" d="M2133.63,189.23V188a4,4,0,0,1-3.21,1.44c-1.87,0-3.53-1.08-3.53-3.1v0c0-2.17,1.71-3.23,4-3.23a8.24,8.24,0,0,1,2.74.42v-0.25c0-1.39-.86-2.15-2.44-2.15a6.82,6.82,0,0,0-2.83.63l-0.62-1.84a8.41,8.41,0,0,1,3.77-.84c2.93,0,4.35,1.56,4.35,4.24v5.95h-2.25Zm0.06-4.26a6.41,6.41,0,0,0-2.27-.4c-1.42,0-2.27.59-2.27,1.61v0a1.65,1.65,0,0,0,1.91,1.48c1.5,0,2.63-.85,2.63-2.11V185Z" transform="translate(-1636.61 -17.25)"/><path class="cls-3" d="M2140.85,189.23h-2.27v-10h2.27v1.56a3.56,3.56,0,0,1,3.09-1.77c2.23,0,3.53,1.52,3.53,3.86v6.38h-2.27v-5.7c0-1.56-.77-2.45-2.12-2.45a2.22,2.22,0,0,0-2.23,2.49v5.66Z" transform="translate(-1636.61 -17.25)"/><path class="cls-3" d="M2157.67,189.23v-1.67a4,4,0,0,1-3.37,1.88c-2.33,0-4.59-1.88-4.59-5.22s2.23-5.22,4.59-5.22a4.08,4.08,0,0,1,3.38,1.77v-5.4h2.27v13.87h-2.27Zm-2.83-8.24a2.93,2.93,0,0,0-2.85,3.23,3,3,0,0,0,2.85,3.23A3.25,3.25,0,0,0,2154.84,181Z" transform="translate(-1636.61 -17.25)"/><path class="cls-3" d="M1990.42,212.26a6.56,6.56,0,0,1-6.81-6.86,6.74,6.74,0,0,1,6.77-6.9,7,7,0,0,1,5,1.8l-1.46,1.77a5.11,5.11,0,0,0-3.68-1.42,4.47,4.47,0,0,0-4.26,4.71c0,2.75,1.78,4.77,4.46,4.77a5.31,5.31,0,0,0,3.17-1v-2.49h-3.36v-2h5.59v5.58A8.31,8.31,0,0,1,1990.42,212.26Z" transform="translate(-1636.61 -17.25)"/><path class="cls-3" d="M2007.32,212l-3.22-4.64h-2.89V212h-2.31v-13.3h5.85c3,0,4.88,1.61,4.88,4.22a4,4,0,0,1-3.13,4l3.54,5h-2.72Zm-2.76-11.17h-3.36v4.46h3.38c1.65,0,2.7-.87,2.7-2.24S2006.27,200.86,2004.56,200.86Z" transform="translate(-1636.61 -17.25)"/><path class="cls-3" d="M2025,212h-2.44l-1.33-3.21H2015l-1.35,3.21h-2.36l5.78-13.39h2.14Zm-6.88-10.6-2.25,5.32h4.52Z" transform="translate(-1636.61 -17.25)"/><path class="cls-3" d="M2032.16,212h-4.89v-13.3h4.89c4.13,0,7,2.87,7,6.63A6.61,6.61,0,0,1,2032.16,212Zm0-11.17h-2.59v9h2.59A4.52,4.52,0,1,0,2032.16,200.86Z" transform="translate(-1636.61 -17.25)"/><path class="cls-3" d="M2053,206.28c0,4-2.21,6-5.64,6s-5.59-2-5.59-5.85v-7.66H2044v7.56c0,2.47,1.26,3.8,3.32,3.8s3.3-1.25,3.3-3.7v-7.66H2053v7.54Z" transform="translate(-1636.61 -17.25)"/><path class="cls-3" d="M2068.22,212h-2.44l-1.33-3.21h-6.21l-1.35,3.21h-2.36l5.78-13.39h2.14Zm-6.88-10.6-2.25,5.32h4.52Z" transform="translate(-1636.61 -17.25)"/><path class="cls-3" d="M2074.33,212H2072V200.9h-4.16v-2.17h10.65v2.17h-4.16V212Z" transform="translate(-1636.61 -17.25)"/><path class="cls-3" d="M2090.66,200.83h-7.43v3.46h6.58v2.09h-6.58v3.57h7.52V212h-9.83v-13.3h9.73v2.09Z" transform="translate(-1636.61 -17.25)"/><path class="cls-3" d="M2108.68,208.88l2-6.88H2113l-3.24,10.11h-2l-2.21-6.86-2.23,6.86h-2L2098,202h2.33l2,6.88,2.19-6.92h1.93Z" transform="translate(-1636.61 -17.25)"/><path class="cls-3" d="M2115,200.47v-2.18h2.44v2.18H2115Zm0.09,11.57V202h2.27v10h-2.27Z" transform="translate(-1636.61 -17.25)"/><path class="cls-3" d="M2123.1,208.9a1.09,1.09,0,0,0,1.22,1.25,3,3,0,0,0,1.41-.34v1.88a3.94,3.94,0,0,1-2,.51c-1.67,0-2.85-.74-2.85-2.94V204h-1.26v-2h1.26v-2.75h2.27V202h2.66v2h-2.66v4.92Z" transform="translate(-1636.61 -17.25)"/><path class="cls-3" d="M2130.32,212h-2.27V198.17h2.27v5.4a3.55,3.55,0,0,1,3.09-1.77c2.23,0,3.53,1.52,3.53,3.86V212h-2.27v-5.7c0-1.56-.77-2.45-2.12-2.45a2.22,2.22,0,0,0-2.23,2.49V212Z" transform="translate(-1636.61 -17.25)"/><path class="cls-3" d="M2017,231.7a1.09,1.09,0,0,0,1.22,1.25,3,3,0,0,0,1.41-.34v1.88a3.94,3.94,0,0,1-2,.51c-1.67,0-2.85-.74-2.85-2.94v-5.28h-1.26v-2h1.26V222H2017v2.75h2.66v2H2017v4.92Z" transform="translate(-1636.61 -17.25)"/><path class="cls-3" d="M2024.26,234.83H2022V221h2.27v5.4a3.55,3.55,0,0,1,3.09-1.77c2.23,0,3.53,1.52,3.53,3.86v6.38h-2.27v-5.7c0-1.56-.77-2.45-2.12-2.45a2.22,2.22,0,0,0-2.23,2.49v5.66Z" transform="translate(-1636.61 -17.25)"/><path class="cls-3" d="M2038.19,233.18a3.57,3.57,0,0,0,2.68-1.2l1.33,1.2a5.2,5.2,0,1,1-4.29-8.59c3.15,0,4.74,2.51,4.74,5.41,0,0.21,0,.4,0,0.63h-7.28A2.79,2.79,0,0,0,2038.19,233.18Zm2.21-4.07a2.59,2.59,0,0,0-2.51-2.64,2.7,2.7,0,0,0-2.57,2.64h5.08Z" transform="translate(-1636.61 -17.25)"/><path class="cls-3" d="M2045,223.26v-2.18h2.44v2.18H2045Zm0.09,11.57v-10h2.27v10h-2.27Z" transform="translate(-1636.61 -17.25)"/><path class="cls-3" d="M2052.57,234.83h-2.27v-10h2.27v2.26a3.51,3.51,0,0,1,3.51-2.45V227h-0.13c-2,0-3.38,1.31-3.38,4v3.82Z" transform="translate(-1636.61 -17.25)"/><path class="cls-3" d="M2068.25,235.06a5.09,5.09,0,0,1-5.12-5.21,5.14,5.14,0,0,1,5.14-5.26,4.92,4.92,0,0,1,4,1.73l-1.41,1.54a3.32,3.32,0,0,0-2.57-1.25,3,3,0,0,0-2.85,3.21,3,3,0,0,0,3,3.25,3.47,3.47,0,0,0,2.57-1.25l1.37,1.37A5,5,0,0,1,2068.25,235.06Z" transform="translate(-1636.61 -17.25)"/><path class="cls-3" d="M2074.51,234.83V221h2.27v13.87h-2.27Z" transform="translate(-1636.61 -17.25)"/><path class="cls-3" d="M2085.8,234.83V233.6a4,4,0,0,1-3.21,1.44c-1.87,0-3.53-1.08-3.53-3.1v0c0-2.17,1.71-3.23,4-3.23a8.24,8.24,0,0,1,2.74.42v-0.25c0-1.39-.86-2.15-2.44-2.15a6.82,6.82,0,0,0-2.83.63l-0.62-1.84a8.41,8.41,0,0,1,3.77-.84c2.93,0,4.35,1.56,4.35,4.24v5.95h-2.25Zm0.06-4.26a6.41,6.41,0,0,0-2.27-.4c-1.42,0-2.27.59-2.27,1.61v0a1.65,1.65,0,0,0,1.91,1.48c1.5,0,2.63-.85,2.63-2.11v-0.63Z" transform="translate(-1636.61 -17.25)"/><path class="cls-3" d="M2094.14,235a6.9,6.9,0,0,1-4.2-1.5l1-1.56a5.51,5.51,0,0,0,3.24,1.23c1,0,1.54-.42,1.54-1.08v0c0-.78-1-1-2.21-1.41-1.46-.42-3.09-1-3.09-2.94v0c0-1.9,1.56-3.06,3.53-3.06a6.8,6.8,0,0,1,3.64,1.14l-0.9,1.63a5.7,5.7,0,0,0-2.79-1,1.15,1.15,0,0,0-1.39,1v0c0,0.72,1.07,1,2.23,1.41,1.44,0.46,3.08,1.12,3.08,2.93v0C2097.82,234,2096.21,235,2094.14,235Z" transform="translate(-1636.61 -17.25)"/><path class="cls-3" d="M2103.33,235a6.9,6.9,0,0,1-4.2-1.5l1-1.56a5.51,5.51,0,0,0,3.24,1.23c1,0,1.54-.42,1.54-1.08v0c0-.78-1-1-2.21-1.41-1.46-.42-3.09-1-3.09-2.94v0c0-1.9,1.56-3.06,3.53-3.06a6.8,6.8,0,0,1,3.64,1.14l-0.9,1.63a5.7,5.7,0,0,0-2.79-1,1.15,1.15,0,0,0-1.39,1v0c0,0.72,1.07,1,2.23,1.41,1.44,0.46,3.08,1.12,3.08,2.93v0C2107,234,2105.39,235,2103.33,235Z" transform="translate(-1636.61 -17.25)"/></svg>