<svg id="Layer_1" data-name="Layer 1" xmlns="http://www.w3.org/2000/svg" viewBox="0 0 442.45 442.45"><defs><style>.cls-1{fill:#e0e0e0;}.cls-2{fill:#4474b8;}.cls-3{fill:#2f2f2f;}</style></defs><title>1billion</title><circle class="cls-1" cx="221.23" cy="221.23" r="221.23"/><path class="cls-2" d="M1293.85,76.18a21.7,21.7,0,0,1,5.48.94,14.52,14.52,0,0,1,5,2.62q-2.29,2.62-4.54,5.1A8.27,8.27,0,0,0,1297,83a9.23,9.23,0,0,0-3.14-.7V89.8q1.83,0.56,3.7,1.26a13.47,13.47,0,0,1,3.42,1.87,9.63,9.63,0,0,1,2.53,2.86,8.25,8.25,0,0,1,1,4.21,10.21,10.21,0,0,1-.91,4.47,9.29,9.29,0,0,1-2.43,3.16,10.74,10.74,0,0,1-3.46,1.92,13.43,13.43,0,0,1-4,.7v3.42h-3.46v-3.42a21,21,0,0,1-6.13-1.15,15.5,15.5,0,0,1-5.43-3.16l2.46-2.55q1.24-1.29,2.46-2.6a7.73,7.73,0,0,0,1.45,1.29,12.13,12.13,0,0,0,1.73,1,11.76,11.76,0,0,0,1.78.68,6,6,0,0,0,1.68.26V95.84q-2-.56-3.86-1.26a11.94,11.94,0,0,1-3.25-1.83,8,8,0,0,1-3.09-6.69,8.76,8.76,0,0,1,.94-4.1,9.72,9.72,0,0,1,2.43-3,11.27,11.27,0,0,1,3.37-1.92,12.77,12.77,0,0,1,3.7-.77V73h3.42v3.18Zm-3.42,6a4.28,4.28,0,0,0-2.27,1,2.87,2.87,0,0,0-1,2.36,2.91,2.91,0,0,0,.89,2.29,5.51,5.51,0,0,0,2.39,1.17V82.22Zm3.23,21.86a3.37,3.37,0,0,0,3.42-3.65,3.06,3.06,0,0,0-1-2.46,6.93,6.93,0,0,0-2.46-1.29v7.4Z" transform="translate(-1111.77 -28.77)"/><path class="cls-2" d="M1344.17,154.49V91.05l-16.1,12.44L1317.45,89l28.42-20.86h18.68v86.38h-20.37Z" transform="translate(-1111.77 -28.77)"/><path class="cls-2" d="M1266.65,212.09a15.24,15.24,0,0,1-1.83,7.78,14.56,14.56,0,0,1-4.87,5.07,21.22,21.22,0,0,1-6.9,2.75,37.43,37.43,0,0,1-7.94.84h-22.5V172h22.5a34.56,34.56,0,0,1,6.7.68A19.84,19.84,0,0,1,1258,175a12.44,12.44,0,0,1,6.3,11.53,11.76,11.76,0,0,1-2.55,7.78,14.25,14.25,0,0,1-6.7,4.43v0.16a15.5,15.5,0,0,1,4.51,1.48,13,13,0,0,1,3.67,2.75,12.87,12.87,0,0,1,2.47,3.91A13.13,13.13,0,0,1,1266.65,212.09Zm-15.48-23.69a4.52,4.52,0,0,0-2.19-4.19,12.86,12.86,0,0,0-6.5-1.32h-6.7v11.65h7.34a9.87,9.87,0,0,0,5.94-1.56A5.33,5.33,0,0,0,1251.18,188.4Zm1.83,22.42q0-3.51-2.63-4.87a15.41,15.41,0,0,0-7-1.36h-7.58v12.92h7.66a20.51,20.51,0,0,0,3.31-.28,10.4,10.4,0,0,0,3.11-1A5.66,5.66,0,0,0,1253,210.81Z" transform="translate(-1111.77 -28.77)"/><path class="cls-2" d="M1289.15,176.11a6.75,6.75,0,0,1-.6,2.83,7.17,7.17,0,0,1-4,3.79,7.77,7.77,0,0,1-2.91.56,7.33,7.33,0,0,1-5.34-2.11,6.84,6.84,0,0,1-2.15-5.07,7,7,0,0,1,.56-2.75,6.49,6.49,0,0,1,1.6-2.27,8.61,8.61,0,0,1,2.39-1.56,7.23,7.23,0,0,1,3-.6,7.79,7.79,0,0,1,2.91.56A7.37,7.37,0,0,1,1287,171a7.3,7.3,0,0,1,1.6,2.27A6.76,6.76,0,0,1,1289.15,176.11Zm-14,52.41V188.8h13.08v39.73h-13.08Z" transform="translate(-1111.77 -28.77)"/><path class="cls-2" d="M1298.72,228.52V168.22H1312v60.31h-13.32Z" transform="translate(-1111.77 -28.77)"/><path class="cls-2" d="M1322.49,228.52V168.22h13.32v60.31h-13.32Z" transform="translate(-1111.77 -28.77)"/><path class="cls-2" d="M1360.31,176.11a6.75,6.75,0,0,1-.6,2.83,7.17,7.17,0,0,1-4,3.79,7.77,7.77,0,0,1-2.91.56,7.33,7.33,0,0,1-5.34-2.11,6.84,6.84,0,0,1-2.15-5.07,7,7,0,0,1,.56-2.75,6.49,6.49,0,0,1,1.6-2.27,8.61,8.61,0,0,1,2.39-1.56,7.23,7.23,0,0,1,3-.6,7.79,7.79,0,0,1,2.91.56,7.37,7.37,0,0,1,2.39,1.52,7.3,7.3,0,0,1,1.6,2.27A6.76,6.76,0,0,1,1360.31,176.11Zm-14,52.41V188.8h13.08v39.73h-13.08Z" transform="translate(-1111.77 -28.77)"/><path class="cls-2" d="M1411.84,208.5a21.49,21.49,0,0,1-1.75,8.81,19.78,19.78,0,0,1-4.79,6.7,21.92,21.92,0,0,1-7,4.27,24.68,24.68,0,0,1-17,0,21.33,21.33,0,0,1-7-4.27,20,20,0,0,1-4.75-6.7,21.47,21.47,0,0,1-1.75-8.81,21.2,21.2,0,0,1,1.75-8.78,19.69,19.69,0,0,1,4.75-6.62,20.65,20.65,0,0,1,7-4.15,26,26,0,0,1,17,0,21.2,21.2,0,0,1,7,4.15,19.47,19.47,0,0,1,4.79,6.62A21.22,21.22,0,0,1,1411.84,208.5Zm-12.6,0a11.36,11.36,0,0,0-.64-3.75,10,10,0,0,0-1.83-3.23,9.36,9.36,0,0,0-3-2.27,9.87,9.87,0,0,0-8.14,0,8.89,8.89,0,0,0-2.91,2.27,9.75,9.75,0,0,0-1.75,3.23,12,12,0,0,0,0,7.5,10.25,10.25,0,0,0,1.79,3.31,8.82,8.82,0,0,0,3,2.35,9.87,9.87,0,0,0,8.14,0,8.82,8.82,0,0,0,3-2.35,10.26,10.26,0,0,0,1.8-3.31A12,12,0,0,0,1399.23,208.5Z" transform="translate(-1111.77 -28.77)"/><path class="cls-2" d="M1446.22,228.52v-21.7a17.65,17.65,0,0,0-.28-3.19A8.86,8.86,0,0,0,1445,201a4.77,4.77,0,0,0-1.79-1.83,5.7,5.7,0,0,0-2.91-.68,6.63,6.63,0,0,0-3.07.68,6.23,6.23,0,0,0-2.19,1.87,8.49,8.49,0,0,0-1.32,2.75,11.83,11.83,0,0,0-.44,3.23v21.54h-13.16V188.8h12.68v5.5H1433a13.15,13.15,0,0,1,1.88-2.51,11.26,11.26,0,0,1,2.71-2.11,16.89,16.89,0,0,1,3.39-1.44,13.37,13.37,0,0,1,3.91-.56,14.68,14.68,0,0,1,6.78,1.44,13,13,0,0,1,4.51,3.71,14.63,14.63,0,0,1,2.47,5.23,23.68,23.68,0,0,1,.76,5.9v24.57h-13.16Z" transform="translate(-1111.77 -28.77)"/><path class="cls-2" d="M1263.86,300l-4.39-11.09h-21.86L1233.46,300h-14.84l23.69-56.48h13.24L1279,300h-15.16Zm-15.16-41.4L1241.52,278h14.2Z" transform="translate(-1111.77 -28.77)"/><path class="cls-2" d="M1327.76,276.07V300h-13.64V276.07l-21.22-32.55h16.51l12,20.9,12-20.9h16Z" transform="translate(-1111.77 -28.77)"/><path class="cls-2" d="M1384.24,280.62v1.6a13.84,13.84,0,0,1-.08,1.52h-28.8a6.93,6.93,0,0,0,1,3,8.61,8.61,0,0,0,2.15,2.35,10.56,10.56,0,0,0,6.34,2.11,11,11,0,0,0,5.27-1.16,10.41,10.41,0,0,0,3.51-3l9.09,5.74a18.41,18.41,0,0,1-7.38,6.26,24.42,24.42,0,0,1-10.65,2.19,25.43,25.43,0,0,1-8.46-1.4,20.5,20.5,0,0,1-7-4.07,18.84,18.84,0,0,1-4.71-6.58,22,22,0,0,1-1.71-8.94,22.37,22.37,0,0,1,1.67-8.81,19.93,19.93,0,0,1,4.55-6.7,20.27,20.27,0,0,1,6.78-4.27,23.2,23.2,0,0,1,8.46-1.52,21.42,21.42,0,0,1,8.06,1.48,17.56,17.56,0,0,1,6.3,4.27,19.72,19.72,0,0,1,4.11,6.78A26.11,26.11,0,0,1,1384.24,280.62Zm-12-5a7.85,7.85,0,0,0-2-5.34q-2-2.23-5.86-2.23a9.93,9.93,0,0,0-3.51.6,9.08,9.08,0,0,0-2.79,1.64,8.1,8.1,0,0,0-1.92,2.43,7.12,7.12,0,0,0-.8,2.91h16.83Z" transform="translate(-1111.77 -28.77)"/><path class="cls-2" d="M1391.34,265.7a22.92,22.92,0,0,1,8.18-5A28,28,0,0,1,1409,259a25.48,25.48,0,0,1,8.5,1.24,12.67,12.67,0,0,1,5.62,3.83,16.34,16.34,0,0,1,3.15,6.54,38.69,38.69,0,0,1,1,9.37v20h-12v-4.23h-0.24a9.85,9.85,0,0,1-4.59,3.83,16.32,16.32,0,0,1-6.66,1.36,20.4,20.4,0,0,1-4.95-.64,14.47,14.47,0,0,1-4.67-2.07,11.23,11.23,0,0,1-3.47-3.83,11.81,11.81,0,0,1-1.36-5.9,10,10,0,0,1,2.35-6.94,15.43,15.43,0,0,1,6.06-4.07,32.14,32.14,0,0,1,8.26-1.91,84.66,84.66,0,0,1,8.85-.48v-0.64a4.87,4.87,0,0,0-2.07-4.35,8.94,8.94,0,0,0-5.11-1.4,12.7,12.7,0,0,0-5.38,1.2,17.18,17.18,0,0,0-4.43,2.87Zm24,17h-1.68q-2.15,0-4.35.2a18,18,0,0,0-3.91.76,7.23,7.23,0,0,0-2.83,1.64,3.75,3.75,0,0,0-1.12,2.83A3.43,3.43,0,0,0,1402,290a4,4,0,0,0,1.32,1.28,5.54,5.54,0,0,0,1.83.68,10.48,10.48,0,0,0,2,.2,8.08,8.08,0,0,0,6.1-2.19,8.21,8.21,0,0,0,2.11-5.94v-1.36Z" transform="translate(-1111.77 -28.77)"/><path class="cls-2" d="M1462.82,271a10.25,10.25,0,0,0-1.72-.32c-0.56-.05-1.1-0.08-1.63-0.08a9.35,9.35,0,0,0-4.43,1,9,9,0,0,0-2.87,2.31,8.76,8.76,0,0,0-1.56,2.94,9.87,9.87,0,0,0-.48,2.78V300H1437V260.32h12.6v5.74h0.16a13,13,0,0,1,4.31-5,11.09,11.09,0,0,1,6.46-1.93,15.13,15.13,0,0,1,1.56.08,6.07,6.07,0,0,1,1.24.24Z" transform="translate(-1111.77 -28.77)"/><path class="cls-3" d="M1230.22,327.48v12.41h-3.77V327.48H1222v-3.22h12.61v3.22h-4.42Z" transform="translate(-1111.77 -28.77)"/><path class="cls-3" d="M1243,339.89v-6a5.57,5.57,0,0,0-.07-0.88,2.14,2.14,0,0,0-.25-0.74,1.43,1.43,0,0,0-.5-0.51,1.51,1.51,0,0,0-.79-0.19,1.71,1.71,0,0,0-1.46.67,2.68,2.68,0,0,0-.51,1.67v5.94h-3.62V323.2h3.62v7.09h0a3.45,3.45,0,0,1,1.19-1.18,3.59,3.59,0,0,1,2-.52,4.06,4.06,0,0,1,1.89.4,3.64,3.64,0,0,1,1.24,1,4.05,4.05,0,0,1,.68,1.45,6.62,6.62,0,0,1,.21,1.63v6.8H1243Z" transform="translate(-1111.77 -28.77)"/><path class="cls-3" d="M1260.29,334.52V335a3.85,3.85,0,0,1,0,.42h-8a1.93,1.93,0,0,0,.28.84,2.37,2.37,0,0,0,.6.65,2.91,2.91,0,0,0,1.76.59,3,3,0,0,0,1.46-.32,2.87,2.87,0,0,0,1-.83l2.52,1.59a5.09,5.09,0,0,1-2,1.73,6.76,6.76,0,0,1-2.95.61,7,7,0,0,1-2.34-.39,5.68,5.68,0,0,1-1.93-1.13,5.22,5.22,0,0,1-1.3-1.82,6.1,6.1,0,0,1-.47-2.47,6.19,6.19,0,0,1,.46-2.44,5.51,5.51,0,0,1,1.26-1.85,5.6,5.6,0,0,1,1.88-1.18,6.42,6.42,0,0,1,2.34-.42,5.93,5.93,0,0,1,2.23.41,4.88,4.88,0,0,1,1.74,1.18,5.45,5.45,0,0,1,1.14,1.88A7.21,7.21,0,0,1,1260.29,334.52Zm-3.33-1.39a2.17,2.17,0,0,0-.54-1.48,2,2,0,0,0-1.62-.62,2.75,2.75,0,0,0-1,.17,2.52,2.52,0,0,0-.77.45,2.24,2.24,0,0,0-.53.67,2,2,0,0,0-.22.81H1257Z" transform="translate(-1111.77 -28.77)"/><path class="cls-3" d="M1267.9,330.39a6.36,6.36,0,0,1,2.26-1.39,7.75,7.75,0,0,1,2.64-.46,7.05,7.05,0,0,1,2.35.34,3.5,3.5,0,0,1,1.56,1.06,4.51,4.51,0,0,1,.87,1.81,10.73,10.73,0,0,1,.27,2.59v5.54h-3.31v-1.17h-0.07a2.71,2.71,0,0,1-1.27,1.06,4.51,4.51,0,0,1-1.84.38A5.64,5.64,0,0,1,1270,340a4,4,0,0,1-1.29-.57,3.13,3.13,0,0,1-1-1.06,3.28,3.28,0,0,1-.37-1.63,2.77,2.77,0,0,1,.65-1.92,4.26,4.26,0,0,1,1.68-1.13,8.88,8.88,0,0,1,2.29-.53,23.23,23.23,0,0,1,2.45-.13v-0.18a1.35,1.35,0,0,0-.57-1.2,2.48,2.48,0,0,0-1.41-.39,3.52,3.52,0,0,0-1.49.33,4.79,4.79,0,0,0-1.23.79Zm6.65,4.7h-0.46q-0.6,0-1.2.05a5,5,0,0,0-1.08.21,2,2,0,0,0-.78.45,1,1,0,0,0-.31.78,0.94,0.94,0,0,0,.14.53,1.1,1.1,0,0,0,.36.35,1.52,1.52,0,0,0,.51.19,2.93,2.93,0,0,0,.55.06,2.23,2.23,0,0,0,1.69-.61,2.27,2.27,0,0,0,.59-1.64V335.1Z" transform="translate(-1111.77 -28.77)"/><path class="cls-3" d="M1294.59,339.89v-6a6,6,0,0,0-.07-0.89,2.17,2.17,0,0,0-.24-0.74,1.39,1.39,0,0,0-.48-0.5,1.45,1.45,0,0,0-.78-0.19,1.58,1.58,0,0,0-.8.2,1.79,1.79,0,0,0-.57.53,2.32,2.32,0,0,0-.34.76,3.58,3.58,0,0,0-.11.89v5.94h-3.62v-6.27a2.64,2.64,0,0,0-.38-1.5,1.34,1.34,0,0,0-1.19-.55,1.53,1.53,0,0,0-1.34.68,2.87,2.87,0,0,0-.47,1.68v6h-3.64v-11h3.51v1.52h0a3.93,3.93,0,0,1,.5-0.68,3.14,3.14,0,0,1,.72-0.58,3.95,3.95,0,0,1,2.08-.56,3.93,3.93,0,0,1,2,.49,3.33,3.33,0,0,1,1.29,1.39,4.2,4.2,0,0,1,1.41-1.37,4.07,4.07,0,0,1,2.1-.51,4,4,0,0,1,1.89.41,3.51,3.51,0,0,1,1.23,1.06,4.42,4.42,0,0,1,.67,1.46,6.25,6.25,0,0,1,.21,1.58v6.8h-3.62Z" transform="translate(-1111.77 -28.77)"/><path class="cls-3" d="M1312.6,334.35a6,6,0,0,1-.49,2.44,5.47,5.47,0,0,1-1.32,1.85,6.07,6.07,0,0,1-1.94,1.18,6.83,6.83,0,0,1-4.71,0,5.88,5.88,0,0,1-1.94-1.18,5.54,5.54,0,0,1-1.31-1.85,5.92,5.92,0,0,1-.49-2.44,5.84,5.84,0,0,1,.49-2.43,5.46,5.46,0,0,1,1.31-1.83,5.7,5.7,0,0,1,1.94-1.15,7.2,7.2,0,0,1,4.71,0,5.88,5.88,0,0,1,1.94,1.15,5.39,5.39,0,0,1,1.32,1.83A5.87,5.87,0,0,1,1312.6,334.35Zm-3.49,0a3.16,3.16,0,0,0-.18-1,2.77,2.77,0,0,0-.51-0.89,2.58,2.58,0,0,0-.82-0.63,2.72,2.72,0,0,0-2.25,0,2.45,2.45,0,0,0-.8.63,2.72,2.72,0,0,0-.49.89,3.34,3.34,0,0,0,0,2.08,2.85,2.85,0,0,0,.5.92,2.43,2.43,0,0,0,.82.65,2.73,2.73,0,0,0,2.25,0,2.43,2.43,0,0,0,.82-0.65,2.85,2.85,0,0,0,.5-0.92A3.34,3.34,0,0,0,1309.12,334.35Z" transform="translate(-1111.77 -28.77)"/><path class="cls-3" d="M1322.14,339.89v-1.52h0a3.11,3.11,0,0,1-.52.71,3.28,3.28,0,0,1-.75.57,4.62,4.62,0,0,1-1,.4,3.82,3.82,0,0,1-1.09.15,4,4,0,0,1-1.86-.4,3.6,3.6,0,0,1-1.24-1,4,4,0,0,1-.68-1.44,6.48,6.48,0,0,1-.21-1.64v-6.8h3.64v6a5.79,5.79,0,0,0,.06.88,2.2,2.2,0,0,0,.26.75,1.39,1.39,0,0,0,.5.52,1.56,1.56,0,0,0,.82.19,1.66,1.66,0,0,0,1.45-.71,2.81,2.81,0,0,0,.5-1.66v-5.94h3.62v11h-3.49Z" transform="translate(-1111.77 -28.77)"/><path class="cls-3" d="M1335.68,339.89v-6a5,5,0,0,0-.08-0.88,2.43,2.43,0,0,0-.26-0.74,1.32,1.32,0,0,0-.5-0.51,1.58,1.58,0,0,0-.81-0.19,1.83,1.83,0,0,0-.85.19,1.72,1.72,0,0,0-.61.52,2.33,2.33,0,0,0-.36.76,3.21,3.21,0,0,0-.12.89v6h-3.64v-11H1332v1.52h0a3.64,3.64,0,0,1,.52-0.7,3.12,3.12,0,0,1,.75-0.59,4.7,4.7,0,0,1,.94-0.4,3.71,3.71,0,0,1,1.08-.15,4.08,4.08,0,0,1,1.88.4,3.58,3.58,0,0,1,1.25,1,4,4,0,0,1,.68,1.45,6.53,6.53,0,0,1,.21,1.63v6.8h-3.64Z" transform="translate(-1111.77 -28.77)"/><path class="cls-3" d="M1346,331.59v4.21a1.89,1.89,0,0,0,.3,1.16,1.27,1.27,0,0,0,1.07.39,3.83,3.83,0,0,0,.56,0,1.91,1.91,0,0,0,.5-0.13l0,2.65a5.86,5.86,0,0,1-.95.23,6.71,6.71,0,0,1-1.15.1,5.42,5.42,0,0,1-1.86-.28,2.87,2.87,0,0,1-1.2-.8,3.13,3.13,0,0,1-.65-1.24,6,6,0,0,1-.2-1.6v-4.65h-1.77v-2.69h1.74V326H1346v2.89h2.58v2.69H1346Z" transform="translate(-1111.77 -28.77)"/><path class="cls-3" d="M1364.11,339.89v-1.43h0a3.43,3.43,0,0,1-1.51,1.29,4.93,4.93,0,0,1-2.09.45,4.86,4.86,0,0,1-2.21-.49,5.06,5.06,0,0,1-1.65-1.29,5.67,5.67,0,0,1-1-1.87,6.94,6.94,0,0,1-.35-2.21,6.66,6.66,0,0,1,.36-2.2,5.72,5.72,0,0,1,1-1.84,4.84,4.84,0,0,1,3.79-1.72,4.2,4.2,0,0,1,2.05.46,4.55,4.55,0,0,1,1.3,1h0V323.2h3.62v16.69h-3.33Zm-0.13-5.52a3,3,0,0,0-.19-1,2.94,2.94,0,0,0-.53-0.91,2.63,2.63,0,0,0-.83-0.64,2.44,2.44,0,0,0-1.1-.24,2.49,2.49,0,0,0-1.13.24,2.53,2.53,0,0,0-1.31,1.52,3.3,3.3,0,0,0-.17,1,3.4,3.4,0,0,0,.17,1,2.68,2.68,0,0,0,.5.92,2.51,2.51,0,0,0,.82.64,2.48,2.48,0,0,0,1.13.24,2.42,2.42,0,0,0,1.1-.24,2.63,2.63,0,0,0,.83-0.64,2.94,2.94,0,0,0,.53-0.91A3,3,0,0,0,1364,334.37Z" transform="translate(-1111.77 -28.77)"/><path class="cls-3" d="M1377.44,331.87a2.79,2.79,0,0,0-.47-0.09l-0.45,0a2.59,2.59,0,0,0-1.23.26,2.5,2.5,0,0,0-.79.64,2.43,2.43,0,0,0-.43.81,2.73,2.73,0,0,0-.13.77v5.64h-3.62v-11h3.49v1.59h0a3.57,3.57,0,0,1,1.19-1.38,3.07,3.07,0,0,1,1.79-.53l0.43,0a1.67,1.67,0,0,1,.34.07Z" transform="translate(-1111.77 -28.77)"/><path class="cls-3" d="M1390.31,334.35a6,6,0,0,1-.49,2.44,5.47,5.47,0,0,1-1.32,1.85,6.07,6.07,0,0,1-1.94,1.18,6.83,6.83,0,0,1-4.71,0,5.88,5.88,0,0,1-1.94-1.18,5.54,5.54,0,0,1-1.31-1.85,5.92,5.92,0,0,1-.49-2.44,5.84,5.84,0,0,1,.49-2.43,5.46,5.46,0,0,1,1.31-1.83,5.7,5.7,0,0,1,1.94-1.15,7.2,7.2,0,0,1,4.71,0,5.88,5.88,0,0,1,1.94,1.15,5.39,5.39,0,0,1,1.32,1.83A5.87,5.87,0,0,1,1390.31,334.35Zm-3.49,0a3.16,3.16,0,0,0-.18-1,2.77,2.77,0,0,0-.51-0.89,2.58,2.58,0,0,0-.82-0.63,2.72,2.72,0,0,0-2.25,0,2.45,2.45,0,0,0-.8.63,2.72,2.72,0,0,0-.49.89,3.34,3.34,0,0,0,0,2.08,2.85,2.85,0,0,0,.5.92,2.43,2.43,0,0,0,.82.65,2.73,2.73,0,0,0,2.25,0,2.43,2.43,0,0,0,.82-0.65,2.85,2.85,0,0,0,.5-0.92A3.34,3.34,0,0,0,1386.83,334.35Z" transform="translate(-1111.77 -28.77)"/><path class="cls-3" d="M1404.84,334.35a6.94,6.94,0,0,1-.35,2.21,5.67,5.67,0,0,1-1,1.87,5.07,5.07,0,0,1-1.64,1.29,4.87,4.87,0,0,1-2.21.49,4.61,4.61,0,0,1-1.92-.41,3.43,3.43,0,0,1-1.41-1.11h0v6.51h-3.62V328.89h3.44v1.35h0.07a4.48,4.48,0,0,1,1.4-1.16,4.26,4.26,0,0,1,2.11-.5,5,5,0,0,1,2.16.46,4.88,4.88,0,0,1,1.65,1.26,5.75,5.75,0,0,1,1,1.84A6.66,6.66,0,0,1,1404.84,334.35Zm-3.51,0a3.35,3.35,0,0,0-.17-1,2.71,2.71,0,0,0-.49-0.89,2.44,2.44,0,0,0-1.93-.87,2.44,2.44,0,0,0-1.1.24,2.63,2.63,0,0,0-.83.64,2.94,2.94,0,0,0-.53.91,3,3,0,0,0,0,2.08,2.94,2.94,0,0,0,.53.91,2.63,2.63,0,0,0,.83.64,2.42,2.42,0,0,0,1.1.24,2.48,2.48,0,0,0,1.13-.24,2.4,2.4,0,0,0,.81-0.64,2.82,2.82,0,0,0,.49-0.92A3.45,3.45,0,0,0,1401.33,334.35Z" transform="translate(-1111.77 -28.77)"/><path class="cls-3" d="M1418.77,334.35a6,6,0,0,1-.49,2.44,5.47,5.47,0,0,1-1.32,1.85,6.07,6.07,0,0,1-1.94,1.18,6.83,6.83,0,0,1-4.71,0,5.88,5.88,0,0,1-1.94-1.18,5.54,5.54,0,0,1-1.31-1.85,5.92,5.92,0,0,1-.49-2.44,5.84,5.84,0,0,1,.49-2.43,5.46,5.46,0,0,1,1.31-1.83,5.7,5.7,0,0,1,1.94-1.15,7.2,7.2,0,0,1,4.71,0,5.88,5.88,0,0,1,1.94,1.15,5.39,5.39,0,0,1,1.32,1.83A5.87,5.87,0,0,1,1418.77,334.35Zm-3.49,0a3.16,3.16,0,0,0-.18-1,2.77,2.77,0,0,0-.51-0.89,2.58,2.58,0,0,0-.82-0.63,2.72,2.72,0,0,0-2.25,0,2.45,2.45,0,0,0-.8.63,2.72,2.72,0,0,0-.49.89,3.34,3.34,0,0,0,0,2.08,2.85,2.85,0,0,0,.5.92,2.43,2.43,0,0,0,.82.65,2.73,2.73,0,0,0,2.25,0,2.43,2.43,0,0,0,.82-0.65,2.85,2.85,0,0,0,.5-0.92A3.34,3.34,0,0,0,1415.28,334.35Z" transform="translate(-1111.77 -28.77)"/><path class="cls-3" d="M1428.31,339.89v-1.52h0a3.11,3.11,0,0,1-.52.71,3.28,3.28,0,0,1-.75.57,4.62,4.62,0,0,1-1,.4,3.82,3.82,0,0,1-1.09.15,4,4,0,0,1-1.86-.4,3.6,3.6,0,0,1-1.24-1,4,4,0,0,1-.68-1.44,6.48,6.48,0,0,1-.21-1.64v-6.8h3.64v6a5.79,5.79,0,0,0,.06.88,2.2,2.2,0,0,0,.26.75,1.39,1.39,0,0,0,.5.52,1.56,1.56,0,0,0,.82.19,1.66,1.66,0,0,0,1.45-.71,2.81,2.81,0,0,0,.5-1.66v-5.94h3.62v11h-3.49Z" transform="translate(-1111.77 -28.77)"/><path class="cls-3" d="M1438.55,331.59v4.21a1.89,1.89,0,0,0,.3,1.16,1.27,1.27,0,0,0,1.07.39,3.83,3.83,0,0,0,.56,0,1.91,1.91,0,0,0,.5-0.13l0,2.65a5.86,5.86,0,0,1-.95.23,6.71,6.71,0,0,1-1.15.1,5.42,5.42,0,0,1-1.86-.28,2.87,2.87,0,0,1-1.2-.8,3.13,3.13,0,0,1-.65-1.24,6,6,0,0,1-.2-1.6v-4.65h-1.77v-2.69H1435V326h3.56v2.89h2.58v2.69h-2.58Z" transform="translate(-1111.77 -28.77)"/><path class="cls-3" d="M1449.3,332.14a4.08,4.08,0,0,0-1-.71,2.87,2.87,0,0,0-1.26-.29,2.21,2.21,0,0,0-.94.2,0.7,0.7,0,0,0-.43.68,0.68,0.68,0,0,0,.47.66,10.26,10.26,0,0,0,1.53.44,8.16,8.16,0,0,1,1.25.38,4.37,4.37,0,0,1,1.14.64,3.06,3.06,0,0,1,.82,1,2.84,2.84,0,0,1,.31,1.37,3.29,3.29,0,0,1-1.51,2.91,4.7,4.7,0,0,1-1.51.64,7.29,7.29,0,0,1-1.68.2,8.3,8.3,0,0,1-2.64-.43,5.55,5.55,0,0,1-2.15-1.27l2-2.14a4.05,4.05,0,0,0,1.19.88,3.32,3.32,0,0,0,1.5.35,2,2,0,0,0,.87-0.21,0.75,0.75,0,0,0,.43-0.74,0.79,0.79,0,0,0-.53-0.75,9.5,9.5,0,0,0-1.66-.51,8.63,8.63,0,0,1-1.15-.35,3.61,3.61,0,0,1-1-.6,3,3,0,0,1-.74-0.93,2.85,2.85,0,0,1-.29-1.32,3.21,3.21,0,0,1,.42-1.69,3.56,3.56,0,0,1,1.08-1.14,4.83,4.83,0,0,1,1.47-.65,6.36,6.36,0,0,1,1.6-.21,7.76,7.76,0,0,1,2.42.39,5.23,5.23,0,0,1,2,1.16Z" transform="translate(-1111.77 -28.77)"/><path class="cls-3" d="M1173.62,358.94a2.22,2.22,0,0,0-.84-0.64,2.58,2.58,0,0,0-1.08-.24,2.28,2.28,0,0,0-1,.23,2.51,2.51,0,0,0-.79.62,2.89,2.89,0,0,0-.52.89,3.09,3.09,0,0,0-.19,1.08,3.25,3.25,0,0,0,.18,1.08,2.61,2.61,0,0,0,.52.89,2.47,2.47,0,0,0,.82.61,2.51,2.51,0,0,0,1.07.22,3,3,0,0,0,1.09-.21,2.09,2.09,0,0,0,.87-0.61l2,2.45a4.71,4.71,0,0,1-1.77,1,7,7,0,0,1-2.3.38,7.27,7.27,0,0,1-2.43-.4,5.65,5.65,0,0,1-2-1.16,5.45,5.45,0,0,1-1.31-1.84,6.47,6.47,0,0,1,0-4.88,5.44,5.44,0,0,1,1.31-1.84,5.79,5.79,0,0,1,2-1.17,7,7,0,0,1,2.41-.41,6.34,6.34,0,0,1,1.18.11,8,8,0,0,1,1.13.3,5.15,5.15,0,0,1,1,.46,4.23,4.23,0,0,1,.78.61Z" transform="translate(-1111.77 -28.77)"/><path class="cls-3" d="M1188.78,360.84a6,6,0,0,1-.49,2.44,5.47,5.47,0,0,1-1.32,1.85,6.07,6.07,0,0,1-1.94,1.18,6.83,6.83,0,0,1-4.71,0,5.88,5.88,0,0,1-1.94-1.18,5.54,5.54,0,0,1-1.31-1.85,5.92,5.92,0,0,1-.49-2.44,5.84,5.84,0,0,1,.49-2.43,5.46,5.46,0,0,1,1.31-1.83,5.7,5.7,0,0,1,1.94-1.15,7.2,7.2,0,0,1,4.71,0,5.88,5.88,0,0,1,1.94,1.15,5.39,5.39,0,0,1,1.32,1.83A5.87,5.87,0,0,1,1188.78,360.84Zm-3.49,0a3.16,3.16,0,0,0-.18-1,2.77,2.77,0,0,0-.51-0.89,2.58,2.58,0,0,0-.82-0.63,2.72,2.72,0,0,0-2.25,0,2.45,2.45,0,0,0-.8.63,2.72,2.72,0,0,0-.49.89,3.34,3.34,0,0,0,0,2.08,2.85,2.85,0,0,0,.5.92,2.43,2.43,0,0,0,.82.65,2.73,2.73,0,0,0,2.25,0,2.43,2.43,0,0,0,.82-0.65,2.85,2.85,0,0,0,.5-0.92A3.34,3.34,0,0,0,1185.29,360.84Z" transform="translate(-1111.77 -28.77)"/><path class="cls-3" d="M1197.55,358.63a4.08,4.08,0,0,0-1-.71,2.87,2.87,0,0,0-1.26-.29,2.21,2.21,0,0,0-.94.2,0.7,0.7,0,0,0-.43.68,0.68,0.68,0,0,0,.47.66,10.26,10.26,0,0,0,1.53.44,8.16,8.16,0,0,1,1.25.38,4.37,4.37,0,0,1,1.14.64,3.06,3.06,0,0,1,.82,1,2.84,2.84,0,0,1,.31,1.37,3.29,3.29,0,0,1-1.51,2.91,4.7,4.7,0,0,1-1.51.64,7.29,7.29,0,0,1-1.68.2,8.3,8.3,0,0,1-2.64-.43,5.55,5.55,0,0,1-2.15-1.27l2-2.14a4.05,4.05,0,0,0,1.19.88,3.32,3.32,0,0,0,1.5.35,2,2,0,0,0,.87-0.21,0.75,0.75,0,0,0,.43-0.74,0.79,0.79,0,0,0-.53-0.75,9.5,9.5,0,0,0-1.66-.51,8.63,8.63,0,0,1-1.15-.35,3.61,3.61,0,0,1-1-.6,3,3,0,0,1-.74-0.93,2.85,2.85,0,0,1-.29-1.32A3.21,3.21,0,0,1,1191,357a3.56,3.56,0,0,1,1.08-1.14,4.83,4.83,0,0,1,1.47-.65,6.36,6.36,0,0,1,1.6-.21,7.76,7.76,0,0,1,2.42.39,5.23,5.23,0,0,1,2,1.16Z" transform="translate(-1111.77 -28.77)"/><path class="cls-3" d="M1205.43,358.08v4.21a1.89,1.89,0,0,0,.3,1.16,1.27,1.27,0,0,0,1.07.39,3.83,3.83,0,0,0,.56,0,1.91,1.91,0,0,0,.5-0.13l0,2.65a5.86,5.86,0,0,1-.95.23,6.71,6.71,0,0,1-1.15.1,5.42,5.42,0,0,1-1.86-.28,2.87,2.87,0,0,1-1.2-.8,3.13,3.13,0,0,1-.65-1.24,6,6,0,0,1-.2-1.6v-4.65h-1.77v-2.69h1.74v-2.89h3.56v2.89H1208v2.69h-2.58Z" transform="translate(-1111.77 -28.77)"/><path class="cls-3" d="M1226.62,366.1a8.37,8.37,0,0,1-3.51.7,9.14,9.14,0,0,1-3.34-.6,7.72,7.72,0,0,1-4.43-4.3,9.17,9.17,0,0,1,0-6.76,7.57,7.57,0,0,1,1.8-2.59,8,8,0,0,1,2.69-1.64,9.65,9.65,0,0,1,6.59,0,6.24,6.24,0,0,1,2.59,1.71l-2.56,2.56a3.17,3.17,0,0,0-1.39-1.08,4.62,4.62,0,0,0-1.77-.35,4.48,4.48,0,0,0-1.82.36,4.27,4.27,0,0,0-1.42,1,4.57,4.57,0,0,0-.93,1.51,5.37,5.37,0,0,0-.33,1.91,5.53,5.53,0,0,0,.33,1.94A4.53,4.53,0,0,0,1220,362a4.11,4.11,0,0,0,1.4,1,4.44,4.44,0,0,0,1.79.35,4.16,4.16,0,0,0,2-.44,3.8,3.8,0,0,0,1.35-1.15l2.63,2.47A7.45,7.45,0,0,1,1226.62,366.1Z" transform="translate(-1111.77 -28.77)"/><path class="cls-3" d="M1230,356.89a6.36,6.36,0,0,1,2.26-1.39,7.75,7.75,0,0,1,2.64-.46,7.05,7.05,0,0,1,2.35.34,3.5,3.5,0,0,1,1.56,1.06,4.51,4.51,0,0,1,.87,1.81,10.73,10.73,0,0,1,.27,2.59v5.54h-3.31v-1.17h-0.07a2.71,2.71,0,0,1-1.27,1.06,4.51,4.51,0,0,1-1.84.38,5.64,5.64,0,0,1-1.37-.18,4,4,0,0,1-1.29-.57,3.13,3.13,0,0,1-1-1.06,3.28,3.28,0,0,1-.37-1.63,2.77,2.77,0,0,1,.65-1.92,4.26,4.26,0,0,1,1.68-1.13,8.88,8.88,0,0,1,2.29-.53,23.23,23.23,0,0,1,2.45-.13v-0.18a1.35,1.35,0,0,0-.57-1.2,2.48,2.48,0,0,0-1.41-.39,3.52,3.52,0,0,0-1.49.33,4.79,4.79,0,0,0-1.23.79Zm6.65,4.7h-0.46q-0.6,0-1.2.05a5,5,0,0,0-1.08.21,2,2,0,0,0-.78.45,1,1,0,0,0-.31.78,0.94,0.94,0,0,0,.14.53,1.1,1.1,0,0,0,.36.35,1.52,1.52,0,0,0,.51.19,2.93,2.93,0,0,0,.55.06,2.23,2.23,0,0,0,1.69-.61,2.27,2.27,0,0,0,.59-1.64v-0.38Z" transform="translate(-1111.77 -28.77)"/><path class="cls-3" d="M1242.74,366.38V349.69h3.69v16.69h-3.69Z" transform="translate(-1111.77 -28.77)"/><path class="cls-3" d="M1253.2,351.87a1.88,1.88,0,0,1-.17.78,2,2,0,0,1-1.1,1,2.14,2.14,0,0,1-.8.15,2,2,0,0,1-1.48-.58,2,2,0,0,1-.44-2.16,1.81,1.81,0,0,1,.44-0.63,2.43,2.43,0,0,1,.66-0.43,2,2,0,0,1,.82-0.17,2.14,2.14,0,0,1,.8.15,2,2,0,0,1,1.1,1A1.89,1.89,0,0,1,1253.2,351.87Zm-3.89,14.5v-11h3.62v11h-3.62Z" transform="translate(-1111.77 -28.77)"/><path class="cls-3" d="M1262.62,352.36a3,3,0,0,0-.46-0.11,3.28,3.28,0,0,0-.53,0,1.63,1.63,0,0,0-.82.18,1.31,1.31,0,0,0-.49.47,2,2,0,0,0-.24.67,4.42,4.42,0,0,0-.07.75v1.1h2.45v2.69H1260v8.3h-3.62v-8.3h-2v-2.69h2v-1.06a8.22,8.22,0,0,1,.22-1.93,4.18,4.18,0,0,1,.76-1.61,3.73,3.73,0,0,1,1.46-1.1,5.62,5.62,0,0,1,2.29-.41,7.56,7.56,0,0,1,.92.05,5.27,5.27,0,0,1,.83.17Z" transform="translate(-1111.77 -28.77)"/><path class="cls-3" d="M1275.49,360.84a6,6,0,0,1-.49,2.44,5.47,5.47,0,0,1-1.32,1.85,6.07,6.07,0,0,1-1.94,1.18,6.83,6.83,0,0,1-4.71,0,5.88,5.88,0,0,1-1.94-1.18,5.54,5.54,0,0,1-1.31-1.85,5.92,5.92,0,0,1-.49-2.44,5.84,5.84,0,0,1,.49-2.43,5.46,5.46,0,0,1,1.31-1.83,5.7,5.7,0,0,1,1.94-1.15,7.2,7.2,0,0,1,4.71,0,5.88,5.88,0,0,1,1.94,1.15,5.39,5.39,0,0,1,1.32,1.83A5.87,5.87,0,0,1,1275.49,360.84Zm-3.49,0a3.16,3.16,0,0,0-.18-1,2.77,2.77,0,0,0-.51-0.89,2.58,2.58,0,0,0-.82-0.63,2.72,2.72,0,0,0-2.25,0,2.45,2.45,0,0,0-.8.63,2.72,2.72,0,0,0-.49.89,3.34,3.34,0,0,0,0,2.08,2.85,2.85,0,0,0,.5.92,2.43,2.43,0,0,0,.82.65,2.73,2.73,0,0,0,2.25,0,2.43,2.43,0,0,0,.82-0.65,2.85,2.85,0,0,0,.5-0.92A3.34,3.34,0,0,0,1272,360.84Z" transform="translate(-1111.77 -28.77)"/><path class="cls-3" d="M1284.92,358.36a2.79,2.79,0,0,0-.47-0.09l-0.45,0a2.59,2.59,0,0,0-1.23.26,2.5,2.5,0,0,0-.79.64,2.43,2.43,0,0,0-.43.81,2.73,2.73,0,0,0-.13.77v5.64h-3.62v-11h3.49V357h0a3.57,3.57,0,0,1,1.19-1.38,3.07,3.07,0,0,1,1.79-.53l0.43,0a1.67,1.67,0,0,1,.34.07Z" transform="translate(-1111.77 -28.77)"/><path class="cls-3" d="M1293.75,366.38v-6a5,5,0,0,0-.08-0.88,2.43,2.43,0,0,0-.26-0.74,1.32,1.32,0,0,0-.5-0.51,1.58,1.58,0,0,0-.81-0.19,1.83,1.83,0,0,0-.85.19,1.72,1.72,0,0,0-.61.52,2.33,2.33,0,0,0-.36.76,3.21,3.21,0,0,0-.12.89v6h-3.64v-11H1290v1.52h0a3.64,3.64,0,0,1,.52-0.7,3.12,3.12,0,0,1,.75-0.59,4.7,4.7,0,0,1,.94-0.4,3.71,3.71,0,0,1,1.08-.15,4.08,4.08,0,0,1,1.88.4,3.58,3.58,0,0,1,1.25,1,4,4,0,0,1,.68,1.45,6.53,6.53,0,0,1,.21,1.63v6.8h-3.64Z" transform="translate(-1111.77 -28.77)"/><path class="cls-3" d="M1304.06,351.87a1.88,1.88,0,0,1-.17.78,2,2,0,0,1-1.1,1,2.14,2.14,0,0,1-.8.15,2,2,0,0,1-1.48-.58,2,2,0,0,1-.44-2.16,1.81,1.81,0,0,1,.44-0.63,2.43,2.43,0,0,1,.66-0.43,2,2,0,0,1,.82-0.17,2.14,2.14,0,0,1,.8.15,2,2,0,0,1,1.1,1A1.89,1.89,0,0,1,1304.06,351.87Zm-3.89,14.5v-11h3.62v11h-3.62Z" transform="translate(-1111.77 -28.77)"/><path class="cls-3" d="M1306.51,356.89a6.36,6.36,0,0,1,2.26-1.39,7.75,7.75,0,0,1,2.64-.46,7.05,7.05,0,0,1,2.35.34,3.5,3.5,0,0,1,1.56,1.06,4.51,4.51,0,0,1,.87,1.81,10.73,10.73,0,0,1,.27,2.59v5.54h-3.31v-1.17h-0.07a2.71,2.71,0,0,1-1.27,1.06,4.51,4.51,0,0,1-1.84.38,5.64,5.64,0,0,1-1.37-.18,4,4,0,0,1-1.29-.57,3.13,3.13,0,0,1-1-1.06,3.28,3.28,0,0,1-.37-1.63,2.77,2.77,0,0,1,.65-1.92,4.26,4.26,0,0,1,1.68-1.13,8.88,8.88,0,0,1,2.29-.53,23.23,23.23,0,0,1,2.45-.13v-0.18a1.35,1.35,0,0,0-.57-1.2,2.48,2.48,0,0,0-1.41-.39,3.52,3.52,0,0,0-1.49.33,4.79,4.79,0,0,0-1.23.79Zm6.65,4.7h-0.46q-0.6,0-1.2.05a5,5,0,0,0-1.08.21,2,2,0,0,0-.78.45,1,1,0,0,0-.31.78,0.94,0.94,0,0,0,.14.53,1.1,1.1,0,0,0,.36.35,1.52,1.52,0,0,0,.51.19,2.93,2.93,0,0,0,.55.06,2.23,2.23,0,0,0,1.69-.61,2.27,2.27,0,0,0,.59-1.64v-0.38Z" transform="translate(-1111.77 -28.77)"/><path class="cls-3" d="M1328.61,351.87a1.88,1.88,0,0,1-.17.78,2,2,0,0,1-1.1,1,2.14,2.14,0,0,1-.8.15,2,2,0,0,1-1.48-.58,2,2,0,0,1-.44-2.16,1.81,1.81,0,0,1,.44-0.63,2.43,2.43,0,0,1,.66-0.43,2,2,0,0,1,.82-0.17,2.14,2.14,0,0,1,.8.15,2,2,0,0,1,1.1,1A1.89,1.89,0,0,1,1328.61,351.87Zm-3.89,14.5v-11h3.62v11h-3.62Z" transform="translate(-1111.77 -28.77)"/><path class="cls-3" d="M1338.43,366.38v-6a5,5,0,0,0-.08-0.88,2.43,2.43,0,0,0-.26-0.74,1.32,1.32,0,0,0-.5-0.51,1.58,1.58,0,0,0-.81-0.19,1.83,1.83,0,0,0-.85.19,1.72,1.72,0,0,0-.61.52,2.33,2.33,0,0,0-.36.76,3.21,3.21,0,0,0-.12.89v6h-3.64v-11h3.51v1.52h0a3.64,3.64,0,0,1,.52-0.7,3.12,3.12,0,0,1,.75-0.59,4.7,4.7,0,0,1,.94-0.4,3.71,3.71,0,0,1,1.08-.15,4.08,4.08,0,0,1,1.88.4,3.58,3.58,0,0,1,1.25,1,4,4,0,0,1,.68,1.45,6.53,6.53,0,0,1,.21,1.63v6.8h-3.64Z" transform="translate(-1111.77 -28.77)"/><path class="cls-3" d="M1358.6,363a5.28,5.28,0,0,1-.77,1.87,4.34,4.34,0,0,1-1.57,1.4,5.37,5.37,0,0,1-2.59.55,5.24,5.24,0,0,1-3.31-1,4.9,4.9,0,0,1-1.77-2.64l3.33-1.13a1.94,1.94,0,0,0,.56,1,1.43,1.43,0,0,0,1,.38,1.21,1.21,0,0,0,1.23-.64,4,4,0,0,0,.3-1.68V350.75h3.8V361A9.57,9.57,0,0,1,1358.6,363Z" transform="translate(-1111.77 -28.77)"/><path class="cls-3" d="M1369,366.38v-1.52h0a3.11,3.11,0,0,1-.52.71,3.28,3.28,0,0,1-.75.57,4.62,4.62,0,0,1-1,.4,3.82,3.82,0,0,1-1.09.15,4,4,0,0,1-1.86-.4,3.6,3.6,0,0,1-1.24-1,4,4,0,0,1-.68-1.44,6.48,6.48,0,0,1-.21-1.64v-6.8h3.64v6a5.79,5.79,0,0,0,.06.88,2.2,2.2,0,0,0,.26.75,1.39,1.39,0,0,0,.5.52,1.56,1.56,0,0,0,.82.19,1.66,1.66,0,0,0,1.45-.71,2.81,2.81,0,0,0,.5-1.66v-5.94h3.62v11H1369Z" transform="translate(-1111.77 -28.77)"/><path class="cls-3" d="M1382.1,366.38h-3.91l-4.33-11h4l2.32,7.13h0.07l2.32-7.13h3.86Z" transform="translate(-1111.77 -28.77)"/><path class="cls-3" d="M1398.72,361v0.44a3.85,3.85,0,0,1,0,.42h-8a1.93,1.93,0,0,0,.28.84,2.37,2.37,0,0,0,.6.65,2.91,2.91,0,0,0,1.76.59,3,3,0,0,0,1.46-.32,2.87,2.87,0,0,0,1-.83l2.52,1.59a5.09,5.09,0,0,1-2,1.73,6.76,6.76,0,0,1-2.95.61,7,7,0,0,1-2.34-.39,5.68,5.68,0,0,1-1.93-1.13,5.22,5.22,0,0,1-1.3-1.82,6.1,6.1,0,0,1-.47-2.47,6.19,6.19,0,0,1,.46-2.44,5.51,5.51,0,0,1,1.26-1.85,5.6,5.6,0,0,1,1.88-1.18,6.42,6.42,0,0,1,2.34-.42,5.93,5.93,0,0,1,2.23.41,4.88,4.88,0,0,1,1.74,1.18,5.45,5.45,0,0,1,1.14,1.88A7.21,7.21,0,0,1,1398.72,361Zm-3.33-1.39a2.17,2.17,0,0,0-.54-1.48,2,2,0,0,0-1.62-.62,2.75,2.75,0,0,0-1,.17,2.52,2.52,0,0,0-.77.45,2.24,2.24,0,0,0-.53.67,2,2,0,0,0-.22.81h4.66Z" transform="translate(-1111.77 -28.77)"/><path class="cls-3" d="M1408.2,366.38v-6a5,5,0,0,0-.08-0.88,2.43,2.43,0,0,0-.26-0.74,1.32,1.32,0,0,0-.5-0.51,1.58,1.58,0,0,0-.81-0.19,1.83,1.83,0,0,0-.85.19,1.72,1.72,0,0,0-.61.52,2.33,2.33,0,0,0-.36.76,3.21,3.21,0,0,0-.12.89v6H1401v-11h3.51v1.52h0a3.64,3.64,0,0,1,.52-0.7,3.12,3.12,0,0,1,.75-0.59,4.7,4.7,0,0,1,.94-0.4,3.71,3.71,0,0,1,1.08-.15,4.08,4.08,0,0,1,1.88.4,3.58,3.58,0,0,1,1.25,1,4,4,0,0,1,.68,1.45,6.53,6.53,0,0,1,.21,1.63v6.8h-3.64Z" transform="translate(-1111.77 -28.77)"/><path class="cls-3" d="M1418.5,351.87a1.88,1.88,0,0,1-.17.78,2,2,0,0,1-1.1,1,2.14,2.14,0,0,1-.8.15,2,2,0,0,1-1.48-.58,2,2,0,0,1-.44-2.16,1.81,1.81,0,0,1,.44-0.63,2.43,2.43,0,0,1,.66-0.43,2,2,0,0,1,.82-0.17,2.14,2.14,0,0,1,.8.15,2,2,0,0,1,1.1,1A1.89,1.89,0,0,1,1418.5,351.87Zm-3.89,14.5v-11h3.62v11h-3.62Z" transform="translate(-1111.77 -28.77)"/><path class="cls-3" d="M1421.15,366.38V349.69h3.69v16.69h-3.69Z" transform="translate(-1111.77 -28.77)"/><path class="cls-3" d="M1438.59,361v0.44a3.85,3.85,0,0,1,0,.42h-8a1.93,1.93,0,0,0,.28.84,2.37,2.37,0,0,0,.6.65,2.91,2.91,0,0,0,1.76.59,3,3,0,0,0,1.46-.32,2.87,2.87,0,0,0,1-.83l2.52,1.59a5.09,5.09,0,0,1-2,1.73,6.76,6.76,0,0,1-2.95.61,7,7,0,0,1-2.34-.39,5.68,5.68,0,0,1-1.93-1.13,5.22,5.22,0,0,1-1.3-1.82,6.1,6.1,0,0,1-.47-2.47,6.19,6.19,0,0,1,.46-2.44,5.51,5.51,0,0,1,1.26-1.85,5.6,5.6,0,0,1,1.88-1.18,6.42,6.42,0,0,1,2.34-.42,5.93,5.93,0,0,1,2.23.41,4.88,4.88,0,0,1,1.74,1.18,5.45,5.45,0,0,1,1.14,1.88A7.21,7.21,0,0,1,1438.59,361Zm-3.33-1.39a2.17,2.17,0,0,0-.54-1.48,2,2,0,0,0-1.62-.62,2.75,2.75,0,0,0-1,.17,2.52,2.52,0,0,0-.77.45,2.24,2.24,0,0,0-.53.67,2,2,0,0,0-.22.81h4.66Z" transform="translate(-1111.77 -28.77)"/><path class="cls-3" d="M1457.75,366.1a8.37,8.37,0,0,1-3.51.7,9.14,9.14,0,0,1-3.34-.6,7.72,7.72,0,0,1-4.43-4.3,9.17,9.17,0,0,1,0-6.76,7.57,7.57,0,0,1,1.8-2.59,8,8,0,0,1,2.69-1.64,9.65,9.65,0,0,1,6.59,0,6.24,6.24,0,0,1,2.59,1.71l-2.56,2.56a3.17,3.17,0,0,0-1.39-1.08,4.62,4.62,0,0,0-1.77-.35,4.48,4.48,0,0,0-1.82.36,4.27,4.27,0,0,0-1.42,1,4.57,4.57,0,0,0-.93,1.51,5.37,5.37,0,0,0-.33,1.91,5.53,5.53,0,0,0,.33,1.94,4.53,4.53,0,0,0,.92,1.51,4.11,4.11,0,0,0,1.4,1,4.44,4.44,0,0,0,1.79.35,4.16,4.16,0,0,0,2-.44,3.8,3.8,0,0,0,1.35-1.15l2.63,2.47A7.45,7.45,0,0,1,1457.75,366.1Z" transform="translate(-1111.77 -28.77)"/><path class="cls-3" d="M1468.86,358.36a2.79,2.79,0,0,0-.47-0.09l-0.45,0a2.59,2.59,0,0,0-1.23.26,2.5,2.5,0,0,0-.79.64,2.43,2.43,0,0,0-.43.81,2.73,2.73,0,0,0-.13.77v5.64h-3.62v-11h3.49V357h0a3.57,3.57,0,0,1,1.19-1.38,3.07,3.07,0,0,1,1.79-.53l0.43,0a1.67,1.67,0,0,1,.34.07Z" transform="translate(-1111.77 -28.77)"/><path class="cls-3" d="M1474.4,351.87a1.88,1.88,0,0,1-.17.78,2,2,0,0,1-1.1,1,2.14,2.14,0,0,1-.8.15,2,2,0,0,1-1.48-.58,2,2,0,0,1-.44-2.16,1.81,1.81,0,0,1,.44-0.63,2.43,2.43,0,0,1,.66-0.43,2,2,0,0,1,.82-0.17,2.14,2.14,0,0,1,.8.15,2,2,0,0,1,1.1,1A1.89,1.89,0,0,1,1474.4,351.87Zm-3.89,14.5v-11h3.62v11h-3.62Z" transform="translate(-1111.77 -28.77)"/><path class="cls-3" d="M1491,366.38v-6a6,6,0,0,0-.07-0.89,2.17,2.17,0,0,0-.24-0.74,1.39,1.39,0,0,0-.48-0.5,1.45,1.45,0,0,0-.78-0.19,1.58,1.58,0,0,0-.8.2,1.79,1.79,0,0,0-.57.53,2.32,2.32,0,0,0-.34.76,3.58,3.58,0,0,0-.11.89v5.94H1484v-6.27a2.64,2.64,0,0,0-.38-1.5,1.34,1.34,0,0,0-1.19-.55,1.53,1.53,0,0,0-1.34.68,2.87,2.87,0,0,0-.47,1.68v6H1477v-11h3.51v1.52h0a3.93,3.93,0,0,1,.5-0.68,3.14,3.14,0,0,1,.72-0.58,3.95,3.95,0,0,1,2.08-.56,3.93,3.93,0,0,1,2,.49,3.33,3.33,0,0,1,1.29,1.39,4.2,4.2,0,0,1,1.41-1.37,4.07,4.07,0,0,1,2.1-.51,4,4,0,0,1,1.89.41,3.51,3.51,0,0,1,1.23,1.06,4.42,4.42,0,0,1,.67,1.46,6.25,6.25,0,0,1,.21,1.58v6.8H1491Z" transform="translate(-1111.77 -28.77)"/><path class="cls-3" d="M1508.31,361v0.44a3.85,3.85,0,0,1,0,.42h-8a1.93,1.93,0,0,0,.28.84,2.37,2.37,0,0,0,.6.65,2.91,2.91,0,0,0,1.76.59,3,3,0,0,0,1.46-.32,2.87,2.87,0,0,0,1-.83l2.52,1.59a5.09,5.09,0,0,1-2,1.73,6.76,6.76,0,0,1-2.95.61,7,7,0,0,1-2.34-.39,5.68,5.68,0,0,1-1.93-1.13,5.22,5.22,0,0,1-1.3-1.82,6.1,6.1,0,0,1-.47-2.47,6.19,6.19,0,0,1,.46-2.44,5.51,5.51,0,0,1,1.26-1.85,5.6,5.6,0,0,1,1.88-1.18,6.42,6.42,0,0,1,2.34-.42,5.93,5.93,0,0,1,2.23.41,4.88,4.88,0,0,1,1.74,1.18,5.45,5.45,0,0,1,1.14,1.88A7.21,7.21,0,0,1,1508.31,361Zm-3.33-1.39a2.17,2.17,0,0,0-.54-1.48,2,2,0,0,0-1.62-.62,2.75,2.75,0,0,0-1,.17,2.52,2.52,0,0,0-.77.45,2.24,2.24,0,0,0-.53.67,2,2,0,0,0-.22.81H1505Z" transform="translate(-1111.77 -28.77)"/></svg>