<svg id="Layer_1" data-name="Layer 1" xmlns="http://www.w3.org/2000/svg" viewBox="0 0 442.45 442.45"><defs><style>.cls-1{fill:#e0e0e0;}.cls-2{fill:#2f2f2f;}.cls-3{fill:#4474b8;}</style></defs><title>46billion</title><circle class="cls-1" cx="221.23" cy="221.23" r="221.23"/><path class="cls-2" d="M680.86,323.31v13.41h-4.08V323.31H672v-3.48h13.63v3.48h-4.77Z" transform="translate(-579.77 -28.77)"/><path class="cls-2" d="M694.69,336.73v-6.45a6,6,0,0,0-.07-1,2.31,2.31,0,0,0-.27-0.8,1.55,1.55,0,0,0-.54-0.55,1.64,1.64,0,0,0-.86-0.2,1.85,1.85,0,0,0-1.58.73,2.9,2.9,0,0,0-.55,1.8v6.42H686.9v-18h3.91v7.66h0a3.73,3.73,0,0,1,1.29-1.28,3.88,3.88,0,0,1,2.13-.56,4.39,4.39,0,0,1,2,.43,3.93,3.93,0,0,1,1.34,1.11,4.38,4.38,0,0,1,.74,1.56,7.15,7.15,0,0,1,.23,1.77v7.35h-3.94Z" transform="translate(-579.77 -28.77)"/><path class="cls-2" d="M713.38,330.93v0.48a4.17,4.17,0,0,1,0,.45h-8.62a2.09,2.09,0,0,0,.3.91,2.57,2.57,0,0,0,.64.7,3.15,3.15,0,0,0,1.9.63,3.29,3.29,0,0,0,1.58-.35,3.1,3.1,0,0,0,1-.89l2.72,1.72a5.5,5.5,0,0,1-2.21,1.87,7.31,7.31,0,0,1-3.19.66,7.58,7.58,0,0,1-2.53-.42,6.14,6.14,0,0,1-2.09-1.22,5.64,5.64,0,0,1-1.41-2,6.59,6.59,0,0,1-.51-2.67,6.69,6.69,0,0,1,.5-2.64,6,6,0,0,1,1.36-2,6.06,6.06,0,0,1,2-1.28,7,7,0,0,1,2.53-.45,6.41,6.41,0,0,1,2.41.44,5.28,5.28,0,0,1,1.89,1.28,5.9,5.9,0,0,1,1.23,2A7.79,7.79,0,0,1,713.38,330.93Zm-3.61-1.5a2.35,2.35,0,0,0-.58-1.6,2.21,2.21,0,0,0-1.75-.67,3,3,0,0,0-1.05.18,2.72,2.72,0,0,0-.84.49,2.42,2.42,0,0,0-.57.73,2.18,2.18,0,0,0-.24.87h5Z" transform="translate(-579.77 -28.77)"/><path class="cls-2" d="M721.61,326.46a6.87,6.87,0,0,1,2.45-1.5,8.38,8.38,0,0,1,2.85-.5,7.63,7.63,0,0,1,2.54.37,3.78,3.78,0,0,1,1.68,1.15,4.88,4.88,0,0,1,.94,2,11.6,11.6,0,0,1,.3,2.8v6h-3.58v-1.27h-0.07a2.93,2.93,0,0,1-1.37,1.15,4.88,4.88,0,0,1-2,.41,6.1,6.1,0,0,1-1.48-.19,4.33,4.33,0,0,1-1.4-.62,3.38,3.38,0,0,1-1-1.15,3.54,3.54,0,0,1-.4-1.77,3,3,0,0,1,.7-2.08,4.61,4.61,0,0,1,1.81-1.22,9.6,9.6,0,0,1,2.47-.57,25.12,25.12,0,0,1,2.65-.14v-0.19a1.46,1.46,0,0,0-.62-1.3,2.68,2.68,0,0,0-1.53-.42,3.8,3.8,0,0,0-1.61.36,5.18,5.18,0,0,0-1.32.86Zm7.19,5.08h-0.5q-0.64,0-1.3.06a5.39,5.39,0,0,0-1.17.23,2.17,2.17,0,0,0-.85.49,1.12,1.12,0,0,0-.33.85,1,1,0,0,0,.16.57,1.19,1.19,0,0,0,.39.38,1.64,1.64,0,0,0,.55.2,3.17,3.17,0,0,0,.6.06,2.42,2.42,0,0,0,1.83-.66,2.46,2.46,0,0,0,.63-1.78v-0.41Z" transform="translate(-579.77 -28.77)"/><path class="cls-2" d="M750.47,336.73v-6.49a6.49,6.49,0,0,0-.07-1,2.35,2.35,0,0,0-.26-0.8,1.51,1.51,0,0,0-.51-0.54,1.57,1.57,0,0,0-.85-0.2,1.71,1.71,0,0,0-.87.21,1.93,1.93,0,0,0-.62.57,2.51,2.51,0,0,0-.37.82,3.87,3.87,0,0,0-.12,1v6.42h-3.91v-6.78a2.85,2.85,0,0,0-.41-1.62,1.45,1.45,0,0,0-1.29-.6,1.66,1.66,0,0,0-1.45.74,3.11,3.11,0,0,0-.51,1.81v6.45h-3.94V324.84h3.8v1.65h0a4.24,4.24,0,0,1,.54-0.74,3.4,3.4,0,0,1,.78-0.63,4.27,4.27,0,0,1,2.24-.61,4.25,4.25,0,0,1,2.18.53,3.6,3.6,0,0,1,1.4,1.5,4.54,4.54,0,0,1,1.53-1.48,4.41,4.41,0,0,1,2.27-.55,4.28,4.28,0,0,1,2,.44,3.79,3.79,0,0,1,1.32,1.15,4.78,4.78,0,0,1,.73,1.58,6.75,6.75,0,0,1,.23,1.71v7.35h-3.91Z" transform="translate(-579.77 -28.77)"/><path class="cls-2" d="M769.94,330.73a6.43,6.43,0,0,1-.52,2.64,5.91,5.91,0,0,1-1.43,2,6.56,6.56,0,0,1-2.1,1.28,7.39,7.39,0,0,1-5.1,0,6.36,6.36,0,0,1-2.1-1.28,6,6,0,0,1-1.42-2,6.4,6.4,0,0,1-.53-2.64,6.32,6.32,0,0,1,.53-2.63,5.9,5.9,0,0,1,1.42-2,6.17,6.17,0,0,1,2.1-1.24,7.78,7.78,0,0,1,5.1,0,6.36,6.36,0,0,1,2.1,1.24,5.83,5.83,0,0,1,1.43,2A6.35,6.35,0,0,1,769.94,330.73Zm-3.77,0a3.42,3.42,0,0,0-.19-1.12,3,3,0,0,0-.55-1,2.79,2.79,0,0,0-.88-0.68,2.95,2.95,0,0,0-2.43,0,2.65,2.65,0,0,0-.87.68,2.94,2.94,0,0,0-.53,1,3.61,3.61,0,0,0,0,2.24,3.08,3.08,0,0,0,.54,1,2.63,2.63,0,0,0,.88.7,2.95,2.95,0,0,0,2.44,0,2.63,2.63,0,0,0,.88-0.7,3.08,3.08,0,0,0,.54-1A3.61,3.61,0,0,0,766.17,330.73Z" transform="translate(-579.77 -28.77)"/><path class="cls-2" d="M780.26,336.73v-1.65h0a3.36,3.36,0,0,1-.56.76,3.55,3.55,0,0,1-.81.62,5,5,0,0,1-1,.43,4.13,4.13,0,0,1-1.18.17,4.31,4.31,0,0,1-2-.43,3.9,3.9,0,0,1-1.34-1.11,4.32,4.32,0,0,1-.74-1.55,7,7,0,0,1-.23-1.78v-7.35h3.94v6.45a6.26,6.26,0,0,0,.07,1,2.38,2.38,0,0,0,.28.81,1.5,1.5,0,0,0,.54.56,1.69,1.69,0,0,0,.88.2,1.79,1.79,0,0,0,1.56-.76,3,3,0,0,0,.54-1.79v-6.42H784v11.89h-3.77Z" transform="translate(-579.77 -28.77)"/><path class="cls-2" d="M794.89,336.73v-6.49a5.39,5.39,0,0,0-.08-1,2.63,2.63,0,0,0-.28-0.8,1.43,1.43,0,0,0-.54-0.55,1.71,1.71,0,0,0-.87-0.2,2,2,0,0,0-.92.2,1.86,1.86,0,0,0-.66.56,2.52,2.52,0,0,0-.39.82,3.48,3.48,0,0,0-.13,1v6.45h-3.94V324.84h3.8v1.65h0a3.94,3.94,0,0,1,.56-0.75,3.38,3.38,0,0,1,.81-0.63,5.08,5.08,0,0,1,1-.43,4,4,0,0,1,1.17-.17,4.41,4.41,0,0,1,2,.43,3.87,3.87,0,0,1,1.35,1.11,4.35,4.35,0,0,1,.74,1.56,7.07,7.07,0,0,1,.23,1.77v7.35h-3.94Z" transform="translate(-579.77 -28.77)"/><path class="cls-2" d="M806,327.75v4.55a2,2,0,0,0,.32,1.26,1.38,1.38,0,0,0,1.16.42,4.14,4.14,0,0,0,.61,0,2.07,2.07,0,0,0,.54-0.14l0,2.86a6.34,6.34,0,0,1-1,.25,7.26,7.26,0,0,1-1.24.11,5.86,5.86,0,0,1-2-.3,3.11,3.11,0,0,1-1.3-.86,3.39,3.39,0,0,1-.71-1.34,6.49,6.49,0,0,1-.21-1.73v-5h-1.91v-2.91h1.88v-3.13H806v3.13h2.79v2.91H806Z" transform="translate(-579.77 -28.77)"/><path class="cls-2" d="M828.43,330.93v0.48a4.17,4.17,0,0,1,0,.45h-8.62a2.09,2.09,0,0,0,.3.91,2.57,2.57,0,0,0,.64.7,3.15,3.15,0,0,0,1.9.63,3.29,3.29,0,0,0,1.58-.35,3.1,3.1,0,0,0,1-.89l2.72,1.72a5.5,5.5,0,0,1-2.21,1.87,7.31,7.31,0,0,1-3.19.66,7.58,7.58,0,0,1-2.53-.42,6.14,6.14,0,0,1-2.09-1.22,5.64,5.64,0,0,1-1.41-2,6.59,6.59,0,0,1-.51-2.67,6.69,6.69,0,0,1,.5-2.64,6,6,0,0,1,1.36-2,6.06,6.06,0,0,1,2-1.28,7,7,0,0,1,2.53-.45,6.41,6.41,0,0,1,2.41.44,5.28,5.28,0,0,1,1.89,1.28,5.9,5.9,0,0,1,1.23,2A7.79,7.79,0,0,1,828.43,330.93Zm-3.61-1.5a2.35,2.35,0,0,0-.58-1.6,2.21,2.21,0,0,0-1.75-.67,3,3,0,0,0-1.05.18,2.72,2.72,0,0,0-.84.49,2.42,2.42,0,0,0-.57.73,2.18,2.18,0,0,0-.24.87h5Z" transform="translate(-579.77 -28.77)"/><path class="cls-2" d="M830.55,326.46A6.87,6.87,0,0,1,833,325a8.38,8.38,0,0,1,2.85-.5,7.63,7.63,0,0,1,2.54.37,3.78,3.78,0,0,1,1.68,1.15,4.88,4.88,0,0,1,.94,2,11.6,11.6,0,0,1,.3,2.8v6h-3.58v-1.27h-0.07a2.93,2.93,0,0,1-1.37,1.15,4.88,4.88,0,0,1-2,.41,6.1,6.1,0,0,1-1.48-.19,4.33,4.33,0,0,1-1.4-.62,3.38,3.38,0,0,1-1-1.15,3.54,3.54,0,0,1-.4-1.77,3,3,0,0,1,.7-2.08,4.61,4.61,0,0,1,1.81-1.22,9.6,9.6,0,0,1,2.47-.57,25.12,25.12,0,0,1,2.65-.14v-0.19a1.46,1.46,0,0,0-.62-1.3,2.68,2.68,0,0,0-1.53-.42,3.8,3.8,0,0,0-1.61.36,5.18,5.18,0,0,0-1.32.86Zm7.19,5.08h-0.5q-0.64,0-1.3.06a5.39,5.39,0,0,0-1.17.23,2.17,2.17,0,0,0-.85.49,1.12,1.12,0,0,0-.33.85,1,1,0,0,0,.16.57,1.19,1.19,0,0,0,.39.38,1.64,1.64,0,0,0,.55.2,3.17,3.17,0,0,0,.6.06,2.42,2.42,0,0,0,1.83-.66,2.46,2.46,0,0,0,.63-1.78v-0.41Z" transform="translate(-579.77 -28.77)"/><path class="cls-2" d="M852.44,328.68a2.4,2.4,0,0,0-.91-0.69,2.79,2.79,0,0,0-1.17-.26,2.47,2.47,0,0,0-1.12.25,2.71,2.71,0,0,0-.86.67,3.13,3.13,0,0,0-.56,1,3.34,3.34,0,0,0-.2,1.17,3.51,3.51,0,0,0,.19,1.17,2.83,2.83,0,0,0,.56,1,2.68,2.68,0,0,0,.88.66,2.71,2.71,0,0,0,1.16.24,3.24,3.24,0,0,0,1.18-.23,2.26,2.26,0,0,0,.94-0.66l2.17,2.65a5.1,5.1,0,0,1-1.91,1.12,7.52,7.52,0,0,1-2.48.41,7.86,7.86,0,0,1-2.63-.43,6.11,6.11,0,0,1-2.12-1.25,5.89,5.89,0,0,1-1.42-2,7,7,0,0,1,0-5.28,5.88,5.88,0,0,1,1.42-2,6.26,6.26,0,0,1,2.12-1.26,7.61,7.61,0,0,1,2.61-.44,6.86,6.86,0,0,1,1.28.12,8.62,8.62,0,0,1,1.22.32,5.57,5.57,0,0,1,1.07.5,4.58,4.58,0,0,1,.85.66Z" transform="translate(-579.77 -28.77)"/><path class="cls-2" d="M864.06,336.73v-6.45a6,6,0,0,0-.07-1,2.31,2.31,0,0,0-.27-0.8,1.55,1.55,0,0,0-.54-0.55,1.64,1.64,0,0,0-.86-0.2,1.85,1.85,0,0,0-1.58.73,2.9,2.9,0,0,0-.55,1.8v6.42h-3.91v-18h3.91v7.66h0a3.73,3.73,0,0,1,1.29-1.28,3.88,3.88,0,0,1,2.13-.56,4.39,4.39,0,0,1,2,.43A3.93,3.93,0,0,1,867,326a4.38,4.38,0,0,1,.74,1.56,7.15,7.15,0,0,1,.23,1.77v7.35h-3.94Z" transform="translate(-579.77 -28.77)"/><path class="cls-2" d="M885.14,328.68a2.4,2.4,0,0,0-.91-0.69,2.79,2.79,0,0,0-1.17-.26,2.47,2.47,0,0,0-1.12.25,2.71,2.71,0,0,0-.86.67,3.13,3.13,0,0,0-.56,1,3.34,3.34,0,0,0-.2,1.17,3.51,3.51,0,0,0,.19,1.17,2.83,2.83,0,0,0,.56,1,2.68,2.68,0,0,0,.88.66,2.71,2.71,0,0,0,1.16.24,3.24,3.24,0,0,0,1.18-.23,2.26,2.26,0,0,0,.94-0.66l2.17,2.65a5.1,5.1,0,0,1-1.91,1.12,7.52,7.52,0,0,1-2.48.41,7.86,7.86,0,0,1-2.63-.43,6.11,6.11,0,0,1-2.12-1.25,5.89,5.89,0,0,1-1.42-2,7,7,0,0,1,0-5.28,5.88,5.88,0,0,1,1.42-2,6.26,6.26,0,0,1,2.12-1.26,7.61,7.61,0,0,1,2.61-.44,6.86,6.86,0,0,1,1.28.12,8.62,8.62,0,0,1,1.22.32,5.57,5.57,0,0,1,1.07.5,4.58,4.58,0,0,1,.85.66Z" transform="translate(-579.77 -28.77)"/><path class="cls-2" d="M889,336.73v-18h4v18h-4Z" transform="translate(-579.77 -28.77)"/><path class="cls-2" d="M895.88,326.46a6.87,6.87,0,0,1,2.45-1.5,8.38,8.38,0,0,1,2.85-.5,7.63,7.63,0,0,1,2.54.37A3.78,3.78,0,0,1,905.4,326a4.88,4.88,0,0,1,.94,2,11.6,11.6,0,0,1,.3,2.8v6h-3.58v-1.27H903a2.93,2.93,0,0,1-1.37,1.15,4.88,4.88,0,0,1-2,.41,6.1,6.1,0,0,1-1.48-.19,4.33,4.33,0,0,1-1.4-.62,3.38,3.38,0,0,1-1-1.15,3.54,3.54,0,0,1-.4-1.77,3,3,0,0,1,.7-2.08,4.61,4.61,0,0,1,1.81-1.22,9.6,9.6,0,0,1,2.47-.57,25.12,25.12,0,0,1,2.65-.14v-0.19a1.46,1.46,0,0,0-.62-1.3,2.68,2.68,0,0,0-1.53-.42,3.8,3.8,0,0,0-1.61.36,5.18,5.18,0,0,0-1.32.86Zm7.19,5.08h-0.5q-0.64,0-1.3.06a5.39,5.39,0,0,0-1.17.23,2.17,2.17,0,0,0-.85.49,1.12,1.12,0,0,0-.33.85,1,1,0,0,0,.16.57,1.19,1.19,0,0,0,.39.38,1.64,1.64,0,0,0,.55.2,3.17,3.17,0,0,0,.6.06,2.42,2.42,0,0,0,1.83-.66,2.46,2.46,0,0,0,.63-1.78v-0.41Z" transform="translate(-579.77 -28.77)"/><path class="cls-2" d="M916.55,328.35a4.41,4.41,0,0,0-1.12-.76,3.1,3.1,0,0,0-1.36-.31,2.39,2.39,0,0,0-1,.21,0.75,0.75,0,0,0-.47.74,0.74,0.74,0,0,0,.51.72,11.09,11.09,0,0,0,1.66.48,8.83,8.83,0,0,1,1.35.41,4.73,4.73,0,0,1,1.23.69,3.31,3.31,0,0,1,.88,1.05,3.07,3.07,0,0,1,.33,1.48,3.56,3.56,0,0,1-1.64,3.15,5.08,5.08,0,0,1-1.63.69,7.89,7.89,0,0,1-1.81.21,9,9,0,0,1-2.85-.47,6,6,0,0,1-2.33-1.37l2.2-2.32a4.38,4.38,0,0,0,1.29,1,3.58,3.58,0,0,0,1.62.38,2.13,2.13,0,0,0,.94-0.23,0.81,0.81,0,0,0,.47-0.8,0.86,0.86,0,0,0-.57-0.81,10.28,10.28,0,0,0-1.79-.55,9.33,9.33,0,0,1-1.24-.38,3.91,3.91,0,0,1-1.11-.64,3.23,3.23,0,0,1-.8-1,3.08,3.08,0,0,1-.31-1.43,3.47,3.47,0,0,1,.45-1.83,3.85,3.85,0,0,1,1.17-1.23,5.23,5.23,0,0,1,1.59-.7,6.88,6.88,0,0,1,1.73-.23,8.39,8.39,0,0,1,2.61.42,5.66,5.66,0,0,1,2.16,1.25Z" transform="translate(-579.77 -28.77)"/><path class="cls-2" d="M927.82,328.35a4.41,4.41,0,0,0-1.12-.76,3.1,3.1,0,0,0-1.36-.31,2.39,2.39,0,0,0-1,.21,0.75,0.75,0,0,0-.47.74,0.74,0.74,0,0,0,.51.72,11.09,11.09,0,0,0,1.66.48,8.83,8.83,0,0,1,1.35.41,4.73,4.73,0,0,1,1.23.69,3.31,3.31,0,0,1,.88,1.05,3.07,3.07,0,0,1,.33,1.48,3.56,3.56,0,0,1-1.64,3.15,5.08,5.08,0,0,1-1.63.69,7.89,7.89,0,0,1-1.81.21,9,9,0,0,1-2.85-.47,6,6,0,0,1-2.33-1.37l2.2-2.32a4.38,4.38,0,0,0,1.29,1,3.58,3.58,0,0,0,1.62.38,2.13,2.13,0,0,0,.94-0.23,0.81,0.81,0,0,0,.47-0.8,0.86,0.86,0,0,0-.57-0.81,10.28,10.28,0,0,0-1.79-.55,9.33,9.33,0,0,1-1.24-.38,3.91,3.91,0,0,1-1.11-.64,3.23,3.23,0,0,1-.8-1,3.08,3.08,0,0,1-.31-1.43,3.47,3.47,0,0,1,.45-1.83,3.85,3.85,0,0,1,1.17-1.23,5.23,5.23,0,0,1,1.59-.7,6.88,6.88,0,0,1,1.73-.23,8.39,8.39,0,0,1,2.61.42,5.66,5.66,0,0,1,2.16,1.25Z" transform="translate(-579.77 -28.77)"/><path class="cls-2" d="M656.1,359.38a6.43,6.43,0,0,1-.52,2.64,5.91,5.91,0,0,1-1.43,2,6.56,6.56,0,0,1-2.1,1.28,7.39,7.39,0,0,1-5.1,0,6.36,6.36,0,0,1-2.1-1.28,6,6,0,0,1-1.42-2,6.4,6.4,0,0,1-.53-2.64,6.32,6.32,0,0,1,.53-2.63,5.9,5.9,0,0,1,1.42-2,6.17,6.17,0,0,1,2.1-1.24,7.78,7.78,0,0,1,5.1,0,6.36,6.36,0,0,1,2.1,1.24,5.83,5.83,0,0,1,1.43,2A6.35,6.35,0,0,1,656.1,359.38Zm-3.77,0a3.42,3.42,0,0,0-.19-1.12,3,3,0,0,0-.55-1,2.79,2.79,0,0,0-.88-0.68,2.95,2.95,0,0,0-2.43,0,2.65,2.65,0,0,0-.87.68,2.94,2.94,0,0,0-.53,1,3.61,3.61,0,0,0,0,2.24,3.08,3.08,0,0,0,.54,1,2.63,2.63,0,0,0,.88.7,2.95,2.95,0,0,0,2.44,0,2.63,2.63,0,0,0,.88-0.7,3.08,3.08,0,0,0,.54-1A3.61,3.61,0,0,0,652.33,359.38Z" transform="translate(-579.77 -28.77)"/><path class="cls-2" d="M666,350.21a3.29,3.29,0,0,0-.5-0.12,3.55,3.55,0,0,0-.57,0,1.77,1.77,0,0,0-.88.19,1.42,1.42,0,0,0-.53.51,2.18,2.18,0,0,0-.26.73,4.78,4.78,0,0,0-.07.81v1.19h2.65v2.91h-2.65v9h-3.91v-9h-2.17v-2.91h2.17v-1.15a8.88,8.88,0,0,1,.24-2.09,4.52,4.52,0,0,1,.82-1.74,4,4,0,0,1,1.58-1.19,6.08,6.08,0,0,1,2.47-.44,8.17,8.17,0,0,1,1,.06,5.7,5.7,0,0,1,.9.18Z" transform="translate(-579.77 -28.77)"/><path class="cls-2" d="M682.81,365.37v-1.55h0a3.71,3.71,0,0,1-1.63,1.4,5.33,5.33,0,0,1-2.26.49,5.25,5.25,0,0,1-2.39-.53,5.47,5.47,0,0,1-1.78-1.4,6.13,6.13,0,0,1-1.11-2,7.5,7.5,0,0,1-.38-2.39,7.2,7.2,0,0,1,.39-2.37,6.19,6.19,0,0,1,1.12-2,5.23,5.23,0,0,1,4.09-1.86,4.54,4.54,0,0,1,2.22.5,4.92,4.92,0,0,1,1.41,1.1h0v-7.42h3.91v18h-3.6Zm-0.14-6a3.24,3.24,0,0,0-.2-1.12,3.18,3.18,0,0,0-.57-1,2.85,2.85,0,0,0-.9-0.69,2.63,2.63,0,0,0-1.19-.26,2.69,2.69,0,0,0-1.22.26,2.74,2.74,0,0,0-1.42,1.65,3.57,3.57,0,0,0-.18,1.12,3.68,3.68,0,0,0,.18,1.13,2.89,2.89,0,0,0,.54,1,2.72,2.72,0,0,0,.88.69,2.68,2.68,0,0,0,1.22.26,2.62,2.62,0,0,0,1.19-.26,2.85,2.85,0,0,0,.9-0.69,3.18,3.18,0,0,0,.57-1A3.24,3.24,0,0,0,682.67,359.4Z" transform="translate(-579.77 -28.77)"/><path class="cls-2" d="M697.23,356.7a3,3,0,0,0-.51-0.1l-0.49,0a2.8,2.8,0,0,0-1.32.29,2.71,2.71,0,0,0-.86.69,2.63,2.63,0,0,0-.47.88,3,3,0,0,0-.14.83v6.09h-3.92V353.5h3.77v1.72h0a3.87,3.87,0,0,1,1.29-1.49,3.32,3.32,0,0,1,1.93-.58l0.47,0a1.8,1.8,0,0,1,.37.07Z" transform="translate(-579.77 -28.77)"/><path class="cls-2" d="M711.14,359.38a6.43,6.43,0,0,1-.52,2.64,5.91,5.91,0,0,1-1.43,2,6.56,6.56,0,0,1-2.1,1.28,7.39,7.39,0,0,1-5.1,0,6.36,6.36,0,0,1-2.1-1.28,6,6,0,0,1-1.42-2,6.4,6.4,0,0,1-.53-2.64,6.32,6.32,0,0,1,.53-2.63,5.9,5.9,0,0,1,1.42-2,6.17,6.17,0,0,1,2.1-1.24,7.78,7.78,0,0,1,5.1,0,6.36,6.36,0,0,1,2.1,1.24,5.83,5.83,0,0,1,1.43,2A6.35,6.35,0,0,1,711.14,359.38Zm-3.77,0a3.42,3.42,0,0,0-.19-1.12,3,3,0,0,0-.55-1,2.79,2.79,0,0,0-.88-0.68,2.95,2.95,0,0,0-2.43,0,2.65,2.65,0,0,0-.87.68,2.94,2.94,0,0,0-.53,1,3.61,3.61,0,0,0,0,2.24,3.08,3.08,0,0,0,.54,1,2.63,2.63,0,0,0,.88.7,2.95,2.95,0,0,0,2.44,0,2.63,2.63,0,0,0,.88-0.7,3.08,3.08,0,0,0,.54-1A3.61,3.61,0,0,0,707.37,359.38Z" transform="translate(-579.77 -28.77)"/><path class="cls-2" d="M726.85,359.38a7.5,7.5,0,0,1-.38,2.39,6.13,6.13,0,0,1-1.11,2,5.48,5.48,0,0,1-1.78,1.4,5.27,5.27,0,0,1-2.39.53,5,5,0,0,1-2.08-.44,3.71,3.71,0,0,1-1.53-1.21h0v7h-3.92V353.48h3.72v1.46h0.07a4.85,4.85,0,0,1,1.52-1.25,4.61,4.61,0,0,1,2.28-.54,5.36,5.36,0,0,1,2.34.5,5.27,5.27,0,0,1,1.78,1.36,6.22,6.22,0,0,1,1.12,2A7.2,7.2,0,0,1,726.85,359.38Zm-3.8,0a3.62,3.62,0,0,0-.18-1.12,2.93,2.93,0,0,0-.52-1,2.64,2.64,0,0,0-2.09-.94,2.63,2.63,0,0,0-1.19.26,2.85,2.85,0,0,0-.9.69,3.18,3.18,0,0,0-.57,1,3.22,3.22,0,0,0,0,2.24,3.18,3.18,0,0,0,.57,1,2.85,2.85,0,0,0,.9.69,2.62,2.62,0,0,0,1.19.26,2.68,2.68,0,0,0,1.22-.26,2.59,2.59,0,0,0,.87-0.69,3,3,0,0,0,.52-1A3.73,3.73,0,0,0,723.06,359.38Z" transform="translate(-579.77 -28.77)"/><path class="cls-2" d="M741.91,359.38a6.43,6.43,0,0,1-.52,2.64,5.91,5.91,0,0,1-1.43,2,6.56,6.56,0,0,1-2.1,1.28,7.39,7.39,0,0,1-5.1,0,6.36,6.36,0,0,1-2.1-1.28,6,6,0,0,1-1.42-2,6.4,6.4,0,0,1-.53-2.64,6.32,6.32,0,0,1,.53-2.63,5.9,5.9,0,0,1,1.42-2,6.17,6.17,0,0,1,2.1-1.24,7.78,7.78,0,0,1,5.1,0,6.36,6.36,0,0,1,2.1,1.24,5.83,5.83,0,0,1,1.43,2A6.35,6.35,0,0,1,741.91,359.38Zm-3.77,0a3.42,3.42,0,0,0-.19-1.12,3,3,0,0,0-.55-1,2.79,2.79,0,0,0-.88-0.68,2.95,2.95,0,0,0-2.43,0,2.65,2.65,0,0,0-.87.68,2.94,2.94,0,0,0-.53,1,3.61,3.61,0,0,0,0,2.24,3.08,3.08,0,0,0,.54,1,2.63,2.63,0,0,0,.88.7,2.95,2.95,0,0,0,2.44,0,2.63,2.63,0,0,0,.88-0.7,3.08,3.08,0,0,0,.54-1A3.61,3.61,0,0,0,738.14,359.38Z" transform="translate(-579.77 -28.77)"/><path class="cls-2" d="M752.22,365.37v-1.65h0a3.36,3.36,0,0,1-.56.76,3.55,3.55,0,0,1-.81.62,5,5,0,0,1-1,.43,4.13,4.13,0,0,1-1.18.17,4.31,4.31,0,0,1-2-.43,3.9,3.9,0,0,1-1.34-1.11,4.32,4.32,0,0,1-.74-1.55,7,7,0,0,1-.23-1.78v-7.35h3.94v6.45a6.26,6.26,0,0,0,.07,1,2.38,2.38,0,0,0,.28.81,1.5,1.5,0,0,0,.54.56,1.69,1.69,0,0,0,.88.2,1.79,1.79,0,0,0,1.56-.76,3,3,0,0,0,.54-1.79v-6.42H756v11.89h-3.77Z" transform="translate(-579.77 -28.77)"/><path class="cls-2" d="M763.3,356.39v4.55a2,2,0,0,0,.32,1.26,1.38,1.38,0,0,0,1.16.42,4.14,4.14,0,0,0,.61,0,2.07,2.07,0,0,0,.54-0.14l0,2.86a6.34,6.34,0,0,1-1,.25,7.26,7.26,0,0,1-1.24.11,5.86,5.86,0,0,1-2-.3,3.11,3.11,0,0,1-1.3-.86,3.39,3.39,0,0,1-.71-1.34,6.49,6.49,0,0,1-.21-1.73v-5h-1.91v-2.91h1.88v-3.13h3.84v3.13h2.79v2.91H763.3Z" transform="translate(-579.77 -28.77)"/><path class="cls-2" d="M774.92,357a4.41,4.41,0,0,0-1.12-.76,3.1,3.1,0,0,0-1.36-.31,2.39,2.39,0,0,0-1,.21,0.75,0.75,0,0,0-.47.74,0.74,0.74,0,0,0,.51.72,11.09,11.09,0,0,0,1.66.48,8.83,8.83,0,0,1,1.35.41,4.73,4.73,0,0,1,1.23.69,3.31,3.31,0,0,1,.88,1.05,3.07,3.07,0,0,1,.33,1.48,3.56,3.56,0,0,1-1.64,3.15,5.08,5.08,0,0,1-1.63.69,7.89,7.89,0,0,1-1.81.21,9,9,0,0,1-2.85-.47,6,6,0,0,1-2.33-1.37l2.2-2.32a4.38,4.38,0,0,0,1.29,1,3.58,3.58,0,0,0,1.62.38,2.13,2.13,0,0,0,.94-0.23,0.81,0.81,0,0,0,.47-0.8,0.86,0.86,0,0,0-.57-0.81,10.28,10.28,0,0,0-1.79-.55,9.33,9.33,0,0,1-1.24-.38,3.91,3.91,0,0,1-1.11-.64,3.23,3.23,0,0,1-.8-1,3.08,3.08,0,0,1-.31-1.43,3.47,3.47,0,0,1,.45-1.83A3.85,3.85,0,0,1,769,354a5.23,5.23,0,0,1,1.59-.7,6.88,6.88,0,0,1,1.73-.23,8.39,8.39,0,0,1,2.61.42,5.66,5.66,0,0,1,2.16,1.25Z" transform="translate(-579.77 -28.77)"/><path class="cls-2" d="M793.37,357.32a2.4,2.4,0,0,0-.91-0.69,2.79,2.79,0,0,0-1.17-.26,2.47,2.47,0,0,0-1.12.25,2.71,2.71,0,0,0-.86.67,3.13,3.13,0,0,0-.56,1,3.34,3.34,0,0,0-.2,1.17,3.51,3.51,0,0,0,.19,1.17,2.83,2.83,0,0,0,.56,1,2.68,2.68,0,0,0,.88.66,2.71,2.71,0,0,0,1.16.24,3.24,3.24,0,0,0,1.18-.23,2.26,2.26,0,0,0,.94-0.66l2.17,2.65a5.1,5.1,0,0,1-1.91,1.12,7.52,7.52,0,0,1-2.48.41,7.86,7.86,0,0,1-2.63-.43,6.11,6.11,0,0,1-2.12-1.25,5.89,5.89,0,0,1-1.42-2,7,7,0,0,1,0-5.28,5.88,5.88,0,0,1,1.42-2,6.26,6.26,0,0,1,2.12-1.26,7.61,7.61,0,0,1,2.61-.44,6.86,6.86,0,0,1,1.28.12,8.62,8.62,0,0,1,1.22.32,5.57,5.57,0,0,1,1.07.5,4.58,4.58,0,0,1,.85.66Z" transform="translate(-579.77 -28.77)"/><path class="cls-2" d="M809.77,359.38a6.43,6.43,0,0,1-.52,2.64,5.91,5.91,0,0,1-1.43,2,6.56,6.56,0,0,1-2.1,1.28,7.39,7.39,0,0,1-5.1,0,6.36,6.36,0,0,1-2.1-1.28,6,6,0,0,1-1.42-2,6.4,6.4,0,0,1-.53-2.64,6.32,6.32,0,0,1,.53-2.63,5.9,5.9,0,0,1,1.42-2,6.17,6.17,0,0,1,2.1-1.24,7.78,7.78,0,0,1,5.1,0,6.36,6.36,0,0,1,2.1,1.24,5.83,5.83,0,0,1,1.43,2A6.35,6.35,0,0,1,809.77,359.38Zm-3.77,0a3.42,3.42,0,0,0-.19-1.12,3,3,0,0,0-.55-1,2.79,2.79,0,0,0-.88-0.68,2.95,2.95,0,0,0-2.43,0,2.65,2.65,0,0,0-.87.68,2.94,2.94,0,0,0-.53,1,3.61,3.61,0,0,0,0,2.24,3.08,3.08,0,0,0,.54,1,2.63,2.63,0,0,0,.88.7,2.95,2.95,0,0,0,2.44,0,2.63,2.63,0,0,0,.88-0.7,3.08,3.08,0,0,0,.54-1A3.61,3.61,0,0,0,806,359.38Z" transform="translate(-579.77 -28.77)"/><path class="cls-2" d="M819.25,357a4.41,4.41,0,0,0-1.12-.76,3.1,3.1,0,0,0-1.36-.31,2.39,2.39,0,0,0-1,.21,0.75,0.75,0,0,0-.47.74,0.74,0.74,0,0,0,.51.72,11.09,11.09,0,0,0,1.66.48,8.83,8.83,0,0,1,1.35.41,4.73,4.73,0,0,1,1.23.69,3.31,3.31,0,0,1,.88,1.05,3.07,3.07,0,0,1,.33,1.48,3.56,3.56,0,0,1-1.64,3.15,5.08,5.08,0,0,1-1.63.69,7.89,7.89,0,0,1-1.81.21,9,9,0,0,1-2.85-.47,6,6,0,0,1-2.33-1.37l2.2-2.32a4.38,4.38,0,0,0,1.29,1,3.58,3.58,0,0,0,1.62.38,2.13,2.13,0,0,0,.94-0.23,0.81,0.81,0,0,0,.47-0.8,0.86,0.86,0,0,0-.57-0.81,10.28,10.28,0,0,0-1.79-.55,9.33,9.33,0,0,1-1.24-.38,3.91,3.91,0,0,1-1.11-.64,3.23,3.23,0,0,1-.8-1,3.08,3.08,0,0,1-.31-1.43,3.47,3.47,0,0,1,.45-1.83A3.85,3.85,0,0,1,813.3,354a5.23,5.23,0,0,1,1.59-.7,6.88,6.88,0,0,1,1.73-.23,8.39,8.39,0,0,1,2.61.42,5.66,5.66,0,0,1,2.16,1.25Z" transform="translate(-579.77 -28.77)"/><path class="cls-2" d="M827.77,356.39v4.55a2,2,0,0,0,.32,1.26,1.38,1.38,0,0,0,1.16.42,4.14,4.14,0,0,0,.61,0,2.07,2.07,0,0,0,.54-0.14l0,2.86a6.34,6.34,0,0,1-1,.25,7.26,7.26,0,0,1-1.24.11,5.86,5.86,0,0,1-2-.3,3.11,3.11,0,0,1-1.3-.86,3.39,3.39,0,0,1-.71-1.34,6.49,6.49,0,0,1-.21-1.73v-5H822v-2.91h1.88v-3.13h3.84v3.13h2.79v2.91h-2.79Z" transform="translate(-579.77 -28.77)"/><path class="cls-2" d="M839.39,357a4.41,4.41,0,0,0-1.12-.76,3.1,3.1,0,0,0-1.36-.31,2.39,2.39,0,0,0-1,.21,0.75,0.75,0,0,0-.47.74,0.74,0.74,0,0,0,.51.72,11.09,11.09,0,0,0,1.66.48,8.83,8.83,0,0,1,1.35.41,4.73,4.73,0,0,1,1.23.69,3.31,3.31,0,0,1,.88,1.05,3.07,3.07,0,0,1,.33,1.48,3.56,3.56,0,0,1-1.64,3.15,5.08,5.08,0,0,1-1.63.69,7.89,7.89,0,0,1-1.81.21,9,9,0,0,1-2.85-.47,6,6,0,0,1-2.33-1.37l2.2-2.32a4.38,4.38,0,0,0,1.29,1,3.58,3.58,0,0,0,1.62.38,2.13,2.13,0,0,0,.94-0.23,0.81,0.81,0,0,0,.47-0.8,0.86,0.86,0,0,0-.57-0.81,10.28,10.28,0,0,0-1.79-.55,9.33,9.33,0,0,1-1.24-.38,3.91,3.91,0,0,1-1.11-.64,3.23,3.23,0,0,1-.8-1,3.08,3.08,0,0,1-.31-1.43,3.47,3.47,0,0,1,.45-1.83,3.85,3.85,0,0,1,1.17-1.23,5.23,5.23,0,0,1,1.59-.7,6.88,6.88,0,0,1,1.73-.23,8.39,8.39,0,0,1,2.61.42,5.66,5.66,0,0,1,2.16,1.25Z" transform="translate(-579.77 -28.77)"/><path class="cls-2" d="M862,365.07a9,9,0,0,1-3.8.75,9.88,9.88,0,0,1-3.62-.64,8.35,8.35,0,0,1-4.79-4.65,9.91,9.91,0,0,1,0-7.3,8.18,8.18,0,0,1,1.94-2.8,8.62,8.62,0,0,1,2.91-1.78,10.43,10.43,0,0,1,7.13,0,6.74,6.74,0,0,1,2.8,1.85l-2.77,2.77a3.43,3.43,0,0,0-1.5-1.17,5,5,0,0,0-1.91-.38,4.84,4.84,0,0,0-2,.39,4.61,4.61,0,0,0-1.54,1.09,4.94,4.94,0,0,0-1,1.64,5.81,5.81,0,0,0-.36,2.06,6,6,0,0,0,.36,2.1,4.89,4.89,0,0,0,1,1.64,4.44,4.44,0,0,0,1.52,1.06,4.8,4.8,0,0,0,1.93.38,4.5,4.5,0,0,0,2.13-.48,4.11,4.11,0,0,0,1.45-1.24l2.84,2.67A8.05,8.05,0,0,1,862,365.07Z" transform="translate(-579.77 -28.77)"/><path class="cls-2" d="M865.65,355.1a6.87,6.87,0,0,1,2.45-1.5,8.38,8.38,0,0,1,2.85-.5,7.63,7.63,0,0,1,2.54.37,3.78,3.78,0,0,1,1.68,1.15,4.88,4.88,0,0,1,.94,2,11.6,11.6,0,0,1,.3,2.8v6h-3.58V364.1h-0.07a2.93,2.93,0,0,1-1.37,1.15,4.88,4.88,0,0,1-2,.41,6.1,6.1,0,0,1-1.48-.19,4.33,4.33,0,0,1-1.4-.62,3.38,3.38,0,0,1-1-1.15,3.54,3.54,0,0,1-.4-1.77,3,3,0,0,1,.7-2.08,4.61,4.61,0,0,1,1.81-1.22,9.6,9.6,0,0,1,2.47-.57,25.12,25.12,0,0,1,2.65-.14v-0.19a1.46,1.46,0,0,0-.62-1.3,2.68,2.68,0,0,0-1.53-.42,3.8,3.8,0,0,0-1.61.36,5.18,5.18,0,0,0-1.32.86Zm7.19,5.08h-0.5q-0.64,0-1.3.06a5.39,5.39,0,0,0-1.17.23,2.17,2.17,0,0,0-.85.49,1.12,1.12,0,0,0-.33.85,1,1,0,0,0,.16.57,1.19,1.19,0,0,0,.39.38,1.64,1.64,0,0,0,.55.2,3.17,3.17,0,0,0,.6.06,2.42,2.42,0,0,0,1.83-.66,2.46,2.46,0,0,0,.63-1.78v-0.41Z" transform="translate(-579.77 -28.77)"/><path class="cls-2" d="M879.38,365.37v-18h4v18h-4Z" transform="translate(-579.77 -28.77)"/><path class="cls-2" d="M890.69,349.69a2,2,0,0,1-.18.85,2.15,2.15,0,0,1-1.19,1.13,2.32,2.32,0,0,1-.87.17,2.2,2.2,0,0,1-1.6-.63,2.11,2.11,0,0,1-.48-2.34,2,2,0,0,1,.48-0.68,2.63,2.63,0,0,1,.72-0.47,2.16,2.16,0,0,1,.88-0.18,2.32,2.32,0,0,1,.87.17,2.15,2.15,0,0,1,1.19,1.13A2,2,0,0,1,890.69,349.69Zm-4.2,15.68V353.48h3.91v11.89h-3.91Z" transform="translate(-579.77 -28.77)"/><path class="cls-2" d="M900.88,350.21a3.29,3.29,0,0,0-.5-0.12,3.55,3.55,0,0,0-.57,0,1.77,1.77,0,0,0-.88.19,1.42,1.42,0,0,0-.53.51,2.18,2.18,0,0,0-.26.73,4.78,4.78,0,0,0-.07.81v1.19h2.65v2.91h-2.65v9h-3.91v-9H892v-2.91h2.17v-1.15a8.88,8.88,0,0,1,.24-2.09,4.52,4.52,0,0,1,.82-1.74,4,4,0,0,1,1.58-1.19,6.08,6.08,0,0,1,2.47-.44,8.17,8.17,0,0,1,1,.06,5.7,5.7,0,0,1,.9.18Z" transform="translate(-579.77 -28.77)"/><path class="cls-2" d="M914.8,359.38a6.43,6.43,0,0,1-.52,2.64,5.91,5.91,0,0,1-1.43,2,6.56,6.56,0,0,1-2.1,1.28,7.39,7.39,0,0,1-5.1,0,6.36,6.36,0,0,1-2.1-1.28,6,6,0,0,1-1.42-2,6.4,6.4,0,0,1-.53-2.64,6.32,6.32,0,0,1,.53-2.63,5.9,5.9,0,0,1,1.42-2,6.17,6.17,0,0,1,2.1-1.24,7.78,7.78,0,0,1,5.1,0,6.36,6.36,0,0,1,2.1,1.24,5.83,5.83,0,0,1,1.43,2A6.35,6.35,0,0,1,914.8,359.38Zm-3.77,0a3.42,3.42,0,0,0-.19-1.12,3,3,0,0,0-.55-1,2.79,2.79,0,0,0-.88-0.68,2.95,2.95,0,0,0-2.43,0,2.65,2.65,0,0,0-.87.68,2.94,2.94,0,0,0-.53,1,3.61,3.61,0,0,0,0,2.24,3.08,3.08,0,0,0,.54,1,2.63,2.63,0,0,0,.88.7,2.95,2.95,0,0,0,2.44,0,2.63,2.63,0,0,0,.88-0.7,3.08,3.08,0,0,0,.54-1A3.61,3.61,0,0,0,911,359.38Z" transform="translate(-579.77 -28.77)"/><path class="cls-2" d="M925,356.7a3,3,0,0,0-.51-0.1l-0.49,0a2.8,2.8,0,0,0-1.32.29,2.71,2.71,0,0,0-.86.69,2.63,2.63,0,0,0-.47.88,3,3,0,0,0-.14.83v6.09h-3.92V353.5h3.77v1.72h0a3.87,3.87,0,0,1,1.29-1.49,3.32,3.32,0,0,1,1.93-.58l0.47,0a1.8,1.8,0,0,1,.37.07Z" transform="translate(-579.77 -28.77)"/><path class="cls-2" d="M934.54,365.37v-6.49a5.39,5.39,0,0,0-.08-1,2.63,2.63,0,0,0-.28-0.8,1.43,1.43,0,0,0-.54-0.55,1.71,1.71,0,0,0-.87-0.2,2,2,0,0,0-.92.2,1.86,1.86,0,0,0-.66.56,2.52,2.52,0,0,0-.39.82,3.48,3.48,0,0,0-.13,1v6.45h-3.94V353.48h3.8v1.65h0a3.94,3.94,0,0,1,.56-0.75,3.38,3.38,0,0,1,.81-0.63,5.08,5.08,0,0,1,1-.43,4,4,0,0,1,1.17-.17,4.41,4.41,0,0,1,2,.43,3.87,3.87,0,0,1,1.35,1.11,4.35,4.35,0,0,1,.74,1.56,7.07,7.07,0,0,1,.23,1.77v7.35h-3.94Z" transform="translate(-579.77 -28.77)"/><path class="cls-2" d="M945.69,349.69a2,2,0,0,1-.18.85,2.15,2.15,0,0,1-1.19,1.13,2.32,2.32,0,0,1-.87.17,2.2,2.2,0,0,1-1.6-.63,2.11,2.11,0,0,1-.48-2.34,2,2,0,0,1,.48-0.68,2.63,2.63,0,0,1,.72-0.47,2.16,2.16,0,0,1,.88-0.18,2.32,2.32,0,0,1,.87.17,2.15,2.15,0,0,1,1.19,1.13A2,2,0,0,1,945.69,349.69Zm-4.2,15.68V353.48h3.91v11.89h-3.91Z" transform="translate(-579.77 -28.77)"/><path class="cls-2" d="M948.33,355.1a6.87,6.87,0,0,1,2.45-1.5,8.38,8.38,0,0,1,2.85-.5,7.63,7.63,0,0,1,2.54.37,3.78,3.78,0,0,1,1.68,1.15,4.88,4.88,0,0,1,.94,2,11.6,11.6,0,0,1,.3,2.8v6h-3.58V364.1h-0.07a2.93,2.93,0,0,1-1.37,1.15,4.88,4.88,0,0,1-2,.41,6.1,6.1,0,0,1-1.48-.19,4.33,4.33,0,0,1-1.4-.62,3.38,3.38,0,0,1-1-1.15,3.54,3.54,0,0,1-.4-1.77,3,3,0,0,1,.7-2.08,4.61,4.61,0,0,1,1.81-1.22,9.6,9.6,0,0,1,2.47-.57,25.12,25.12,0,0,1,2.65-.14v-0.19a1.46,1.46,0,0,0-.62-1.3,2.68,2.68,0,0,0-1.53-.42,3.8,3.8,0,0,0-1.61.36,5.18,5.18,0,0,0-1.32.86Zm7.19,5.08H955q-0.64,0-1.3.06a5.39,5.39,0,0,0-1.17.23,2.17,2.17,0,0,0-.85.49,1.12,1.12,0,0,0-.33.85,1,1,0,0,0,.16.57,1.19,1.19,0,0,0,.39.38,1.64,1.64,0,0,0,.55.2,3.17,3.17,0,0,0,.6.06,2.42,2.42,0,0,0,1.83-.66,2.46,2.46,0,0,0,.63-1.78v-0.41Z" transform="translate(-579.77 -28.77)"/><path class="cls-3" d="M669.68,118a27.83,27.83,0,0,1,7,1.2,18.62,18.62,0,0,1,6.42,3.36q-2.94,3.36-5.82,6.54a10.61,10.61,0,0,0-3.6-2.34,11.84,11.84,0,0,0-4-.9v9.61q2.34,0.72,4.74,1.62a17.28,17.28,0,0,1,4.38,2.4,12.35,12.35,0,0,1,3.24,3.66,10.58,10.58,0,0,1,1.26,5.4,13.1,13.1,0,0,1-1.17,5.73,11.91,11.91,0,0,1-3.12,4.05,13.77,13.77,0,0,1-4.44,2.46,17.23,17.23,0,0,1-5.13.9v4.38H665v-4.38a26.88,26.88,0,0,1-7.87-1.47,19.88,19.88,0,0,1-7-4.05l3.15-3.27q1.59-1.65,3.15-3.33a9.92,9.92,0,0,0,1.86,1.65,15.56,15.56,0,0,0,2.22,1.29,15.08,15.08,0,0,0,2.28.87,7.75,7.75,0,0,0,2.16.33V143.24q-2.58-.72-5-1.62a15.32,15.32,0,0,1-4.17-2.34,10.29,10.29,0,0,1-4-8.59,11.23,11.23,0,0,1,1.2-5.25,12.46,12.46,0,0,1,3.12-3.9,14.45,14.45,0,0,1,4.32-2.46,16.38,16.38,0,0,1,4.74-1v-4.14h4.38V118Zm-4.38,7.75a5.49,5.49,0,0,0-2.91,1.23,3.68,3.68,0,0,0-1.29,3,3.74,3.74,0,0,0,1.14,2.94,7.07,7.07,0,0,0,3.06,1.5v-8.71Zm4.14,28a4.33,4.33,0,0,0,4.38-4.68,3.92,3.92,0,0,0-1.23-3.15,8.89,8.89,0,0,0-3.15-1.65v9.49Z" transform="translate(-579.77 -28.77)"/><path class="cls-3" d="M749.68,178.6v16.84H730.53V178.6H689.9V161.4L725,109.06h24.52V162h12V178.6H749.68Zm-19-48.56h-0.37l-20.5,32h20.86V130Z" transform="translate(-579.77 -28.77)"/><path class="cls-3" d="M838.87,166.4a31.32,31.32,0,0,1-2.68,13.18,28.78,28.78,0,0,1-7.31,9.88A32.3,32.3,0,0,1,818,195.62a41.77,41.77,0,0,1-26.37,0,32.42,32.42,0,0,1-10.78-6.16,29.09,29.09,0,0,1-7.31-9.76,29.89,29.89,0,0,1-2.68-12.81,35.24,35.24,0,0,1,2.68-14,81.08,81.08,0,0,1,6.95-12.75l20.85-31.11h24.74l-21.24,29.52-0.37.61a12.93,12.93,0,0,1,2.92-.73,22.52,22.52,0,0,1,3.17-.24,29.48,29.48,0,0,1,10.78,2,26.7,26.7,0,0,1,9,5.73,28.38,28.38,0,0,1,6.15,8.91A28,28,0,0,1,838.87,166.4Zm-20.37.49a13.46,13.46,0,0,0-3.68-9.7,12.94,12.94,0,0,0-9.8-3.84A13,13,0,0,0,791.29,167a13.8,13.8,0,0,0,3.67,9.64,12.78,12.78,0,0,0,9.93,4,13.25,13.25,0,0,0,9.87-3.78A13.61,13.61,0,0,0,818.49,166.89Z" transform="translate(-579.77 -28.77)"/><path class="cls-3" d="M875.1,184.7a11.29,11.29,0,0,1-3.6,8.54,12.07,12.07,0,0,1-8.6,3.42,12.71,12.71,0,0,1-4.82-.92,12.86,12.86,0,0,1-4-2.5,11.58,11.58,0,0,1-2.68-3.72,11.13,11.13,0,0,1-1-4.7,11.26,11.26,0,0,1,1-4.64,12.1,12.1,0,0,1,2.68-3.84,13.21,13.21,0,0,1,4-2.62,12.49,12.49,0,0,1,13.42,2.44A11.29,11.29,0,0,1,875.1,184.7Z" transform="translate(-579.77 -28.77)"/><path class="cls-3" d="M889.37,195.43V178.38L923,147.94a31.91,31.91,0,0,0,5.12-6.21,13.2,13.2,0,0,0,2-7.06,10,10,0,0,0-2.93-7.49,11.77,11.77,0,0,0-16.17.74,16.23,16.23,0,0,0-3.84,9.46l-19.64-2.68a30.85,30.85,0,0,1,3.6-11.73,30.45,30.45,0,0,1,7.26-8.77,31.32,31.32,0,0,1,10.06-5.53,37.51,37.51,0,0,1,12-1.9,42.47,42.47,0,0,1,11.59,1.59,30.2,30.2,0,0,1,10,4.88,24.38,24.38,0,0,1,7,8.3,24.89,24.89,0,0,1,2.62,11.71,26.76,26.76,0,0,1-1.22,8.36,27.79,27.79,0,0,1-3.35,6.89,39.71,39.71,0,0,1-4.88,5.92q-2.75,2.75-5.67,5.43l-20,17.81h35.26v17.81H889.37Z" transform="translate(-579.77 -28.77)"/><path class="cls-3" d="M726.65,274.73a15.24,15.24,0,0,1-1.83,7.78,14.56,14.56,0,0,1-4.87,5.07,21.22,21.22,0,0,1-6.9,2.75,37.43,37.43,0,0,1-7.94.84h-22.5V234.68h22.5a34.56,34.56,0,0,1,6.7.68,19.84,19.84,0,0,1,6.22,2.31,12.44,12.44,0,0,1,6.3,11.53,11.76,11.76,0,0,1-2.55,7.78,14.25,14.25,0,0,1-6.7,4.43v0.16a15.5,15.5,0,0,1,4.51,1.48,13,13,0,0,1,3.67,2.75,12.87,12.87,0,0,1,2.47,3.91A13.13,13.13,0,0,1,726.65,274.73ZM711.18,251a4.52,4.52,0,0,0-2.19-4.19,12.86,12.86,0,0,0-6.5-1.32h-6.7v11.65h7.34a9.87,9.87,0,0,0,5.94-1.56A5.33,5.33,0,0,0,711.18,251ZM713,273.45q0-3.51-2.63-4.87a15.41,15.41,0,0,0-7-1.36h-7.58v12.92h7.66a20.51,20.51,0,0,0,3.31-.28,10.4,10.4,0,0,0,3.11-1A5.66,5.66,0,0,0,713,273.45Z" transform="translate(-579.77 -28.77)"/><path class="cls-3" d="M749.15,238.75a6.75,6.75,0,0,1-.6,2.83,7.17,7.17,0,0,1-4,3.79,7.77,7.77,0,0,1-2.91.56,7.33,7.33,0,0,1-5.34-2.11,6.84,6.84,0,0,1-2.15-5.07,7,7,0,0,1,.56-2.75,6.49,6.49,0,0,1,1.6-2.27,8.61,8.61,0,0,1,2.39-1.56,7.23,7.23,0,0,1,3-.6,7.79,7.79,0,0,1,2.91.56,7.37,7.37,0,0,1,2.39,1.52,7.3,7.3,0,0,1,1.6,2.27A6.76,6.76,0,0,1,749.15,238.75Zm-14,52.41V251.44h13.08v39.73H735.11Z" transform="translate(-579.77 -28.77)"/><path class="cls-3" d="M758.72,291.16V230.85H772v60.31H758.72Z" transform="translate(-579.77 -28.77)"/><path class="cls-3" d="M782.49,291.16V230.85h13.32v60.31H782.49Z" transform="translate(-579.77 -28.77)"/><path class="cls-3" d="M820.31,238.75a6.75,6.75,0,0,1-.6,2.83,7.17,7.17,0,0,1-4,3.79,7.77,7.77,0,0,1-2.91.56,7.33,7.33,0,0,1-5.34-2.11,6.84,6.84,0,0,1-2.15-5.07,7,7,0,0,1,.56-2.75,6.49,6.49,0,0,1,1.6-2.27,8.61,8.61,0,0,1,2.39-1.56,7.23,7.23,0,0,1,3-.6,7.79,7.79,0,0,1,2.91.56,7.37,7.37,0,0,1,2.39,1.52,7.3,7.3,0,0,1,1.6,2.27A6.76,6.76,0,0,1,820.31,238.75Zm-14,52.41V251.44h13.08v39.73H806.26Z" transform="translate(-579.77 -28.77)"/><path class="cls-3" d="M871.84,271.14a21.49,21.49,0,0,1-1.75,8.81,19.78,19.78,0,0,1-4.79,6.7,21.92,21.92,0,0,1-7,4.27,24.68,24.68,0,0,1-17,0,21.33,21.33,0,0,1-7-4.27,20,20,0,0,1-4.75-6.7,21.47,21.47,0,0,1-1.75-8.81,21.2,21.2,0,0,1,1.75-8.78,19.69,19.69,0,0,1,4.75-6.62,20.65,20.65,0,0,1,7-4.15,26,26,0,0,1,17,0,21.2,21.2,0,0,1,7,4.15,19.47,19.47,0,0,1,4.79,6.62A21.22,21.22,0,0,1,871.84,271.14Zm-12.6,0a11.36,11.36,0,0,0-.64-3.75,10,10,0,0,0-1.83-3.23,9.36,9.36,0,0,0-3-2.27,9.87,9.87,0,0,0-8.14,0,8.89,8.89,0,0,0-2.91,2.27,9.75,9.75,0,0,0-1.75,3.23,12,12,0,0,0,0,7.5,10.25,10.25,0,0,0,1.79,3.31,8.82,8.82,0,0,0,3,2.35,9.87,9.87,0,0,0,8.14,0,8.82,8.82,0,0,0,3-2.35,10.26,10.26,0,0,0,1.8-3.31A12,12,0,0,0,859.23,271.14Z" transform="translate(-579.77 -28.77)"/><path class="cls-3" d="M906.22,291.16v-21.7a17.65,17.65,0,0,0-.28-3.19,8.86,8.86,0,0,0-.92-2.67,4.77,4.77,0,0,0-1.79-1.83,5.7,5.7,0,0,0-2.91-.68,6.63,6.63,0,0,0-3.07.68,6.23,6.23,0,0,0-2.19,1.87,8.49,8.49,0,0,0-1.32,2.75,11.83,11.83,0,0,0-.44,3.23v21.54H880.13V251.44h12.68v5.5H893a13.15,13.15,0,0,1,1.88-2.51,11.26,11.26,0,0,1,2.71-2.11,16.89,16.89,0,0,1,3.39-1.44,13.37,13.37,0,0,1,3.91-.56,14.68,14.68,0,0,1,6.78,1.44,13,13,0,0,1,4.51,3.71,14.63,14.63,0,0,1,2.47,5.23,23.68,23.68,0,0,1,.76,5.9v24.57H906.22Z" transform="translate(-579.77 -28.77)"/></svg>