<svg id="Layer_1" data-name="Layer 1" xmlns="http://www.w3.org/2000/svg" viewBox="0 0 533.95 467.49"><defs><style>.cls-1{fill:#e0e0e0;}.cls-2{fill:#4474b8;}.cls-3{fill:#231f20;}</style></defs><title>alan-story</title><circle class="cls-1" cx="110" cy="110" r="110"/><path class="cls-2" d="M650.62,672.7v-0.1c0-4.09,2.37-6.59,6-8.08-2.52-1.3-4.84-3.61-4.84-7.31v-0.1c0-5.53,5.46-9.43,13.34-9.43s13.34,3.9,13.34,9.43v0.1c0,3.71-2.33,6-4.84,7.31,3.37,1.4,6,3.8,6,8.08v0.1c0,5.87-5.89,9.91-14.48,9.91S650.62,678.52,650.62,672.7Zm18.32-1.25v-0.1c0-1.83-1.52-3.27-3.84-3.27s-3.85,1.44-3.85,3.27v0.1c0,1.68,1.28,3.37,3.85,3.37S668.94,673.08,668.94,671.45Zm-0.38-12.85v-0.1a3.48,3.48,0,0,0-6.93,0v0.1A3.47,3.47,0,0,0,668.56,658.6Z" transform="translate(-594.67 -582.15)"/><path class="cls-2" d="M681.38,665.24v-0.1c0-9.29,6-17.56,16-17.56s15.95,8.18,15.95,17.46v0.1c0,9.29-6,17.56-16,17.56S681.38,674.52,681.38,665.24Zm21,0v-0.1c0-4.62-2-7.79-5-7.79s-4.94,3.08-4.94,7.7v0.1c0,4.62,2,7.79,5,7.79S702.36,669.86,702.36,665.24Z" transform="translate(-594.67 -582.15)"/><path class="cls-2" d="M715.89,657.3v-0.1c0-5.15,3.51-9.43,9.07-9.43s9.07,4.28,9.07,9.43v0.1c0,5.15-3.66,9.43-9.07,9.43S715.89,662.45,715.89,657.3Zm31-9H754L727,682h-7.17Zm-19.42,9v-0.1c0-2-1.14-3.32-2.47-3.32s-2.47,1.25-2.47,3.32v0.1c0,2,1.23,3.32,2.47,3.32S727.43,659.37,727.43,657.3Zm12.44,15.78V673c0-5.15,3.51-9.43,9.07-9.43S758,667.84,758,673v0.1c0,5.15-3.66,9.43-9.07,9.43S739.87,678.23,739.87,673.08Zm11.54,0V673c0-2-1.14-3.32-2.47-3.32s-2.47,1.25-2.47,3.32v0.1c0,2,1.23,3.32,2.47,3.32S751.4,675.15,751.4,673.08Z" transform="translate(-594.67 -582.15)"/><path class="cls-3" d="M618,707.89a5.8,5.8,0,0,1-5.91-5.86A5.94,5.94,0,1,1,618,707.89Zm0-9.51a3.37,3.37,0,0,0-3.36,3.61,3.47,3.47,0,0,0,3.4,3.66A3.38,3.38,0,0,0,621.4,702,3.47,3.47,0,0,0,618,698.38Z" transform="translate(-594.67 -582.15)"/><path class="cls-3" d="M632.58,696.44v2.14h-2.91v9.06h-2.55v-9.06H625.7v-2.16h1.41V695.6c0-2.48,1.22-3.7,3.42-3.7a6.75,6.75,0,0,1,2.07.3v2.18a4.43,4.43,0,0,0-1.5-.28c-1,0-1.48.54-1.48,1.71v0.62h3Z" transform="translate(-594.67 -582.15)"/><path class="cls-3" d="M645.77,711.1a9.5,9.5,0,0,1-5-1.35l0.95-1.95a7.18,7.18,0,0,0,4,1.2c2.28,0,3.52-1.2,3.52-3.46v-0.88a4.65,4.65,0,0,1-3.93,2.07,5.32,5.32,0,0,1,0-10.62,4.79,4.79,0,0,1,3.9,1.92v-1.69h2.55v9C651.76,709.33,649.61,711.1,645.77,711.1ZM646,698.29a3.13,3.13,0,1,0,0,6.26A3.13,3.13,0,1,0,646,698.29Z" transform="translate(-594.67 -582.15)"/><path class="cls-3" d="M661.76,707.64v-1.39a4.48,4.48,0,0,1-3.61,1.63c-2.11,0-4-1.22-4-3.48v0c0-2.44,1.92-3.63,4.52-3.63a9.28,9.28,0,0,1,3.08.47V700.9c0-1.56-1-2.42-2.74-2.42a7.69,7.69,0,0,0-3.19.71l-0.7-2.07a9.46,9.46,0,0,1,4.24-.94c3.29,0,4.9,1.75,4.9,4.77v6.69h-2.53Zm0.06-4.79a7.21,7.21,0,0,0-2.55-.45c-1.6,0-2.55.66-2.55,1.82v0c0,1.07.95,1.67,2.15,1.67,1.69,0,3-1,3-2.37v-0.71Z" transform="translate(-594.67 -582.15)"/><path class="cls-3" d="M669.88,707.64h-2.55V696.35h2.55v1.75a4,4,0,0,1,3.48-2c2.51,0,4,1.71,4,4.34v7.18h-2.55v-6.41c0-1.75-.87-2.76-2.38-2.76a2.5,2.5,0,0,0-2.51,2.8v6.37Z" transform="translate(-594.67 -582.15)"/><path class="cls-3" d="M685.37,711.1a9.49,9.49,0,0,1-5-1.35l0.95-1.95a7.17,7.17,0,0,0,4,1.2c2.28,0,3.52-1.2,3.52-3.46v-0.88a4.65,4.65,0,0,1-3.92,2.07,5.32,5.32,0,0,1,0-10.62,4.79,4.79,0,0,1,3.9,1.92v-1.69h2.55v9C691.36,709.33,689.21,711.1,685.37,711.1Zm0.21-12.81a3.13,3.13,0,1,0,0,6.26A3.13,3.13,0,1,0,685.58,698.29Z" transform="translate(-594.67 -582.15)"/><path class="cls-3" d="M713.92,696.11c2.43,0,3.9,1.56,3.9,4.32v7.2h-2.55v-6.41c0-1.8-.82-2.76-2.26-2.76s-2.38,1-2.38,2.8v6.37h-2.55V701.2c0-1.75-.84-2.74-2.26-2.74s-2.38,1.07-2.38,2.82v6.35h-2.55V696.35h2.55v1.71a4,4,0,0,1,3.4-1.95,3.5,3.5,0,0,1,3.31,2A4.53,4.53,0,0,1,713.92,696.11Z" transform="translate(-594.67 -582.15)"/><path class="cls-3" d="M726.07,705.78a4,4,0,0,0,3-1.35l1.5,1.35A5.8,5.8,0,0,1,720.31,702c0-3.25,2.26-5.9,5.44-5.9,3.54,0,5.34,2.82,5.34,6.09,0,0.24,0,.45,0,0.71h-8.19A3.14,3.14,0,0,0,726.07,705.78Zm2.49-4.58c-0.17-1.67-1.14-3-2.83-3s-2.66,1.22-2.89,3h5.72Z" transform="translate(-594.67 -582.15)"/><path class="cls-3" d="M746.71,696.11c2.43,0,3.9,1.56,3.9,4.32v7.2h-2.55v-6.41c0-1.8-.82-2.76-2.26-2.76s-2.38,1-2.38,2.8v6.37h-2.55V701.2c0-1.75-.84-2.74-2.26-2.74s-2.38,1.07-2.38,2.82v6.35h-2.55V696.35h2.55v1.71a4,4,0,0,1,3.4-1.95,3.5,3.5,0,0,1,3.31,2A4.53,4.53,0,0,1,746.71,696.11Z" transform="translate(-594.67 -582.15)"/><path class="cls-3" d="M760,707.87a4.52,4.52,0,0,1-3.78-2v1.75h-2.55V692h2.55v6.2a4.44,4.44,0,0,1,3.78-2.12c2.64,0,5.19,2.12,5.19,5.88S762.7,707.87,760,707.87Zm-0.59-9.51a3.66,3.66,0,0,0,0,7.27c1.75,0,3.19-1.39,3.19-3.63A3.32,3.32,0,0,0,759.45,698.36Z" transform="translate(-594.67 -582.15)"/><path class="cls-3" d="M773,705.78a4,4,0,0,0,3-1.35l1.5,1.35A5.8,5.8,0,0,1,767.24,702c0-3.25,2.26-5.9,5.45-5.9,3.54,0,5.34,2.82,5.34,6.09,0,0.24,0,.45,0,0.71h-8.19A3.14,3.14,0,0,0,773,705.78Zm2.49-4.58c-0.17-1.67-1.14-3-2.83-3s-2.66,1.22-2.89,3h5.72Z" transform="translate(-594.67 -582.15)"/><path class="cls-3" d="M783.15,707.64h-2.55V696.35h2.55v2.54a4,4,0,0,1,3.95-2.76v2.74h-0.15c-2.24,0-3.8,1.48-3.8,4.47v4.3Z" transform="translate(-594.67 -582.15)"/><path class="cls-3" d="M793.13,707.85a7.77,7.77,0,0,1-4.73-1.69l1.14-1.75a6.21,6.21,0,0,0,3.65,1.39c1.1,0,1.73-.47,1.73-1.22v0c0-.88-1.18-1.18-2.49-1.58-1.65-.47-3.48-1.15-3.48-3.31v0c0-2.14,1.75-3.44,4-3.44a7.65,7.65,0,0,1,4.09,1.28l-1,1.84a6.41,6.41,0,0,0-3.14-1.07c-1,0-1.56.47-1.56,1.13v0c0,0.81,1.2,1.16,2.51,1.58,1.63,0.51,3.46,1.26,3.46,3.29v0C797.26,706.67,795.45,707.85,793.13,707.85Z" transform="translate(-594.67 -582.15)"/><path class="cls-3" d="M644.88,733.29V731.9a4.48,4.48,0,0,1-3.61,1.63c-2.11,0-4-1.22-4-3.48v0c0-2.44,1.92-3.63,4.52-3.63a9.28,9.28,0,0,1,3.08.47v-0.28c0-1.56-1-2.42-2.74-2.42a7.69,7.69,0,0,0-3.19.71l-0.7-2.07a9.46,9.46,0,0,1,4.24-.94c3.29,0,4.9,1.75,4.9,4.77v6.69h-2.53Zm0.06-4.79a7.21,7.21,0,0,0-2.55-.45c-1.6,0-2.55.66-2.55,1.82v0c0,1.07.95,1.67,2.15,1.67,1.69,0,3-1,3-2.37V728.5Z" transform="translate(-594.67 -582.15)"/><path class="cls-3" d="M653,733.29h-2.55V722H653v2.54a4,4,0,0,1,3.95-2.76v2.74H656.8c-2.24,0-3.8,1.48-3.8,4.47v4.3Z" transform="translate(-594.67 -582.15)"/><path class="cls-3" d="M663.93,731.43a4,4,0,0,0,3-1.35l1.5,1.35a5.8,5.8,0,0,1-10.28-3.76c0-3.25,2.26-5.9,5.45-5.9,3.54,0,5.34,2.82,5.34,6.09,0,0.24,0,.45,0,0.71h-8.19A3.14,3.14,0,0,0,663.93,731.43Zm2.49-4.58c-0.17-1.67-1.14-3-2.83-3s-2.66,1.22-2.89,3h5.72Z" transform="translate(-594.67 -582.15)"/><path class="cls-3" d="M686.26,733.29v-1.88a4.45,4.45,0,0,1-3.8,2.12c-2.62,0-5.17-2.12-5.17-5.88s2.51-5.88,5.17-5.88a4.6,4.6,0,0,1,3.8,2v-6.07h2.55v15.61h-2.55ZM683.07,724c-1.75,0-3.21,1.37-3.21,3.63a3.34,3.34,0,0,0,3.21,3.63A3.66,3.66,0,0,0,683.07,724Z" transform="translate(-594.67 -582.15)"/><path class="cls-3" d="M694.55,733.29H692V722h2.55v2.54a4,4,0,0,1,3.95-2.76v2.74h-0.15c-2.24,0-3.8,1.48-3.8,4.47v4.3Z" transform="translate(-594.67 -582.15)"/><path class="cls-3" d="M705.63,733.55a5.8,5.8,0,0,1-5.91-5.86A5.94,5.94,0,1,1,705.63,733.55Zm0-9.51a3.37,3.37,0,0,0-3.36,3.61,3.47,3.47,0,0,0,3.4,3.66,3.38,3.38,0,0,0,3.38-3.61A3.47,3.47,0,0,0,705.63,724Z" transform="translate(-594.67 -582.15)"/><path class="cls-3" d="M720.52,733.53a4.52,4.52,0,0,1-3.78-2v5.17h-2.55V722h2.55v1.88a4.44,4.44,0,0,1,3.78-2.12c2.64,0,5.19,2.12,5.19,5.88S723.18,733.53,720.52,733.53ZM719.93,724a3.66,3.66,0,0,0,0,7.27c1.75,0,3.19-1.39,3.19-3.63A3.32,3.32,0,0,0,719.93,724Z" transform="translate(-594.67 -582.15)"/><path class="cls-3" d="M733.63,733.55a5.8,5.8,0,0,1-5.91-5.86A5.94,5.94,0,1,1,733.63,733.55Zm0-9.51a3.37,3.37,0,0,0-3.36,3.61,3.47,3.47,0,0,0,3.4,3.66,3.38,3.38,0,0,0,3.38-3.61A3.47,3.47,0,0,0,733.63,724Z" transform="translate(-594.67 -582.15)"/><path class="cls-3" d="M749.51,722h2.55v11.29h-2.55v-1.75a4,4,0,0,1-3.48,2c-2.51,0-4-1.71-4-4.34V722h2.55v6.41c0,1.75.87,2.76,2.38,2.76a2.5,2.5,0,0,0,2.51-2.8V722Z" transform="translate(-594.67 -582.15)"/><path class="cls-3" d="M758.35,729.76a1.22,1.22,0,0,0,1.37,1.41,3.39,3.39,0,0,0,1.58-.38v2.12a4.42,4.42,0,0,1-2.3.58c-1.88,0-3.21-.83-3.21-3.31v-5.94h-1.41V722h1.41v-3.1h2.55V722h3v2.22h-3v5.54Z" transform="translate(-594.67 -582.15)"/><path class="cls-3" d="M767.75,733.51a7.77,7.77,0,0,1-4.73-1.69l1.14-1.75a6.21,6.21,0,0,0,3.65,1.39c1.1,0,1.73-.47,1.73-1.22v0c0-.88-1.18-1.18-2.49-1.58-1.65-.47-3.48-1.15-3.48-3.31v0c0-2.14,1.75-3.44,4-3.44a7.65,7.65,0,0,1,4.09,1.28l-1,1.84a6.41,6.41,0,0,0-3.14-1.07c-1,0-1.56.47-1.56,1.13v0c0,0.81,1.2,1.16,2.51,1.58,1.63,0.51,3.46,1.26,3.46,3.29v0C771.88,732.33,770.07,733.51,767.75,733.51Z" transform="translate(-594.67 -582.15)"/><circle class="cls-1" cx="423.95" cy="154.85" r="110"/><path class="cls-2" d="M982.68,696.84h-16l-1.8-7.89,16.23-20.21h12.34V688.9h4v7.94h-4v5.82H982.68v-5.82Zm0-7.79V680.1L975.61,689h7.07Z" transform="translate(-594.67 -582.15)"/><path class="cls-2" d="M997.59,697.85l6.12-7.22c2.85,2.31,5.51,3.66,8.21,3.66s4.18-1.4,4.18-3.22V691c0-2-1.57-3.22-3.89-3.22a7.8,7.8,0,0,0-5.08,2.12l-6.69-3.37,0.95-17.51h24v8.9h-15.71l-0.24,4.38a11.28,11.28,0,0,1,6.31-1.83c5.51,0,11.11,3.56,11.11,10.63v0.1c0,7.79-6.31,12.22-14.76,12.22A20.09,20.09,0,0,1,997.59,697.85Z" transform="translate(-594.67 -582.15)"/><path class="cls-2" d="M1028.87,678v-0.1c0-5.15,3.51-9.43,9.07-9.43s9.07,4.28,9.07,9.43V678c0,5.15-3.66,9.43-9.07,9.43S1028.87,683.13,1028.87,678Zm31-9H1067l-27,33.68h-7.17Zm-19.42,9v-0.1c0-2-1.14-3.32-2.47-3.32s-2.47,1.25-2.47,3.32V678c0,2,1.23,3.32,2.47,3.32S1040.41,680.05,1040.41,678Zm12.44,15.78v-0.1c0-5.15,3.51-9.43,9.07-9.43s9.07,4.28,9.07,9.43v0.1c0,5.15-3.66,9.43-9.07,9.43S1052.85,698.91,1052.85,693.76Zm11.54,0v-0.1c0-2-1.14-3.32-2.47-3.32s-2.47,1.25-2.47,3.32v0.1c0,2,1.23,3.32,2.47,3.32S1064.38,695.83,1064.38,693.76Z" transform="translate(-594.67 -582.15)"/><path class="cls-3" d="M945.13,728.57a5.8,5.8,0,0,1-5.91-5.86A5.94,5.94,0,1,1,945.13,728.57Zm0-9.51a3.38,3.38,0,0,0-3.36,3.61,3.47,3.47,0,0,0,3.4,3.66,3.38,3.38,0,0,0,3.38-3.61A3.48,3.48,0,0,0,945.13,719.06Z" transform="translate(-594.67 -582.15)"/><path class="cls-3" d="M959.73,717.12v2.14h-2.91v9.06h-2.55v-9.06h-1.41v-2.16h1.41v-0.81c0-2.48,1.22-3.7,3.42-3.7a6.75,6.75,0,0,1,2.07.3v2.18a4.41,4.41,0,0,0-1.5-.28c-1,0-1.48.53-1.48,1.71v0.62h3Z" transform="translate(-594.67 -582.15)"/><path class="cls-3" d="M970.51,728.32H968V712.71h2.55v6.07a4,4,0,0,1,3.48-2c2.51,0,4,1.71,4,4.34v7.18h-2.55v-6.41c0-1.75-.87-2.76-2.38-2.76a2.5,2.5,0,0,0-2.51,2.8v6.37Z" transform="translate(-594.67 -582.15)"/><path class="cls-3" d="M981.08,715.3v-2.46h2.74v2.46h-2.74Zm0.11,13V717h2.55v11.29h-2.55Z" transform="translate(-594.67 -582.15)"/><path class="cls-3" d="M992,731.78a9.51,9.51,0,0,1-5-1.35l0.95-1.95a7.19,7.19,0,0,0,4,1.2c2.28,0,3.52-1.2,3.52-3.46v-0.88a4.65,4.65,0,0,1-3.92,2.07,5.32,5.32,0,0,1,0-10.62,4.79,4.79,0,0,1,3.9,1.92V717H998v9C998,730,995.87,731.78,992,731.78Zm0.21-12.8a3.13,3.13,0,1,0,0,6.26A3.13,3.13,0,1,0,992.24,719Z" transform="translate(-594.67 -582.15)"/><path class="cls-3" d="M1003.76,728.32h-2.55V712.71h2.55v6.07a4,4,0,0,1,3.48-2c2.51,0,4,1.71,4,4.34v7.18h-2.55v-6.41c0-1.75-.87-2.76-2.38-2.76a2.5,2.5,0,0,0-2.51,2.8v6.37Z" transform="translate(-594.67 -582.15)"/><path class="cls-3" d="M1024.44,728.53a7.76,7.76,0,0,1-4.73-1.69l1.14-1.75a6.2,6.2,0,0,0,3.65,1.39c1.1,0,1.73-.47,1.73-1.22v0c0-.88-1.18-1.18-2.49-1.58-1.65-.47-3.48-1.15-3.48-3.31v0c0-2.14,1.75-3.44,4-3.44a7.65,7.65,0,0,1,4.09,1.28l-1,1.84a6.41,6.41,0,0,0-3.14-1.07c-1,0-1.56.47-1.56,1.13v0c0,0.81,1.2,1.15,2.51,1.58,1.63,0.51,3.46,1.26,3.46,3.29v0C1028.58,727.36,1026.76,728.53,1024.44,728.53Z" transform="translate(-594.67 -582.15)"/><path class="cls-3" d="M1036.32,728.57a5.73,5.73,0,0,1-5.76-5.86,5.79,5.79,0,0,1,5.78-5.92,5.53,5.53,0,0,1,4.45,1.95l-1.58,1.73a3.73,3.73,0,0,0-2.89-1.41,3.38,3.38,0,0,0-3.21,3.61,3.42,3.42,0,0,0,3.33,3.66,3.9,3.9,0,0,0,2.89-1.41l1.54,1.54A5.61,5.61,0,0,1,1036.32,728.57Z" transform="translate(-594.67 -582.15)"/><path class="cls-3" d="M1045.77,728.32h-2.55V712.71h2.55v6.07a4,4,0,0,1,3.48-2c2.51,0,4,1.71,4,4.34v7.18h-2.55v-6.41c0-1.75-.87-2.76-2.38-2.76a2.5,2.5,0,0,0-2.51,2.8v6.37Z" transform="translate(-594.67 -582.15)"/><path class="cls-3" d="M1061.6,728.57a5.8,5.8,0,0,1-5.91-5.86A5.94,5.94,0,1,1,1061.6,728.57Zm0-9.51a3.38,3.38,0,0,0-3.36,3.61,3.47,3.47,0,0,0,3.4,3.66,3.38,3.38,0,0,0,3.38-3.61A3.48,3.48,0,0,0,1061.6,719.06Z" transform="translate(-594.67 -582.15)"/><path class="cls-3" d="M1075.46,728.57a5.8,5.8,0,0,1-5.91-5.86A5.94,5.94,0,1,1,1075.46,728.57Zm0-9.51a3.38,3.38,0,0,0-3.36,3.61,3.47,3.47,0,0,0,3.4,3.66,3.38,3.38,0,0,0,3.38-3.61A3.48,3.48,0,0,0,1075.46,719.06Z" transform="translate(-594.67 -582.15)"/><path class="cls-3" d="M1084.18,728.32V712.71h2.55v15.61h-2.55Z" transform="translate(-594.67 -582.15)"/><path class="cls-3" d="M1093.88,728.53a7.76,7.76,0,0,1-4.73-1.69l1.14-1.75a6.2,6.2,0,0,0,3.65,1.39c1.1,0,1.73-.47,1.73-1.22v0c0-.88-1.18-1.18-2.49-1.58-1.65-.47-3.48-1.15-3.48-3.31v0c0-2.14,1.75-3.44,4-3.44a7.65,7.65,0,0,1,4.09,1.28l-1,1.84a6.4,6.4,0,0,0-3.14-1.07c-1,0-1.56.47-1.56,1.13v0c0,0.81,1.2,1.15,2.51,1.58,1.63,0.51,3.46,1.26,3.46,3.29v0C1098,727.36,1096.2,728.53,1093.88,728.53Z" transform="translate(-594.67 -582.15)"/><path class="cls-3" d="M967.89,754h-2.55V738.37h2.55v6.07a4,4,0,0,1,3.48-2c2.51,0,4,1.71,4,4.34V754h-2.55v-6.41c0-1.75-.87-2.76-2.38-2.76a2.5,2.5,0,0,0-2.51,2.8V754Z" transform="translate(-594.67 -582.15)"/><path class="cls-3" d="M985.23,754v-1.39a4.48,4.48,0,0,1-3.61,1.63c-2.11,0-4-1.22-4-3.49v0c0-2.44,1.92-3.63,4.52-3.63a9.26,9.26,0,0,1,3.08.47v-0.28c0-1.56-1-2.42-2.74-2.42a7.67,7.67,0,0,0-3.19.71l-0.7-2.07a9.44,9.44,0,0,1,4.24-.94c3.29,0,4.9,1.75,4.9,4.77V754h-2.53Zm0.06-4.79a7.23,7.23,0,0,0-2.55-.45c-1.6,0-2.55.66-2.55,1.82v0c0,1.07,1,1.67,2.15,1.67,1.69,0,3-1,3-2.37v-0.71Z" transform="translate(-594.67 -582.15)"/><path class="cls-3" d="M998.08,742.69h2.68l-4.56,11.37h-2.3l-4.58-11.37h2.74l3,8.29Z" transform="translate(-594.67 -582.15)"/><path class="cls-3" d="M1007.45,752.11a4,4,0,0,0,3-1.35l1.5,1.35a5.8,5.8,0,0,1-10.28-3.76c0-3.25,2.26-5.9,5.44-5.9,3.54,0,5.34,2.82,5.34,6.09,0,0.23,0,.45,0,0.71h-8.19A3.14,3.14,0,0,0,1007.45,752.11Zm2.49-4.57c-0.17-1.67-1.14-3-2.83-3s-2.66,1.22-2.89,3h5.72Z" transform="translate(-594.67 -582.15)"/><path class="cls-3" d="M1026.33,757.44a9.51,9.51,0,0,1-5-1.35l0.95-1.95a7.19,7.19,0,0,0,4,1.2c2.28,0,3.52-1.2,3.52-3.46V751a4.65,4.65,0,0,1-3.92,2.07,5.32,5.32,0,0,1,0-10.62,4.79,4.79,0,0,1,3.9,1.92v-1.69h2.55v9C1032.32,755.66,1030.17,757.44,1026.33,757.44Zm0.21-12.8a3.13,3.13,0,1,0,0,6.26A3.13,3.13,0,1,0,1026.54,744.63Z" transform="translate(-594.67 -582.15)"/><path class="cls-3" d="M1042.32,754v-1.39a4.48,4.48,0,0,1-3.61,1.63c-2.11,0-4-1.22-4-3.49v0c0-2.44,1.92-3.63,4.52-3.63a9.26,9.26,0,0,1,3.08.47v-0.28c0-1.56-1-2.42-2.74-2.42a7.67,7.67,0,0,0-3.19.71l-0.7-2.07a9.44,9.44,0,0,1,4.24-.94c3.29,0,4.9,1.75,4.9,4.77V754h-2.53Zm0.06-4.79a7.23,7.23,0,0,0-2.55-.45c-1.6,0-2.55.66-2.55,1.82v0c0,1.07.95,1.67,2.15,1.67,1.69,0,3-1,3-2.37v-0.71Z" transform="translate(-594.67 -582.15)"/><path class="cls-3" d="M1050.45,754h-2.55V742.69h2.55v1.75a4,4,0,0,1,3.48-2c2.51,0,4,1.71,4,4.34V754h-2.55v-6.41c0-1.75-.87-2.76-2.38-2.76a2.5,2.5,0,0,0-2.51,2.8V754Z" transform="translate(-594.67 -582.15)"/><path class="cls-3" d="M1065.94,757.44a9.51,9.51,0,0,1-5-1.35l0.95-1.95a7.19,7.19,0,0,0,4,1.2c2.28,0,3.52-1.2,3.52-3.46V751a4.65,4.65,0,0,1-3.92,2.07,5.32,5.32,0,0,1,0-10.62,4.79,4.79,0,0,1,3.9,1.92v-1.69h2.55v9C1071.93,755.66,1069.78,757.44,1065.94,757.44Zm0.21-12.8a3.13,3.13,0,1,0,0,6.26A3.13,3.13,0,1,0,1066.15,744.63Z" transform="translate(-594.67 -582.15)"/><path class="cls-3" d="M971.05,768.11c2.43,0,3.9,1.56,3.9,4.32v7.2H972.4v-6.41c0-1.8-.82-2.76-2.26-2.76s-2.38,1-2.38,2.8v6.37H965.2v-6.43c0-1.75-.84-2.74-2.26-2.74s-2.38,1.07-2.38,2.82v6.35H958V768.34h2.55v1.71a4,4,0,0,1,3.4-1.95,3.5,3.5,0,0,1,3.31,2A4.53,4.53,0,0,1,971.05,768.11Z" transform="translate(-594.67 -582.15)"/><path class="cls-3" d="M983.2,777.77a4,4,0,0,0,3-1.35l1.5,1.35A5.8,5.8,0,0,1,977.44,774c0-3.25,2.26-5.9,5.44-5.9,3.54,0,5.34,2.82,5.34,6.09,0,0.23,0,.45,0,0.71H980A3.14,3.14,0,0,0,983.2,777.77Zm2.49-4.57c-0.17-1.67-1.14-3-2.83-3s-2.66,1.22-2.89,3h5.72Z" transform="translate(-594.67 -582.15)"/><path class="cls-3" d="M1003.84,768.11c2.43,0,3.9,1.56,3.9,4.32v7.2h-2.55v-6.41c0-1.8-.82-2.76-2.26-2.76s-2.38,1-2.38,2.8v6.37H998v-6.43c0-1.75-.84-2.74-2.26-2.74s-2.38,1.07-2.38,2.82v6.35H990.8V768.34h2.55v1.71a4,4,0,0,1,3.4-1.95,3.5,3.5,0,0,1,3.31,2A4.53,4.53,0,0,1,1003.84,768.11Z" transform="translate(-594.67 -582.15)"/><path class="cls-3" d="M1017.17,779.86a4.53,4.53,0,0,1-3.78-2v1.75h-2.55V764h2.55v6.2a4.44,4.44,0,0,1,3.78-2.12c2.64,0,5.19,2.12,5.19,5.88S1019.83,779.86,1017.17,779.86Zm-0.59-9.51a3.66,3.66,0,0,0,0,7.27c1.75,0,3.19-1.39,3.19-3.63A3.32,3.32,0,0,0,1016.58,770.35Z" transform="translate(-594.67 -582.15)"/><path class="cls-3" d="M1030.13,777.77a4,4,0,0,0,3-1.35l1.5,1.35a5.8,5.8,0,0,1-10.28-3.76c0-3.25,2.26-5.9,5.44-5.9,3.54,0,5.34,2.82,5.34,6.09,0,0.23,0,.45,0,0.71h-8.19A3.14,3.14,0,0,0,1030.13,777.77Zm2.49-4.57c-0.17-1.67-1.14-3-2.83-3s-2.66,1.22-2.89,3h5.72Z" transform="translate(-594.67 -582.15)"/><path class="cls-3" d="M1040.28,779.63h-2.55V768.34h2.55v2.54a4,4,0,0,1,3.95-2.76v2.74h-0.15c-2.24,0-3.8,1.47-3.8,4.47v4.3Z" transform="translate(-594.67 -582.15)"/><path class="cls-3" d="M1050.26,779.84a7.76,7.76,0,0,1-4.73-1.69l1.14-1.75a6.2,6.2,0,0,0,3.65,1.39c1.1,0,1.73-.47,1.73-1.22v0c0-.88-1.18-1.18-2.49-1.58-1.65-.47-3.48-1.15-3.48-3.31v0c0-2.14,1.75-3.44,4-3.44a7.65,7.65,0,0,1,4.09,1.28l-1,1.84a6.41,6.41,0,0,0-3.14-1.07c-1,0-1.56.47-1.56,1.13v0c0,0.81,1.2,1.15,2.51,1.58,1.63,0.51,3.46,1.26,3.46,3.29v0C1054.4,778.67,1052.58,779.84,1050.26,779.84Z" transform="translate(-594.67 -582.15)"/><path class="cls-3" d="M1063.36,766.61v-2.46h2.74v2.46h-2.74Zm0.11,13V768.34H1066v11.29h-2.55Z" transform="translate(-594.67 -582.15)"/><path class="cls-3" d="M1071.91,779.63h-2.55V768.34h2.55v1.75a4,4,0,0,1,3.48-2c2.51,0,4,1.71,4,4.34v7.18h-2.55v-6.41c0-1.75-.87-2.76-2.38-2.76a2.5,2.5,0,0,0-2.51,2.8v6.37Z" transform="translate(-594.67 -582.15)"/><path class="cls-3" d="M960.81,801.76a1.22,1.22,0,0,0,1.37,1.41,3.41,3.41,0,0,0,1.58-.38v2.12a4.43,4.43,0,0,1-2.3.58c-1.88,0-3.21-.83-3.21-3.31v-5.94h-1.41V794h1.41v-3.1h2.55V794h3v2.22h-3v5.54Z" transform="translate(-594.67 -582.15)"/><path class="cls-3" d="M968.93,805.28h-2.55V789.68h2.55v6.07a4,4,0,0,1,3.48-2c2.51,0,4,1.71,4,4.34v7.18h-2.55v-6.41c0-1.75-.87-2.76-2.38-2.76a2.5,2.5,0,0,0-2.51,2.8v6.37Z" transform="translate(-594.67 -582.15)"/><path class="cls-3" d="M984.61,803.42a4,4,0,0,0,3-1.35l1.5,1.35a5.8,5.8,0,0,1-10.28-3.76c0-3.25,2.26-5.9,5.44-5.9,3.54,0,5.34,2.82,5.34,6.09,0,0.23,0,.45,0,0.71H981.4A3.14,3.14,0,0,0,984.61,803.42Zm2.49-4.57c-0.17-1.67-1.14-3-2.83-3s-2.66,1.22-2.89,3h5.72Z" transform="translate(-594.67 -582.15)"/><path class="cls-3" d="M992.24,792.26v-2.46H995v2.46h-2.74Zm0.11,13V794h2.55v11.29h-2.55Z" transform="translate(-594.67 -582.15)"/><path class="cls-3" d="M1000.79,805.28h-2.55V794h2.55v2.54a4,4,0,0,1,3.95-2.76v2.74h-0.15c-2.24,0-3.8,1.47-3.8,4.47v4.3Z" transform="translate(-594.67 -582.15)"/><path class="cls-3" d="M1017.1,805.5a7.76,7.76,0,0,1-4.73-1.69l1.14-1.75a6.2,6.2,0,0,0,3.65,1.39c1.1,0,1.73-.47,1.73-1.22v0c0-.88-1.18-1.18-2.49-1.58-1.65-.47-3.48-1.15-3.48-3.31v0c0-2.14,1.75-3.44,4-3.44a7.65,7.65,0,0,1,4.09,1.28l-1,1.84a6.4,6.4,0,0,0-3.14-1.07c-1,0-1.56.47-1.56,1.13v0c0,0.81,1.2,1.15,2.51,1.58,1.63,0.51,3.46,1.26,3.46,3.29v0C1021.24,804.32,1019.42,805.5,1017.1,805.5Z" transform="translate(-594.67 -582.15)"/><path class="cls-3" d="M1029,805.54a5.73,5.73,0,0,1-5.76-5.86,5.79,5.79,0,0,1,5.78-5.92,5.53,5.53,0,0,1,4.45,1.95l-1.58,1.73A3.73,3.73,0,0,0,1029,796a3.38,3.38,0,0,0-3.21,3.61,3.42,3.42,0,0,0,3.33,3.66,3.9,3.9,0,0,0,2.89-1.41l1.54,1.54A5.61,5.61,0,0,1,1029,805.54Z" transform="translate(-594.67 -582.15)"/><path class="cls-3" d="M1038.43,805.28h-2.55V789.68h2.55v6.07a4,4,0,0,1,3.48-2c2.51,0,4,1.71,4,4.34v7.18h-2.55v-6.41c0-1.75-.87-2.76-2.38-2.76a2.5,2.5,0,0,0-2.51,2.8v6.37Z" transform="translate(-594.67 -582.15)"/><path class="cls-3" d="M1054.26,805.54a5.8,5.8,0,0,1-5.91-5.86A5.94,5.94,0,1,1,1054.26,805.54Zm0-9.51a3.38,3.38,0,0,0-3.36,3.61,3.47,3.47,0,0,0,3.4,3.66,3.38,3.38,0,0,0,3.38-3.61A3.48,3.48,0,0,0,1054.26,796Z" transform="translate(-594.67 -582.15)"/><path class="cls-3" d="M1068.12,805.54a5.8,5.8,0,0,1-5.91-5.86A5.94,5.94,0,1,1,1068.12,805.54Zm0-9.51a3.38,3.38,0,0,0-3.36,3.61,3.47,3.47,0,0,0,3.4,3.66,3.38,3.38,0,0,0,3.38-3.61A3.48,3.48,0,0,0,1068.12,796Z" transform="translate(-594.67 -582.15)"/><path class="cls-3" d="M1076.83,805.28V789.68h2.55v15.61h-2.55Z" transform="translate(-594.67 -582.15)"/><circle class="cls-1" cx="224.98" cy="357.49" r="110"/><path class="cls-2" d="M759.36,891.54h-6.91v-6.73h21.68v6.73h-6.91v17.07h-7.85V891.54Z" transform="translate(-594.67 -582.15)"/><path class="cls-2" d="M772.45,899.43v-0.07c0-5.54,3.93-9.76,9.43-9.76,6.51,0,9.53,4.59,9.53,10.23,0,0.41,0,.88,0,1.29H779.59a3.43,3.43,0,0,0,3.46,2.48,5.08,5.08,0,0,0,3.72-1.9l4.09,3.3a9.87,9.87,0,0,1-8.35,4C776.51,909.05,772.45,905.21,772.45,899.43Zm12-1.7c-0.17-1.77-1.21-2.79-2.55-2.79s-2.18,1.09-2.42,2.79h5Z" transform="translate(-594.67 -582.15)"/><path class="cls-2" d="M792.38,903.34v-0.07c0-3.71,2.72-5.78,7-5.78a14.11,14.11,0,0,1,4.33.68v-0.31c0-1.7-1-2.69-3.39-2.69a13.11,13.11,0,0,0-5.07,1.05l-1.34-5.13a20.69,20.69,0,0,1,7.72-1.36c3.72,0,6.14.78,7.75,2.41,1.38,1.39,1.91,3.2,1.91,5.88v10.57h-7.62v-1.87a6.86,6.86,0,0,1-5.27,2.31C794.86,909.05,792.38,907,792.38,903.34Zm11.37-1.6V901a5.18,5.18,0,0,0-1.74-.31,2.09,2.09,0,0,0-2.35,2.07v0.07a1.71,1.71,0,0,0,1.74,1.8C802.75,904.6,803.75,903.51,803.75,901.74Z" transform="translate(-594.67 -582.15)"/><path class="cls-2" d="M812.85,899.43v-0.07a9.69,9.69,0,0,1,10-9.72,8.74,8.74,0,0,1,8.29,5.13l-5.47,3.13A2.94,2.94,0,0,0,823,896a3,3,0,0,0-2.82,3.26v0.07c0,1.94,1.21,3.33,2.72,3.33a3.17,3.17,0,0,0,2.85-1.87l5.54,3.2c-1.64,3.09-4.43,5.07-8.79,5.07A9.57,9.57,0,0,1,812.85,899.43Z" transform="translate(-594.67 -582.15)"/><path class="cls-2" d="M832.44,883.79h7.62v8.74a7,7,0,0,1,5.6-2.92c3.86,0,6.27,2.58,6.27,6.77v12.24h-7.62v-9.76c0-1.6-.94-2.52-2.08-2.52a2.28,2.28,0,0,0-2.18,2.52v9.76h-7.62V883.79Z" transform="translate(-594.67 -582.15)"/><path class="cls-2" d="M853.52,899.43v-0.07c0-5.54,3.93-9.76,9.43-9.76,6.51,0,9.53,4.59,9.53,10.23,0,0.41,0,.88,0,1.29H860.66a3.43,3.43,0,0,0,3.46,2.48,5.08,5.08,0,0,0,3.72-1.9l4.09,3.3a9.87,9.87,0,0,1-8.35,4C857.58,909.05,853.52,905.21,853.52,899.43Zm12-1.7c-0.17-1.77-1.21-2.79-2.55-2.79s-2.18,1.09-2.42,2.79h5Z" transform="translate(-594.67 -582.15)"/><path class="cls-2" d="M874.15,890h7.62v3.74c1-2.52,2.72-4.15,5.74-4V898h-0.8c-3.22,0-4.93,1.8-4.93,5.92v4.73h-7.62V890Z" transform="translate(-594.67 -582.15)"/><path class="cls-2" d="M750.65,916.81h11.48c4.16,0,6.81,1.05,8.46,2.72a7.53,7.53,0,0,1,2.15,5.64v0.07a7.7,7.7,0,0,1-4.63,7.28l5.47,8.09h-9l-4.43-6.8H758.5v6.8h-7.85v-23.8Zm11.24,11.32c1.88,0,3-.85,3-2.31v-0.07c0-1.53-1.17-2.28-3-2.28H758.5v4.66h3.39Z" transform="translate(-594.67 -582.15)"/><path class="cls-2" d="M773.74,935.34v-0.07c0-3.71,2.72-5.78,7-5.78a14.11,14.11,0,0,1,4.33.68v-0.31c0-1.7-1-2.69-3.39-2.69a13.11,13.11,0,0,0-5.07,1.05l-1.34-5.13a20.69,20.69,0,0,1,7.72-1.36c3.72,0,6.14.78,7.75,2.41,1.38,1.39,1.91,3.2,1.91,5.88v10.57H785v-1.87a6.86,6.86,0,0,1-5.27,2.31C776.22,941.05,773.74,939,773.74,935.34Zm11.37-1.6V933a5.18,5.18,0,0,0-1.74-.31,2.09,2.09,0,0,0-2.35,2.07v0.07a1.71,1.71,0,0,0,1.74,1.8C784.11,936.6,785.11,935.51,785.11,933.74Z" transform="translate(-594.67 -582.15)"/><path class="cls-2" d="M794.78,922h7.62v2.28a6.76,6.76,0,0,1,5.44-2.72c4.43,0,7.88,3.91,7.88,9.59v0.07c0,5.88-3.49,9.79-7.82,9.79a6.8,6.8,0,0,1-5.5-2.55v7.55h-7.62V922Zm13.56,9.31V931.3a3.06,3.06,0,1,0-6.11,0v0.07A3.06,3.06,0,1,0,808.33,931.36Z" transform="translate(-594.67 -582.15)"/><path class="cls-2" d="M817.46,922h7.62v2.28a6.76,6.76,0,0,1,5.44-2.72c4.43,0,7.88,3.91,7.88,9.59v0.07c0,5.88-3.49,9.79-7.82,9.79a6.8,6.8,0,0,1-5.5-2.55v7.55h-7.62V922ZM831,931.36V931.3a3.06,3.06,0,1,0-6.11,0v0.07A3.06,3.06,0,1,0,831,931.36Z" transform="translate(-594.67 -582.15)"/><path class="cls-2" d="M839.57,931.4v-0.07c0-5.24,4.29-9.72,10.33-9.72s10.27,4.42,10.27,9.66v0.07c0,5.24-4.29,9.72-10.33,9.72S839.57,936.63,839.57,931.4Zm13.29,0v-0.07a3.15,3.15,0,0,0-3-3.3,3.06,3.06,0,0,0-3,3.23v0.07a3.15,3.15,0,0,0,3,3.3A3.06,3.06,0,0,0,852.86,931.4Z" transform="translate(-594.67 -582.15)"/><path class="cls-2" d="M861.89,922h7.62v3.74c1-2.52,2.72-4.15,5.74-4V930h-0.8c-3.22,0-4.93,1.8-4.93,5.92v4.73h-7.62V922Z" transform="translate(-594.67 -582.15)"/><path class="cls-2" d="M878,934.39V928h-2.15V922H878v-4.66h7.62V922h4.23V928h-4.23v4.69a1.62,1.62,0,0,0,1.85,1.9,5.65,5.65,0,0,0,2.31-.58V940a10.87,10.87,0,0,1-4.87,1.05C880.38,941,878,938.91,878,934.39Z" transform="translate(-594.67 -582.15)"/><path class="cls-3" d="M762.88,958v-2.18h2.44V958h-2.44ZM763,969.61v-10h2.27v10H763Z" transform="translate(-594.67 -582.15)"/><path class="cls-3" d="M771.6,969.8a6.9,6.9,0,0,1-4.2-1.5l1-1.56a5.51,5.51,0,0,0,3.24,1.23c1,0,1.54-.42,1.54-1.08v0c0-.78-1-1-2.21-1.41-1.46-.42-3.09-1-3.09-2.94v0c0-1.9,1.56-3.06,3.53-3.06a6.8,6.8,0,0,1,3.64,1.14l-0.9,1.63a5.7,5.7,0,0,0-2.79-1,1.15,1.15,0,0,0-1.39,1v0c0,0.72,1.07,1,2.23,1.41,1.44,0.46,3.08,1.12,3.08,2.93v0C775.27,968.76,773.66,969.8,771.6,969.8Z" transform="translate(-594.67 -582.15)"/><path class="cls-3" d="M787.78,969.84a5.09,5.09,0,0,1-5.12-5.21,5.15,5.15,0,0,1,5.14-5.26,4.92,4.92,0,0,1,4,1.73l-1.41,1.54a3.32,3.32,0,0,0-2.57-1.25,3,3,0,0,0-2.85,3.21,3,3,0,0,0,3,3.25,3.47,3.47,0,0,0,2.57-1.25l1.37,1.37A5,5,0,0,1,787.78,969.84Z" transform="translate(-594.67 -582.15)"/><path class="cls-3" d="M796.18,969.61h-2.27v-10h2.27v2.26a3.51,3.51,0,0,1,3.51-2.45v2.43h-0.13c-2,0-3.38,1.31-3.38,4v3.82Z" transform="translate(-594.67 -582.15)"/><path class="cls-3" d="M801.69,958v-2.18h2.44V958h-2.44Zm0.09,11.57v-10h2.27v10h-2.27Z" transform="translate(-594.67 -582.15)"/><path class="cls-3" d="M809.75,966.48a1.09,1.09,0,0,0,1.22,1.25,3,3,0,0,0,1.41-.34v1.88a3.93,3.93,0,0,1-2,.51c-1.67,0-2.85-.74-2.85-2.94v-5.28h-1.26v-2h1.26v-2.75h2.27v2.75h2.66v2h-2.66v4.92Z" transform="translate(-594.67 -582.15)"/><path class="cls-3" d="M814.74,958v-2.18h2.44V958h-2.44Zm0.09,11.57v-10h2.27v10h-2.27Z" transform="translate(-594.67 -582.15)"/><path class="cls-3" d="M824.64,969.84a5.09,5.09,0,0,1-5.12-5.21,5.15,5.15,0,0,1,5.14-5.26,4.92,4.92,0,0,1,4,1.73l-1.41,1.54a3.32,3.32,0,0,0-2.57-1.25,3,3,0,0,0-2.85,3.21,3,3,0,0,0,3,3.25,3.47,3.47,0,0,0,2.57-1.25l1.37,1.37A5,5,0,0,1,824.64,969.84Z" transform="translate(-594.67 -582.15)"/><path class="cls-3" d="M836.83,969.61v-1.23a4,4,0,0,1-3.21,1.44c-1.87,0-3.53-1.08-3.53-3.1v0c0-2.17,1.71-3.23,4-3.23a8.25,8.25,0,0,1,2.74.42v-0.25c0-1.39-.86-2.15-2.44-2.15a6.82,6.82,0,0,0-2.83.63L831,960.26a8.41,8.41,0,0,1,3.77-.84c2.93,0,4.35,1.56,4.35,4.24v5.95h-2.25Zm0.06-4.25a6.4,6.4,0,0,0-2.27-.4c-1.42,0-2.27.59-2.27,1.62v0a1.65,1.65,0,0,0,1.91,1.48c1.5,0,2.63-.85,2.63-2.11v-0.63Z" transform="translate(-594.67 -582.15)"/><path class="cls-3" d="M841.91,969.61V955.74h2.27v13.87h-2.27Z" transform="translate(-594.67 -582.15)"/><path class="cls-3" d="M858.13,959.66v1.9h-2.59v8.05h-2.27v-8.05H852v-1.92h1.26v-0.72c0-2.2,1.09-3.29,3-3.29a6,6,0,0,1,1.84.27v1.94a4,4,0,0,0-1.33-.25,1.25,1.25,0,0,0-1.31,1.52v0.55h2.63Z" transform="translate(-594.67 -582.15)"/><path class="cls-3" d="M864.34,969.84a5.16,5.16,0,0,1-5.25-5.21A5.28,5.28,0,1,1,864.34,969.84Zm0-8.45a3,3,0,0,0-3,3.21,3.08,3.08,0,0,0,3,3.25,3,3,0,0,0,3-3.21A3.09,3.09,0,0,0,864.34,961.39Z" transform="translate(-594.67 -582.15)"/><path class="cls-3" d="M874.22,969.61H872v-10h2.27v2.26a3.51,3.51,0,0,1,3.51-2.45v2.43H877.6c-2,0-3.38,1.31-3.38,4v3.82Z" transform="translate(-594.67 -582.15)"/><path class="cls-3" d="M742,995.49a8.45,8.45,0,0,1-4.43-1.2l0.84-1.73a6.39,6.39,0,0,0,3.53,1.06,2.79,2.79,0,0,0,3.13-3.08v-0.78a4.13,4.13,0,0,1-3.49,1.84,4.73,4.73,0,0,1,0-9.44,4.25,4.25,0,0,1,3.47,1.71v-1.5h2.27v8C747.3,993.91,745.39,995.49,742,995.49Zm0.19-11.38a2.78,2.78,0,1,0,0,5.57A2.79,2.79,0,1,0,742.17,984.11Z" transform="translate(-594.67 -582.15)"/><path class="cls-3" d="M756.19,992.41v-1.23a4,4,0,0,1-3.21,1.44c-1.87,0-3.53-1.08-3.53-3.1v0c0-2.17,1.71-3.23,4-3.23a8.25,8.25,0,0,1,2.74.42v-0.25c0-1.39-.86-2.15-2.44-2.15a6.82,6.82,0,0,0-2.83.63l-0.62-1.84a8.41,8.41,0,0,1,3.77-.84c2.93,0,4.35,1.56,4.35,4.24v5.95h-2.25Zm0.06-4.25a6.4,6.4,0,0,0-2.27-.4c-1.42,0-2.27.59-2.27,1.62v0a1.65,1.65,0,0,0,1.91,1.48c1.5,0,2.63-.85,2.63-2.11v-0.63Z" transform="translate(-594.67 -582.15)"/><path class="cls-3" d="M763.41,992.41h-2.27v-10h2.27v1.56a3.56,3.56,0,0,1,3.09-1.77c2.23,0,3.53,1.52,3.53,3.86v6.38h-2.27v-5.7c0-1.56-.77-2.45-2.12-2.45a2.22,2.22,0,0,0-2.23,2.49v5.66Z" transform="translate(-594.67 -582.15)"/><path class="cls-3" d="M777.18,995.49a8.45,8.45,0,0,1-4.43-1.2l0.84-1.73a6.39,6.39,0,0,0,3.53,1.06,2.79,2.79,0,0,0,3.13-3.08v-0.78a4.13,4.13,0,0,1-3.49,1.84,4.73,4.73,0,0,1,0-9.44,4.25,4.25,0,0,1,3.47,1.71v-1.5h2.27v8C782.5,993.91,780.59,995.49,777.18,995.49Zm0.19-11.38a2.78,2.78,0,1,0,0,5.57A2.79,2.79,0,1,0,777.36,984.11Z" transform="translate(-594.67 -582.15)"/><path class="cls-3" d="M791,980.84v-2.18h2.44v2.18H791Zm0.09,11.57v-10h2.27v10h-2.27Z" transform="translate(-594.67 -582.15)"/><path class="cls-3" d="M798.59,992.41h-2.27v-10h2.27v1.56a3.56,3.56,0,0,1,3.09-1.77c2.23,0,3.53,1.52,3.53,3.86v6.38h-2.27v-5.7c0-1.56-.77-2.45-2.12-2.45a2.22,2.22,0,0,0-2.23,2.49v5.66Z" transform="translate(-594.67 -582.15)"/><path class="cls-3" d="M810.68,989.28a1.09,1.09,0,0,0,1.22,1.25,3,3,0,0,0,1.41-.34v1.88a3.93,3.93,0,0,1-2,.51c-1.67,0-2.85-.74-2.85-2.94v-5.28h-1.26v-2h1.26v-2.75h2.27v2.75h2.66v2h-2.66v4.92Z" transform="translate(-594.67 -582.15)"/><path class="cls-3" d="M819.93,990.76a3.57,3.57,0,0,0,2.68-1.2l1.33,1.2a5.2,5.2,0,1,1-4.29-8.59c3.15,0,4.74,2.51,4.74,5.41,0,0.21,0,.4,0,0.63h-7.28A2.79,2.79,0,0,0,819.93,990.76Zm2.21-4.07a2.59,2.59,0,0,0-2.51-2.64,2.7,2.7,0,0,0-2.57,2.64h5.08Z" transform="translate(-594.67 -582.15)"/><path class="cls-3" d="M828.95,992.41h-2.27v-10h2.27v2.26a3.51,3.51,0,0,1,3.51-2.45v2.43h-0.13c-2,0-3.38,1.31-3.38,4v3.82Z" transform="translate(-594.67 -582.15)"/><path class="cls-3" d="M841.27,982.38h2.38l-4,10.11h-2l-4.07-10.11h2.44l2.66,7.37Z" transform="translate(-594.67 -582.15)"/><path class="cls-3" d="M849.59,990.76a3.57,3.57,0,0,0,2.68-1.2l1.33,1.2a5.2,5.2,0,1,1-4.29-8.59c3.15,0,4.74,2.51,4.74,5.41,0,0.21,0,.4,0,0.63h-7.28A2.79,2.79,0,0,0,849.59,990.76Zm2.21-4.07a2.59,2.59,0,0,0-2.51-2.64,2.7,2.7,0,0,0-2.57,2.64h5.08Z" transform="translate(-594.67 -582.15)"/><path class="cls-3" d="M858.61,992.41h-2.27v-10h2.27v1.56a3.56,3.56,0,0,1,3.09-1.77c2.23,0,3.53,1.52,3.53,3.86v6.38H863v-5.7c0-1.56-.77-2.45-2.12-2.45a2.22,2.22,0,0,0-2.23,2.49v5.66Z" transform="translate(-594.67 -582.15)"/><path class="cls-3" d="M870.7,989.28a1.09,1.09,0,0,0,1.22,1.25,3,3,0,0,0,1.41-.34v1.88a3.93,3.93,0,0,1-2,.51c-1.67,0-2.85-.74-2.85-2.94v-5.28h-1.26v-2h1.26v-2.75h2.27v2.75h2.66v2H870.7v4.92Z" transform="translate(-594.67 -582.15)"/><path class="cls-3" d="M875.69,980.84v-2.18h2.44v2.18h-2.44Zm0.09,11.57v-10h2.27v10h-2.27Z" transform="translate(-594.67 -582.15)"/><path class="cls-3" d="M885.72,992.64a5.16,5.16,0,0,1-5.25-5.21A5.28,5.28,0,1,1,885.72,992.64Zm0-8.45a3,3,0,0,0-3,3.21,3.08,3.08,0,0,0,3,3.25,3,3,0,0,0,3-3.21A3.09,3.09,0,0,0,885.72,984.19Z" transform="translate(-594.67 -582.15)"/><path class="cls-3" d="M895.61,992.41h-2.27v-10h2.27v1.56a3.56,3.56,0,0,1,3.09-1.77c2.23,0,3.53,1.52,3.53,3.86v6.38H900v-5.7c0-1.56-.77-2.45-2.12-2.45a2.22,2.22,0,0,0-2.23,2.49v5.66Z" transform="translate(-594.67 -582.15)"/></svg>