<?xml version="1.0" encoding="utf-8"?>
<!-- Generator: Adobe Illustrator 19.2.0, SVG Export Plug-In . SVG Version: 6.00 Build 0)  -->
<svg version="1.1" id="Layer_1" xmlns="http://www.w3.org/2000/svg" xmlns:xlink="http://www.w3.org/1999/xlink" x="0px" y="0px"
	 viewBox="0 0 534 467.5" style="enable-background:new 0 0 534 467.5;" xml:space="preserve">
<style type="text/css">
	.st0{fill:#E0E0E0;}
	.st1{fill:#4474B8;}
	.st2{fill:#231F20;}
</style>
<title>alan-story</title>
<circle class="st0" cx="110" cy="110" r="110"/>
<path class="st1" d="M56,90.5L56,90.5c0-4.2,2.4-6.7,6-8.2c-2.5-1.3-4.8-3.6-4.8-7.3V75c0-5.5,5.5-9.4,13.3-9.4s13.3,3.9,13.3,9.4
	v0.1c0,3.7-2.3,6-4.8,7.3c3.4,1.4,6,3.8,6,8.1v0.1c0,5.9-5.9,9.9-14.5,9.9S56,96.4,56,90.5z M74.3,89.3L74.3,89.3
	c0-1.9-1.5-3.4-3.8-3.4s-3.8,1.4-3.8,3.3v0.1c0,1.7,1.3,3.4,3.8,3.4S74.3,90.9,74.3,89.3z M73.9,76.5L73.9,76.5
	c-0.2-2-1.9-3.4-3.8-3.2c-1.7,0.2-3,1.5-3.1,3.1v0.1c0.1,1.9,1.7,3.4,3.7,3.3C72.4,79.6,73.8,78.2,73.9,76.5L73.9,76.5z"/>
<path class="st1" d="M86.7,83.1L86.7,83.1c0-9.4,6-17.7,16-17.7s16,8.2,16,17.5V83c0,9.3-6,17.6-16,17.6S86.7,92.4,86.7,83.1z
	 M107.7,83.1L107.7,83.1c0-4.7-2-7.9-5-7.9s-4.9,3.1-4.9,7.7V83c0,4.6,2,7.8,5,7.8S107.7,87.7,107.7,83.1L107.7,83.1z"/>
<path class="st1" d="M121.2,75.1L121.2,75.1c0-5.2,3.5-9.5,9.1-9.5s9.1,4.3,9.1,9.4v0.1c0,5.2-3.7,9.4-9.1,9.4
	S121.2,80.3,121.2,75.1z M152.2,66.1h7.1l-27,33.7h-7.2L152.2,66.1z M132.8,75.1L132.8,75.1c0-2.1-1.1-3.4-2.5-3.4s-2.5,1.2-2.5,3.3
	v0.1c0,2,1.2,3.3,2.5,3.3S132.8,77.2,132.8,75.1L132.8,75.1z M145.2,90.9L145.2,90.9c0-5.2,3.5-9.5,9.1-9.5s9,4.3,9,9.4v0.1
	c0,5.2-3.7,9.4-9.1,9.4S145.2,96.1,145.2,90.9L145.2,90.9z M156.8,90.9L156.8,90.9c0-2.1-1.1-3.4-2.5-3.4s-2.5,1.2-2.5,3.3v0.1
	c0,2,1.2,3.3,2.5,3.3S156.7,93,156.8,90.9L156.8,90.9z"/>
<path class="st2" d="M23.3,125.7c-3.2,0.1-5.8-2.5-5.9-5.7c0-0.1,0-0.1,0-0.2c0-3.3,2.6-6,5.9-6s6,2.6,6,5.9c0,3.3-2.6,6-5.9,6
	C23.4,125.7,23.4,125.7,23.3,125.7z M23.3,116.2c-1.9,0-3.4,1.5-3.4,3.4c0,0.1,0,0.2,0,0.2c-0.1,1.9,1.4,3.6,3.3,3.7
	c0,0,0.1,0,0.1,0c1.9,0,3.4-1.5,3.4-3.4c0-0.1,0-0.2,0-0.3C26.8,117.9,25.3,116.3,23.3,116.2C23.4,116.2,23.4,116.2,23.3,116.2z"/>
<path class="st2" d="M37.9,114.3v2.1H35v9.1h-2.5v-9.1H31v-2.2h1.4v-0.8c0-2.5,1.2-3.7,3.4-3.7c0.7,0,1.4,0.1,2.1,0.3v2.2
	c-0.5-0.2-1-0.3-1.5-0.3c-1,0-1.5,0.5-1.5,1.7v0.6L37.9,114.3L37.9,114.3z"/>
<path class="st2" d="M51.1,128.9c-1.8,0-3.5-0.4-5-1.3l1-2c1.2,0.8,2.6,1.2,4,1.2c2.3,0,3.5-1.2,3.5-3.5v-0.9
	c-0.9,1.3-2.4,2.1-3.9,2.1c-2.9-0.2-5.2-2.7-5-5.6c0.2-2.7,2.3-4.8,5-5c1.5,0,3,0.7,3.9,1.9v-1.7h2.5v9
	C57.1,127.2,54.9,128.9,51.1,128.9z M51.3,116.1c-1.7,0-3.1,1.4-3.1,3.1s1.4,3.1,3.1,3.1s3.1-1.4,3.1-3.1S53.1,116.1,51.3,116.1z"/>
<path class="st2" d="M67.1,125.5v-1.4c-0.9,1.1-2.2,1.7-3.6,1.6c-2.1,0-4-1.2-4-3.5l0,0c0-2.4,1.9-3.6,4.5-3.6c1,0,2.1,0.1,3.1,0.5
	v-0.3c0-1.6-1-2.4-2.7-2.4c-1.1,0-2.2,0.2-3.2,0.7l-0.7-2.1c1.3-0.6,2.8-1,4.2-0.9c3.3,0,4.9,1.8,4.9,4.8v6.7L67.1,125.5L67.1,125.5
	z M67.2,120.7c-0.8-0.3-1.7-0.5-2.5-0.5c-1.6,0-2.5,0.7-2.5,1.8l0,0c0,1.1,1,1.7,2.2,1.7c1.7,0,3-1,3-2.4L67.2,120.7L67.2,120.7z"/>
<path class="st2" d="M75.2,125.5h-2.5v-11.3h2.5v1.8c0.7-1.2,2-2,3.5-2c2.5,0,4,1.7,4,4.3v7.2h-2.5v-6.4c0-1.8-0.9-2.8-2.4-2.8
	c-1.4,0-2.5,1.1-2.5,2.5c0,0.1,0,0.2,0,0.3L75.2,125.5L75.2,125.5z"/>
<path class="st2" d="M90.7,128.9c-1.8,0-3.5-0.4-5-1.3l1-2c1.2,0.8,2.6,1.2,4,1.2c2.3,0,3.5-1.2,3.5-3.5v-0.9
	c-0.9,1.3-2.3,2.1-3.9,2.1c-2.9-0.2-5.2-2.7-5-5.6c0.2-2.7,2.3-4.8,5-5c1.5,0,3,0.7,3.9,1.9v-1.7h2.5v9
	C96.7,127.2,94.5,128.9,90.7,128.9z M90.9,116.1c-1.7,0-3.1,1.4-3.1,3.1s1.4,3.1,3.1,3.1l0,0c1.7,0,3.1-1.4,3.1-3.1
	S92.6,116.1,90.9,116.1z"/>
<path class="st2" d="M119.2,114c2.4,0,3.9,1.6,3.9,4.3v7.2h-2.5v-6.4c0-1.8-0.8-2.8-2.3-2.8s-2.4,1-2.4,2.8v6.4h-2.5V119
	c0-1.8-0.8-2.7-2.3-2.7s-2.4,1.1-2.4,2.8v6.3h-2.5v-11.3h2.5v1.7c0.7-1.2,2-1.9,3.4-2c1.4-0.1,2.7,0.7,3.3,2
	C116.3,114.7,117.7,114,119.2,114z"/>
<path class="st2" d="M131.4,123.6c1.1,0,2.2-0.5,3-1.3l1.5,1.3c-2,2.5-5.7,2.8-8.2,0.8c-1.3-1.1-2.1-2.8-2.1-4.5
	c0-3.2,2.3-5.9,5.4-5.9c3.5,0,5.3,2.8,5.3,6.1c0,0.2,0,0.5,0,0.7h-8.2C128.4,122.4,129.8,123.7,131.4,123.6z M133.9,119
	c-0.2-1.7-1.1-3-2.8-3s-2.7,1.2-2.9,3H133.9L133.9,119z"/>
<path class="st2" d="M152,114c2.4,0,3.9,1.6,3.9,4.3v7.2h-2.5v-6.4c0-1.8-0.8-2.8-2.3-2.8s-2.4,1-2.4,2.8v6.4h-2.5V119
	c0-1.8-0.8-2.7-2.3-2.7s-2.4,1.1-2.4,2.8v6.3H139v-11.3h2.5v1.7c0.7-1.2,2-1.9,3.4-2c1.4-0.1,2.7,0.7,3.3,2
	C149.1,114.7,150.5,114,152,114z"/>
<path class="st2" d="M165.3,125.7c-1.5,0-2.9-0.7-3.8-2v1.8H159v-15.6h2.5v6.2c0.8-1.3,2.2-2.1,3.8-2.1c2.6,0,5.2,2.1,5.2,5.9
	S168,125.7,165.3,125.7z M164.7,116.2c-2,0.2-3.4,2.1-3.2,4.1c0.2,1.7,1.5,3,3.2,3.2c1.8,0,3.2-1.4,3.2-3.6c0.2-1.8-1.2-3.4-3-3.6
	C164.9,116.2,164.8,116.2,164.7,116.2L164.7,116.2z"/>
<path class="st2" d="M178.3,123.6c1.1,0,2.2-0.5,3-1.3l1.5,1.3c-2,2.5-5.7,2.8-8.2,0.8c-1.3-1.1-2.1-2.8-2.1-4.5
	c0-3.2,2.3-5.9,5.5-5.9c3.5,0,5.3,2.8,5.3,6.1c0,0.2,0,0.5,0,0.7h-8.2C175.3,122.4,176.7,123.6,178.3,123.6z M180.8,119
	c-0.2-1.7-1.1-3-2.8-3s-2.7,1.2-2.9,3H180.8L180.8,119z"/>
<path class="st2" d="M188.5,125.5h-2.5v-11.3h2.5v2.5c0.6-1.7,2.2-2.8,4-2.8v2.7h-0.2c-2.2,0-3.8,1.5-3.8,4.5V125.5L188.5,125.5z"/>
<path class="st2" d="M198.5,125.7c-1.7,0-3.4-0.6-4.7-1.7l1.1-1.8c1,0.8,2.3,1.3,3.7,1.4c1.1,0,1.7-0.5,1.7-1.2l0,0
	c0-0.9-1.2-1.2-2.5-1.6c-1.7-0.5-3.5-1.2-3.5-3.3l0,0c0-2.1,1.8-3.4,4-3.4c1.5,0,2.9,0.5,4.1,1.3l-1,1.8c-0.9-0.6-2-1-3.1-1.1
	c-1,0-1.6,0.5-1.6,1.1l0,0c0,0.8,1.2,1.2,2.5,1.6c1.6,0.5,3.5,1.3,3.5,3.3l0,0C202.6,124.5,200.8,125.7,198.5,125.7z"/>
<path class="st2" d="M50.2,151.1v-1.4c-0.9,1.1-2.2,1.7-3.6,1.6c-2.1,0-4-1.2-4-3.5l0,0c0-2.4,1.9-3.6,4.5-3.6c1,0,2.1,0.1,3.1,0.5
	v-0.3c0-1.6-1-2.4-2.7-2.4c-1.1,0-2.2,0.2-3.2,0.7l-0.7-2.1c1.3-0.6,2.8-1,4.2-0.9c3.3,0,4.9,1.8,4.9,4.8v6.7L50.2,151.1L50.2,151.1
	z M50.3,146.3c-0.8-0.3-1.7-0.5-2.5-0.5c-1.6,0-2.5,0.7-2.5,1.8l0,0c0,1.1,1,1.7,2.2,1.7c1.7,0,3-1,3-2.4L50.3,146.3L50.3,146.3z"/>
<path class="st2" d="M58.3,151.1h-2.5v-11.3h2.5v2.5c0.6-1.7,2.2-2.8,4-2.8v2.7h-0.2c-2.2,0-3.8,1.5-3.8,4.5V151.1L58.3,151.1z"/>
<path class="st2" d="M69.3,149.3c1.1,0,2.2-0.5,3-1.3l1.5,1.3c-2,2.5-5.7,2.8-8.2,0.8c-1.4-1.1-2.1-2.8-2.1-4.6
	c0-3.2,2.3-5.9,5.5-5.9c3.5,0,5.3,2.8,5.3,6.1c0,0.2,0,0.5,0,0.7h-8.2C66.2,148.1,67.6,149.3,69.3,149.3z M71.8,144.7
	c-0.2-1.7-1.1-3-2.8-3s-2.7,1.2-2.9,3H71.8L71.8,144.7z"/>
<path class="st2" d="M91.6,151.1v-1.9c-0.8,1.3-2.3,2.1-3.8,2.1c-2.6,0-5.2-2.1-5.2-5.9s2.5-5.9,5.2-5.9c1.5,0,2.9,0.7,3.8,2v-6.1
	h2.5v15.6L91.6,151.1L91.6,151.1z M88.4,141.8c-1.8,0-3.2,1.4-3.2,3.6c-0.2,1.8,1.2,3.5,3,3.6c0.1,0,0.1,0,0.2,0
	c2-0.3,3.4-2.1,3.2-4.1C91.3,143.4,90.1,142.1,88.4,141.8z"/>
<path class="st2" d="M99.9,151.1h-2.5v-11.3h2.5v2.5c0.6-1.7,2.2-2.8,4-2.8v2.7h-0.2c-2.2,0-3.8,1.5-3.8,4.5V151.1L99.9,151.1z"/>
<path class="st2" d="M111,151.4c-3.2,0.1-5.8-2.5-5.9-5.7c0-0.1,0-0.1,0-0.2c0-3.3,2.6-6,5.9-6s6,2.6,6,5.9c0,3.3-2.6,6-5.9,6
	C111,151.4,111,151.4,111,151.4z M111,141.9c-1.9,0-3.4,1.5-3.4,3.4c0,0.1,0,0.2,0,0.2c-0.1,1.9,1.4,3.6,3.3,3.7c0,0,0.1,0,0.1,0
	c1.9,0,3.4-1.5,3.4-3.4c0-0.1,0-0.2,0-0.2c0.1-1.9-1.3-3.6-3.2-3.7C111.1,141.9,111,141.9,111,141.9L111,141.9z"/>
<path class="st2" d="M125.9,151.4c-1.5,0-2.9-0.7-3.8-2v5.2h-2.5v-14.7h2.5v1.9c0.8-1.3,2.2-2.1,3.8-2.1c2.6,0,5.2,2.1,5.2,5.9
	S128.5,151.4,125.9,151.4z M125.3,141.8c-2,0.2-3.4,2.1-3.2,4.1c0.2,1.7,1.5,3,3.2,3.2c1.8,0,3.2-1.4,3.2-3.6c0.2-1.8-1.2-3.4-3-3.6
	C125.4,141.9,125.3,141.9,125.3,141.8z"/>
<path class="st2" d="M139,151.4c-3.2,0.1-5.8-2.5-5.9-5.7c0-0.1,0-0.1,0-0.2c0-3.3,2.6-6,5.9-6s6,2.6,6,5.9c0,3.3-2.6,6-5.9,6
	C139,151.4,139,151.4,139,151.4z M139,141.9c-1.9,0-3.4,1.5-3.4,3.4c0,0.1,0,0.2,0,0.2c-0.1,1.9,1.4,3.6,3.3,3.7c0,0,0.1,0,0.1,0
	c1.9,0,3.4-1.5,3.4-3.4c0-0.1,0-0.2,0-0.2c0.1-1.9-1.3-3.6-3.2-3.7C139.1,141.9,139,141.9,139,141.9L139,141.9z"/>
<path class="st2" d="M154.8,139.8h2.5v11.3h-2.5v-1.8c-0.7,1.2-2,2-3.5,2c-2.5,0-4-1.7-4-4.3v-7.2h2.5v6.4c0,1.8,0.9,2.8,2.4,2.8
	c1.4,0,2.5-1.1,2.5-2.5c0-0.1,0-0.2,0-0.3L154.8,139.8L154.8,139.8z"/>
<path class="st2" d="M163.7,147.6c-0.1,0.7,0.3,1.3,1,1.4c0.1,0,0.2,0,0.4,0c0.5,0,1.1-0.1,1.6-0.4v2.1c-0.7,0.4-1.5,0.6-2.3,0.6
	c-1.9,0-3.2-0.8-3.2-3.3v-5.9h-1.4v-2.2h1.4v-3.1h2.5v3.1h3v2.2h-3L163.7,147.6L163.7,147.6z"/>
<path class="st2" d="M173.1,151.4c-1.7,0-3.4-0.6-4.7-1.7l1.1-1.8c1,0.8,2.3,1.3,3.7,1.4c1.1,0,1.7-0.5,1.7-1.2l0,0
	c0-0.9-1.2-1.2-2.5-1.6c-1.7-0.5-3.5-1.2-3.5-3.3l0,0c0-2.1,1.8-3.4,4-3.4c1.5,0,2.9,0.5,4.1,1.3l-1,1.8c-0.9-0.6-2-1-3.1-1.1
	c-1,0-1.6,0.5-1.6,1.1l0,0c0,0.8,1.2,1.2,2.5,1.6c1.6,0.5,3.5,1.3,3.5,3.3l0,0C177.2,150.2,175.4,151.4,173.1,151.4z"/>
<circle class="st0" cx="424" cy="154.9" r="110"/>
<path class="st1" d="M388,114.7h-16l-1.8-7.9l16.2-20.2h12.3v20.2h4v7.9h-4v5.8H388V114.7z M388,106.9v-9l-7.1,8.9L388,106.9
	L388,106.9z"/>
<path class="st1" d="M402.9,115.7l6.1-7.2c2.8,2.3,5.5,3.7,8.2,3.7s4.2-1.4,4.2-3.2v-0.1c0-2-1.6-3.2-3.9-3.2
	c-1.9,0.1-3.7,0.8-5.1,2.1l-6.7-3.4l1-17.5h24v8.9H415l-0.2,4.4c1.9-1.2,4.1-1.9,6.3-1.8c5.5,0,11.1,3.6,11.1,10.6v0.1
	c0,7.8-6.3,12.2-14.8,12.2C412,121.4,406.8,119.4,402.9,115.7z"/>
<path class="st1" d="M434.2,95.8L434.2,95.8c0-5.2,3.5-9.5,9.1-9.5s9.1,4.3,9.1,9.4v0.1c0,5.2-3.7,9.4-9.1,9.4S434.2,101,434.2,95.8
	z M465.2,86.8h7.1l-27,33.7h-7.2L465.2,86.8z M445.8,95.8L445.8,95.8c0-2.1-1.1-3.4-2.5-3.4s-2.5,1.2-2.5,3.3v0.1
	c0,2,1.2,3.3,2.5,3.3S445.7,97.9,445.8,95.8L445.8,95.8z M458.2,111.6L458.2,111.6c0-5.2,3.5-9.5,9.1-9.5s9.1,4.3,9.1,9.4v0.1
	c0,5.2-3.7,9.4-9.1,9.4S458.2,116.8,458.2,111.6L458.2,111.6z M469.8,111.6L469.8,111.6c0-2.1-1.1-3.4-2.5-3.4s-2.5,1.2-2.5,3.3v0.1
	c0,2,1.2,3.3,2.5,3.3S469.7,113.7,469.8,111.6L469.8,111.6z"/>
<path class="st2" d="M350.5,146.4c-3.2,0.1-5.8-2.5-5.9-5.7c0-0.1,0-0.1,0-0.2c0-3.3,2.6-6,5.9-6s6,2.6,6,5.9c0,3.3-2.6,6-5.9,6
	C350.5,146.4,350.5,146.4,350.5,146.4z M350.5,136.9c-1.9,0-3.4,1.5-3.4,3.4c0,0.1,0,0.1,0,0.2c-0.1,1.9,1.4,3.6,3.3,3.7
	c0,0,0.1,0,0.1,0c1.9,0,3.4-1.5,3.4-3.4c0-0.1,0-0.2,0-0.2c0.1-1.9-1.4-3.6-3.3-3.7C350.5,136.9,350.5,136.9,350.5,136.9z"/>
<path class="st2" d="M365.1,135v2.1h-2.9v9.1h-2.5v-9.1h-1.4V135h1.4v-0.8c0-2.5,1.2-3.7,3.4-3.7c0.7,0,1.4,0.1,2.1,0.3v2.2
	c-0.5-0.2-1-0.3-1.5-0.3c-1,0-1.5,0.5-1.5,1.7v0.6H365.1L365.1,135z"/>
<path class="st2" d="M375.8,146.2h-2.5v-15.6h2.5v6.1c0.7-1.2,2-2,3.5-2c2.5,0,4,1.7,4,4.3v7.2h-2.5v-6.4c0-1.8-0.9-2.8-2.4-2.8
	c-1.4,0-2.5,1.1-2.5,2.5c0,0.1,0,0.2,0,0.3L375.8,146.2L375.8,146.2z"/>
<path class="st2" d="M386.4,133.1v-2.5h2.7v2.5H386.4z M386.5,146.1v-11.3h2.5v11.3L386.5,146.1L386.5,146.1z"/>
<path class="st2" d="M397.3,149.6c-1.8,0-3.5-0.4-5-1.3l1-2c1.2,0.8,2.6,1.2,4,1.2c2.3,0,3.5-1.2,3.5-3.5v-0.9
	c-0.9,1.3-2.3,2.1-3.9,2.1c-2.9-0.2-5.2-2.7-5-5.6c0.2-2.7,2.3-4.8,5-5c1.5,0,3,0.7,3.9,1.9v-1.7h2.5v9
	C403.3,147.8,401.2,149.6,397.3,149.6z M397.5,136.8c-1.7,0-3.1,1.4-3.1,3.1s1.4,3.1,3.1,3.1c1.7,0.1,3.2-1.1,3.4-2.9
	s-1.1-3.2-2.9-3.4C397.9,136.8,397.7,136.8,397.5,136.8L397.5,136.8z"/>
<path class="st2" d="M409.1,146.2h-2.5v-15.6h2.5v6.1c0.7-1.2,2-2,3.5-2c2.5,0,4,1.7,4,4.3v7.2H414v-6.4c0-1.8-0.9-2.8-2.4-2.8
	c-1.4,0-2.5,1.1-2.5,2.5c0,0.1,0,0.2,0,0.3L409.1,146.2L409.1,146.2z"/>
<path class="st2" d="M429.8,146.4c-1.7,0-3.4-0.6-4.7-1.7l1.1-1.8c1,0.8,2.3,1.3,3.7,1.4c1.1,0,1.7-0.5,1.7-1.2l0,0
	c0-0.9-1.2-1.2-2.5-1.6c-1.7-0.5-3.5-1.2-3.5-3.3l0,0c0-2.1,1.8-3.4,4-3.4c1.5,0,2.9,0.5,4.1,1.3l-1,1.8c-0.9-0.6-2-1-3.1-1.1
	c-1,0-1.6,0.5-1.6,1.1l0,0c0,0.8,1.2,1.2,2.5,1.6c1.6,0.5,3.5,1.3,3.5,3.3l0,0C433.9,145.2,432.1,146.4,429.8,146.4z"/>
<path class="st2" d="M441.6,146.4c-3.2,0-5.7-2.5-5.8-5.7c0-0.1,0-0.1,0-0.2c-0.1-3.2,2.5-5.8,5.7-5.9c0,0,0.1,0,0.1,0
	c1.7-0.1,3.3,0.6,4.4,2l-1.6,1.7c-0.7-0.9-1.8-1.4-2.9-1.4c-1.9,0.1-3.3,1.7-3.2,3.5c0,0,0,0,0,0.1c-0.1,1.9,1.3,3.5,3.2,3.7
	c0.1,0,0.1,0,0.2,0c1.1,0,2.2-0.5,2.9-1.4l1.5,1.5C445.1,145.7,443.4,146.5,441.6,146.4z"/>
<path class="st2" d="M451.1,146.2h-2.6v-15.6h2.6v6.1c0.7-1.2,2-2,3.5-2c2.5,0,4,1.7,4,4.3v7.2H456v-6.4c0-1.8-0.9-2.8-2.4-2.8
	c-1.4,0-2.5,1.1-2.5,2.5c0,0.1,0,0.2,0,0.3L451.1,146.2L451.1,146.2z"/>
<path class="st2" d="M466.9,146.4c-3.2,0.1-5.8-2.5-5.9-5.7c0-0.1,0-0.1,0-0.2c0-3.3,2.6-6,5.9-6s6,2.6,6,5.9s-2.6,6-5.9,6
	C467,146.4,467,146.4,466.9,146.4z M466.9,136.9c-1.9,0-3.4,1.5-3.4,3.4c0,0.1,0,0.1,0,0.2c-0.1,1.9,1.4,3.6,3.3,3.7
	c0,0,0.1,0,0.1,0c1.9,0,3.4-1.5,3.4-3.4c0-0.1,0-0.2,0-0.2c0.1-1.9-1.4-3.6-3.3-3.7C467,136.9,467,136.9,466.9,136.9z"/>
<path class="st2" d="M480.8,146.4c-3.2,0.1-5.8-2.5-5.9-5.7c0-0.1,0-0.1,0-0.2c0-3.3,2.6-6,5.9-6s6,2.6,6,5.9s-2.6,6-5.9,6
	C480.9,146.4,480.8,146.4,480.8,146.4z M480.8,136.9c-1.9,0-3.4,1.5-3.4,3.4c0,0.1,0,0.1,0,0.2c-0.1,1.9,1.4,3.6,3.3,3.7
	c0,0,0.1,0,0.1,0c1.9,0,3.4-1.5,3.4-3.4c0-0.1,0-0.2,0-0.2c0.1-1.9-1.4-3.6-3.3-3.7C480.9,136.9,480.8,136.9,480.8,136.9z"/>
<path class="st2" d="M489.5,146.2v-15.6h2.6v15.6H489.5z"/>
<path class="st2" d="M499.2,146.4c-1.7,0-3.4-0.6-4.7-1.7l1.1-1.8c1,0.8,2.3,1.3,3.7,1.4c1.1,0,1.7-0.5,1.7-1.2l0,0
	c0-0.9-1.2-1.2-2.5-1.6c-1.7-0.5-3.5-1.2-3.5-3.3l0,0c0-2.1,1.8-3.4,4-3.4c1.5,0,2.9,0.5,4.1,1.3l-1,1.8c-0.9-0.6-2-1-3.1-1.1
	c-1,0-1.6,0.5-1.6,1.1l0,0c0,0.8,1.2,1.2,2.5,1.6c1.6,0.5,3.5,1.3,3.5,3.3l0,0C503.3,145.2,501.5,146.4,499.2,146.4z"/>
<path class="st2" d="M373.2,171.8h-2.5v-15.6h2.5v6.1c0.7-1.2,2-2,3.5-2c2.5,0,4,1.7,4,4.3v7.2h-2.5v-6.4c0-1.8-0.9-2.8-2.4-2.8
	c-1.4,0-2.5,1.1-2.5,2.5c0,0.1,0,0.2,0,0.3L373.2,171.8L373.2,171.8z"/>
<path class="st2" d="M390.6,171.8v-1.4c-0.9,1.1-2.2,1.7-3.6,1.6c-2.1,0-4-1.2-4-3.5l0,0c0-2.4,1.9-3.6,4.5-3.6c1,0,2.1,0.1,3.1,0.5
	v-0.3c0-1.6-1-2.4-2.7-2.4c-1.1,0-2.2,0.2-3.2,0.7l-0.7-2.1c1.3-0.6,2.8-1,4.2-0.9c3.3,0,4.9,1.8,4.9,4.8v6.6H390.6L390.6,171.8z
	 M390.6,167.1c-0.8-0.3-1.7-0.5-2.5-0.5c-1.6,0-2.5,0.7-2.5,1.8l0,0c0,1.1,1,1.7,2.2,1.7c1.7,0,3-1,3-2.4L390.6,167.1L390.6,167.1z"
	/>
<path class="st2" d="M403.4,160.5h2.7l-4.6,11.4h-2.3l-4.6-11.4h2.7l3,8.3L403.4,160.5z"/>
<path class="st2" d="M412.8,170c1.1,0,2.2-0.5,3-1.3l1.5,1.3c-2,2.5-5.7,2.8-8.2,0.8c-1.4-1.1-2.1-2.8-2.1-4.6
	c0-3.2,2.3-5.9,5.4-5.9c3.5,0,5.3,2.8,5.3,6.1c0,0.2,0,0.5,0,0.7h-8.2C409.7,168.7,411.1,170,412.8,170z M415.3,165.4
	c-0.2-1.7-1.1-3-2.8-3s-2.7,1.2-2.9,3H415.3L415.3,165.4z"/>
<path class="st2" d="M431.7,175.3c-1.8,0-3.5-0.4-5-1.3l1-2c1.2,0.8,2.6,1.2,4,1.2c2.3,0,3.5-1.2,3.5-3.5v-0.9
	c-0.9,1.3-2.3,2.1-3.9,2.1c-2.9-0.2-5.2-2.7-5-5.6c0.2-2.7,2.3-4.8,5-5c1.5,0,3,0.7,3.9,1.9v-1.7h2.6v9
	C437.6,173.5,435.5,175.3,431.7,175.3z M431.9,162.5c-1.7,0-3.1,1.4-3.1,3.1s1.4,3.1,3.1,3.1c1.7,0,3.1-1.4,3.1-3.1
	C435,163.9,433.6,162.5,431.9,162.5L431.9,162.5z"/>
<path class="st2" d="M447.6,171.8v-1.4c-0.9,1.1-2.2,1.7-3.6,1.6c-2.1,0-4-1.2-4-3.5l0,0c0-2.4,1.9-3.6,4.5-3.6c1,0,2.1,0.1,3.1,0.5
	v-0.3c0-1.6-1-2.4-2.7-2.4c-1.1,0-2.2,0.2-3.2,0.7l-0.7-2.1c1.3-0.6,2.8-1,4.2-0.9c3.3,0,4.9,1.8,4.9,4.8v6.6H447.6L447.6,171.8z
	 M447.7,167.1c-0.8-0.3-1.7-0.5-2.6-0.5c-1.6,0-2.6,0.7-2.6,1.8l0,0c0,1.1,0.9,1.7,2.2,1.7c1.7,0,3-1,3-2.4L447.7,167.1L447.7,167.1
	z"/>
<path class="st2" d="M455.8,171.8h-2.6v-11.3h2.6v1.8c0.7-1.2,2-2,3.5-2c2.5,0,4,1.7,4,4.3v7.2h-2.6v-6.4c0-1.8-0.9-2.8-2.4-2.8
	c-1.4,0-2.5,1.1-2.5,2.5c0,0.1,0,0.2,0,0.3L455.8,171.8L455.8,171.8z"/>
<path class="st2" d="M471.3,175.3c-1.8,0-3.5-0.4-5-1.3l0.9-2c1.2,0.8,2.6,1.2,4,1.2c2.3,0,3.5-1.2,3.5-3.5v-0.9
	c-0.9,1.3-2.3,2.1-3.9,2.1c-2.9-0.2-5.2-2.7-5-5.6c0.2-2.7,2.3-4.8,5-5c1.5,0,3,0.7,3.9,1.9v-1.7h2.6v9
	C477.3,173.5,475.1,175.3,471.3,175.3z M471.5,162.5c-1.7,0-3.1,1.4-3.1,3.1s1.4,3.1,3.1,3.1c1.7,0,3.1-1.4,3.1-3.1
	C474.6,163.9,473.2,162.5,471.5,162.5L471.5,162.5z"/>
<path class="st2" d="M376.4,186c2.4,0,3.9,1.6,3.9,4.3v7.2h-2.5v-6.4c0-1.8-0.8-2.8-2.3-2.8s-2.4,1-2.4,2.8v6.4h-2.6V191
	c0-1.8-0.8-2.7-2.3-2.7s-2.4,1.1-2.4,2.8v6.3h-2.6v-11.3h2.5v1.7c0.7-1.2,2-1.9,3.4-2c1.4-0.1,2.7,0.7,3.3,2
	C373.4,186.7,374.9,185.9,376.4,186z"/>
<path class="st2" d="M388.5,195.6c1.1,0,2.2-0.5,3-1.3l1.5,1.3c-2,2.5-5.7,2.8-8.2,0.8c-1.3-1.1-2.1-2.8-2.1-4.5
	c0-3.2,2.3-5.9,5.4-5.9c3.5,0,5.3,2.8,5.3,6.1c0,0.2,0,0.5,0,0.7h-8.2C385.5,194.4,386.9,195.7,388.5,195.6z M391,191
	c-0.2-1.7-1.1-3-2.8-3s-2.7,1.2-2.9,3H391L391,191z"/>
<path class="st2" d="M409.2,186c2.4,0,3.9,1.6,3.9,4.3v7.2h-2.5v-6.4c0-1.8-0.8-2.8-2.3-2.8s-2.4,1-2.4,2.8v6.4h-2.6V191
	c0-1.8-0.8-2.7-2.3-2.7s-2.4,1.1-2.4,2.8v6.3h-2.6v-11.3h2.5v1.7c0.7-1.2,2-1.9,3.4-2c1.4-0.1,2.7,0.7,3.3,2
	C406.2,186.7,407.7,186,409.2,186z"/>
<path class="st2" d="M422.5,197.7c-1.5,0-2.9-0.7-3.8-2v1.8h-2.5v-15.6h2.5v6.2c0.8-1.3,2.2-2.1,3.8-2.1c2.6,0,5.2,2.1,5.2,5.9
	S425.2,197.7,422.5,197.7z M421.9,188.2c-2,0.2-3.4,2.1-3.2,4.1c0.2,1.7,1.5,3,3.2,3.2c1.8,0,3.2-1.4,3.2-3.6c0.2-1.8-1.2-3.4-3-3.6
	C422,188.2,422,188.2,421.9,188.2L421.9,188.2z"/>
<path class="st2" d="M435.5,195.6c1.1,0,2.2-0.5,3-1.3l1.5,1.3c-2,2.5-5.7,2.8-8.2,0.8c-1.4-1.1-2.1-2.8-2.1-4.6
	c0-3.2,2.3-5.9,5.4-5.9c3.5,0,5.3,2.8,5.3,6.1c0,0.2,0,0.5,0,0.7h-8.2C432.4,194.4,433.8,195.7,435.5,195.6z M438,191
	c-0.2-1.7-1.1-3-2.8-3s-2.7,1.2-2.9,3H438z"/>
<path class="st2" d="M445.6,197.5h-2.6v-11.3h2.6v2.5c0.6-1.7,2.2-2.8,3.9-2.8v2.7h-0.2c-2.2,0-3.8,1.5-3.8,4.5L445.6,197.5
	L445.6,197.5z"/>
<path class="st2" d="M455.6,197.7c-1.7,0-3.4-0.6-4.7-1.7l1.1-1.8c1,0.8,2.3,1.3,3.7,1.4c1.1,0,1.7-0.5,1.7-1.2l0,0
	c0-0.9-1.2-1.2-2.5-1.6c-1.7-0.5-3.5-1.2-3.5-3.3l0,0c0-2.1,1.8-3.4,4-3.4c1.5,0,2.9,0.5,4.1,1.3l-1,1.8c-0.9-0.6-2-1-3.1-1.1
	c-1,0-1.6,0.5-1.6,1.1l0,0c0,0.8,1.2,1.2,2.5,1.6c1.6,0.5,3.5,1.3,3.5,3.3l0,0C459.7,196.5,457.9,197.7,455.6,197.7z"/>
<path class="st2" d="M468.7,184.5V182h2.7v2.5H468.7z M468.8,197.5v-11.3h2.5v11.3L468.8,197.5L468.8,197.5z"/>
<path class="st2" d="M477.2,197.5h-2.6v-11.3h2.6v1.8c0.7-1.2,2-2,3.5-2c2.5,0,4,1.7,4,4.3v7.2h-2.6v-6.4c0-1.8-0.9-2.8-2.4-2.8
	c-1.4,0-2.5,1.1-2.5,2.5c0,0.1,0,0.2,0,0.3L477.2,197.5L477.2,197.5z"/>
<path class="st2" d="M366.1,219.6c-0.1,0.7,0.3,1.3,1,1.4c0.1,0,0.2,0,0.4,0c0.5,0,1.1-0.1,1.6-0.4v2.1c-0.7,0.4-1.5,0.6-2.3,0.6
	c-1.9,0-3.2-0.8-3.2-3.3v-5.9h-1.4v-2.2h1.4v-3.1h2.5v3.1h3v2.2h-3L366.1,219.6L366.1,219.6z"/>
<path class="st2" d="M374.3,223.1h-2.5v-15.6h2.5v6.1c0.7-1.2,2-2,3.5-2c2.5,0,4,1.7,4,4.3v7.2h-2.5v-6.4c0-1.8-0.9-2.8-2.4-2.8
	c-1.4,0-2.5,1.1-2.5,2.5c0,0.1,0,0.2,0,0.3L374.3,223.1L374.3,223.1z"/>
<path class="st2" d="M389.9,221.3c1.1,0,2.2-0.5,3-1.3l1.5,1.3c-2,2.5-5.7,2.8-8.2,0.8c-1.4-1.1-2.1-2.8-2.1-4.6
	c0-3.2,2.3-5.9,5.4-5.9c3.5,0,5.3,2.8,5.3,6.1c0,0.2,0,0.5,0,0.7h-8.2C386.9,220.1,388.3,221.3,389.9,221.3z M392.4,216.7
	c-0.2-1.7-1.1-3-2.8-3s-2.7,1.2-2.9,3H392.4L392.4,216.7z"/>
<path class="st2" d="M397.6,210.1v-2.5h2.8v2.5H397.6L397.6,210.1z M397.7,223.1v-11.3h2.5v11.3L397.7,223.1L397.7,223.1z"/>
<path class="st2" d="M406.1,223.1h-2.5v-11.3h2.5v2.5c0.6-1.7,2.2-2.8,4-2.8v2.7h-0.2c-2.2,0-3.8,1.5-3.8,4.5V223.1L406.1,223.1z"/>
<path class="st2" d="M422.4,223.3c-1.7,0-3.4-0.6-4.7-1.7l1.1-1.8c1,0.8,2.3,1.3,3.7,1.4c1.1,0,1.7-0.5,1.7-1.2l0,0
	c0-0.9-1.2-1.2-2.5-1.6c-1.7-0.5-3.5-1.2-3.5-3.3l0,0c0-2.1,1.8-3.4,4-3.4c1.5,0,2.9,0.5,4.1,1.3l-1,1.8c-0.9-0.6-2-1-3.1-1.1
	c-1,0-1.6,0.5-1.6,1.1l0,0c0,0.8,1.2,1.2,2.5,1.6c1.6,0.5,3.5,1.3,3.5,3.3l0,0C426.6,222.2,424.8,223.3,422.4,223.3z"/>
<path class="st2" d="M434.3,223.4c-3.2,0-5.7-2.5-5.8-5.7c0-0.1,0-0.1,0-0.2c-0.1-3.2,2.5-5.8,5.7-5.9c0,0,0.1,0,0.1,0
	c1.7-0.1,3.3,0.6,4.4,2l-1.6,1.7c-0.7-0.9-1.8-1.4-2.9-1.4c-1.9,0.1-3.3,1.7-3.2,3.5c0,0,0,0,0,0.1c-0.1,1.9,1.3,3.5,3.2,3.7
	c0.1,0,0.1,0,0.2,0c1.1,0,2.2-0.5,2.9-1.4l1.5,1.5C437.8,222.6,436.1,223.4,434.3,223.4z"/>
<path class="st2" d="M443.8,223.1h-2.6v-15.6h2.6v6.1c0.7-1.2,2-2,3.5-2c2.5,0,4,1.7,4,4.3v7.2h-2.6v-6.4c0-1.8-0.9-2.8-2.4-2.8
	c-1.4,0-2.5,1.1-2.5,2.5c0,0.1,0,0.2,0,0.3L443.8,223.1L443.8,223.1z"/>
<path class="st2" d="M459.6,223.4c-3.2,0.1-5.8-2.5-5.9-5.7c0-0.1,0-0.1,0-0.2c0-3.3,2.6-6,5.9-6s6,2.6,6,5.9s-2.6,6-5.9,6
	C459.7,223.4,459.6,223.4,459.6,223.4z M459.6,213.9c-1.9,0-3.4,1.5-3.4,3.4c0,0.1,0,0.1,0,0.2c-0.1,1.9,1.4,3.6,3.3,3.7
	c0,0,0.1,0,0.1,0c1.9,0,3.4-1.5,3.4-3.4c0-0.1,0-0.2,0-0.2c0.1-1.9-1.3-3.6-3.3-3.7C459.7,213.9,459.6,213.9,459.6,213.9
	L459.6,213.9z"/>
<path class="st2" d="M473.5,223.4c-3.2,0.1-5.8-2.5-5.9-5.7c0-0.1,0-0.1,0-0.2c0-3.3,2.6-6,5.9-6s6,2.6,6,5.9s-2.6,6-5.9,6
	C473.5,223.4,473.5,223.4,473.5,223.4z M473.5,213.9c-1.9,0-3.4,1.5-3.4,3.4c0,0.1,0,0.1,0,0.2c-0.1,1.9,1.4,3.6,3.3,3.7
	c0,0,0.1,0,0.1,0c1.9,0,3.4-1.5,3.4-3.4c0-0.1,0-0.2,0-0.2c0.1-1.9-1.3-3.6-3.3-3.7C473.6,213.9,473.5,213.9,473.5,213.9
	L473.5,213.9z"/>
<path class="st2" d="M482.2,223.1v-15.6h2.6v15.6L482.2,223.1L482.2,223.1z"/>
<circle class="st0" cx="225" cy="357.5" r="110"/>
<path class="st1" d="M164.7,309.4h-6.9v-6.7h21.7v6.7h-6.9v17.1h-7.8L164.7,309.4L164.7,309.4z"/>
<path class="st1" d="M177.8,317.3L177.8,317.3c0-5.6,3.9-9.8,9.4-9.8c6.5,0,9.5,4.6,9.5,10.2c0,0.4,0,0.9,0,1.3h-11.8
	c0.4,1.5,1.9,2.6,3.5,2.5c1.5-0.1,2.8-0.8,3.7-1.9l4.1,3.3c-1.9,2.6-5.1,4.1-8.3,4C181.8,326.9,177.8,323.1,177.8,317.3z
	 M189.8,315.6c-0.2-1.8-1.2-2.8-2.5-2.8s-2.2,1.1-2.4,2.8H189.8L189.8,315.6z"/>
<path class="st1" d="M197.7,321.2L197.7,321.2c0-3.8,2.7-5.9,7-5.9c1.5,0,2.9,0.2,4.3,0.7v-0.3c0-1.7-1-2.7-3.4-2.7
	c-1.7,0-3.5,0.4-5.1,1l-1.3-5.1c2.5-0.9,5.1-1.4,7.7-1.4c3.7,0,6.1,0.8,7.8,2.4c1.4,1.4,1.9,3.2,1.9,5.9v10.6H209v-1.9
	c-1.3,1.5-3.3,2.3-5.3,2.3C200.2,326.9,197.7,324.8,197.7,321.2z M209.1,319.6v-0.7c-0.6-0.2-1.1-0.3-1.7-0.3
	c-1.1-0.1-2.2,0.7-2.3,1.8c0,0.1,0,0.2,0,0.3v0.1c0,0.9,0.7,1.7,1.6,1.8c0,0,0.1,0,0.1,0C208.1,322.4,209.1,321.4,209.1,319.6
	L209.1,319.6z"/>
<path class="st1" d="M218.2,317.3L218.2,317.3c0-5.4,4.3-9.8,9.7-9.8c0.1,0,0.2,0,0.3,0c3.5-0.1,6.8,1.9,8.3,5.1l-5.5,3.1
	c-0.4-1.1-1.5-1.9-2.7-1.9c-1.7,0.1-2.9,1.5-2.8,3.2c0,0,0,0.1,0,0.1v0.1c0,1.9,1.2,3.3,2.7,3.3c1.2,0,2.3-0.7,2.8-1.9l5.5,3.2
	c-1.6,3.1-4.4,5.1-8.8,5.1c-5.3,0-9.6-4.2-9.6-9.5C218.2,317.4,218.2,317.3,218.2,317.3z"/>
<path class="st1" d="M237.8,301.6h7.6v8.7c1.3-1.8,3.4-2.9,5.6-2.9c3.9,0,6.3,2.6,6.3,6.8v12.2h-7.6v-9.8c0-1.6-0.9-2.5-2.1-2.5
	c-1.3,0-2.2,1.1-2.2,2.4c0,0.1,0,0.1,0,0.2v9.8h-7.6L237.8,301.6L237.8,301.6z"/>
<path class="st1" d="M258.9,317.3L258.9,317.3c0-5.6,3.9-9.8,9.4-9.8c6.5,0,9.5,4.6,9.5,10.2c0,0.4,0,0.9,0,1.3H266
	c0.4,1.5,1.9,2.6,3.5,2.5c1.5-0.1,2.8-0.8,3.7-1.9l4.1,3.3c-1.9,2.6-5.1,4.1-8.3,4C262.9,326.9,258.9,323.1,258.9,317.3z
	 M270.9,315.6c-0.2-1.8-1.2-2.8-2.5-2.8s-2.2,1.1-2.4,2.8H270.9L270.9,315.6z"/>
<path class="st1" d="M279.5,307.8h7.6v3.7c1-2.5,2.7-4.2,5.7-4v8.3H292c-3.2,0-4.9,1.8-4.9,5.9v4.7h-7.6L279.5,307.8L279.5,307.8z"
	/>
<path class="st1" d="M156,334.7h11.5c4.2,0,6.8,1,8.5,2.7c1.5,1.5,2.3,3.5,2.2,5.6v0.1c0.1,3.1-1.7,6-4.6,7.3l5.5,8.1h-9l-4.4-6.8
	h-1.7v6.8H156V334.7L156,334.7z M167.2,346c1.9,0,3-0.8,3-2.3v-0.1c0-1.5-1.2-2.3-3-2.3h-3.4v4.7L167.2,346L167.2,346z"/>
<path class="st1" d="M179.1,353.2L179.1,353.2c0-3.8,2.7-5.9,7-5.9c1.5,0,2.9,0.2,4.3,0.7v-0.3c0-1.7-1-2.7-3.4-2.7
	c-1.7,0-3.5,0.4-5.1,1l-1.3-5.1c2.5-0.9,5.1-1.4,7.7-1.4c3.7,0,6.1,0.8,7.8,2.4c1.4,1.4,1.9,3.2,1.9,5.9v10.6h-7.6v-1.9
	c-1.3,1.5-3.3,2.3-5.3,2.3C181.5,358.9,179.1,356.8,179.1,353.2z M190.4,351.6v-0.7c-0.6-0.2-1.1-0.3-1.7-0.3
	c-1.1-0.1-2.2,0.7-2.3,1.8c0,0.1,0,0.2,0,0.3v0.1c0,0.9,0.7,1.7,1.6,1.8c0,0,0.1,0,0.1,0C189.4,354.4,190.4,353.4,190.4,351.6
	L190.4,351.6z"/>
<path class="st1" d="M200.1,339.8h7.6v2.3c1.3-1.7,3.3-2.7,5.4-2.7c4.4,0,7.9,3.9,7.9,9.6v0.1c0,5.9-3.5,9.8-7.8,9.8
	c-2.1,0.1-4.2-0.9-5.5-2.5v7.5h-7.6V339.8z M213.7,349.2L213.7,349.2c0.1-1.7-1.2-3.1-2.9-3.2c-1.7-0.1-3.1,1.2-3.2,2.9
	c0,0.1,0,0.2,0,0.3v0.1c-0.1,1.7,1.1,3.2,2.8,3.3s3.2-1.1,3.3-2.8C213.7,349.5,213.7,349.4,213.7,349.2L213.7,349.2z"/>
<path class="st1" d="M222.8,339.8h7.6v2.3c1.3-1.7,3.3-2.7,5.4-2.7c4.4,0,7.9,3.9,7.9,9.6v0.1c0,5.9-3.5,9.8-7.8,9.8
	c-2.1,0.1-4.2-0.9-5.5-2.5v7.5h-7.6V339.8z M236.3,349.2L236.3,349.2c0.1-1.7-1.2-3.2-2.9-3.3c-1.7-0.1-3.1,1.2-3.2,2.9
	c0,0.1,0,0.2,0,0.3v0.1c-0.1,1.7,1.2,3.1,2.9,3.2c1.7,0.1,3.1-1.2,3.2-2.9C236.3,349.4,236.3,349.3,236.3,349.2z"/>
<path class="st1" d="M244.9,349.2L244.9,349.2c0-5.3,4.3-9.8,10.3-9.8s10.3,4.4,10.3,9.7v0.1c0,5.2-4.3,9.7-10.3,9.7
	S244.9,354.5,244.9,349.2z M258.2,349.2L258.2,349.2c0.1-1.8-1.3-3.3-3-3.4c0,0,0,0,0,0c-1.7,0-3,1.4-3,3.1c0,0,0,0.1,0,0.1v0.1
	c-0.1,1.7,1.3,3.2,3,3.3c0,0,0,0,0,0c1.7,0,3-1.4,3-3.1C258.2,349.3,258.2,349.3,258.2,349.2z"/>
<path class="st1" d="M267.2,339.8h7.6v3.7c1-2.5,2.7-4.2,5.7-4v8.3h-0.8c-3.2,0-4.9,1.8-4.9,5.9v4.7h-7.6L267.2,339.8L267.2,339.8z"
	/>
<path class="st1" d="M283.3,352.2v-6.4h-2.2v-6h2.2v-4.7h7.6v4.7h4.2v6H291v4.7c-0.2,0.9,0.4,1.7,1.3,1.9c0.2,0,0.4,0,0.6,0
	c0.8,0,1.6-0.2,2.3-0.6v6c-1.5,0.7-3.2,1.1-4.9,1C285.7,358.8,283.3,356.8,283.3,352.2z"/>
<path class="st2" d="M168.2,375.8v-2.2h2.4v2.2H168.2z M168.3,387.5v-10h2.3v10H168.3z"/>
<path class="st2" d="M176.9,387.6c-1.5,0-3-0.5-4.2-1.5l1-1.6c0.9,0.7,2.1,1.2,3.2,1.2c1,0,1.5-0.4,1.5-1.1l0,0c0-0.8-1-1-2.2-1.4
	c-1.5-0.4-3.1-1-3.1-2.9l0,0c0-1.9,1.6-3.1,3.5-3.1c1.3,0,2.6,0.4,3.6,1.1l-0.9,1.6c-0.8-0.6-1.8-0.9-2.8-1
	c-0.6-0.1-1.2,0.3-1.4,0.9c0,0,0,0.1,0,0.1l0,0c0,0.7,1.1,1,2.2,1.4c1.4,0.5,3.1,1.1,3.1,2.9l0,0C180.6,386.6,179,387.6,176.9,387.6
	z"/>
<path class="st2" d="M193.1,387.7c-2.8,0-5.1-2.2-5.1-5.1c0-0.1,0-0.1,0-0.2c-0.1-2.8,2.2-5.2,5-5.3c0,0,0.1,0,0.1,0
	c1.5-0.1,3,0.6,4,1.7l-1.4,1.5c-0.6-0.8-1.6-1.2-2.6-1.2c-1.7,0.1-2.9,1.5-2.9,3.1c0,0,0,0,0,0.1c-0.1,1.7,1.1,3.1,2.7,3.2
	c0.1,0,0.2,0,0.3,0c1,0,1.9-0.5,2.6-1.2l1.4,1.4C196.2,387.1,194.7,387.8,193.1,387.7z"/>
<path class="st2" d="M201.5,387.5h-2.3v-10h2.3v2.3c0.5-1.5,1.9-2.5,3.5-2.5v2.4h-0.1c-2,0-3.4,1.3-3.4,4V387.5L201.5,387.5z"/>
<path class="st2" d="M207,375.8v-2.2h2.4v2.2H207z M207.1,387.4v-10h2.3v10H207.1z"/>
<path class="st2" d="M215.1,384.3c-0.1,0.6,0.3,1.2,0.9,1.2c0.1,0,0.2,0,0.3,0c0.5,0,1-0.1,1.4-0.3v1.9c-0.6,0.3-1.3,0.5-2,0.5
	c-1.7,0-2.8-0.7-2.8-2.9v-5.3h-1.3v-2h1.3v-2.8h2.3v2.8h2.7v2h-2.7L215.1,384.3L215.1,384.3z"/>
<path class="st2" d="M220.1,375.8v-2.2h2.4v2.2H220.1z M220.2,387.4v-10h2.3v10H220.2z"/>
<path class="st2" d="M230,387.7c-2.8,0-5.1-2.2-5.1-5.1c0-0.1,0-0.1,0-0.2c-0.1-2.8,2.2-5.2,5-5.3c0,0,0.1,0,0.1,0
	c1.5-0.1,3,0.6,4,1.7l-1.4,1.5c-0.6-0.8-1.6-1.2-2.6-1.2c-1.7,0.1-2.9,1.5-2.9,3.1c0,0,0,0,0,0.1c-0.1,1.7,1.1,3.1,2.7,3.2
	c0.1,0,0.2,0,0.3,0c1,0,1.9-0.5,2.6-1.2l1.4,1.4C233.1,387.1,231.6,387.8,230,387.7z"/>
<path class="st2" d="M242.2,387.5v-1.2c-0.8,1-2,1.5-3.2,1.4c-1.9,0-3.5-1.1-3.5-3.1l0,0c0-2.2,1.7-3.2,4-3.2c0.9,0,1.9,0.1,2.7,0.4
	v-0.2c0-1.4-0.9-2.2-2.4-2.2c-1,0-1.9,0.2-2.8,0.6l-0.6-1.9c1.2-0.6,2.5-0.9,3.8-0.8c2.9,0,4.3,1.6,4.3,4.2v6H242.2L242.2,387.5z
	 M242.2,383.2c-0.7-0.3-1.5-0.4-2.3-0.4c-1.4,0-2.3,0.6-2.3,1.6l0,0c0.1,0.9,0.9,1.6,1.8,1.5c0,0,0.1,0,0.1,0c1.5,0,2.6-0.8,2.6-2.1
	L242.2,383.2L242.2,383.2z"/>
<path class="st2" d="M247.2,387.5v-13.9h2.3v13.9H247.2z"/>
<path class="st2" d="M263.5,377.5v1.9h-2.6v8h-2.3v-8h-1.3v-1.9h1.3v-0.7c0-2.2,1.1-3.3,3-3.3c0.6,0,1.2,0.1,1.8,0.3v1.9
	c-0.4-0.2-0.9-0.2-1.3-0.2c-0.7,0-1.3,0.5-1.3,1.2c0,0.1,0,0.2,0,0.4v0.5L263.5,377.5L263.5,377.5z"/>
<path class="st2" d="M269.7,387.7c-2.8,0-5.2-2.2-5.2-5.1c0,0,0-0.1,0-0.1c0-2.9,2.3-5.3,5.2-5.3c2.9,0,5.3,2.3,5.3,5.2
	C275,385.3,272.7,387.7,269.7,387.7C269.7,387.7,269.7,387.7,269.7,387.7z M269.7,379.2c-1.7,0-3,1.3-3,3c0,0.1,0,0.1,0,0.2
	c-0.1,1.7,1.2,3.2,2.9,3.2c0,0,0.1,0,0.1,0c1.7,0,3-1.3,3-3c0-0.1,0-0.1,0-0.2C272.8,380.8,271.4,379.3,269.7,379.2
	C269.7,379.2,269.7,379.2,269.7,379.2z"/>
<path class="st2" d="M279.5,387.5h-2.2v-10h2.3v2.3c0.5-1.5,1.9-2.5,3.5-2.5v2.4h-0.2c-2,0-3.4,1.3-3.4,4V387.5L279.5,387.5z"/>
<path class="st2" d="M147.3,413.3c-1.6,0-3.1-0.4-4.4-1.2l0.8-1.7c1,0.7,2.3,1.1,3.5,1.1c1.5,0.2,2.9-0.9,3.1-2.4c0-0.2,0-0.4,0-0.7
	v-0.8c-0.8,1.2-2.1,1.9-3.5,1.8c-2.6-0.2-4.6-2.4-4.4-5c0.2-2.4,2-4.3,4.4-4.4c1.4,0,2.7,0.6,3.5,1.7v-1.5h2.3v8
	C152.6,411.8,150.7,413.3,147.3,413.3z M147.5,402c-1.5,0-2.8,1.2-2.8,2.8c0,1.5,1.2,2.8,2.8,2.8c1.5,0.1,2.9-1.1,2.9-2.6
	c0.1-1.5-1.1-2.9-2.6-2.9C147.7,402,147.6,402,147.5,402L147.5,402z"/>
<path class="st2" d="M161.5,410.3V409c-0.8,1-2,1.5-3.2,1.4c-1.9,0-3.5-1.1-3.5-3.1l0,0c0-2.2,1.7-3.2,4-3.2c0.9,0,1.9,0.1,2.7,0.4
	v-0.2c0-1.4-0.9-2.2-2.4-2.2c-1,0-1.9,0.2-2.8,0.6l-0.6-1.8c1.2-0.6,2.5-0.9,3.8-0.8c2.9,0,4.3,1.6,4.3,4.2v6L161.5,410.3
	L161.5,410.3z M161.6,406c-0.7-0.3-1.5-0.4-2.3-0.4c-1.4,0-2.3,0.6-2.3,1.6l0,0c0.1,0.9,0.9,1.6,1.8,1.5c0,0,0.1,0,0.1,0
	c1.5,0,2.6-0.8,2.6-2.1L161.6,406L161.6,406z"/>
<path class="st2" d="M168.7,410.3h-2.3v-10h2.3v1.6c0.6-1.1,1.8-1.8,3.1-1.8c2.2,0,3.5,1.5,3.5,3.9v6.4h-2.3v-5.7
	c0-1.6-0.8-2.5-2.1-2.5c-1.2,0-2.2,1-2.2,2.2c0,0.1,0,0.2,0,0.3L168.7,410.3L168.7,410.3z"/>
<path class="st2" d="M182.5,413.3c-1.6,0-3.1-0.4-4.4-1.2l0.8-1.7c1,0.7,2.3,1.1,3.5,1.1c1.5,0.2,2.9-0.9,3.1-2.4c0-0.2,0-0.4,0-0.7
	v-0.8c-0.8,1.2-2.1,1.9-3.5,1.8c-2.6-0.2-4.6-2.4-4.4-5c0.2-2.4,2-4.3,4.4-4.4c1.4,0,2.7,0.6,3.5,1.7v-1.5h2.3v8
	C187.8,411.8,185.9,413.3,182.5,413.3z M182.7,402c-1.5,0-2.8,1.2-2.8,2.8c0,1.5,1.2,2.8,2.8,2.8l0,0c1.5,0.1,2.9-1.1,2.9-2.6
	c0.1-1.5-1.1-2.9-2.6-2.9C182.9,402,182.8,402,182.7,402L182.7,402z"/>
<path class="st2" d="M196.3,398.7v-2.2h2.4v2.2H196.3z M196.4,410.3v-10h2.3v10H196.4z"/>
<path class="st2" d="M203.9,410.3h-2.3v-10h2.3v1.6c0.6-1.1,1.8-1.8,3.1-1.8c2.2,0,3.5,1.5,3.5,3.9v6.4h-2.3v-5.7
	c0-1.6-0.8-2.5-2.1-2.5c-1.2,0-2.2,1-2.2,2.2c0,0.1,0,0.2,0,0.3L203.9,410.3L203.9,410.3z"/>
<path class="st2" d="M216,407.1c-0.1,0.6,0.3,1.2,0.9,1.2c0.1,0,0.2,0,0.3,0c0.5,0,1-0.1,1.4-0.3v1.9c-0.6,0.3-1.3,0.5-2,0.5
	c-1.7,0-2.8-0.7-2.8-2.9v-5.3h-1.3v-2h1.3v-2.8h2.3v2.8h2.7v2h-2.7L216,407.1L216,407.1z"/>
<path class="st2" d="M225.3,408.6c1,0,2-0.4,2.7-1.2l1.3,1.2c-1.9,2.2-5.2,2.4-7.3,0.5c-2.2-1.9-2.4-5.2-0.5-7.3
	c0.9-1,2.2-1.7,3.6-1.8c3.2,0,4.7,2.5,4.7,5.4c0,0.2,0,0.4,0,0.6h-7.3C222.6,407.5,223.8,408.6,225.3,408.6z M227.5,404.5
	c0-1.4-1.1-2.6-2.5-2.6c-1.4,0.1-2.5,1.2-2.6,2.6H227.5z"/>
<path class="st2" d="M234.3,410.3H232v-10h2.3v2.3c0.5-1.5,1.9-2.5,3.5-2.5v2.4h-0.1c-2,0-3.4,1.3-3.4,4V410.3L234.3,410.3z"/>
<path class="st2" d="M246.6,400.2h2.4l-4,10.1h-2l-4.1-10.1h2.4l2.7,7.4L246.6,400.2z"/>
<path class="st2" d="M254.9,408.6c1,0,2-0.4,2.7-1.2l1.3,1.2c-1.9,2.2-5.2,2.4-7.3,0.5c-2.2-1.9-2.4-5.2-0.5-7.3
	c0.9-1,2.2-1.7,3.6-1.8c3.2,0,4.7,2.5,4.7,5.4c0,0.2,0,0.4,0,0.6h-7.3C252.2,407.5,253.5,408.6,254.9,408.6z M257.1,404.5
	c0-1.4-1.1-2.6-2.5-2.6c-1.4,0.1-2.5,1.2-2.6,2.6H257.1z"/>
<path class="st2" d="M263.9,410.3h-2.3v-10h2.3v1.6c0.6-1.1,1.8-1.8,3.1-1.8c2.2,0,3.5,1.5,3.5,3.9v6.4h-2.2v-5.7
	c0-1.6-0.8-2.5-2.1-2.5c-1.2,0-2.2,1-2.2,2.2c0,0.1,0,0.2,0,0.3L263.9,410.3L263.9,410.3z"/>
<path class="st2" d="M276,407.1c-0.1,0.6,0.3,1.2,0.9,1.2c0.1,0,0.2,0,0.3,0c0.5,0,1-0.1,1.4-0.3v1.9c-0.6,0.3-1.3,0.5-2,0.5
	c-1.7,0-2.8-0.7-2.8-2.9v-5.3h-1.3v-2h1.3v-2.8h2.3v2.8h2.7v2H276V407.1L276,407.1z"/>
<path class="st2" d="M281,398.7v-2.2h2.4v2.2H281z M281.1,410.3v-10h2.3v10H281.1z"/>
<path class="st2" d="M291,410.5c-2.8,0-5.2-2.2-5.2-5.1c0,0,0-0.1,0-0.1c0-2.9,2.3-5.3,5.2-5.3c2.9,0,5.3,2.3,5.3,5.2
	C296.4,408.1,294.1,410.5,291,410.5C291.1,410.5,291.1,410.5,291,410.5z M291,402c-1.7,0-3,1.3-3,3c0,0.1,0,0.1,0,0.2
	c-0.1,1.7,1.2,3.2,2.9,3.2c0,0,0.1,0,0.1,0c1.7,0,3-1.3,3-3c0-0.1,0-0.1,0-0.2C294.1,403.6,292.8,402.1,291,402
	C291.1,402,291.1,402,291,402z"/>
<path class="st2" d="M300.9,410.3h-2.3v-10h2.3v1.6c0.6-1.1,1.8-1.8,3.1-1.8c2.2,0,3.5,1.5,3.5,3.9v6.4h-2.2v-5.7
	c0-1.6-0.8-2.5-2.1-2.5c-1.2,0-2.2,1-2.2,2.2c0,0.1,0,0.2,0,0.3L300.9,410.3L300.9,410.3z"/>
<g>
	<path d="M181.1,136.6L181.1,136.6l-1.5,0.8l-0.2-0.9l1.9-1h1v8.7h-1.1V136.6z"/>
</g>
<g>
	<path d="M309.9,404.2v-0.6l0.8-0.8c2-1.9,2.9-2.9,2.9-4.1c0-0.8-0.4-1.5-1.5-1.5c-0.7,0-1.3,0.4-1.7,0.7l-0.3-0.7
		c0.5-0.5,1.3-0.8,2.2-0.8c1.7,0,2.4,1.2,2.4,2.3c0,1.4-1,2.6-2.7,4.2l-0.6,0.6v0h3.5v0.9H309.9z"/>
</g>
<g>
	<path d="M488.3,215.5v-0.6l0.8-0.8c2-1.9,2.9-2.9,2.9-4.1c0-0.8-0.4-1.5-1.5-1.5c-0.7,0-1.3,0.4-1.7,0.7l-0.3-0.7
		c0.5-0.5,1.3-0.8,2.2-0.8c1.7,0,2.4,1.2,2.4,2.3c0,1.4-1,2.6-2.7,4.2l-0.6,0.6v0h3.5v0.9H488.3z"/>
</g>
</svg>
