<?xml version="1.0" encoding="utf-8"?>
<!-- Generator: Adobe Illustrator 19.2.0, SVG Export Plug-In . SVG Version: 6.00 Build 0)  -->
<svg version="1.1" id="Layer_1" xmlns="http://www.w3.org/2000/svg" xmlns:xlink="http://www.w3.org/1999/xlink" x="0px" y="0px"
	 viewBox="0 0 534.1 467.8" style="enable-background:new 0 0 534.1 467.8;" xml:space="preserve">
<style type="text/css">
	.st0{fill:#E0E0E0;}
	.st1{fill:#231F20;}
	.st2{fill:#4474B8;}
</style>
<title>daniel-story</title>
<circle class="st0" cx="110" cy="110" r="110"/>
<path class="st1" d="M53.8,50.8h2.3V62H63v2.1h-9.2L53.8,50.8L53.8,50.8z"/>
<path class="st1" d="M69.7,64.4c-2.8,0-5.2-2.2-5.2-5.1c0,0,0-0.1,0-0.1c0-2.9,2.3-5.3,5.2-5.3c2.9,0,5.3,2.3,5.3,5.2
	C75,61.9,72.7,64.3,69.7,64.4C69.7,64.4,69.7,64.4,69.7,64.4z M69.7,55.9c-1.7,0-3,1.3-3,3c0,0.1,0,0.1,0,0.2
	c-0.1,1.7,1.2,3.2,2.9,3.2c0,0,0.1,0,0.1,0c1.7,0,3-1.3,3-3c0-0.1,0-0.1,0-0.2C72.8,57.5,71.5,56,69.7,55.9
	C69.7,55.9,69.7,55.9,69.7,55.9L69.7,55.9z"/>
<path class="st1" d="M86.6,61l2-6.9h2.3l-3.2,10.1h-2l-2.2-6.9l-2.2,6.9h-2L76,54.1h2.3l2,6.9l2.2-6.9h1.9L86.6,61z"/>
<path class="st1" d="M92.4,59.4v-2.2h5.6v2.3L92.4,59.4L92.4,59.4z"/>
<path class="st1" d="M100.5,52.6v-2.2h2.4v2.2H100.5z M100.5,64.1v-10h2.3v10H100.5z"/>
<path class="st1" d="M108,64.1h-2.3v-10h2.3v1.6c0.6-1.1,1.8-1.8,3.1-1.8c2.2,0,3.5,1.5,3.5,3.9v6.4h-2.3v-5.7
	c0-1.6-0.8-2.5-2.1-2.5c-1.2,0-2.2,1-2.2,2.2c0,0.1,0,0.2,0,0.3V64.1L108,64.1z"/>
<path class="st1" d="M122,64.4c-2.8,0-5.1-2.2-5.1-5.1c0-0.1,0-0.1,0-0.2c-0.1-2.8,2.2-5.2,5-5.3c0,0,0.1,0,0.1,0
	c1.5-0.1,3,0.6,4,1.7l-1.4,1.5c-0.6-0.8-1.6-1.2-2.6-1.2c-1.7,0.1-2.9,1.5-2.9,3.1c0,0,0,0,0,0.1c-0.1,1.7,1.1,3.1,2.7,3.2
	c0.1,0,0.2,0,0.3,0c1,0,1.9-0.5,2.6-1.2l1.4,1.4C125.1,63.7,123.6,64.4,122,64.4z"/>
<path class="st1" d="M132.5,64.4c-2.8,0-5.2-2.2-5.2-5.1c0,0,0-0.1,0-0.1c0-2.9,2.3-5.3,5.2-5.3c2.9,0,5.3,2.3,5.3,5.2
	C137.9,61.9,135.6,64.3,132.5,64.4C132.6,64.4,132.6,64.4,132.5,64.4z M132.5,55.9c-1.7,0-3,1.3-3,3c0,0.1,0,0.1,0,0.2
	c-0.1,1.7,1.2,3.2,2.9,3.2c0,0,0.1,0,0.1,0c1.7,0,3-1.3,3-3c0-0.1,0-0.1,0-0.2C135.6,57.5,134.3,56,132.5,55.9
	C132.6,55.9,132.6,55.9,132.5,55.9L132.5,55.9z"/>
<path class="st1" d="M151.7,53.9c2.2,0,3.5,1.4,3.5,3.8v6.4h-2.3v-5.7c0-1.6-0.7-2.5-2-2.5s-2.1,0.9-2.1,2.5v5.7h-2.3v-5.7
	c0-1.6-0.8-2.4-2-2.4s-2.1,1-2.1,2.5v5.6h-2.3v-10h2.3v1.5c0.6-1.1,1.8-1.7,3-1.7c1.2-0.1,2.4,0.6,2.9,1.8
	C149.1,54.5,150.4,53.9,151.7,53.9z"/>
<path class="st1" d="M162.5,62.5c1,0,2-0.4,2.7-1.2l1.3,1.2c-1.9,2.2-5.2,2.4-7.3,0.5c-2.2-1.9-2.4-5.2-0.5-7.3
	c0.9-1,2.2-1.7,3.6-1.8c3.2,0,4.7,2.5,4.7,5.4c0,0.2,0,0.4,0,0.6h-7.3C159.8,61.4,161.1,62.5,162.5,62.5z M164.7,58.4
	c0-1.4-1.1-2.6-2.5-2.6c-1.4,0.1-2.5,1.2-2.6,2.6H164.7z"/>
<path class="st1" d="M56.6,87.1c-1.5,0-3-0.5-4.2-1.5l1-1.6c0.9,0.8,2.1,1.2,3.2,1.2c1,0,1.5-0.4,1.5-1.1l0,0c0-0.8-1-1-2.2-1.4
	c-1.5-0.4-3.1-1-3.1-3l0,0c0-1.9,1.6-3.1,3.5-3.1c1.3,0,2.6,0.4,3.6,1.1l-0.9,1.6c-0.8-0.6-1.8-0.9-2.8-1c-0.6-0.1-1.2,0.3-1.4,0.9
	c0,0,0,0.1,0,0.1l0,0c0,0.7,1.1,1,2.2,1.4c1.4,0.5,3.1,1.1,3.1,2.9l0,0C60.3,86.1,58.7,87.1,56.6,87.1z"/>
<path class="st1" d="M65.1,83.8C65,84.4,65.4,84.9,66,85c0.1,0,0.2,0,0.3,0c0.5,0,1-0.1,1.4-0.3v1.9c-0.6,0.3-1.3,0.5-2,0.5
	c-1.7,0-2.8-0.7-2.8-2.9v-5.3h-1.3v-2h1.3v-2.8h2.2v2.8h2.7v2h-2.7V83.8L65.1,83.8z"/>
<path class="st1" d="M76.6,76.9h2.3v10h-2.3v-1.6c-0.6,1.1-1.8,1.8-3.1,1.8c-2.2,0-3.5-1.5-3.5-3.9v-6.4h2.3v5.7
	c0,1.6,0.8,2.5,2.1,2.5c1.2,0,2.2-1,2.2-2.2c0-0.1,0-0.2,0-0.3V76.9z"/>
<path class="st1" d="M89.2,86.9v-1.7c-0.7,1.2-2,1.9-3.4,1.9c-2.3,0-4.6-1.9-4.6-5.2s2.2-5.2,4.6-5.2c1.4,0,2.6,0.7,3.4,1.8v-5.4
	h2.3v13.9L89.2,86.9L89.2,86.9z M86.3,78.7c-1.6,0-2.9,1.4-2.9,3c0,0.1,0,0.2,0,0.2c-0.1,1.7,1.1,3.1,2.8,3.2c0,0,0.1,0,0.1,0
	c1.8-0.3,3-2,2.7-3.7C88.8,80,87.7,78.9,86.3,78.7L86.3,78.7z"/>
<path class="st1" d="M98.8,85.3c1,0,2-0.4,2.7-1.2l1.3,1.2c-1.9,2.2-5.2,2.4-7.3,0.5c-2.2-1.9-2.4-5.2-0.5-7.3
	c0.9-1,2.2-1.7,3.6-1.8c3.2,0,4.7,2.5,4.7,5.4c0,0.2,0,0.4,0,0.6H96C96.1,84.2,97.4,85.3,98.8,85.3z M101,81.2
	c0-1.4-1.1-2.6-2.5-2.6c-1.4,0.1-2.5,1.2-2.6,2.6H101z"/>
<path class="st1" d="M107.8,86.9h-2.3v-10h2.3v1.6c0.6-1.1,1.8-1.8,3.1-1.8c2.2,0,3.5,1.5,3.5,3.9V87h-2.3v-5.8
	c0-1.6-0.8-2.5-2.1-2.5c-1.2,0-2.2,1-2.2,2.2c0,0.1,0,0.2,0,0.3V86.9L107.8,86.9z"/>
<path class="st1" d="M119.9,83.8c-0.1,0.6,0.3,1.2,0.9,1.2c0.1,0,0.2,0,0.3,0c0.5,0,1-0.1,1.4-0.3v1.9c-0.6,0.3-1.3,0.5-2,0.5
	c-1.7,0-2.8-0.7-2.8-2.9v-5.3h-1.3v-2h1.3v-2.8h2.3v2.8h2.7v2H120L119.9,83.8L119.9,83.8z"/>
<path class="st1" d="M128.3,87.1c-1.5,0-3-0.5-4.2-1.5l1-1.6c0.9,0.8,2.1,1.2,3.2,1.2c1,0,1.5-0.4,1.5-1.1l0,0c0-0.8-1-1-2.2-1.4
	c-1.5-0.4-3.1-1-3.1-3l0,0c0-1.9,1.6-3.1,3.5-3.1c1.3,0,2.6,0.4,3.6,1.1l-0.9,1.6c-0.8-0.6-1.8-0.9-2.8-1c-0.6-0.1-1.2,0.3-1.4,0.9
	c0,0,0,0.1,0,0.1l0,0c0,0.7,1.1,1,2.2,1.4c1.4,0.5,3.1,1.1,3.1,2.9l0,0C132,86.1,130.4,87.1,128.3,87.1z"/>
<path class="st1" d="M146,86.9v-1.2c-0.8,1-2,1.5-3.2,1.4c-1.9,0-3.5-1.1-3.5-3.1l0,0c0-2.2,1.7-3.2,4-3.2c0.9,0,1.9,0.1,2.7,0.4V81
	c0-1.4-0.9-2.2-2.4-2.2c-1,0-1.9,0.2-2.8,0.6l-0.6-1.8c1.2-0.6,2.5-0.9,3.8-0.8c2.9,0,4.3,1.6,4.3,4.2v6L146,86.9L146,86.9z
	 M146,82.7c-0.7-0.3-1.5-0.4-2.3-0.4c-1.4,0-2.3,0.6-2.3,1.6l0,0c0.1,0.9,0.9,1.6,1.8,1.5c0,0,0.1,0,0.1,0c1.5,0,2.6-0.8,2.6-2.1
	V82.7L146,82.7z"/>
<path class="st1" d="M153.2,86.9h-2.3v-10h2.3v2.3c0.5-1.5,1.9-2.5,3.5-2.5v2.4h-0.1c-2,0-3.4,1.3-3.4,4V86.9L153.2,86.9z"/>
<path class="st1" d="M162.9,85.3c1,0,2-0.4,2.7-1.2l1.3,1.2c-1.9,2.2-5.2,2.4-7.3,0.5c-2.2-1.9-2.4-5.2-0.5-7.3
	c0.9-1,2.2-1.7,3.6-1.8c3.2,0,4.7,2.5,4.7,5.4c0,0.2,0,0.4,0,0.6h-7.3C160.2,84.2,161.4,85.3,162.9,85.3z M165.1,81.2
	c0-1.4-1.1-2.6-2.5-2.6c-1.4,0.1-2.5,1.2-2.6,2.6H165.1z"/>
<path class="st2" d="M100.1,116.5H87.8l-1.4-6.1l12.5-15.5h9.5v15.5h3.1v6.1h-3.1v4.5h-8.3V116.5z M100.1,110.5v-6.9l-5.4,6.9H100.1
	z"/>
<path class="st2" d="M117.9,110.8l-6.4-10.1h8.9l2.2,4.1l2.2-4.1h8.8l-6.4,10.1l6.4,10.1h-8.9l-2.2-4.1l-2.2,4.1h-8.8L117.9,110.8z"
	/>
<path class="st1" d="M43.8,133.5c2.2,0,3.5,1.4,3.5,3.8v6.4H45V138c0-1.6-0.7-2.5-2-2.5s-2.1,0.9-2.1,2.5v5.7h-2.3V138
	c0-1.6-0.8-2.4-2-2.4s-2.1,1-2.1,2.5v5.6h-2.3v-10h2.3v1.5c0.6-1.1,1.8-1.7,3-1.7c1.2-0.1,2.4,0.6,2.9,1.8
	C41.2,134.1,42.5,133.5,43.8,133.5z"/>
<path class="st1" d="M54.7,144c-2.8,0-5.2-2.2-5.2-5.1c0,0,0-0.1,0-0.1c0-2.9,2.3-5.3,5.2-5.3c2.9,0,5.3,2.3,5.3,5.2
	C60.1,141.5,57.8,143.9,54.7,144C54.8,144,54.8,144,54.7,144z M54.7,135.5c-1.7,0-3,1.3-3,3c0,0.1,0,0.1,0,0.2
	c-0.1,1.7,1.2,3.2,2.9,3.2c0,0,0.1,0,0.1,0c1.7,0,3-1.3,3-3c0-0.1,0-0.1,0-0.2C57.8,137.1,56.5,135.6,54.7,135.5
	C54.8,135.5,54.8,135.5,54.7,135.5L54.7,135.5z"/>
<path class="st1" d="M64.6,143.7h-2.3v-10h2.3v2.3c0.5-1.5,1.9-2.5,3.5-2.5v2.4H68c-2,0-3.4,1.3-3.4,4V143.7L64.6,143.7z"/>
<path class="st1" d="M74.3,142.1c1,0,2-0.4,2.7-1.2l1.3,1.2c-1.9,2.2-5.2,2.4-7.3,0.5c-2.2-1.9-2.4-5.2-0.5-7.3
	c0.9-1,2.2-1.7,3.6-1.8c3.2,0,4.7,2.5,4.7,5.4c0,0.2,0,0.4,0,0.6h-7.3C71.6,141,72.9,142.1,74.3,142.1z M76.5,138
	c0-1.4-1.1-2.6-2.5-2.6c-1.4,0.1-2.5,1.2-2.6,2.6H76.5z"/>
<path class="st1" d="M86.8,143.7v-13.9h2.3v13.9L86.8,143.7L86.8,143.7z"/>
<path class="st1" d="M92.1,132.2V130h2.4v2.2H92.1z M92.2,143.8v-10h2.3v10H92.2z"/>
<path class="st1" d="M106.7,143.7h-2.6l-3-4.3l-1.4,1.5v2.9h-2.3v-13.9h2.3v8.3l4.1-4.5h2.8l-3.9,4.1L106.7,143.7z"/>
<path class="st1" d="M112.5,142.1c1,0,2-0.4,2.7-1.2l1.3,1.2c-1.9,2.2-5.2,2.4-7.3,0.5c-2.2-1.9-2.4-5.2-0.5-7.3
	c0.9-1,2.2-1.7,3.6-1.8c3.2,0,4.7,2.5,4.7,5.4c0,0.2,0,0.4,0,0.6h-7.3C109.8,141,111,142.1,112.5,142.1z M114.7,138
	c0-1.4-1.1-2.6-2.5-2.6c-1.4,0.1-2.5,1.2-2.6,2.6H114.7z"/>
<path class="st1" d="M119.3,143.7v-13.9h2.3v13.9L119.3,143.7L119.3,143.7z"/>
<path class="st1" d="M129.9,144c-0.8,2-1.7,2.8-3.3,2.8c-0.8,0-1.6-0.2-2.3-0.6l0.8-1.7c0.4,0.2,0.9,0.4,1.3,0.4
	c0.7,0,1.3-0.5,1.4-1.2l-4.1-10h2.4l2.8,7.5l2.6-7.5h2.4L129.9,144z"/>
<path class="st1" d="M144.1,140.6c-0.1,0.6,0.3,1.2,0.9,1.2c0.1,0,0.2,0,0.3,0c0.5,0,1-0.1,1.4-0.3v1.9c-0.6,0.3-1.3,0.5-2,0.5
	c-1.7,0-2.8-0.7-2.8-2.9v-5.3h-1.3v-2h1.3v-2.8h2.2v2.8h2.7v2h-2.7V140.6L144.1,140.6z"/>
<path class="st1" d="M153.5,144c-2.8,0-5.2-2.2-5.2-5.1c0,0,0-0.1,0-0.1c0-2.9,2.3-5.3,5.2-5.3c2.9,0,5.3,2.3,5.3,5.2
	C158.8,141.5,156.5,143.9,153.5,144C153.5,144,153.5,144,153.5,144z M153.5,135.5c-1.7,0-3,1.3-3,3c0,0.1,0,0.1,0,0.2
	c-0.1,1.7,1.2,3.2,2.9,3.2c0,0,0.1,0,0.1,0c1.7,0,3-1.3,3-3c0-0.1,0-0.1,0-0.2C156.6,137.1,155.3,135.6,153.5,135.5
	C153.5,135.5,153.5,135.5,153.5,135.5L153.5,135.5z"/>
<path class="st1" d="M172.3,143.9c-1.3,0-2.6-0.7-3.4-1.8v1.6h-2.3v-13.9h2.3v5.5c0.7-1.2,2-1.9,3.4-1.9c2.3,0,4.6,1.9,4.6,5.2
	S174.7,143.9,172.3,143.9z M171.8,135.5c-1.8,0.2-3.1,1.8-2.9,3.6c0.2,1.5,1.4,2.7,2.9,2.9c1.8-0.2,3.1-1.9,2.8-3.6
	C174.5,136.8,173.3,135.7,171.8,135.5L171.8,135.5z"/>
<path class="st1" d="M183.9,142.1c1,0,2-0.4,2.7-1.2l1.3,1.2c-1.9,2.2-5.2,2.4-7.3,0.5c-2.2-1.9-2.4-5.2-0.5-7.3
	c0.9-1,2.2-1.7,3.6-1.8c3.2,0,4.7,2.5,4.7,5.4c0,0.2,0,0.4,0,0.6H181C181.2,141,182.4,142.1,183.9,142.1z M186.1,138
	c0-1.4-1.1-2.6-2.5-2.6c-1.4,0.1-2.5,1.2-2.6,2.6H186.1L186.1,138z"/>
<path class="st1" d="M30.1,166.8c-2.8,0-5.1-2.2-5.1-5.1c0-0.1,0-0.1,0-0.2c-0.1-2.8,2.2-5.2,5-5.3c0,0,0.1,0,0.1,0
	c1.5-0.1,3,0.6,4,1.7l-1.4,1.5c-0.6-0.8-1.6-1.2-2.6-1.2c-1.7,0.1-2.9,1.5-2.9,3.1c0,0,0,0,0,0.1c-0.1,1.7,1.1,3.1,2.7,3.2
	c0.1,0,0.2,0,0.3,0c1,0,1.9-0.5,2.6-1.2l1.4,1.4C33.2,166.1,31.7,166.8,30.1,166.8z"/>
<path class="st1" d="M38.4,166.5h-2.3v-13.9h2.3v5.4c0.6-1.1,1.8-1.8,3.1-1.8c2.2,0,3.5,1.5,3.5,3.9v6.4h-2.3v-5.7
	c0-1.6-0.8-2.5-2.1-2.5c-1.2,0-2.2,1-2.2,2.2c0,0.1,0,0.2,0,0.3V166.5L38.4,166.5z"/>
<path class="st1" d="M50.1,166.5h-2.3v-10h2.3v2.3c0.5-1.5,1.9-2.5,3.5-2.5v2.4h-0.1c-2,0-3.4,1.3-3.4,4V166.5L50.1,166.5z"/>
<path class="st1" d="M59.9,166.8c-2.8,0-5.2-2.2-5.2-5.1c0,0,0-0.1,0-0.1c0-2.9,2.3-5.3,5.2-5.3c2.9,0,5.3,2.3,5.3,5.2
	C65.3,164.3,62.9,166.7,59.9,166.8C60,166.8,60,166.8,59.9,166.8z M59.9,158.3c-1.7,0-3,1.3-3,3c0,0.1,0,0.1,0,0.2
	c-0.1,1.7,1.2,3.2,2.9,3.2c0,0,0.1,0,0.1,0c1.7,0,3-1.3,3-3c0-0.1,0-0.1,0-0.2C63,159.9,61.7,158.4,59.9,158.3
	C60,158.3,59.9,158.3,59.9,158.3L59.9,158.3z"/>
<path class="st1" d="M69.8,166.5h-2.3v-10h2.3v1.6c0.6-1.1,1.8-1.8,3.1-1.8c2.2,0,3.5,1.5,3.5,3.9v6.4h-2.3v-5.7
	c0-1.6-0.8-2.5-2.1-2.5c-1.2,0-2.2,1-2.2,2.2c0,0.1,0,0.2,0,0.3V166.5L69.8,166.5z"/>
<path class="st1" d="M79.2,155v-2.2h2.4v2.2H79.2z M79.3,166.5v-10h2.3v10H79.3z"/>
<path class="st1" d="M89.1,166.8c-2.8,0-5.1-2.2-5.1-5.1c0-0.1,0-0.1,0-0.2c-0.1-2.8,2.2-5.2,5-5.3c0,0,0.1,0,0.1,0
	c1.5-0.1,3,0.6,4,1.7l-1.4,1.5c-0.6-0.8-1.6-1.2-2.6-1.2c-1.7,0.1-2.9,1.5-2.9,3.1c0,0,0,0,0,0.1c-0.1,1.7,1.1,3.1,2.7,3.2
	c0.1,0,0.2,0,0.3,0c1,0,1.9-0.5,2.6-1.2l1.4,1.4C92.2,166.1,90.7,166.8,89.1,166.8z"/>
<path class="st1" d="M101.3,166.5v-1.2c-0.8,1-2,1.5-3.2,1.4c-1.9,0-3.5-1.1-3.5-3.1l0,0c0-2.2,1.7-3.2,4-3.2c0.9,0,1.9,0.1,2.7,0.4
	v-0.2c0-1.4-0.9-2.2-2.4-2.2c-1,0-1.9,0.2-2.8,0.6l-0.6-1.8c1.2-0.6,2.5-0.9,3.8-0.8c2.9,0,4.3,1.6,4.3,4.2v6L101.3,166.5
	L101.3,166.5z M101.3,162.3c-0.7-0.3-1.5-0.4-2.3-0.4c-1.4,0-2.3,0.6-2.3,1.6l0,0c0.1,0.9,0.9,1.6,1.8,1.5c0,0,0.1,0,0.1,0
	c1.5,0,2.6-0.8,2.6-2.1V162.3L101.3,162.3z"/>
<path class="st1" d="M106.4,166.5v-13.9h2.3v13.9H106.4z"/>
<path class="st1" d="M111.7,166.5v-13.9h2.3v13.9H111.7z"/>
<path class="st1" d="M122.2,166.8c-0.8,2-1.7,2.8-3.3,2.8c-0.8,0-1.6-0.2-2.3-0.6l0.8-1.7c0.4,0.2,0.9,0.4,1.3,0.4
	c0.7,0,1.3-0.5,1.4-1.2l-4.1-10h2.4l2.8,7.5l2.6-7.5h2.4L122.2,166.8z"/>
<path class="st1" d="M139.8,166.5v-1.2c-0.8,1-2,1.5-3.2,1.4c-1.9,0-3.5-1.1-3.5-3.1l0,0c0-2.2,1.7-3.2,4-3.2c0.9,0,1.9,0.1,2.7,0.4
	v-0.2c0-1.4-0.9-2.2-2.4-2.2c-1,0-1.9,0.2-2.8,0.6l-0.6-1.8c1.2-0.6,2.5-0.9,3.8-0.8c2.9,0,4.3,1.6,4.3,4.2v6L139.8,166.5
	L139.8,166.5z M139.9,162.3c-0.7-0.3-1.5-0.4-2.3-0.4c-1.4,0-2.3,0.6-2.3,1.6l0,0c0.1,0.9,0.9,1.6,1.8,1.5c0,0,0.1,0,0.1,0
	c1.5,0,2.6-0.8,2.6-2.1V162.3L139.9,162.3z"/>
<path class="st1" d="M150.4,166.7c-1.3,0-2.6-0.7-3.4-1.8v1.6h-2.3v-13.9h2.3v5.5c0.7-1.2,2-1.9,3.4-1.9c2.3,0,4.6,1.9,4.6,5.2
	S152.8,166.7,150.4,166.7z M149.9,158.3c-1.8,0.2-3.1,1.8-2.9,3.6c0.2,1.5,1.4,2.7,2.9,2.9c1.8-0.2,3.1-1.9,2.8-3.6
	C152.5,159.6,151.4,158.5,149.9,158.3L149.9,158.3z"/>
<path class="st1" d="M160.7,166.7c-1.5,0-3-0.5-4.2-1.5l1-1.6c0.9,0.7,2.1,1.2,3.2,1.2c1,0,1.5-0.4,1.5-1.1l0,0c0-0.8-1-1-2.2-1.4
	c-1.5-0.4-3.1-1-3.1-2.9l0,0c0-1.9,1.6-3.1,3.5-3.1c1.3,0,2.6,0.4,3.6,1.1l-0.9,1.6c-0.8-0.6-1.8-0.9-2.8-1
	c-0.6-0.1-1.2,0.3-1.4,0.9c0,0,0,0.1,0,0.1l0,0c0,0.7,1.1,1,2.2,1.4c1.4,0.5,3.1,1.1,3.1,2.9l0,0
	C164.4,165.7,162.8,166.7,160.7,166.7z"/>
<path class="st1" d="M171.3,164.9c1,0,2-0.4,2.7-1.2l1.3,1.2c-1.9,2.2-5.2,2.4-7.3,0.5c-2.2-1.9-2.4-5.2-0.5-7.3
	c0.9-1,2.2-1.7,3.6-1.8c3.2,0,4.7,2.5,4.7,5.4c0,0.2,0,0.4,0,0.6h-7.3C168.6,163.8,169.8,164.9,171.3,164.9z M173.5,160.8
	c0-1.4-1.1-2.6-2.5-2.6c-1.4,0.1-2.5,1.2-2.6,2.6H173.5z"/>
<path class="st1" d="M180.3,166.5H178v-10h2.3v1.6c0.6-1.1,1.8-1.8,3.1-1.8c2.2,0,3.5,1.5,3.5,3.9v6.4h-2.3v-5.7
	c0-1.6-0.8-2.5-2.1-2.5c-1.2,0-2.2,1-2.2,2.2c0,0.1,0,0.2,0,0.3V166.5L180.3,166.5z"/>
<path class="st1" d="M192.4,163.4c-0.1,0.6,0.3,1.2,0.9,1.2c0.1,0,0.2,0,0.3,0c0.5,0,1-0.1,1.4-0.3v1.9c-0.6,0.3-1.3,0.5-2,0.5
	c-1.7,0-2.8-0.7-2.8-2.9v-5.3h-1.3v-2h1.2v-2.8h2.3v2.8h2.7v2h-2.7L192.4,163.4L192.4,163.4z"/>
<circle class="st0" cx="424.1" cy="155.9" r="110"/>
<path class="st2" d="M376.4,129.6l6.1-7.2c2.8,2.3,5.5,3.7,8.2,3.7s4.2-1.4,4.2-3.2v-0.1c0-2-1.6-3.2-3.9-3.2
	c-1.9,0.1-3.7,0.8-5.1,2.1l-6.7-3.4l0.9-17.5h24v8.9h-15.7l-0.2,4.4c1.9-1.2,4.1-1.9,6.3-1.8c5.5,0,11.1,3.6,11.1,10.6v0.1
	c0,7.8-6.3,12.2-14.8,12.2C385.5,135.3,380.3,133.3,376.4,129.6z"/>
<path class="st2" d="M413.5,110.3l-5.4,1.2l-2-8.3l9.9-2.7h8.4v33.9h-10.9L413.5,110.3L413.5,110.3z"/>
<path class="st2" d="M427.7,109.7L427.7,109.7c0-5.2,3.5-9.5,9.1-9.5s9.1,4.3,9.1,9.4v0.1c0,5.2-3.7,9.4-9.1,9.4
	S427.7,114.9,427.7,109.7z M458.7,100.7h7.2l-27,33.7h-7.2L458.7,100.7z M439.3,109.7L439.3,109.7c0-2.1-1.1-3.4-2.5-3.4
	s-2.5,1.2-2.5,3.3v0.1c0,2,1.2,3.3,2.5,3.3S439.2,111.8,439.3,109.7L439.3,109.7z M451.7,125.5L451.7,125.5c0-5.2,3.5-9.5,9.1-9.5
	s9.1,4.3,9.1,9.4v0.1c0,5.2-3.7,9.4-9.1,9.4S451.7,130.6,451.7,125.5L451.7,125.5z M463.3,125.5L463.3,125.5c0-2.1-1.1-3.4-2.5-3.4
	s-2.5,1.2-2.5,3.3v0.1c0,2,1.2,3.3,2.5,3.3S463.2,127.6,463.3,125.5L463.3,125.5z"/>
<path class="st1" d="M358.3,160.3c-3.2,0.1-5.8-2.5-5.9-5.7c0-0.1,0-0.1,0-0.2c0-3.3,2.6-6,5.9-6s6,2.6,6,5.9s-2.6,6-5.9,6
	C358.4,160.3,358.3,160.3,358.3,160.3z M358.3,150.8c-1.9,0-3.4,1.5-3.4,3.4c0,0.1,0,0.1,0,0.2c-0.1,1.9,1.4,3.6,3.3,3.7
	c0,0,0.1,0,0.1,0c1.9,0,3.4-1.5,3.4-3.4c0-0.1,0-0.2,0-0.2c0.1-1.9-1.4-3.6-3.3-3.7C358.4,150.8,358.3,150.8,358.3,150.8z"/>
<path class="st1" d="M372.9,148.9v2.1H370v9.1h-2.6V151H366v-2.2h1.4V148c0-2.5,1.2-3.7,3.4-3.7c0.7,0,1.4,0.1,2.1,0.3v2.2
	c-0.5-0.2-1-0.3-1.5-0.3c-1,0-1.5,0.5-1.5,1.7v0.6H372.9L372.9,148.9z"/>
<path class="st1" d="M384.9,160.3c-1.7,0-3.4-0.6-4.7-1.7l1.1-1.8c1,0.8,2.3,1.3,3.7,1.4c1.1,0,1.7-0.5,1.7-1.2l0,0
	c0-0.9-1.2-1.2-2.5-1.6c-1.7-0.5-3.5-1.2-3.5-3.3l0,0c0-2.1,1.8-3.4,4-3.4c1.5,0,2.9,0.5,4.1,1.3l-1,1.8c-0.9-0.6-2-1-3.1-1.1
	c-1,0-1.6,0.5-1.6,1.1l0,0c0,0.8,1.2,1.2,2.5,1.6c1.6,0.5,3.5,1.3,3.5,3.3l0,0C389.1,159.1,387.3,160.3,384.9,160.3z"/>
<path class="st1" d="M394.5,156.5c-0.1,0.7,0.3,1.3,1,1.4c0.1,0,0.2,0,0.4,0c0.5,0,1.1-0.1,1.6-0.4v2.1c-0.7,0.4-1.5,0.6-2.3,0.6
	c-1.9,0-3.2-0.8-3.2-3.3V151h-1.4v-2.2h1.4v-3.1h2.6v3.1h3v2.2h-3L394.5,156.5L394.5,156.5z"/>
<path class="st1" d="M407.4,148.8h2.6v11.3h-2.6v-1.8c-0.7,1.2-2,2-3.5,2c-2.5,0-4-1.7-4-4.3v-7.2h2.6v6.4c0,1.8,0.9,2.8,2.4,2.8
	c1.4,0,2.5-1.1,2.5-2.5c0-0.1,0-0.2,0-0.3L407.4,148.8L407.4,148.8z"/>
<path class="st1" d="M421.6,160v-1.8c-0.8,1.3-2.3,2.1-3.8,2.1c-2.6,0-5.2-2.1-5.2-5.9s2.5-5.9,5.2-5.9c1.5,0,2.9,0.7,3.8,2v-6.1
	h2.5v15.6L421.6,160L421.6,160z M418.4,150.8c-1.8,0-3.2,1.4-3.2,3.6c-0.2,1.8,1.2,3.5,3,3.6c0.1,0,0.1,0,0.2,0
	c2-0.3,3.4-2.1,3.2-4.1C421.3,152.3,420.1,151,418.4,150.8L418.4,150.8z"/>
<path class="st1" d="M432.5,158.2c1.1,0,2.2-0.5,3-1.3l1.5,1.3c-2,2.5-5.7,2.8-8.2,0.8c-1.4-1.1-2.1-2.8-2.1-4.6
	c0-3.2,2.3-5.9,5.4-5.9c3.5,0,5.3,2.8,5.3,6.1c0,0.2,0,0.5,0,0.7h-8.2C429.4,157,430.8,158.2,432.5,158.2z M435,153.6
	c-0.2-1.7-1.1-3-2.8-3s-2.7,1.2-2.9,3H435z"/>
<path class="st1" d="M442.6,160h-2.5v-11.3h2.6v1.8c0.7-1.2,2-2,3.5-2c2.5,0,4,1.7,4,4.3v7.2h-2.6v-6.4c0-1.8-0.9-2.8-2.4-2.8
	c-1.4,0-2.5,1.1-2.5,2.5c0,0.1,0,0.2,0,0.3L442.6,160L442.6,160z"/>
<path class="st1" d="M456.2,156.5c-0.1,0.7,0.3,1.3,1,1.4c0.1,0,0.2,0,0.4,0c0.5,0,1.1-0.1,1.6-0.4v2.1c-0.7,0.4-1.5,0.6-2.3,0.6
	c-1.9,0-3.2-0.8-3.2-3.3V151h-1.4v-2.2h1.4v-3.1h2.6v3.1h3v2.2h-3L456.2,156.5L456.2,156.5z"/>
<path class="st1" d="M465.6,160.3c-1.7,0-3.4-0.6-4.7-1.7l1.1-1.8c1,0.8,2.3,1.3,3.7,1.4c1.1,0,1.7-0.5,1.7-1.2l0,0
	c0-0.9-1.2-1.2-2.5-1.6c-1.7-0.5-3.5-1.2-3.5-3.3l0,0c0-2.1,1.8-3.4,4-3.4c1.5,0,2.9,0.5,4.1,1.3l-1,1.8c-0.9-0.6-2-1-3.1-1.1
	c-1,0-1.6,0.5-1.6,1.1l0,0c0,0.8,1.2,1.2,2.5,1.6c1.6,0.5,3.5,1.3,3.5,3.3l0,0C469.8,159.1,467.9,160.3,465.6,160.3z"/>
<path class="st1" d="M478.7,147v-2.5h2.7v2.5H478.7z M478.8,160v-11.3h2.6v11.3L478.8,160L478.8,160z"/>
<path class="st1" d="M487.3,160h-2.6v-11.3h2.6v1.8c0.7-1.2,2-2,3.5-2c2.5,0,4,1.7,4,4.3v7.2h-2.6v-6.4c0-1.8-0.9-2.8-2.4-2.8
	c-1.4,0-2.5,1.1-2.5,2.5c0,0.1,0,0.2,0,0.3L487.3,160L487.3,160z"/>
<path class="st1" d="M335.9,185.9c-1.5,0-2.9-0.7-3.8-2v5.2h-2.6v-14.7h2.6v1.9c0.8-1.3,2.2-2.1,3.8-2.1c2.6,0,5.2,2.1,5.2,5.9
	S338.6,185.9,335.9,185.9z M335.3,176.4c-2,0.2-3.4,2.1-3.2,4.1c0.2,1.7,1.5,3,3.2,3.2c1.8,0,3.2-1.4,3.2-3.6c0.2-1.8-1.2-3.4-3-3.6
	C335.5,176.4,335.4,176.4,335.3,176.4z"/>
<path class="st1" d="M351.1,174.4h2.6v11.3h-2.6V184c-0.7,1.2-2,2-3.5,2c-2.5,0-4-1.7-4-4.3v-7.2h2.6v6.4c0,1.8,0.9,2.8,2.4,2.8
	c1.4,0,2.5-1.1,2.5-2.5c0-0.1,0-0.2,0-0.3L351.1,174.4L351.1,174.4z"/>
<path class="st1" d="M363.1,185.9c-1.5,0-2.9-0.7-3.8-2v1.8h-2.6v-15.6h2.6v6.2c0.8-1.3,2.2-2.1,3.8-2.1c2.6,0,5.2,2.1,5.2,5.9
	S365.8,185.9,363.1,185.9z M362.5,176.4c-2,0.2-3.4,2.1-3.2,4.1c0.2,1.7,1.5,3,3.2,3.2c1.8,0,3.2-1.4,3.2-3.6c0.2-1.8-1.2-3.4-3-3.6
	C362.7,176.4,362.6,176.4,362.5,176.4L362.5,176.4z"/>
<path class="st1" d="M371.1,185.7v-15.6h2.6v15.6H371.1z"/>
<path class="st1" d="M377,172.7v-2.5h2.7v2.5L377,172.7L377,172.7z M377.1,185.7v-11.3h2.6v11.3L377.1,185.7L377.1,185.7z"/>
<path class="st1" d="M388.2,186c-3.2,0-5.7-2.5-5.8-5.7c0-0.1,0-0.1,0-0.2c-0.1-3.2,2.5-5.8,5.7-5.9c0,0,0.1,0,0.1,0
	c1.7-0.1,3.3,0.6,4.4,2l-1.6,1.7c-0.7-0.9-1.8-1.4-2.9-1.4c-1.9,0.1-3.3,1.7-3.2,3.5c0,0,0,0,0,0.1c-0.1,1.9,1.3,3.5,3.2,3.7
	c0.1,0,0.1,0,0.2,0c1.1,0,2.2-0.5,2.9-1.4l1.5,1.5C391.6,185.2,389.9,186,388.2,186z"/>
<path class="st1" d="M405.2,185.9c-1.7,0-3.4-0.6-4.7-1.7l1.1-1.8c1,0.8,2.3,1.3,3.7,1.4c1.1,0,1.7-0.5,1.7-1.2l0,0
	c0-0.9-1.2-1.2-2.5-1.6c-1.7-0.5-3.5-1.2-3.5-3.3l0,0c0-2.1,1.8-3.4,4-3.4c1.5,0,2.9,0.5,4.1,1.3l-1,1.8c-0.9-0.6-2-1-3.1-1.1
	c-1,0-1.6,0.5-1.6,1.1l0,0c0,0.8,1.2,1.2,2.5,1.6c1.6,0.5,3.5,1.3,3.5,3.3l0,0C409.4,184.8,407.5,185.9,405.2,185.9z"/>
<path class="st1" d="M417.1,186c-3.2,0-5.7-2.5-5.8-5.7c0-0.1,0-0.1,0-0.2c-0.1-3.2,2.5-5.8,5.7-5.9c0,0,0.1,0,0.1,0
	c1.7-0.1,3.3,0.6,4.4,2l-1.6,1.7c-0.7-0.9-1.8-1.4-2.9-1.4c-1.9,0.1-3.3,1.7-3.2,3.5c0,0,0,0,0,0.1c-0.1,1.9,1.3,3.5,3.2,3.7
	c0.1,0,0.1,0,0.2,0c1.1,0,2.2-0.5,2.9-1.4l1.5,1.5C420.5,185.2,418.9,186,417.1,186z"/>
<path class="st1" d="M426.5,185.7H424v-15.6h2.6v6.1c0.7-1.2,2-2,3.5-2c2.5,0,4,1.7,4,4.3v7.2h-2.6v-6.4c0-1.8-0.9-2.8-2.4-2.8
	c-1.4,0-2.5,1.1-2.5,2.5c0,0.1,0,0.2,0,0.3L426.5,185.7L426.5,185.7z"/>
<path class="st1" d="M442.4,186c-3.2,0.1-5.8-2.5-5.9-5.7c0-0.1,0-0.1,0-0.2c0-3.3,2.6-6,5.9-6s6,2.6,6,5.9s-2.6,6-5.9,6
	C442.5,186,442.4,186,442.4,186z M442.4,176.5c-1.9,0-3.4,1.5-3.4,3.4c0,0.1,0,0.1,0,0.2c-0.1,1.9,1.4,3.6,3.3,3.7c0,0,0.1,0,0.1,0
	c1.9,0,3.4-1.5,3.4-3.4c0-0.1,0-0.2,0-0.2c0.1-1.9-1.4-3.6-3.3-3.7C442.5,176.5,442.4,176.5,442.4,176.5z"/>
<path class="st1" d="M456.2,186c-3.2,0.1-5.8-2.5-5.9-5.7c0-0.1,0-0.1,0-0.2c0-3.3,2.6-6,5.9-6s6,2.6,6,5.9s-2.6,6-5.9,6
	C456.3,186,456.3,186,456.2,186z M456.2,176.5c-1.9,0-3.4,1.5-3.4,3.4c0,0.1,0,0.1,0,0.2c-0.1,1.9,1.4,3.6,3.3,3.7c0,0,0.1,0,0.1,0
	c1.9,0,3.4-1.5,3.4-3.4c0-0.1,0-0.2,0-0.2c0.1-1.9-1.4-3.6-3.3-3.7C456.3,176.5,456.3,176.5,456.2,176.5z"/>
<path class="st1" d="M465,185.7v-15.6h2.6v15.6H465z"/>
<path class="st1" d="M474.7,185.9c-1.7,0-3.4-0.6-4.7-1.7l1.1-1.8c1,0.8,2.3,1.3,3.7,1.4c1.1,0,1.7-0.5,1.7-1.2l0,0
	c0-0.9-1.2-1.2-2.5-1.6c-1.7-0.5-3.5-1.2-3.5-3.3l0,0c0-2.1,1.8-3.4,4-3.4c1.5,0,2.9,0.5,4.1,1.3l-1,1.8c-0.9-0.6-2-1-3.1-1.1
	c-1,0-1.6,0.5-1.6,1.1l0,0c0,0.8,1.2,1.2,2.5,1.6c1.6,0.5,3.5,1.3,3.5,3.3l0,0C478.8,184.8,477,185.9,474.7,185.9z"/>
<path class="st1" d="M494.5,185.7v-1.4c-0.9,1.1-2.2,1.7-3.6,1.6c-2.1,0-4-1.2-4-3.5l0,0c0-2.4,1.9-3.6,4.5-3.6c1,0,2.1,0.1,3.1,0.5
	V179c0-1.6-1-2.4-2.7-2.4c-1.1,0-2.2,0.2-3.2,0.7l-0.7-2.1c1.3-0.6,2.8-1,4.2-0.9c3.3,0,4.9,1.8,4.9,4.8v6.7L494.5,185.7
	L494.5,185.7z M494.6,180.9c-0.8-0.3-1.7-0.5-2.6-0.5c-1.6,0-2.6,0.7-2.6,1.8l0,0c0,1.1,0.9,1.7,2.2,1.7c1.7,0,3-1,3-2.4
	L494.6,180.9L494.6,180.9z"/>
<path class="st1" d="M502.7,185.7h-2.6v-11.3h2.6v2.5c0.6-1.7,2.2-2.8,3.9-2.8v2.7h-0.2c-2.2,0-3.8,1.5-3.8,4.5L502.7,185.7
	L502.7,185.7z"/>
<path class="st1" d="M513.6,183.9c1.1,0,2.2-0.5,3-1.3l1.5,1.3c-2,2.5-5.7,2.8-8.2,0.8c-1.4-1.1-2.1-2.8-2.1-4.6
	c0-3.2,2.3-5.9,5.4-5.9c3.5,0,5.3,2.8,5.3,6.1c0,0.2,0,0.5,0,0.7h-8.2C510.5,182.6,511.9,183.9,513.6,183.9z M516.1,179.3
	c-0.2-1.7-1.1-3-2.8-3s-2.7,1.2-2.9,3H516.1L516.1,179.3z"/>
<path class="st1" d="M364.9,211.4v-15.6h2.6v15.6L364.9,211.4L364.9,211.4z"/>
<path class="st1" d="M376,211.6c-3.2,0.1-5.8-2.5-5.9-5.7c0-0.1,0-0.1,0-0.2c0-3.3,2.6-6,5.9-6s6,2.6,6,5.9s-2.6,6-5.9,6
	C376.1,211.6,376.1,211.6,376,211.6z M376,202.1c-1.9,0-3.4,1.5-3.4,3.4c0,0.1,0,0.1,0,0.2c-0.1,1.9,1.4,3.6,3.3,3.7
	c0,0,0.1,0,0.1,0c1.9,0,3.4-1.5,3.4-3.4c0-0.1,0-0.2,0-0.2c0.1-1.9-1.4-3.6-3.3-3.7C376.1,202.1,376.1,202.1,376,202.1z"/>
<path class="st1" d="M395.1,207.8l2.3-7.7h2.6l-3.7,11.4H394l-2.5-7.7l-2.5,7.7h-2.3l-3.6-11.4h2.6l2.2,7.7l2.5-7.8h2.2L395.1,207.8
	z"/>
<path class="st1" d="M408.6,198.3v-2.5h2.7v2.5H408.6z M408.7,211.3v-11.3h2.6v11.3L408.7,211.3L408.7,211.3z"/>
<path class="st1" d="M417.2,211.4h-2.6v-11.3h2.6v1.8c0.7-1.2,2-2,3.5-2c2.5,0,4,1.7,4,4.3v7.2h-2.5v-6.4c0-1.8-0.9-2.8-2.4-2.8
	c-1.4,0-2.5,1.1-2.5,2.5c0,0.1,0,0.2,0,0.3L417.2,211.4L417.2,211.4z"/>
<path class="st1" d="M432.8,211.6c-3.2,0-5.7-2.5-5.8-5.7c0-0.1,0-0.1,0-0.2c-0.1-3.2,2.5-5.8,5.7-5.9c0,0,0.1,0,0.1,0
	c1.7-0.1,3.3,0.6,4.4,2l-1.6,1.7c-0.7-0.9-1.8-1.4-2.9-1.4c-1.9,0.1-3.3,1.7-3.2,3.5c0,0,0,0,0,0.1c-0.1,1.9,1.3,3.5,3.2,3.7
	c0.1,0,0.1,0,0.2,0c1.1,0,2.2-0.5,2.9-1.4l1.5,1.5C436.3,210.9,434.6,211.7,432.8,211.6z"/>
<path class="st1" d="M444.7,211.6c-3.2,0.1-5.8-2.5-5.9-5.7c0-0.1,0-0.1,0-0.2c0-3.3,2.6-6,5.9-6s6,2.6,6,5.9s-2.6,6-5.9,6
	C444.8,211.6,444.8,211.6,444.7,211.6z M444.7,202.1c-1.9,0-3.4,1.5-3.4,3.4c0,0.1,0,0.1,0,0.2c-0.1,1.9,1.4,3.6,3.3,3.7
	c0,0,0.1,0,0.1,0c1.9,0,3.4-1.5,3.4-3.4c0-0.1,0-0.2,0-0.2c0.1-1.9-1.4-3.6-3.3-3.7C444.8,202.1,444.8,202.1,444.7,202.1z"/>
<path class="st1" d="M466.3,199.8c2.4,0,3.9,1.6,3.9,4.3v7.2h-2.6V205c0-1.8-0.8-2.8-2.3-2.8s-2.4,1-2.4,2.8v6.4h-2.6v-6.4
	c0-1.8-0.8-2.7-2.3-2.7s-2.4,1.1-2.4,2.8v6.3h-2.6v-11.3h2.6v1.7c0.7-1.2,2-1.9,3.4-2c1.4-0.1,2.7,0.7,3.3,2
	C463.4,200.6,464.8,199.8,466.3,199.8z"/>
<path class="st1" d="M478.5,209.5c1.1,0,2.2-0.5,3-1.3l1.5,1.3c-2,2.5-5.7,2.8-8.2,0.8c-1.4-1.1-2.1-2.8-2.1-4.6
	c0-3.2,2.3-5.9,5.4-5.9c3.5,0,5.3,2.8,5.3,6.1c0,0.2,0,0.5,0,0.7h-8.2C475.4,208.3,476.8,209.5,478.5,209.5z M481,204.9
	c-0.2-1.7-1.1-3-2.8-3s-2.7,1.2-2.9,3H481z"/>
<circle class="st0" cx="224.4" cy="357.8" r="110"/>
<path class="st1" d="M144.5,317.9c-3.8-0.2-6.7-3.4-6.6-7.2c0.2-3.6,3.1-6.5,6.7-6.6c1.9-0.1,3.8,0.7,5.1,2.1l-1.5,1.7
	c-1-1-2.3-1.6-3.7-1.7c-2.6,0.2-4.5,2.6-4.3,5.2c0.2,2.3,2,4.1,4.3,4.3c1.4,0,2.8-0.6,3.8-1.7l1.5,1.5
	C148.5,317.1,146.6,317.9,144.5,317.9z"/>
<path class="st1" d="M154.3,317.6H152v-13.9h2.3v5.4c0.6-1.1,1.8-1.8,3.1-1.8c2.2,0,3.5,1.5,3.5,3.9v6.4h-2.3V312
	c0-1.6-0.8-2.5-2.1-2.5c-1.2,0-2.2,1-2.2,2.2c0,0.1,0,0.2,0,0.3V317.6L154.3,317.6z"/>
<path class="st1" d="M165.9,317.6h-2.3v-10h2.3v2.3c0.5-1.5,1.9-2.5,3.5-2.5v2.4h-0.1c-2,0-3.4,1.3-3.4,4V317.6L165.9,317.6z"/>
<path class="st1" d="M175.8,317.9c-2.8,0-5.2-2.2-5.2-5.1c0,0,0-0.1,0-0.1c0-2.9,2.3-5.3,5.2-5.3c2.9,0,5.3,2.3,5.3,5.2
	C181.1,315.4,178.8,317.8,175.8,317.9C175.8,317.9,175.8,317.9,175.8,317.9z M175.8,309.4c-1.7,0-3,1.3-3,3c0,0.1,0,0.1,0,0.2
	c-0.1,1.7,1.2,3.2,2.9,3.2c0,0,0.1,0,0.1,0c1.7,0,3-1.3,3-3c0-0.1,0-0.1,0-0.2C178.9,311,177.5,309.5,175.8,309.4
	C175.8,309.4,175.8,309.4,175.8,309.4L175.8,309.4z"/>
<path class="st1" d="M185.7,317.6h-2.3v-10h2.3v1.6c0.6-1.1,1.8-1.8,3.1-1.8c2.2,0,3.5,1.5,3.5,3.9v6.4H190V312
	c0-1.6-0.8-2.5-2.1-2.5c-1.2,0-2.2,1-2.2,2.2c0,0.1,0,0.2,0,0.3V317.6L185.7,317.6z"/>
<path class="st1" d="M195,306.1v-2.2h2.4v2.2H195z M195.1,317.6v-10h2.3v10H195.1L195.1,317.6z"/>
<path class="st1" d="M204.9,317.9c-2.8,0-5.1-2.2-5.1-5.1c0-0.1,0-0.1,0-0.2c-0.1-2.8,2.2-5.2,5-5.3c0,0,0.1,0,0.1,0
	c1.5-0.1,3,0.6,4,1.7l-1.4,1.5c-0.6-0.8-1.6-1.2-2.6-1.2c-1.7,0.1-2.9,1.5-2.9,3.1c0,0,0,0,0,0.1c-0.1,1.7,1.1,3.1,2.7,3.2
	c0.1,0,0.2,0,0.3,0c1,0,1.9-0.5,2.6-1.2l1.4,1.4C208.1,317.2,206.5,317.9,204.9,317.9z"/>
<path class="st1" d="M217.1,317.6v-1.2c-0.8,1-2,1.5-3.2,1.4c-1.9,0-3.5-1.1-3.5-3.1l0,0c0-2.2,1.7-3.2,4-3.2c0.9,0,1.9,0.1,2.7,0.4
	v-0.2c0-1.4-0.9-2.2-2.4-2.2c-1,0-1.9,0.2-2.8,0.6l-0.6-1.8c1.2-0.6,2.5-0.9,3.8-0.8c2.9,0,4.3,1.6,4.3,4.2v6L217.1,317.6
	L217.1,317.6z M217.2,313.4c-0.7-0.3-1.5-0.4-2.3-0.4c-1.4,0-2.3,0.6-2.3,1.6l0,0c0.1,0.9,0.9,1.6,1.8,1.5c0,0,0.1,0,0.1,0
	c1.5,0,2.6-0.8,2.6-2.1V313.4L217.2,313.4z"/>
<path class="st1" d="M222.2,317.6v-13.9h2.3v13.9H222.2z"/>
<path class="st1" d="M227.6,317.6v-13.9h2.3v13.9H227.6z"/>
<path class="st1" d="M238.1,317.9c-0.8,2-1.7,2.8-3.3,2.8c-0.8,0-1.6-0.2-2.3-0.6l0.8-1.7c0.4,0.2,0.9,0.4,1.3,0.4
	c0.7,0,1.3-0.5,1.4-1.2l-4.1-10h2.4l2.8,7.5l2.6-7.5h2.4L238.1,317.9z"/>
<path class="st1" d="M255.7,317.6v-1.2c-0.8,1-2,1.5-3.2,1.4c-1.9,0-3.5-1.1-3.5-3.1l0,0c0-2.2,1.7-3.2,4-3.2c0.9,0,1.9,0.1,2.7,0.4
	v-0.2c0-1.4-0.9-2.2-2.4-2.2c-1,0-1.9,0.2-2.8,0.6l-0.6-1.8c1.2-0.6,2.5-0.9,3.8-0.8c2.9,0,4.3,1.6,4.3,4.2v6L255.7,317.6
	L255.7,317.6z M255.7,313.4c-0.7-0.3-1.5-0.4-2.3-0.4c-1.4,0-2.3,0.6-2.3,1.6l0,0c0.1,0.9,0.9,1.6,1.8,1.5c0,0,0.1,0,0.1,0
	c1.5,0,2.6-0.8,2.6-2.1V313.4L255.7,313.4z"/>
<path class="st1" d="M266.2,317.9c-1.3,0-2.6-0.7-3.4-1.8v1.6h-2.3v-13.9h2.3v5.5c0.7-1.2,2-1.9,3.4-1.9c2.3,0,4.6,1.9,4.6,5.2
	S268.6,317.9,266.2,317.9z M265.7,309.4c-1.8,0.2-3.1,1.8-2.9,3.6c0.2,1.5,1.4,2.7,2.9,2.9c1.8-0.2,3.1-1.9,2.8-3.6
	C268.4,310.7,267.2,309.6,265.7,309.4L265.7,309.4z"/>
<path class="st1" d="M276.6,317.8c-1.5,0-3-0.5-4.2-1.5l1-1.6c0.9,0.7,2.1,1.2,3.2,1.2c1,0,1.5-0.4,1.5-1.1l0,0c0-0.8-1-1-2.2-1.4
	c-1.5-0.4-3.1-1-3.1-2.9l0,0c0-1.9,1.6-3.1,3.5-3.1c1.3,0,2.6,0.4,3.6,1.1l-0.9,1.5c-0.8-0.6-1.8-0.9-2.8-1
	c-0.6-0.1-1.2,0.3-1.4,0.9c0,0,0,0.1,0,0.1l0,0c0,0.7,1.1,1,2.2,1.4c1.4,0.5,3.1,1.1,3.1,2.9l0,0
	C280.2,316.8,278.6,317.8,276.6,317.8z"/>
<path class="st1" d="M287.1,316c1,0,2-0.4,2.7-1.2l1.3,1.2c-1.9,2.2-5.2,2.4-7.3,0.5c-2.2-1.9-2.4-5.2-0.5-7.3
	c0.9-1,2.2-1.7,3.6-1.8c3.2,0,4.7,2.5,4.7,5.4c0,0.2,0,0.4,0,0.6h-7.3C284.4,314.9,285.6,316,287.1,316z M289.3,311.9
	c0-1.4-1.1-2.6-2.5-2.6c-1.4,0.1-2.5,1.2-2.6,2.6H289.3z"/>
<path class="st1" d="M296.1,317.6h-2.3v-10h2.3v1.6c0.6-1.1,1.8-1.8,3.1-1.8c2.2,0,3.5,1.5,3.5,3.9v6.4h-2.3V312
	c0-1.6-0.8-2.5-2.1-2.5c-1.2,0-2.2,1-2.2,2.2c0,0.1,0,0.2,0,0.3V317.6L296.1,317.6z"/>
<path class="st1" d="M308.2,314.5c-0.1,0.6,0.3,1.2,0.9,1.2c0.1,0,0.2,0,0.3,0c0.5,0,1-0.1,1.4-0.3v1.9c-0.6,0.3-1.3,0.5-2,0.5
	c-1.7,0-2.8-0.7-2.8-2.9v-5.3h-1.3v-2h1.3v-2.8h2.3v2.8h2.7v2h-2.7L308.2,314.5L308.2,314.5z"/>
<path class="st1" d="M173.7,340.4h-2.3v-13.9h2.3v5.4c0.6-1.1,1.8-1.8,3.1-1.8c2.2,0,3.5,1.5,3.5,3.9v6.4h-2.2v-5.7
	c0-1.6-0.8-2.5-2.1-2.5c-1.2,0-2.2,1-2.2,2.2c0,0.1,0,0.2,0,0.3L173.7,340.4L173.7,340.4z"/>
<path class="st1" d="M183.1,328.9v-2.2h2.4v2.2H183.1z M183.2,340.4v-10h2.3v10H183.2z"/>
<path class="st1" d="M192.8,343.5c-1.6,0-3.1-0.4-4.4-1.2l0.8-1.7c1,0.7,2.3,1.1,3.5,1.1c1.5,0.2,2.9-0.9,3.1-2.4c0-0.2,0-0.4,0-0.7
	v-0.8c-0.8,1.2-2.1,1.9-3.5,1.8c-2.6-0.2-4.6-2.4-4.4-5c0.2-2.4,2-4.3,4.4-4.4c1.4,0,2.7,0.6,3.5,1.7v-1.5h2.3v8
	C198.2,341.9,196.2,343.5,192.8,343.5z M193,332.1c-1.5,0-2.8,1.2-2.8,2.8c0,1.5,1.2,2.8,2.8,2.8c1.5,0.4,3-0.6,3.5-2.1
	c0.4-1.5-0.5-3-2-3.4C194,332.1,193.5,332.1,193,332.1L193,332.1z"/>
<path class="st1" d="M203.3,340.4H201v-13.9h2.3v5.4c0.6-1.1,1.8-1.8,3.1-1.8c2.2,0,3.5,1.5,3.5,3.9v6.4h-2.3v-5.7
	c0-1.6-0.8-2.5-2.1-2.5c-1.2,0-2.2,1-2.2,2.2c0,0.1,0,0.2,0,0.3V340.4L203.3,340.4z"/>
<path class="st1" d="M221.6,340.6c-1.5,0-3-0.5-4.2-1.5l1-1.6c0.9,0.7,2.1,1.2,3.2,1.2c1,0,1.5-0.4,1.5-1.1l0,0c0-0.8-1-1-2.2-1.4
	c-1.5-0.4-3.1-1-3.1-2.9l0,0c0-1.9,1.6-3.1,3.5-3.1c1.3,0,2.6,0.4,3.6,1.1l-0.9,1.6c-0.8-0.6-1.8-0.9-2.8-1
	c-0.6-0.1-1.2,0.3-1.4,0.9c0,0,0,0.1,0,0.1l0,0c0,0.7,1.1,1,2.2,1.4c1.4,0.5,3.1,1.1,3.1,2.9l0,0
	C225.3,339.6,223.7,340.6,221.6,340.6z"/>
<path class="st1" d="M232.2,340.7c-2.8,0-5.1-2.2-5.1-5.1c0-0.1,0-0.1,0-0.2c-0.1-2.8,2.2-5.2,5-5.3c0,0,0.1,0,0.1,0
	c1.5-0.1,3,0.6,4,1.7l-1.4,1.5c-0.6-0.8-1.6-1.2-2.6-1.2c-1.7,0.1-2.9,1.5-2.9,3.1c0,0,0,0,0,0.1c-0.1,1.7,1.1,3.1,2.7,3.2
	c0.1,0,0.2,0,0.3,0c1,0,1.9-0.5,2.6-1.2l1.4,1.4C235.3,340,233.8,340.7,232.2,340.7z"/>
<path class="st1" d="M240.6,340.4h-2.3v-13.9h2.3v5.4c0.6-1.1,1.8-1.8,3.1-1.8c2.2,0,3.5,1.5,3.5,3.9v6.4h-2.3v-5.7
	c0-1.6-0.8-2.5-2.1-2.5c-1.2,0-2.2,1-2.2,2.2c0,0.1,0,0.2,0,0.3V340.4L240.6,340.4z"/>
<path class="st1" d="M254.7,340.7c-2.8,0-5.2-2.2-5.2-5.1c0,0,0-0.1,0-0.1c0-2.9,2.3-5.3,5.2-5.3c2.9,0,5.3,2.3,5.3,5.2
	C260,338.2,257.7,340.6,254.7,340.7C254.7,340.7,254.7,340.7,254.7,340.7z M254.7,332.2c-1.7,0-3,1.3-3,3c0,0.1,0,0.1,0,0.2
	c-0.1,1.7,1.2,3.2,2.9,3.2c0,0,0.1,0,0.1,0c1.7,0,3-1.3,3-3c0-0.1,0-0.1,0-0.2C257.8,333.8,256.5,332.3,254.7,332.2
	C254.7,332.2,254.7,332.2,254.7,332.2L254.7,332.2z"/>
<path class="st1" d="M267,340.7c-2.8,0-5.2-2.2-5.2-5.1c0,0,0-0.1,0-0.1c0-2.9,2.3-5.3,5.2-5.3c2.9,0,5.3,2.3,5.3,5.2
	C272.3,338.2,270,340.6,267,340.7C267,340.7,267,340.7,267,340.7z M267,332.2c-1.7,0-3,1.3-3,3c0,0.1,0,0.1,0,0.2
	c-0.1,1.7,1.2,3.2,2.9,3.2c0,0,0.1,0,0.1,0c1.7,0,3-1.3,3-3c0-0.1,0-0.1,0-0.2C270.1,333.8,268.8,332.3,267,332.2
	C267,332.2,267,332.2,267,332.2L267,332.2z"/>
<path class="st1" d="M274.7,340.4v-13.9h2.3v13.9H274.7z"/>
<path class="st1" d="M170.9,363.4c-1.5,0-3-0.5-4.2-1.5l1-1.6c0.9,0.8,2.1,1.2,3.2,1.2c1,0,1.5-0.4,1.5-1.1l0,0c0-0.8-1-1-2.2-1.4
	c-1.5-0.4-3.1-1-3.1-3l0,0c0-1.9,1.6-3.1,3.5-3.1c1.3,0,2.6,0.4,3.6,1.1l-0.9,1.6c-0.8-0.6-1.8-0.9-2.8-1c-0.6-0.1-1.2,0.3-1.4,0.9
	c0,0,0,0.1,0,0.1l0,0c0,0.7,1.1,1,2.2,1.4c1.4,0.5,3.1,1.1,3.1,2.9l0,0C174.5,362.4,172.9,363.4,170.9,363.4z"/>
<path class="st1" d="M179.4,360.1c-0.1,0.6,0.3,1.2,0.9,1.2c0.1,0,0.2,0,0.3,0c0.5,0,1-0.1,1.4-0.3v1.9c-0.6,0.3-1.3,0.5-2,0.5
	c-1.7,0-2.8-0.7-2.8-2.9v-5.3h-1.3v-2h1.2v-2.8h2.3v2.8h2.7v2h-2.7L179.4,360.1L179.4,360.1z"/>
<path class="st1" d="M190.8,353.2h2.2v10h-2.3v-1.6c-0.6,1.1-1.8,1.8-3.1,1.8c-2.2,0-3.5-1.5-3.5-3.9v-6.4h2.3v5.7
	c0,1.6,0.8,2.5,2.1,2.5c1.2,0,2.2-1,2.2-2.2c0-0.1,0-0.2,0-0.3L190.8,353.2L190.8,353.2z"/>
<path class="st1" d="M203.4,363.2v-1.7c-0.7,1.2-2,1.9-3.4,1.9c-2.3,0-4.6-1.9-4.6-5.2s2.2-5.2,4.6-5.2c1.4,0,2.6,0.7,3.4,1.8v-5.4
	h2.3v13.9H203.4L203.4,363.2z M200.6,355c-1.6,0-2.9,1.4-2.9,3c0,0.1,0,0.2,0,0.2c-0.1,1.7,1.1,3.1,2.8,3.2c0,0,0.1,0,0.1,0
	c1.8-0.3,3-1.9,2.7-3.7C203.1,356.3,202,355.2,200.6,355L200.6,355z"/>
<path class="st1" d="M213.1,361.6c1,0,2-0.4,2.7-1.2l1.3,1.2c-1.9,2.2-5.2,2.4-7.3,0.5c-2.2-1.9-2.4-5.2-0.5-7.3
	c0.9-1,2.2-1.7,3.6-1.8c3.2,0,4.7,2.5,4.7,5.4c0,0.2,0,0.4,0,0.6h-7.3C210.4,360.5,211.6,361.6,213.1,361.6z M215.3,357.5
	c0-1.4-1.1-2.6-2.5-2.6c-1.4,0.1-2.5,1.2-2.6,2.6H215.3z"/>
<path class="st1" d="M222.1,363.2h-2.3v-10h2.3v1.6c0.6-1.1,1.8-1.8,3.1-1.8c2.2,0,3.5,1.5,3.5,3.9v6.4h-2.3v-5.7
	c0-1.6-0.8-2.5-2.1-2.5c-1.2,0-2.2,1-2.2,2.2c0,0.1,0,0.2,0,0.3V363.2z"/>
<path class="st1" d="M234.2,360.1c-0.1,0.6,0.3,1.2,0.9,1.2c0.1,0,0.2,0,0.3,0c0.5,0,1-0.1,1.4-0.3v1.9c-0.6,0.3-1.3,0.5-2,0.5
	c-1.7,0-2.8-0.7-2.8-2.9v-5.3h-1.3v-2h1.3v-2.8h2.3v2.8h2.7v2h-2.7L234.2,360.1L234.2,360.1z"/>
<path class="st1" d="M242.6,363.4c-1.5,0-3-0.5-4.2-1.5l1-1.6c0.9,0.8,2.1,1.2,3.2,1.2c1,0,1.5-0.4,1.5-1.1l0,0c0-0.8-1-1-2.2-1.4
	c-1.5-0.4-3.1-1-3.1-3l0,0c0-1.9,1.6-3.1,3.5-3.1c1.3,0,2.6,0.4,3.6,1.1l-0.9,1.6c-0.8-0.6-1.8-0.9-2.8-1c-0.6-0.1-1.2,0.3-1.4,0.9
	c0,0,0,0.1,0,0.1l0,0c0,0.7,1.1,1,2.2,1.4c1.4,0.5,3.1,1.1,3.1,2.9l0,0C246.2,362.4,244.6,363.4,242.6,363.4z"/>
<path class="st1" d="M260.2,363.2V362c-0.8,1-2,1.5-3.2,1.4c-1.9,0-3.5-1.1-3.5-3.1l0,0c0-2.2,1.7-3.2,4-3.2c0.9,0,1.9,0.1,2.7,0.4
	v-0.2c0-1.4-0.9-2.2-2.4-2.2c-1,0-1.9,0.2-2.8,0.6l-0.6-1.8c1.2-0.6,2.5-0.9,3.8-0.8c2.9,0,4.3,1.6,4.3,4.2v5.9H260.2L260.2,363.2z
	 M260.3,358.9c-0.7-0.3-1.5-0.4-2.3-0.4c-1.4,0-2.3,0.6-2.3,1.6l0,0c0.1,0.9,0.9,1.6,1.8,1.5c0,0,0.1,0,0.1,0c1.5,0,2.6-0.9,2.6-2.1
	V358.9L260.3,358.9z"/>
<path class="st1" d="M267.4,363.2h-2.3v-10h2.3v2.3c0.5-1.5,1.9-2.5,3.5-2.5v2.4h-0.1c-2,0-3.4,1.3-3.4,4V363.2z"/>
<path class="st1" d="M277.2,361.6c1,0,2-0.4,2.7-1.2l1.3,1.2c-1.9,2.2-5.2,2.4-7.3,0.5c-2.2-1.9-2.4-5.2-0.5-7.3
	c0.9-1,2.2-1.7,3.6-1.8c3.2,0,4.7,2.5,4.7,5.4c0,0.2,0,0.4,0,0.6h-7.3C274.5,360.5,275.7,361.6,277.2,361.6z M279.4,357.5
	c0-1.4-1.1-2.6-2.5-2.6c-1.4,0.1-2.5,1.2-2.6,2.6H279.4z"/>
<path class="st2" d="M214.4,392.8h-12.3l-1.4-6.1l12.5-15.5h9.5v15.5h3.1v6.1h-3.1v4.4h-8.3L214.4,392.8L214.4,392.8z M214.4,386.8
	v-6.9l-5.4,6.9H214.4z"/>
<path class="st2" d="M232.2,387.1l-6.4-10.1h8.9l2.2,4.1l2.2-4.1h8.8l-6.4,10.1l6.4,10.1H239l-2.2-4.1l-2.2,4.1h-8.8L232.2,387.1z"
	/>
<path class="st1" d="M172.8,409.8c2.2,0,3.5,1.4,3.5,3.8v6.4H174v-5.7c0-1.6-0.7-2.5-2-2.5s-2.1,0.9-2.1,2.5v5.7h-2.3v-5.7
	c0-1.6-0.8-2.4-2-2.4s-2.1,1-2.1,2.5v5.6h-2.3v-10h2.3v1.5c0.6-1.1,1.8-1.7,3-1.7c1.2-0.1,2.4,0.6,2.9,1.8
	C170.2,410.5,171.5,409.8,172.8,409.8z"/>
<path class="st1" d="M183.8,420.3c-2.8,0-5.2-2.2-5.2-5.1c0,0,0-0.1,0-0.1c0-2.9,2.3-5.3,5.2-5.3c2.9,0,5.3,2.3,5.3,5.2
	C189.1,417.8,186.8,420.2,183.8,420.3C183.8,420.3,183.8,420.3,183.8,420.3z M183.8,411.8c-1.7,0-3,1.3-3,3c0,0.1,0,0.1,0,0.2
	c-0.1,1.7,1.2,3.2,2.9,3.2c0,0,0.1,0,0.1,0c1.7,0,3-1.3,3-3c0-0.1,0-0.1,0-0.2C186.9,413.4,185.6,411.9,183.8,411.8
	C183.8,411.8,183.8,411.8,183.8,411.8L183.8,411.8z"/>
<path class="st1" d="M193.7,420h-2.3v-10h2.3v2.3c0.5-1.5,1.9-2.5,3.5-2.5v2.3H197c-2,0-3.4,1.3-3.4,4V420L193.7,420z"/>
<path class="st1" d="M203.4,418.4c1,0,2-0.4,2.7-1.2l1.3,1.2c-1.9,2.2-5.2,2.4-7.3,0.5c-2.2-1.9-2.4-5.2-0.5-7.3
	c0.9-1,2.2-1.7,3.6-1.8c3.2,0,4.7,2.5,4.7,5.4c0,0.2,0,0.4,0,0.6h-7.3C200.7,417.3,201.9,418.4,203.4,418.4z M205.6,414.3
	c0-1.4-1.1-2.6-2.5-2.6c-1.4,0.1-2.5,1.2-2.6,2.6H205.6z"/>
<path class="st1" d="M215.9,420v-13.8h2.2v13.9L215.9,420L215.9,420z"/>
<path class="st1" d="M221.1,408.5v-2.2h2.4v2.2H221.1z M221.2,420v-10h2.3v10H221.2z"/>
<path class="st1" d="M235.7,420h-2.6l-3-4.3l-1.4,1.5v2.9h-2.3v-13.8h2.3v8.3l4.1-4.5h2.8l-3.9,4.1L235.7,420z"/>
<path class="st1" d="M241.5,418.4c1,0,2-0.4,2.7-1.2l1.3,1.2c-1.9,2.2-5.2,2.4-7.3,0.5c-2.2-1.9-2.4-5.2-0.5-7.3
	c0.9-1,2.2-1.7,3.6-1.8c3.2,0,4.7,2.5,4.7,5.4c0,0.2,0,0.4,0,0.6h-7.3C238.8,417.3,240,418.4,241.5,418.4z M243.7,414.3
	c0-1.4-1.1-2.6-2.5-2.6c-1.4,0.1-2.5,1.2-2.6,2.6H243.7z"/>
<path class="st1" d="M248.4,420v-13.8h2.3v13.9L248.4,420L248.4,420z"/>
<path class="st1" d="M258.9,420.3c-0.8,2-1.7,2.8-3.3,2.8c-0.8,0-1.6-0.2-2.3-0.6l0.8-1.7c0.4,0.2,0.9,0.4,1.3,0.4
	c0.7,0,1.3-0.5,1.4-1.2l-4.1-10h2.4l2.8,7.5l2.6-7.5h2.4L258.9,420.3z"/>
<path class="st1" d="M273.1,416.9c-0.1,0.6,0.3,1.2,0.9,1.2c0.1,0,0.2,0,0.3,0c0.5,0,1-0.1,1.4-0.3v1.9c-0.6,0.3-1.3,0.5-2,0.5
	c-1.7,0-2.8-0.7-2.8-2.9V412h-1.3v-2h1.3v-2.8h2.2v2.8h2.7v2h-2.7V416.9L273.1,416.9z"/>
<path class="st1" d="M282.5,420.3c-2.8,0-5.2-2.2-5.2-5.1c0,0,0-0.1,0-0.1c0-2.9,2.3-5.3,5.2-5.3c2.9,0,5.3,2.3,5.3,5.2
	C287.9,417.8,285.5,420.2,282.5,420.3C282.6,420.3,282.5,420.3,282.5,420.3z M282.5,411.8c-1.7,0-3,1.3-3,3c0,0.1,0,0.1,0,0.2
	c-0.1,1.7,1.2,3.2,2.9,3.2c0,0,0.1,0,0.1,0c1.7,0,3-1.3,3-3c0-0.1,0-0.1,0-0.2C285.6,413.4,284.3,411.9,282.5,411.8
	C282.6,411.8,282.5,411.8,282.5,411.8L282.5,411.8z"/>
<path class="st1" d="M192.1,442.8v-1.6c-0.7,1.2-2,1.9-3.4,1.9c-2.3,0-4.6-1.9-4.6-5.2s2.2-5.2,4.6-5.2c1.4,0,2.6,0.7,3.4,1.8V429
	h2.3v13.9L192.1,442.8L192.1,442.8z M189.3,434.6c-1.6,0-2.9,1.4-2.9,3c0,0.1,0,0.2,0,0.2c-0.1,1.7,1.1,3.1,2.8,3.2c0,0,0.1,0,0.1,0
	c1.8-0.2,3.1-1.8,2.9-3.5C192,436,190.8,434.7,189.3,434.6L189.3,434.6z"/>
<path class="st1" d="M199.5,442.8h-2.3v-10h2.3v2.3c0.5-1.5,1.9-2.5,3.5-2.5v2.4h-0.1c-2,0-3.4,1.3-3.4,4V442.8L199.5,442.8z"/>
<path class="st1" d="M209.3,443.1c-2.8,0-5.2-2.2-5.2-5.1c0,0,0-0.1,0-0.1c0-2.9,2.3-5.3,5.2-5.3c2.9,0,5.3,2.3,5.3,5.2
	C214.7,440.6,212.3,443,209.3,443.1C209.4,443.1,209.3,443.1,209.3,443.1z M209.3,434.6c-1.7,0-3,1.3-3,3c0,0.1,0,0.1,0,0.2
	c-0.1,1.7,1.2,3.2,2.9,3.2c0,0,0.1,0,0.1,0c1.7,0,3-1.3,3-3c0-0.1,0-0.1,0-0.2C212.4,436.2,211.1,434.7,209.3,434.6
	C209.4,434.6,209.3,434.6,209.3,434.6L209.3,434.6z"/>
<path class="st1" d="M222.5,443c-1.3,0-2.6-0.7-3.4-1.8v4.6h-2.3v-13.1h2.3v1.7c0.7-1.2,2-1.9,3.4-1.9c2.3,0,4.6,1.9,4.6,5.2
	S224.9,443,222.5,443z M222,434.6c-1.8,0.2-3.1,1.8-2.9,3.6c0.2,1.5,1.4,2.7,2.9,2.9c1.9,0,3.4-1.4,3.4-3.2S223.9,434.5,222,434.6
	L222,434.6z"/>
<path class="st1" d="M239.8,443.1c-2.8,0-5.2-2.2-5.2-5.1c0,0,0-0.1,0-0.1c0-2.9,2.3-5.3,5.2-5.3c2.9,0,5.3,2.3,5.3,5.2
	C245.2,440.6,242.8,443,239.8,443.1C239.9,443.1,239.9,443.1,239.8,443.1z M239.8,434.6c-1.7,0-3,1.3-3,3c0,0.1,0,0.1,0,0.2
	c-0.1,1.7,1.2,3.2,2.9,3.2c0,0,0.1,0,0.1,0c1.7,0,3-1.3,3-3c0-0.1,0-0.1,0-0.2C242.9,436.2,241.6,434.7,239.8,434.6
	C239.9,434.6,239.8,434.6,239.8,434.6L239.8,434.6z"/>
<path class="st1" d="M253.9,432.8h2.3v10h-2.3v-1.6c-0.6,1.1-1.8,1.8-3.1,1.8c-2.2,0-3.5-1.5-3.5-3.9v-6.4h2.3v5.7
	c0,1.6,0.8,2.5,2.1,2.5c1.2,0,2.2-1,2.2-2.2c0-0.1,0-0.2,0-0.3V432.8L253.9,432.8z"/>
<path class="st1" d="M261.8,439.7c-0.1,0.6,0.3,1.2,0.9,1.2c0.1,0,0.2,0,0.3,0c0.5,0,1-0.1,1.4-0.3v1.9c-0.6,0.3-1.3,0.5-2,0.5
	c-1.7,0-2.8-0.7-2.8-2.9v-5.3h-1.3v-2h1.3V430h2.3v2.8h2.7v2h-2.7L261.8,439.7L261.8,439.7z"/>
<g>
	<path d="M198.5,153.3L198.5,153.3l-1.5,0.8l-0.2-0.9l1.9-1h1v8.7h-1.1V153.3z"/>
</g>
<g>
	<path d="M267.5,436.7v-0.6l0.8-0.8c2-1.9,2.9-2.9,2.9-4.1c0-0.8-0.4-1.5-1.5-1.5c-0.7,0-1.3,0.4-1.7,0.7l-0.3-0.7
		c0.5-0.5,1.3-0.8,2.2-0.8c1.7,0,2.4,1.2,2.4,2.3c0,1.4-1,2.6-2.7,4.2l-0.6,0.6v0h3.5v0.9H267.5z"/>
</g>
<g>
	<path d="M487.2,207.4v-0.6l0.8-0.8c2-1.9,2.9-2.9,2.9-4.1c0-0.8-0.4-1.5-1.5-1.5c-0.7,0-1.3,0.4-1.7,0.7l-0.3-0.7
		c0.5-0.5,1.3-0.8,2.2-0.8c1.7,0,2.4,1.2,2.4,2.3c0,1.4-1,2.6-2.7,4.2l-0.6,0.6v0h3.5v0.9H487.2z"/>
</g>
</svg>
