<?xml version="1.0" encoding="utf-8"?>
<!-- Generator: Adobe Illustrator 19.2.0, SVG Export Plug-In . SVG Version: 6.00 Build 0)  -->
<svg version="1.1" id="Layer_1" xmlns="http://www.w3.org/2000/svg" xmlns:xlink="http://www.w3.org/1999/xlink" x="0px" y="0px"
	 viewBox="0 0 536 473" style="enable-background:new 0 0 536 473;" xml:space="preserve">
<style type="text/css">
	.st0{fill:#E0E0E0;}
	.st1{fill:#231F20;}
	.st2{fill:#4474B8;}
</style>
<title>dasmond-story</title>
<circle class="st0" cx="110" cy="110" r="110"/>
<circle class="st0" cx="426" cy="165.7" r="110"/>
<circle class="st0" cx="225.6" cy="363" r="110"/>
<path class="st1" d="M185.9,296c0,1.3-0.7,2.5-1.9,3c1.5,0.5,2.6,1.4,2.6,3.2c0,2.4-1.9,3.7-4.9,3.7h-6.1v-13.3h5.9
	C184.2,292.5,185.9,293.9,185.9,296z M183.6,296.3c0-1.1-0.8-1.7-2.3-1.7H178v3.5h3.2C182.6,298.2,183.6,297.6,183.6,296.3
	L183.6,296.3z M184.3,301.9c0-1.1-0.9-1.8-2.7-1.8H178v3.7h3.8C183.4,303.8,184.3,303.1,184.3,301.9L184.3,301.9z"/>
<path class="st1" d="M189.1,305.8V292h2.3v13.9H189.1z"/>
<path class="st1" d="M200.4,305.8v-1.2c-0.8,1-2,1.5-3.2,1.4c-1.9,0-3.5-1.1-3.5-3.1l0,0c0-2.2,1.7-3.2,4-3.2c0.9,0,1.9,0.1,2.7,0.4
	v-0.2c0-1.4-0.9-2.2-2.4-2.2c-1,0-1.9,0.2-2.8,0.6l-0.6-1.8c1.2-0.6,2.5-0.9,3.8-0.8c2.9,0,4.3,1.6,4.3,4.2v6L200.4,305.8
	L200.4,305.8z M200.5,301.6c-0.7-0.3-1.5-0.4-2.3-0.4c-1.4,0-2.3,0.6-2.3,1.6l0,0c0.1,0.9,0.9,1.6,1.8,1.5c0,0,0.1,0,0.1,0
	c1.5,0,2.6-0.8,2.6-2.1V301.6L200.5,301.6z"/>
<path class="st1" d="M209.9,306.1c-2.8,0-5.1-2.2-5.1-5.1c0-0.1,0-0.1,0-0.2c-0.1-2.8,2.2-5.2,5-5.3c0,0,0.1,0,0.1,0
	c1.5-0.1,3,0.6,4,1.7l-1.4,1.5c-0.6-0.8-1.6-1.2-2.6-1.2c-1.7,0.1-2.9,1.5-2.9,3.1c0,0,0,0,0,0.1c-0.1,1.7,1.1,3.1,2.7,3.2
	c0.1,0,0.2,0,0.3,0c1,0,1.9-0.5,2.6-1.2l1.4,1.4C213.1,305.5,211.5,306.2,209.9,306.1z"/>
<path class="st1" d="M225.3,305.8h-2.6l-3-4.3l-1.4,1.5v2.9H216V292h2.3v8.3l4.1-4.5h2.8l-3.9,4.1L225.3,305.8z"/>
<path class="st1" d="M244.2,295.6c2.2,0,3.5,1.4,3.5,3.8v6.4h-2.3v-5.7c0-1.6-0.7-2.5-2-2.5s-2.1,0.9-2.1,2.5v5.7H239v-5.7
	c0-1.6-0.8-2.4-2-2.4s-2.1,1-2.1,2.5v5.6h-2.3v-10h2.3v1.5c0.6-1.1,1.8-1.7,3-1.7c1.2-0.1,2.4,0.6,2.9,1.8
	C241.6,296.3,242.8,295.6,244.2,295.6z"/>
<path class="st1" d="M256.5,305.8v-1.2c-0.8,1-2,1.5-3.2,1.4c-1.9,0-3.5-1.1-3.5-3.1l0,0c0-2.2,1.7-3.2,4-3.2c0.9,0,1.9,0.1,2.7,0.4
	v-0.2c0-1.4-0.9-2.2-2.4-2.2c-1,0-1.9,0.2-2.8,0.6l-0.6-1.8c1.2-0.6,2.5-0.9,3.8-0.8c2.9,0,4.4,1.6,4.4,4.2v6L256.5,305.8
	L256.5,305.8z M256.6,301.6c-0.7-0.3-1.5-0.4-2.3-0.4c-1.4,0-2.3,0.6-2.3,1.6l0,0c0.1,0.9,0.9,1.6,1.8,1.5c0,0,0.1,0,0.1,0
	c1.5,0,2.6-0.8,2.6-2.1L256.6,301.6L256.6,301.6z"/>
<path class="st1" d="M261.5,305.8V292h2.3v13.9H261.5z"/>
<path class="st1" d="M271.4,304.2c1,0,2-0.4,2.7-1.2l1.3,1.2c-1.9,2.2-5.2,2.4-7.3,0.5c-2.2-1.9-2.4-5.2-0.5-7.3
	c0.9-1,2.2-1.7,3.6-1.8c3.1,0,4.7,2.5,4.7,5.4c0,0.2,0,0.4,0,0.6h-7.3C268.6,303.2,269.9,304.3,271.4,304.2z M273.6,300.2
	c0-1.4-1.1-2.6-2.5-2.6c-1.4,0.1-2.5,1.2-2.6,2.6H273.6z"/>
<path class="st1" d="M173.6,328.6V327c-0.7,1.2-2,1.9-3.4,1.9c-2.3,0-4.6-1.9-4.6-5.2s2.2-5.2,4.6-5.2c1.4,0,2.6,0.7,3.4,1.8v-5.4
	h2.3v13.9L173.6,328.6L173.6,328.6z M170.8,320.4c-1.6,0-2.9,1.4-2.9,3c0,0.1,0,0.2,0,0.2c-0.1,1.7,1.1,3.1,2.8,3.2c0,0,0.1,0,0.1,0
	c1.8-0.2,3.1-1.8,2.9-3.6C173.5,321.8,172.3,320.6,170.8,320.4z"/>
<path class="st1" d="M181,328.6h-2.3v-10h2.3v2.3c0.5-1.5,1.9-2.5,3.5-2.5v2.4h-0.1c-2,0-3.4,1.3-3.4,4V328.6L181,328.6z"/>
<path class="st1" d="M190.8,328.9c-2.8,0-5.2-2.2-5.2-5.1c0,0,0-0.1,0-0.1c0-2.9,2.3-5.3,5.2-5.3c2.9,0,5.3,2.3,5.3,5.2
	C196.2,326.4,193.8,328.8,190.8,328.9C190.9,328.9,190.9,328.9,190.8,328.9z M190.8,320.4c-1.7,0-3,1.3-3,3c0,0.1,0,0.1,0,0.2
	c-0.1,1.7,1.2,3.2,2.9,3.2c0,0,0.1,0,0.1,0c1.7,0,3-1.3,3-3c0-0.1,0-0.1,0-0.2C193.9,322,192.6,320.5,190.8,320.4
	C190.9,320.4,190.9,320.4,190.8,320.4L190.8,320.4z"/>
<path class="st1" d="M204.1,328.9c-1.3,0-2.6-0.7-3.4-1.8v4.6h-2.3v-13.1h2.3v1.7c0.7-1.2,2-1.9,3.4-1.9c2.3,0,4.6,1.9,4.6,5.2
	S206.4,328.9,204.1,328.9z M203.5,320.4c-1.8,0.2-3.1,1.8-2.9,3.6c0.2,1.5,1.4,2.7,2.9,2.9c1.8-0.2,3-1.9,2.8-3.7
	C206.2,321.7,205,320.6,203.5,320.4L203.5,320.4z"/>
<path class="st1" d="M215.7,328.9c-2.8,0-5.2-2.2-5.2-5.1c0,0,0-0.1,0-0.1c0-2.9,2.3-5.3,5.2-5.3c2.9,0,5.3,2.3,5.3,5.2
	C221.1,326.4,218.7,328.8,215.7,328.9C215.8,328.9,215.8,328.9,215.7,328.9z M215.7,320.4c-1.7,0-3,1.3-3,3c0,0.1,0,0.1,0,0.2
	c-0.1,1.7,1.2,3.2,2.9,3.2c0,0,0.1,0,0.1,0c1.7,0,3-1.3,3-3c0-0.1,0-0.1,0-0.2C218.8,322,217.5,320.5,215.7,320.4
	C215.8,320.4,215.7,320.4,215.7,320.4L215.7,320.4z"/>
<path class="st1" d="M229.8,318.6h2.3v10h-2.3v-1.6c-0.6,1.1-1.8,1.8-3.1,1.8c-2.2,0-3.5-1.5-3.5-3.9v-6.4h2.3v5.7
	c0,1.6,0.8,2.5,2.1,2.5c1.2,0,2.2-1,2.2-2.2c0-0.1,0-0.2,0-0.3L229.8,318.6L229.8,318.6z"/>
<path class="st1" d="M237.7,325.5c-0.1,0.6,0.3,1.2,0.9,1.2c0.1,0,0.2,0,0.3,0c0.5,0,1-0.1,1.4-0.3v1.9c-0.6,0.3-1.3,0.5-2,0.5
	c-1.7,0-2.9-0.7-2.9-2.9v-5.3h-1.3v-2h1.3v-2.8h2.3v2.8h2.7v2h-2.7L237.7,325.5L237.7,325.5z"/>
<path class="st1" d="M246,328.8c-1.5,0-3-0.5-4.2-1.5l1-1.6c0.9,0.8,2.1,1.2,3.2,1.2c1,0,1.5-0.4,1.5-1.1l0,0c0-0.8-1-1-2.2-1.4
	c-1.5-0.4-3.1-1-3.1-3l0,0c0-1.9,1.6-3.1,3.5-3.1c1.3,0,2.6,0.4,3.6,1.1l-0.9,1.6c-0.8-0.6-1.8-0.9-2.8-1c-0.6-0.1-1.2,0.3-1.4,0.9
	c0,0,0,0.1,0,0.1l0,0c0,0.7,1.1,1,2.2,1.4c1.4,0.5,3.1,1.1,3.1,2.9l0,0C249.7,327.8,248.1,328.8,246,328.8z"/>
<path class="st1" d="M263.7,328.6v-1.2c-0.8,1-2,1.5-3.2,1.4c-1.9,0-3.5-1.1-3.5-3.1l0,0c0-2.2,1.7-3.2,4-3.2c0.9,0,1.9,0.1,2.7,0.4
	v-0.2c0-1.4-0.9-2.2-2.4-2.2c-1,0-1.9,0.2-2.8,0.6l-0.6-1.8c1.2-0.6,2.5-0.9,3.8-0.8c2.9,0,4.4,1.6,4.4,4.2v6L263.7,328.6
	L263.7,328.6z M263.8,324.4c-0.7-0.3-1.5-0.4-2.3-0.4c-1.4,0-2.3,0.6-2.3,1.6l0,0c0.1,0.9,0.9,1.6,1.8,1.5c0,0,0.1,0,0.1,0
	c1.5,0,2.6-0.8,2.6-2.1L263.8,324.4L263.8,324.4z"/>
<path class="st1" d="M270.9,328.6h-2.3v-10h2.3v2.3c0.5-1.5,1.9-2.5,3.5-2.5v2.4h-0.1c-2,0-3.4,1.3-3.4,4L270.9,328.6L270.9,328.6z"
	/>
<path class="st1" d="M280.6,327c1,0,2-0.4,2.7-1.2l1.3,1.2c-1.9,2.2-5.2,2.4-7.3,0.5c-2.2-1.9-2.4-5.2-0.5-7.3
	c0.9-1,2.2-1.7,3.6-1.8c3.1,0,4.7,2.5,4.7,5.4c0,0.2,0,0.4,0,0.6h-7.3C277.9,325.9,279.2,327,280.6,327z M282.8,322.9
	c0-1.4-1.1-2.6-2.5-2.6c-1.4,0.1-2.5,1.2-2.6,2.6H282.8z"/>
<path class="st2" d="M203.1,358.5l5.1-5.3c1.6,1.7,3.7,2.7,6,2.8c1.9,0,2.9-0.8,2.9-2.1v-0.1c0-1.3-1.1-2.1-3.4-2.1h-3.6L209,348
	l5.6-4.5h-9.5v-6.7h19.6v6l-5.7,4.4c3.8,1,6.3,3.3,6.3,7.4v0.1c0,5.6-4.8,8.7-10.5,8.7C209.6,363.2,205.9,361.5,203.1,358.5z"/>
<path class="st2" d="M232,352.5l-6.4-10.1h8.9l2.2,4.1l2.2-4.1h8.8l-6.4,10.1l6.4,10.1h-8.9l-2.2-4.1l-2.2,4.1h-8.8L232,352.5z"/>
<path class="st1" d="M146,375.2c2.2,0,3.5,1.4,3.5,3.8v6.4h-2.3v-5.7c0-1.6-0.7-2.5-2-2.5s-2.1,0.9-2.1,2.5v5.7h-2.3v-5.7
	c0-1.6-0.8-2.4-2-2.4s-2.1,1-2.1,2.5v5.6h-2.3v-10h2.3v1.5c0.6-1.1,1.8-1.7,3-1.7c1.2-0.1,2.4,0.6,2.9,1.8
	C143.4,375.9,144.6,375.2,146,375.2z"/>
<path class="st1" d="M156.9,385.7c-2.8,0-5.2-2.2-5.2-5.1c0,0,0-0.1,0-0.1c0-2.9,2.3-5.3,5.2-5.3c2.9,0,5.3,2.3,5.3,5.2
	C162.3,383.2,159.9,385.6,156.9,385.7C157,385.7,157,385.7,156.9,385.7z M156.9,377.2c-1.7,0-3,1.3-3,3c0,0.1,0,0.1,0,0.2
	c-0.1,1.7,1.2,3.2,2.9,3.2c0,0,0.1,0,0.1,0c1.7,0,3-1.3,3-3c0-0.1,0-0.1,0-0.2C160,378.8,158.7,377.3,156.9,377.2
	C157,377.2,157,377.2,156.9,377.2L156.9,377.2z"/>
<path class="st1" d="M166.8,385.5h-2.3v-10h2.3v2.3c0.5-1.5,1.9-2.5,3.5-2.5v2.4h-0.1c-2,0-3.4,1.3-3.4,4L166.8,385.5L166.8,385.5z"
	/>
<path class="st1" d="M176.5,383.8c1,0,2-0.4,2.7-1.2l1.3,1.2c-1.9,2.2-5.2,2.4-7.3,0.5c-2.2-1.9-2.4-5.2-0.5-7.3
	c0.9-1,2.2-1.7,3.6-1.8c3.2,0,4.7,2.5,4.7,5.4c0,0.2,0,0.4,0,0.6h-7.3C173.8,382.7,175,383.8,176.5,383.8z M178.7,379.7
	c0-1.4-1.1-2.6-2.5-2.6c-1.4,0.1-2.5,1.2-2.6,2.6H178.7z"/>
<path class="st1" d="M189,385.5v-13.9h2.3v13.9H189z"/>
<path class="st1" d="M194.3,373.9v-2.2h2.4v2.2H194.3z M194.4,385.5v-10h2.3v10H194.4z"/>
<path class="st1" d="M208.9,385.5h-2.6l-3-4.3l-1.4,1.5v2.9h-2.3v-13.9h2.3v8.3l4.1-4.5h2.8l-3.9,4.1L208.9,385.5z"/>
<path class="st1" d="M214.6,383.8c1,0,2-0.4,2.7-1.2l1.3,1.2c-1.9,2.2-5.2,2.4-7.3,0.5c-2.2-1.9-2.4-5.2-0.5-7.3
	c0.9-1,2.2-1.7,3.6-1.8c3.2,0,4.7,2.5,4.7,5.4c0,0.2,0,0.4,0,0.6h-7.3C211.9,382.7,213.2,383.8,214.6,383.8z M216.8,379.7
	c0-1.4-1.1-2.6-2.5-2.6c-1.4,0.1-2.5,1.2-2.6,2.6H216.8z"/>
<path class="st1" d="M221.5,385.5v-13.9h2.3v13.9H221.5z"/>
<path class="st1" d="M232,385.7c-0.8,2-1.7,2.8-3.3,2.8c-0.8,0-1.6-0.2-2.3-0.6l0.8-1.7c0.4,0.2,0.9,0.4,1.3,0.4
	c0.7,0,1.3-0.5,1.4-1.2l-4.1-10h2.4l2.8,7.5l2.6-7.5h2.4L232,385.7z"/>
<path class="st1" d="M246.3,382.3c-0.1,0.6,0.3,1.2,0.9,1.2c0.1,0,0.2,0,0.3,0c0.5,0,1-0.1,1.4-0.3v1.9c-0.6,0.3-1.3,0.5-2,0.5
	c-1.7,0-2.9-0.7-2.9-2.9v-5.3h-1.3v-2h1.3v-2.8h2.3v2.8h2.7v2h-2.7L246.3,382.3L246.3,382.3z"/>
<path class="st1" d="M255.7,385.7c-2.8,0-5.2-2.2-5.2-5.1c0,0,0-0.1,0-0.1c0-2.9,2.3-5.3,5.2-5.3c2.9,0,5.3,2.3,5.3,5.2
	C261,383.2,258.7,385.6,255.7,385.7C255.7,385.7,255.7,385.7,255.7,385.7z M255.7,377.2c-1.7,0-3,1.3-3,3c0,0.1,0,0.1,0,0.2
	c-0.1,1.7,1.2,3.2,2.9,3.2c0,0,0.1,0,0.1,0c1.7,0,3-1.3,3-3c0-0.1,0-0.1,0-0.2C258.8,378.8,257.4,377.3,255.7,377.2
	C255.7,377.2,255.7,377.2,255.7,377.2L255.7,377.2z"/>
<path class="st1" d="M273.3,388.5c-1.6,0-3.1-0.4-4.4-1.2l0.8-1.7c1,0.7,2.3,1.1,3.5,1.1c1.5,0.2,2.9-0.9,3.1-2.4c0-0.2,0-0.5,0-0.7
	v-0.8c-0.8,1.2-2.1,1.9-3.5,1.8c-2.6-0.2-4.6-2.4-4.4-5c0.2-2.4,2-4.3,4.4-4.4c1.4,0,2.7,0.6,3.5,1.7v-1.5h2.3v8
	C278.6,387,276.7,388.5,273.3,388.5z M273.5,377.1c-1.5,0-2.8,1.2-2.8,2.8c0,1.5,1.2,2.8,2.8,2.8l0,0c1.5,0.1,2.9-1.1,3-2.6
	c0.1-1.5-1.1-2.9-2.6-3C273.7,377.1,273.6,377.1,273.5,377.1z"/>
<path class="st1" d="M286.2,385.7c-2.8,0-5.2-2.2-5.2-5.1c0,0,0-0.1,0-0.1c0-2.9,2.3-5.3,5.2-5.3c2.9,0,5.3,2.3,5.3,5.2
	C291.5,383.2,289.2,385.6,286.2,385.7C286.2,385.7,286.2,385.7,286.2,385.7z M286.2,377.2c-1.7,0-3,1.3-3,3c0,0.1,0,0.1,0,0.2
	c-0.1,1.7,1.2,3.2,2.9,3.2c0,0,0.1,0,0.1,0c1.7,0,3-1.3,3-3c0-0.1,0-0.1,0-0.2C289.3,378.8,287.9,377.3,286.2,377.2
	C286.2,377.2,286.2,377.2,286.2,377.2L286.2,377.2z"/>
<path class="st1" d="M302.1,382.3c-0.1,0.6,0.3,1.2,0.9,1.2c0.1,0,0.2,0,0.3,0c0.5,0,1-0.1,1.4-0.3v1.9c-0.6,0.3-1.3,0.5-2,0.5
	c-1.7,0-2.9-0.7-2.9-2.9v-5.3h-1.3v-2h1.3v-2.8h2.3v2.8h2.7v2h-2.7L302.1,382.3L302.1,382.3z"/>
<path class="st1" d="M311.5,385.7c-2.8,0-5.2-2.2-5.2-5.1c0,0,0-0.1,0-0.1c0-2.9,2.3-5.3,5.2-5.3c2.9,0,5.3,2.3,5.3,5.2
	C316.8,383.2,314.5,385.6,311.5,385.7C311.6,385.7,311.5,385.7,311.5,385.7z M311.5,377.2c-1.7,0-3,1.3-3,3c0,0.1,0,0.1,0,0.2
	c-0.1,1.7,1.2,3.2,2.9,3.2c0,0,0.1,0,0.1,0c1.7,0,3-1.3,3-3c0-0.1,0-0.1,0-0.2C314.6,378.8,313.3,377.3,311.5,377.2
	C311.5,377.2,311.5,377.2,311.5,377.2L311.5,377.2z"/>
<path class="st1" d="M150.4,408.5c-1.3,0-2.6-0.7-3.4-1.8v4.6h-2.3v-13h2.3v1.7c0.7-1.2,2-1.9,3.4-1.9c2.3,0,4.6,1.9,4.6,5.2
	S152.7,408.5,150.4,408.5z M149.8,400c-1.8,0.2-3.1,1.8-2.9,3.6c0.2,1.5,1.4,2.7,2.9,2.9c1.8-0.2,3-1.9,2.8-3.7
	C152.4,401.3,151.3,400.2,149.8,400L149.8,400z"/>
<path class="st1" d="M159.6,408.2h-2.3v-10h2.3v2.3c0.5-1.5,1.9-2.5,3.5-2.5v2.4H163c-2,0-3.4,1.3-3.4,4V408.2z"/>
<path class="st1" d="M165.1,396.7v-2.2h2.4v2.2H165.1L165.1,396.7z M165.2,408.2v-10h2.3v10L165.2,408.2L165.2,408.2z"/>
<path class="st1" d="M173.8,408.4c-1.5,0-3-0.5-4.2-1.5l1-1.6c0.9,0.7,2.1,1.2,3.2,1.2c1,0,1.5-0.4,1.5-1.1l0,0c0-0.8-1-1-2.2-1.4
	c-1.5-0.4-3.1-1-3.1-2.9l0,0c0-1.9,1.6-3.1,3.5-3.1c1.3,0,2.6,0.4,3.6,1.1l-0.9,1.6c-0.8-0.6-1.8-0.9-2.8-1
	c-0.6-0.1-1.2,0.3-1.4,0.9c0,0,0,0.1,0,0.1l0,0c0,0.7,1.1,1,2.2,1.4c1.4,0.5,3.1,1.1,3.1,2.9l0,0
	C177.5,407.4,175.9,408.4,173.8,408.4z"/>
<path class="st1" d="M184.5,408.5c-2.8,0-5.2-2.2-5.2-5.1c0,0,0-0.1,0-0.1c0-2.9,2.3-5.3,5.2-5.3c2.9,0,5.3,2.3,5.3,5.2
	C189.8,406,187.5,408.4,184.5,408.5C184.6,408.5,184.5,408.5,184.5,408.5z M184.5,400c-1.7,0-3,1.3-3,3c0,0.1,0,0.1,0,0.2
	c-0.1,1.7,1.2,3.2,2.9,3.2c0,0,0.1,0,0.1,0c1.7,0,3-1.3,3-3c0-0.1,0-0.1,0-0.2C187.6,401.6,186.3,400.1,184.5,400
	C184.6,400,184.5,400,184.5,400L184.5,400z"/>
<path class="st1" d="M194.4,408.2h-2.3v-10h2.3v1.6c0.6-1.1,1.8-1.8,3.1-1.8c2.2,0,3.5,1.5,3.5,3.9v6.4h-2.3v-5.7
	c0-1.6-0.8-2.5-2.1-2.5c-1.2,0-2.2,1-2.2,2.2c0,0.1,0,0.2,0,0.3V408.2z"/>
<path class="st1" d="M212.1,405.1c-0.1,0.6,0.3,1.2,0.9,1.2c0.1,0,0.2,0,0.3,0c0.5,0,1-0.1,1.4-0.3v1.9c-0.6,0.3-1.3,0.5-2,0.5
	c-1.7,0-2.8-0.7-2.8-2.9v-5.2h-1.3v-2h1.3v-2.8h2.3v2.8h2.7v2h-2.7L212.1,405.1L212.1,405.1z"/>
<path class="st1" d="M219.3,408.2H217v-13.9h2.3v5.4c0.6-1.1,1.8-1.8,3.1-1.8c2.2,0,3.5,1.5,3.5,3.9v6.4h-2.3v-5.7
	c0-1.6-0.8-2.5-2.1-2.5c-1.2,0-2.2,1-2.2,2.2c0,0.1,0,0.2,0,0.3V408.2z"/>
<path class="st1" d="M234.7,408.2V407c-0.8,1-2,1.5-3.2,1.4c-1.9,0-3.5-1.1-3.5-3.1l0,0c0-2.2,1.7-3.2,4-3.2c0.9,0,1.9,0.1,2.7,0.4
	v-0.3c0-1.4-0.9-2.2-2.4-2.2c-1,0-1.9,0.2-2.8,0.6l-0.6-1.8c1.2-0.6,2.5-0.9,3.8-0.8c2.9,0,4.4,1.6,4.4,4.2v6H234.7L234.7,408.2z
	 M234.8,404c-0.7-0.3-1.5-0.4-2.3-0.4c-1.4,0-2.3,0.6-2.3,1.6l0,0c0.1,0.9,0.9,1.6,1.8,1.5c0,0,0.1,0,0.1,0c1.5,0,2.6-0.8,2.6-2.1
	L234.8,404L234.8,404z"/>
<path class="st1" d="M241.9,408.2h-2.3v-10h2.3v1.6c0.6-1.1,1.8-1.8,3.1-1.8c2.2,0,3.5,1.5,3.5,3.9v6.4h-2.3v-5.7
	c0-1.6-0.8-2.5-2.1-2.5c-1.2,0-2.2,1-2.2,2.2c0,0.1,0,0.2,0,0.3V408.2z"/>
<path class="st1" d="M266.8,405.1l2-6.9h2.3l-3.2,10.1h-2l-2.2-6.9l-2.2,6.9h-2l-3.2-10.1h2.3l2,6.9l2.2-6.9h1.9L266.8,405.1z"/>
<path class="st1" d="M275.4,408.2h-2.3v-13.9h2.3v5.4c0.6-1.1,1.8-1.8,3.1-1.8c2.2,0,3.5,1.5,3.5,3.9v6.4h-2.3v-5.7
	c0-1.6-0.8-2.5-2.1-2.5c-1.2,0-2.2,1-2.2,2.2c0,0.1,0,0.2,0,0.3V408.2z"/>
<path class="st1" d="M284.7,396.7v-2.2h2.4v2.2H284.7z M284.8,408.2v-10h2.3v10L284.8,408.2L284.8,408.2z"/>
<path class="st1" d="M292.8,405.1c-0.1,0.6,0.3,1.2,0.9,1.2c0.1,0,0.2,0,0.3,0c0.5,0,1-0.1,1.4-0.3v1.9c-0.6,0.3-1.3,0.5-2,0.5
	c-1.7,0-2.9-0.7-2.9-2.9v-5.2h-1.3v-2h1.2v-2.8h2.3v2.8h2.7v2h-2.7L292.8,405.1L292.8,405.1z"/>
<path class="st1" d="M302.1,406.6c1,0,2-0.4,2.7-1.2l1.3,1.2c-1.9,2.2-5.2,2.4-7.3,0.5c-2.2-1.9-2.4-5.2-0.5-7.3
	c0.9-1,2.2-1.7,3.6-1.8c3.1,0,4.7,2.5,4.7,5.4c0,0.2,0,0.4,0,0.6h-7.3C299.4,405.5,300.6,406.6,302.1,406.6z M304.3,402.5
	c0-1.4-1.1-2.6-2.5-2.6c-1.4,0.1-2.5,1.2-2.6,2.6H304.3z"/>
<path class="st1" d="M169.9,420.8c2.2,0,3.5,1.4,3.5,3.8v6.4h-2.3v-5.7c0-1.6-0.7-2.5-2-2.5s-2.1,0.9-2.1,2.5v5.7h-2.3v-5.7
	c0-1.6-0.8-2.4-2-2.4s-2.1,1-2.1,2.5v5.6h-2.3v-10h2.2v1.5c0.6-1.1,1.8-1.7,3-1.7c1.2-0.1,2.4,0.6,2.9,1.8
	C167.2,421.5,168.5,420.8,169.9,420.8z"/>
<path class="st1" d="M182.1,431v-1.2c-0.8,1-2,1.5-3.2,1.4c-1.9,0-3.5-1.1-3.5-3.1l0,0c0-2.2,1.7-3.2,4-3.2c0.9,0,1.9,0.1,2.7,0.4
	v-0.2c0-1.4-0.9-2.2-2.4-2.2c-1,0-1.9,0.2-2.8,0.6l-0.6-1.8c1.2-0.6,2.5-0.9,3.8-0.8c2.9,0,4.3,1.6,4.3,4.2v6L182.1,431L182.1,431z
	 M182.2,426.8c-0.7-0.3-1.5-0.4-2.3-0.4c-1.4,0-2.3,0.6-2.3,1.6l0,0c0.1,0.9,0.9,1.6,1.8,1.5c0,0,0.1,0,0.1,0c1.5,0,2.6-0.8,2.6-2.1
	V426.8L182.2,426.8z"/>
<path class="st1" d="M187.2,431v-13.9h2.3V431H187.2L187.2,431z"/>
<path class="st1" d="M197,429.4c1,0,2-0.4,2.7-1.2l1.3,1.2c-1.9,2.2-5.2,2.4-7.3,0.5c-2.2-1.9-2.4-5.2-0.5-7.3
	c0.9-1,2.2-1.7,3.6-1.8c3.2,0,4.7,2.5,4.7,5.4c0,0.2,0,0.4,0,0.6h-7.3C194.3,428.3,195.6,429.4,197,429.4z M199.2,425.3
	c0-1.4-1.1-2.6-2.5-2.6c-1.4,0.1-2.5,1.2-2.6,2.6H199.2z"/>
<path class="st1" d="M216.9,431v-1.7c-0.7,1.2-2,1.9-3.4,1.9c-2.3,0-4.6-1.9-4.6-5.2s2.2-5.2,4.6-5.2c1.4,0,2.6,0.7,3.4,1.8v-5.4
	h2.3V431L216.9,431L216.9,431z M214,422.8c-1.6,0-2.9,1.4-2.9,3c0,0.1,0,0.2,0,0.2c-0.1,1.7,1.1,3.1,2.8,3.2c0,0,0.1,0,0.1,0
	c1.8-0.2,3.1-1.8,2.9-3.6C216.7,424.2,215.5,423,214,422.8z"/>
<path class="st1" d="M224.2,431H222v-10h2.3v2.2c0.5-1.5,1.9-2.5,3.5-2.5v2.5h-0.1c-2,0-3.4,1.3-3.4,4V431L224.2,431z"/>
<path class="st1" d="M234.1,431.2c-2.8,0-5.2-2.2-5.2-5.1c0,0,0-0.1,0-0.1c0-2.9,2.3-5.3,5.2-5.3c2.9,0,5.3,2.3,5.3,5.2
	C239.4,428.8,237.1,431.2,234.1,431.2C234.1,431.2,234.1,431.2,234.1,431.2z M234.1,422.8c-1.7,0-3,1.3-3,3c0,0.1,0,0.1,0,0.2
	c-0.1,1.7,1.2,3.2,2.9,3.2c0,0,0.1,0,0.1,0c1.7,0,3-1.3,3-3c0-0.1,0-0.1,0-0.2C237.2,424.3,235.8,422.9,234.1,422.8
	C234.1,422.8,234.1,422.8,234.1,422.8L234.1,422.8z"/>
<path class="st1" d="M247.3,431.2c-1.3,0-2.6-0.7-3.4-1.8v4.6h-2.3v-13h2.3v1.7c0.7-1.2,2-1.9,3.4-1.9c2.3,0,4.6,1.9,4.6,5.2
	S249.7,431.2,247.3,431.2z M246.8,422.8c-1.8,0.2-3.1,1.8-2.9,3.6c0.2,1.5,1.4,2.7,2.9,2.9c1.8-0.3,3-1.9,2.7-3.7
	C249.3,424.1,248.2,423,246.8,422.8L246.8,422.8z"/>
<path class="st1" d="M259,431.2c-2.8,0-5.2-2.2-5.2-5.1c0,0,0-0.1,0-0.1c0-2.9,2.3-5.3,5.2-5.3c2.9,0,5.3,2.3,5.3,5.2
	C264.3,428.8,262,431.2,259,431.2C259,431.2,259,431.2,259,431.2z M259,422.8c-1.7,0-3,1.3-3,3c0,0.1,0,0.1,0,0.2
	c-0.1,1.7,1.2,3.2,2.9,3.2c0,0,0.1,0,0.1,0c1.7,0,3-1.3,3-3c0-0.1,0-0.1,0-0.2C262,424.3,260.7,422.9,259,422.8
	C259,422.8,259,422.8,259,422.8L259,422.8z"/>
<path class="st1" d="M273.1,421h2.3v10h-2.3v-1.6c-0.6,1.1-1.8,1.8-3.1,1.8c-2.2,0-3.5-1.5-3.5-3.9V421h2.3v5.7
	c0,1.6,0.8,2.5,2.1,2.5c1.2,0,2.2-1,2.2-2.2c0-0.1,0-0.2,0-0.3V421L273.1,421z"/>
<path class="st1" d="M280.9,427.9c-0.1,0.6,0.3,1.2,0.9,1.2c0.1,0,0.2,0,0.3,0c0.5,0,1-0.1,1.4-0.3v1.9c-0.6,0.3-1.3,0.5-2,0.5
	c-1.7,0-2.9-0.7-2.9-2.9V423h-1.3v-2h1.3v-2.8h2.3v2.8h2.7v2H281L280.9,427.9L280.9,427.9z"/>
<path class="st1" d="M289.3,431.2c-1.5,0-3-0.5-4.2-1.5l1-1.6c0.9,0.8,2.1,1.2,3.2,1.2c1,0,1.5-0.4,1.5-1.1l0,0c0-0.8-1-1-2.2-1.4
	c-1.5-0.4-3.1-1-3.1-3l0,0c0-1.9,1.6-3.1,3.5-3.1c1.3,0,2.6,0.4,3.6,1.1l-0.9,1.6c-0.8-0.6-1.8-0.9-2.8-1c-0.6-0.1-1.2,0.3-1.4,0.9
	c0,0,0,0.1,0,0.1l0,0c0,0.7,1.1,1,2.2,1.4c1.4,0.5,3.1,1.1,3.1,2.9l0,0C293,430.2,291.4,431.2,289.3,431.2z"/>
<path class="st1" d="M69.1,64.4h-7.5V68h6.6v2.1h-6.6v5.4h-2.3V62.2h9.8V64.4L69.1,64.4z"/>
<path class="st1" d="M75.6,73.9c1,0,2-0.4,2.7-1.2l1.3,1.2c-1.9,2.2-5.2,2.4-7.3,0.5c-2.2-1.9-2.4-5.2-0.5-7.3
	c0.9-1,2.2-1.7,3.6-1.8c3.2,0,4.7,2.5,4.7,5.4c0,0.2,0,0.4,0,0.6h-7.3C72.9,72.8,74.2,74,75.6,73.9z M77.8,69.9
	c0-1.4-1.1-2.6-2.5-2.6c-1.4,0.1-2.5,1.2-2.6,2.6H77.8z"/>
<path class="st1" d="M91.8,72.4l2-6.9H96l-3.2,10.1h-2l-2.2-6.9l-2.2,6.9h-2l-3.2-10.1h2.3l2,6.9l2.2-6.9h1.8L91.8,72.4z"/>
<path class="st1" d="M102.2,73.9c1,0,2-0.4,2.7-1.2l1.3,1.2c-1.9,2.2-5.2,2.4-7.3,0.5c-2.2-1.9-2.4-5.2-0.5-7.3
	c0.9-1,2.2-1.7,3.6-1.8c3.2,0,4.7,2.5,4.7,5.4c0,0.2,0,0.4,0,0.6h-7.3C99.5,72.8,100.7,74,102.2,73.9z M104.4,69.9
	c0-1.4-1.1-2.6-2.5-2.6c-1.4,0.1-2.5,1.2-2.6,2.6H104.4z"/>
<path class="st1" d="M111.2,75.6h-2.3v-10h2.3v2.3c0.5-1.5,1.9-2.5,3.5-2.5v2.4h-0.1c-2,0-3.4,1.3-3.4,4V75.6L111.2,75.6z"/>
<path class="st1" d="M125,72.5c-0.1,0.6,0.3,1.2,0.9,1.2c0.1,0,0.2,0,0.3,0c0.5,0,1-0.1,1.4-0.3v1.9c-0.6,0.3-1.3,0.5-2,0.5
	c-1.7,0-2.8-0.7-2.8-3v-5.3h-1.3v-2h1.3v-2.8h2.3v2.8h2.7v2H125V72.5L125,72.5z"/>
<path class="st1" d="M132.2,75.6H130V61.7h2.3v5.4c0.6-1.1,1.8-1.8,3.1-1.8c2.2,0,3.5,1.5,3.5,3.9v6.4h-2.3v-5.7
	c0-1.6-0.8-2.5-2.1-2.5c-1.2,0-2.2,1-2.2,2.2c0,0.1,0,0.2,0,0.3V75.6L132.2,75.6z"/>
<path class="st1" d="M147.7,75.6v-1.2c-0.8,1-2,1.5-3.2,1.4c-1.9,0-3.5-1.1-3.5-3.1l0,0c0-2.2,1.7-3.2,4-3.2c0.9,0,1.9,0.1,2.7,0.4
	v-0.2c0-1.4-0.9-2.2-2.4-2.2c-1,0-1.9,0.2-2.8,0.6l-0.6-1.8c1.2-0.6,2.5-0.9,3.8-0.8c2.9,0,4.3,1.6,4.3,4.2v6L147.7,75.6L147.7,75.6
	z M147.7,71.3c-0.7-0.3-1.5-0.4-2.3-0.4c-1.4,0-2.3,0.6-2.3,1.6l0,0c0.1,0.9,0.9,1.6,1.8,1.5c0,0,0.1,0,0.1,0c1.5,0,2.6-0.8,2.6-2.1
	V71.3L147.7,71.3z"/>
<path class="st1" d="M154.9,75.6h-2.3v-10h2.3v1.6c0.6-1.1,1.8-1.8,3.1-1.8c2.2,0,3.5,1.5,3.5,3.9v6.4h-2.3v-5.7
	c0-1.6-0.8-2.5-2.1-2.5c-1.2,0-2.2,1-2.2,2.2c0,0.1,0,0.2,0,0.3V75.6L154.9,75.6z"/>
<path class="st2" d="M82.3,107.1l3.7-5.6c1.5,1.3,3.4,2,5.4,2c2.7,0,4.2-1.7,4.5-4.9c-3.1,3.1-8.2,3.2-11.3,0.1
	c-1.5-1.5-2.4-3.5-2.4-5.7v-0.1c0-6.2,4.7-9.7,10.6-9.7c4,0,6.4,1.2,8.3,3.2s3.1,5,3.1,9.4v0.1c0,8.5-4.5,14.3-12.4,14.3
	C88.3,110.3,85,109.2,82.3,107.1z M95.9,92.5L95.9,92.5c0.1-1.7-1.1-3.1-2.7-3.2c0,0-0.1,0-0.1,0c-1.6,0-2.8,1.3-2.8,2.9
	c0,0.1,0,0.1,0,0.2v0.1c-0.1,1.5,1.1,2.8,2.7,2.9c0.1,0,0.1,0,0.2,0c1.5,0,2.8-1.2,2.8-2.7C95.9,92.7,95.9,92.6,95.9,92.5z"/>
<path class="st2" d="M106.1,90.6L106.1,90.6c0-4.1,2.7-7.3,7-7.3s7,3.3,7,7.2v0.1c0,3.9-3.1,7-7,7S106.1,94.5,106.1,90.6z
	 M129.9,83.7h5.5l-20.7,25.9h-5.5L129.9,83.7z M115,90.6L115,90.6c0-1.6-0.9-2.6-1.9-2.6s-1.9,1-1.9,2.5v0.1c0,1.5,0.9,2.5,1.9,2.5
	S115,92.2,115,90.6L115,90.6z M124.5,102.7L124.5,102.7c0-4.1,2.7-7.3,7-7.3s7,3.3,7,7.2v0.1c0,3.9-3.1,7-7,7
	S124.5,106.6,124.5,102.7z M133.4,102.7L133.4,102.7c0-1.6-0.9-2.6-1.9-2.6s-1.9,1-1.9,2.5v0.1c0,1.5,0.9,2.5,1.9,2.5
	S133.4,104.3,133.4,102.7L133.4,102.7z"/>
<path class="st1" d="M37,132.6c-2.8,0-5.2-2.2-5.2-5.1c0,0,0-0.1,0-0.1c0-2.9,2.3-5.3,5.2-5.3c2.9,0,5.3,2.3,5.3,5.2
	C42.3,130.2,40,132.6,37,132.6C37,132.6,37,132.6,37,132.6z M37,124.2c-1.7,0-3,1.3-3,3c0,0.1,0,0.1,0,0.2c-0.1,1.7,1.2,3.2,2.9,3.2
	c0,0,0.1,0,0.1,0c1.7,0,3-1.3,3-3c0-0.1,0-0.1,0-0.2C40,125.7,38.7,124.3,37,124.2C37,124.2,37,124.2,37,124.2z"/>
<path class="st1" d="M49.9,122.4v1.9h-2.6v8h-2.3v-8h-1.3v-1.9h1.3v-0.7c0-2.2,1.1-3.3,3-3.3c0.6,0,1.2,0.1,1.8,0.3v1.9
	c-0.4-0.2-0.9-0.2-1.3-0.2c-0.7,0-1.3,0.5-1.3,1.2c0,0.1,0,0.2,0,0.4v0.5L49.9,122.4L49.9,122.4z"/>
<path class="st1" d="M60.7,132.6c-1.5,0-3-0.5-4.2-1.5l1-1.6c0.9,0.7,2.1,1.2,3.2,1.2c1,0,1.5-0.4,1.5-1.1l0,0c0-0.8-1-1-2.2-1.4
	c-1.5-0.4-3.1-1-3.1-3l0,0c0-1.9,1.6-3.1,3.5-3.1c1.3,0,2.6,0.4,3.6,1.1l-0.9,1.6c-0.8-0.6-1.8-0.9-2.8-1c-0.6-0.1-1.2,0.3-1.4,0.9
	c0,0,0,0.1,0,0.1l0,0c0,0.7,1.1,1,2.2,1.4c1.4,0.5,3.1,1.1,3.1,2.9l0,0C64.3,131.5,62.7,132.6,60.7,132.6z"/>
<path class="st1" d="M69.2,129.2c-0.1,0.6,0.3,1.2,0.9,1.2c0.1,0,0.2,0,0.3,0c0.5,0,1-0.1,1.4-0.3v1.9c-0.6,0.3-1.3,0.5-2,0.5
	c-1.7,0-2.8-0.7-2.8-2.9v-5.3h-1.3v-2H67v-2.8h2.3v2.8h2.7v2h-2.7L69.2,129.2L69.2,129.2z"/>
<path class="st1" d="M80.6,122.3h2.3v10h-2.3v-1.6c-0.6,1.1-1.8,1.8-3.1,1.8c-2.2,0-3.5-1.5-3.5-3.9v-6.4h2.3v5.7
	c0,1.6,0.8,2.5,2.1,2.5c1.2,0,2.2-1,2.2-2.2c0-0.1,0-0.2,0-0.3V122.3L80.6,122.3z"/>
<path class="st1" d="M93.2,132.4v-1.7c-0.7,1.2-2,1.9-3.4,1.9c-2.3,0-4.6-1.9-4.6-5.2s2.2-5.2,4.6-5.2c1.4,0,2.6,0.7,3.4,1.8v-5.4
	h2.3v13.9L93.2,132.4L93.2,132.4z M90.4,124.1c-1.6,0-2.9,1.4-2.9,3c0,0.1,0,0.2,0,0.2c-0.1,1.7,1.1,3.1,2.8,3.2c0,0,0.1,0,0.1,0
	c1.8-0.2,3-1.8,2.8-3.6C93,125.5,91.9,124.3,90.4,124.1L90.4,124.1z"/>
<path class="st1" d="M102.9,130.7c1,0,2-0.4,2.7-1.2l1.3,1.2c-1.9,2.2-5.2,2.4-7.3,0.5c-2.2-1.9-2.4-5.2-0.5-7.3
	c0.9-1,2.2-1.7,3.6-1.8c3.2,0,4.7,2.5,4.7,5.4c0,0.2,0,0.4,0,0.6h-7.3C100.2,129.6,101.4,130.8,102.9,130.7z M105.1,126.7
	c0-1.4-1.1-2.6-2.5-2.6c-1.4,0.1-2.5,1.2-2.6,2.6H105.1z"/>
<path class="st1" d="M111.9,132.4h-2.3v-10h2.3v1.6c0.6-1.1,1.8-1.8,3.1-1.8c2.2,0,3.5,1.5,3.5,3.9v6.4h-2.3v-5.7
	c0-1.6-0.8-2.5-2.1-2.5c-1.2,0-2.2,1-2.2,2.2c0,0.1,0,0.2,0,0.3V132.4L111.9,132.4z"/>
<path class="st1" d="M124,129.2c-0.1,0.6,0.3,1.2,0.9,1.2c0.1,0,0.2,0,0.3,0c0.5,0,1-0.1,1.4-0.3v1.9c-0.6,0.3-1.3,0.5-2,0.5
	c-1.7,0-2.8-0.7-2.8-2.9v-5.3h-1.3v-2h1.3v-2.8h2.3v2.8h2.7v2H124L124,129.2L124,129.2z"/>
<path class="st1" d="M132.3,132.6c-1.5,0-3-0.5-4.2-1.5l1-1.6c0.9,0.7,2.1,1.2,3.2,1.2c1,0,1.5-0.4,1.5-1.1l0,0c0-0.8-1-1-2.2-1.4
	c-1.5-0.4-3.1-1-3.1-3l0,0c0-1.9,1.6-3.1,3.5-3.1c1.3,0,2.6,0.4,3.6,1.1l-0.9,1.6c-0.8-0.6-1.8-0.9-2.8-1c-0.6-0.1-1.2,0.3-1.4,0.9
	c0,0,0,0.1,0,0.1l0,0c0,0.7,1.1,1,2.2,1.4c1.4,0.5,3.1,1.1,3.1,2.9l0,0C136,131.5,134.4,132.6,132.3,132.6z"/>
<path class="st1" d="M144.1,132.4v-13.9h2.3v13.9L144.1,132.4L144.1,132.4z"/>
<path class="st1" d="M153.9,130.7c1,0,2-0.4,2.7-1.2l1.3,1.2c-1.9,2.2-5.2,2.4-7.3,0.5c-2.2-1.9-2.4-5.2-0.5-7.3
	c0.9-1,2.2-1.7,3.6-1.8c3.2,0,4.7,2.5,4.7,5.4c0,0.2,0,0.4,0,0.6h-7.3C151.2,129.6,152.4,130.8,153.9,130.7z M156.1,126.7
	c0-1.4-1.1-2.6-2.5-2.6c-1.4,0.1-2.5,1.2-2.6,2.6H156.1z"/>
<path class="st1" d="M166.7,132.4v-1.2c-0.8,1-2,1.5-3.2,1.4c-1.9,0-3.5-1.1-3.5-3.1l0,0c0-2.2,1.7-3.2,4-3.2c0.9,0,1.9,0.1,2.7,0.4
	v-0.2c0-1.4-0.9-2.2-2.4-2.2c-1,0-1.9,0.2-2.8,0.6l-0.6-1.8c1.2-0.6,2.5-0.9,3.8-0.8c2.9,0,4.3,1.6,4.3,4.2v6L166.7,132.4
	L166.7,132.4z M166.8,128.1c-0.7-0.3-1.5-0.4-2.3-0.4c-1.4,0-2.3,0.6-2.3,1.6l0,0c0.1,0.9,0.9,1.6,1.8,1.5c0,0,0.1,0,0.1,0
	c1.5,0,2.6-0.8,2.6-2.1V128.1L166.8,128.1z"/>
<path class="st1" d="M173.9,132.4h-2.3v-10h2.3v2.3c0.5-1.5,1.9-2.5,3.5-2.5v2.4h-0.1c-2,0-3.4,1.3-3.4,4V132.4L173.9,132.4z"/>
<path class="st1" d="M181.7,132.4h-2.3v-10h2.3v1.6c0.6-1.1,1.8-1.8,3.1-1.8c2.2,0,3.5,1.5,3.5,3.9v6.4H186v-5.7
	c0-1.6-0.8-2.5-2.1-2.5c-1.2,0-2.2,1-2.2,2.2c0,0.1,0,0.2,0,0.3V132.4L181.7,132.4z"/>
<path class="st1" d="M35.9,143.6v-2.2h2.4v2.2H35.9z M36,155.2v-10h2.3v10H36z"/>
<path class="st1" d="M43.5,155.2h-2.3v-10h2.3v1.6c0.6-1.1,1.8-1.8,3.1-1.8c2.2,0,3.5,1.5,3.5,3.9v6.4h-2.3v-5.7
	c0-1.6-0.8-2.5-2.1-2.5c-1.2,0-2.2,1-2.2,2.2c0,0.1,0,0.2,0,0.3V155.2L43.5,155.2z"/>
<path class="st1" d="M61.2,152c-0.1,0.6,0.3,1.2,0.9,1.2c0.1,0,0.2,0,0.3,0c0.5,0,1-0.1,1.4-0.3v1.9c-0.6,0.3-1.3,0.5-2,0.5
	c-1.7,0-2.8-0.7-2.8-2.9v-5.3h-1.3v-2H59v-2.8h2.3v2.8h2.7v2h-2.7L61.2,152L61.2,152z"/>
<path class="st1" d="M68.4,155.2h-2.3v-13.9h2.3v5.4c0.6-1.1,1.8-1.8,3.1-1.8c2.2,0,3.5,1.5,3.5,3.9v6.4h-2.3v-5.7
	c0-1.6-0.8-2.5-2.1-2.5c-1.2,0-2.2,1-2.2,2.2c0,0.1,0,0.2,0,0.3V155.2L68.4,155.2z"/>
<path class="st1" d="M82.3,153.5c1,0,2-0.4,2.7-1.2l1.3,1.2c-1.9,2.2-5.2,2.4-7.3,0.5c-2.2-1.9-2.4-5.2-0.5-7.3
	c0.9-1,2.2-1.7,3.6-1.8c3.2,0,4.7,2.5,4.7,5.4c0,0.2,0,0.4,0,0.6h-7.3C79.6,152.4,80.9,153.6,82.3,153.5z M84.5,149.5
	c0-1.4-1.1-2.6-2.5-2.6c-1.4,0.1-2.5,1.2-2.6,2.6H84.5z"/>
<path class="st1" d="M98.1,155.4c-1.5,0-3-0.5-4.2-1.5l1-1.6c0.9,0.7,2.1,1.2,3.2,1.2c1,0,1.5-0.4,1.5-1.1l0,0c0-0.8-1-1-2.2-1.4
	c-1.5-0.4-3.1-1-3.1-2.9l0,0c0-1.9,1.6-3.1,3.5-3.1c1.3,0,2.6,0.4,3.6,1.1l-0.9,1.6c-0.8-0.6-1.8-0.9-2.8-1
	c-0.6-0.1-1.2,0.3-1.4,0.9c0,0,0,0.1,0,0.1l0,0c0,0.7,1.1,1,2.2,1.4c1.4,0.5,3.1,1.1,3.1,2.9l0,0
	C101.8,154.3,100.2,155.4,98.1,155.4z"/>
<path class="st1" d="M110.2,155.2v-1.2c-0.8,1-2,1.5-3.2,1.4c-1.9,0-3.5-1.1-3.5-3.1l0,0c0-2.2,1.7-3.2,4-3.2c0.9,0,1.9,0.1,2.7,0.4
	v-0.2c0-1.4-0.9-2.2-2.4-2.2c-1,0-1.9,0.2-2.8,0.6l-0.6-1.8c1.2-0.6,2.5-0.9,3.8-0.8c2.9,0,4.3,1.6,4.3,4.2v6L110.2,155.2
	L110.2,155.2z M110.2,150.9c-0.7-0.3-1.5-0.4-2.3-0.4c-1.4,0-2.3,0.6-2.3,1.6l0,0c0.1,0.9,0.9,1.6,1.8,1.5c0,0,0.1,0,0.1,0
	c1.5,0,2.6-0.8,2.6-2.1V150.9L110.2,150.9z"/>
<path class="st1" d="M126.7,145c2.2,0,3.5,1.4,3.5,3.8v6.4h-2.3v-5.7c0-1.6-0.7-2.5-2-2.5s-2.1,0.9-2.1,2.5v5.7h-2.3v-5.7
	c0-1.6-0.8-2.4-2-2.4s-2.1,1-2.1,2.5v5.6h-2.3v-10h2.3v1.5c0.6-1.1,1.8-1.7,3-1.7c1.2-0.1,2.4,0.6,2.9,1.8
	C124.1,145.6,125.3,144.9,126.7,145z"/>
<path class="st1" d="M137.5,153.5c1,0,2-0.4,2.7-1.2l1.3,1.2c-1.9,2.2-5.2,2.4-7.3,0.5c-2.2-1.9-2.4-5.2-0.5-7.3
	c0.9-1,2.2-1.7,3.6-1.8c3.2,0,4.7,2.5,4.7,5.4c0,0.2,0,0.4,0,0.6h-7.3C134.8,152.4,136,153.6,137.5,153.5z M139.7,149.5
	c0-1.4-1.1-2.6-2.5-2.6c-1.4,0.1-2.5,1.2-2.6,2.6H139.7z"/>
<path class="st1" d="M159.7,152l2-6.9h2.3l-3.2,10.1h-2l-2.2-6.9l-2.2,6.9h-2l-3.2-10.1h2.3l2,6.9l2.2-6.9h1.9L159.7,152z"/>
<path class="st1" d="M171.7,155.2v-1.2c-0.8,1-2,1.5-3.2,1.4c-1.9,0-3.5-1.1-3.5-3.1l0,0c0-2.2,1.7-3.2,4-3.2c0.9,0,1.9,0.1,2.7,0.4
	v-0.2c0-1.4-0.9-2.2-2.4-2.2c-1,0-1.9,0.2-2.8,0.6l-0.6-1.8c1.2-0.6,2.5-0.9,3.8-0.8c2.9,0,4.3,1.6,4.3,4.2v6L171.7,155.2
	L171.7,155.2z M171.8,150.9c-0.7-0.3-1.5-0.4-2.3-0.4c-1.4,0-2.3,0.6-2.3,1.6l0,0c0.1,0.9,0.9,1.6,1.8,1.5c0,0,0.1,0,0.1,0
	c1.5,0,2.6-0.8,2.6-2.1V150.9L171.8,150.9z"/>
<path class="st1" d="M181.6,155.5c-0.8,2-1.7,2.8-3.3,2.8c-0.8,0-1.6-0.2-2.3-0.6l0.8-1.7c0.4,0.2,0.9,0.4,1.3,0.4
	c0.7,0,1.3-0.5,1.4-1.2l-4.1-10h2.4l2.8,7.5l2.6-7.5h2.4L181.6,155.5z"/>
<path class="st1" d="M360.9,125h2.3v11.2h6.9v2.1h-9.2V125z"/>
<path class="st1" d="M376.7,138.5c-2.8,0-5.2-2.2-5.2-5.1c0,0,0-0.1,0-0.1c0-2.9,2.3-5.3,5.2-5.3c2.9,0,5.3,2.3,5.3,5.2
	C382.1,136.1,379.7,138.5,376.7,138.5C376.8,138.5,376.8,138.5,376.7,138.5z M376.7,130.1c-1.7,0-3,1.3-3,3c0,0.1,0,0.1,0,0.2
	c-0.1,1.7,1.2,3.2,2.9,3.2c0,0,0.1,0,0.1,0c1.7,0,3-1.3,3-3c0-0.1,0-0.1,0-0.2C379.8,131.6,378.5,130.2,376.7,130.1
	C376.8,130.1,376.8,130.1,376.7,130.1z"/>
<path class="st1" d="M393.7,135.1l2-6.9h2.3l-3.2,10.1h-2l-2.2-6.9l-2.2,6.9h-2l-3.2-10.1h2.3l2,6.9l2.2-6.9h1.9L393.7,135.1z"/>
<path class="st1" d="M411.7,138.3v-1.2c-0.8,1-2,1.5-3.2,1.4c-1.9,0-3.5-1.1-3.5-3.1l0,0c0-2.2,1.7-3.2,4-3.2c0.9,0,1.9,0.1,2.7,0.4
	v-0.2c0-1.4-0.9-2.2-2.4-2.2c-1,0-1.9,0.2-2.8,0.6l-0.6-1.8c1.2-0.6,2.5-0.9,3.8-0.8c2.9,0,4.4,1.6,4.4,4.2v6L411.7,138.3
	L411.7,138.3z M411.8,134c-0.7-0.3-1.5-0.4-2.3-0.4c-1.4,0-2.3,0.6-2.3,1.6l0,0c0.1,0.9,0.9,1.6,1.8,1.5c0,0,0.1,0,0.1,0
	c1.5,0,2.6-0.8,2.6-2.1L411.8,134L411.8,134z"/>
<path class="st1" d="M421.2,138.5c-2.8,0-5.1-2.2-5.1-5.1c0-0.1,0-0.1,0-0.2c-0.1-2.8,2.2-5.2,5-5.3c0,0,0.1,0,0.1,0
	c1.5-0.1,3,0.6,4,1.7l-1.4,1.5c-0.6-0.8-1.6-1.2-2.6-1.2c-1.7,0.1-2.9,1.5-2.9,3.1c0,0,0,0,0,0.1c-0.1,1.7,1.1,3.1,2.7,3.2
	c0.1,0,0.2,0,0.3,0c1,0,1.9-0.5,2.6-1.2l1.4,1.4C424.4,137.9,422.8,138.6,421.2,138.5z"/>
<path class="st1" d="M429.6,138.3h-2.3v-13.9h2.3v5.4c0.6-1.1,1.8-1.8,3.1-1.8c2.2,0,3.5,1.5,3.5,3.9v6.4H434v-5.7
	c0-1.6-0.8-2.5-2.1-2.5c-1.2,0-2.2,1-2.2,2.2c0,0.1,0,0.2,0,0.3V138.3L429.6,138.3z"/>
<path class="st1" d="M439,126.7v-2.2h2.5v2.2L439,126.7L439,126.7z M439.1,138.3v-10.1h2.3v10L439.1,138.3L439.1,138.3z"/>
<path class="st1" d="M448.9,136.6c1,0,2-0.4,2.7-1.2l1.3,1.2c-1.9,2.2-5.2,2.4-7.3,0.5c-2.2-1.9-2.4-5.2-0.5-7.3
	c0.9-1,2.2-1.7,3.6-1.8c3.1,0,4.7,2.5,4.7,5.4c0,0.2,0,0.4,0,0.6h-7.3C446.2,135.5,447.5,136.7,448.9,136.6z M451.1,132.6
	c0-1.4-1.1-2.6-2.5-2.6c-1.4,0.1-2.5,1.2-2.6,2.6H451.1z"/>
<path class="st1" d="M462.1,128.2h2.4l-4.1,10.1h-2l-4.1-10.1h2.4l2.7,7.4L462.1,128.2z"/>
<path class="st1" d="M470.4,136.6c1,0,2-0.4,2.7-1.2l1.3,1.2c-1.9,2.2-5.2,2.4-7.3,0.5c-2.2-1.9-2.4-5.2-0.5-7.3
	c0.9-1,2.2-1.7,3.6-1.8c3.1,0,4.7,2.5,4.7,5.4c0,0.2,0,0.4,0,0.6h-7.3C467.6,135.6,468.9,136.7,470.4,136.6z M472.6,132.6
	c0-1.4-1.1-2.6-2.5-2.6c-1.4,0.1-2.5,1.2-2.6,2.6H472.6z"/>
<path class="st1" d="M479.4,138.3h-2.3v-10.1h2.3v2.3c0.5-1.5,1.9-2.5,3.5-2.5v2.4h-0.1c-2,0-3.4,1.3-3.4,4L479.4,138.3L479.4,138.3
	z"/>
<path class="st1" d="M488.3,138.5c-1.5,0-3-0.5-4.2-1.5l1-1.6c0.9,0.7,2.1,1.2,3.2,1.2c1,0,1.5-0.4,1.5-1.1l0,0c0-0.8-1-1-2.2-1.4
	c-1.5-0.4-3.1-1-3.1-2.9l0,0c0-1.9,1.6-3.1,3.5-3.1c1.3,0,2.6,0.4,3.6,1.1l-0.9,1.6c-0.8-0.6-1.8-0.9-2.8-1
	c-0.6-0.1-1.2,0.3-1.4,0.9c0,0,0,0.1,0,0.1l0,0c0,0.7,1.1,1,2.2,1.4c1.4,0.5,3.1,1.1,3.1,2.9l0,0
	C491.9,137.4,490.3,138.5,488.3,138.5z"/>
<path class="st1" d="M334.9,161.3c-1.3,0-2.6-0.7-3.4-1.8v4.6h-2.3v-13.1h2.3v1.7c0.7-1.2,2-1.9,3.4-1.9c2.3,0,4.6,1.9,4.6,5.2
	S337.3,161.3,334.9,161.3z M334.4,152.9c-1.8,0.2-3.1,1.8-2.9,3.6c0.2,1.5,1.4,2.7,2.9,2.9c1.8-0.2,3.1-1.9,2.8-3.6
	C337,154.2,335.9,153,334.4,152.9L334.4,152.9z"/>
<path class="st1" d="M346.4,159.4c1,0,2-0.4,2.7-1.2l1.3,1.2c-1.9,2.2-5.2,2.4-7.3,0.5c-2.2-1.9-2.4-5.2-0.5-7.3
	c0.9-1,2.2-1.7,3.6-1.8c3.1,0,4.7,2.5,4.7,5.4c0,0.2,0,0.4,0,0.6h-7.3C343.7,158.3,345,159.5,346.4,159.4z M348.6,155.4
	c0-1.4-1.1-2.6-2.5-2.6c-1.4,0.1-2.5,1.2-2.6,2.6H348.6z"/>
<path class="st1" d="M355.4,161.1h-2.3v-10h2.3v2.3c0.5-1.5,1.9-2.5,3.5-2.5v2.4h-0.1c-2,0-3.4,1.3-3.4,4L355.4,161.1L355.4,161.1z"
	/>
<path class="st1" d="M366.3,151.1v1.9h-2.6v8h-2.3V153h-1.3v-1.9h1.3v-0.7c0-2.2,1.1-3.3,3-3.3c0.6,0,1.2,0.1,1.8,0.3v1.9
	c-0.4-0.2-0.9-0.2-1.3-0.2c-0.7,0-1.3,0.5-1.3,1.2c0,0.1,0,0.2,0,0.4v0.5L366.3,151.1L366.3,151.1z"/>
<path class="st1" d="M372.5,161.3c-2.8,0-5.2-2.2-5.2-5.1c0,0,0-0.1,0-0.1c0-2.9,2.3-5.3,5.2-5.3c2.9,0,5.3,2.3,5.3,5.2
	C377.8,158.9,375.5,161.3,372.5,161.3C372.6,161.3,372.5,161.3,372.5,161.3z M372.5,152.9c-1.7,0-3,1.3-3,3c0,0.1,0,0.1,0,0.2
	c-0.1,1.7,1.2,3.2,2.9,3.2c0,0,0.1,0,0.1,0c1.7,0,3-1.3,3-3c0-0.1,0-0.1,0-0.2C375.6,154.4,374.3,153,372.5,152.9
	C372.6,152.9,372.5,152.9,372.5,152.9z"/>
<path class="st1" d="M382.4,161.1h-2.3v-10h2.3v2.3c0.5-1.5,1.9-2.5,3.5-2.5v2.4h-0.1c-2,0-3.4,1.3-3.4,4L382.4,161.1L382.4,161.1z"
	/>
<path class="st1" d="M399.4,150.9c2.2,0,3.5,1.4,3.5,3.8v6.4h-2.3v-5.7c0-1.6-0.7-2.5-2-2.5s-2.1,0.9-2.1,2.5v5.7h-2.3v-5.7
	c0-1.6-0.8-2.4-2-2.4s-2.1,1-2.1,2.5v5.6h-2.3v-10h2.3v1.5c0.6-1.1,1.8-1.7,3-1.7c1.2-0.1,2.4,0.6,2.9,1.8
	C396.8,151.5,398.1,150.8,399.4,150.9z"/>
<path class="st1" d="M414.7,161.2c-1.5,0-3-0.5-4.2-1.5l1-1.6c0.9,0.7,2.1,1.2,3.2,1.2c1,0,1.5-0.4,1.5-1.1l0,0c0-0.8-1-1-2.2-1.4
	c-1.5-0.4-3.1-1-3.1-2.9l0,0c0-1.9,1.6-3.1,3.5-3.1c1.3,0,2.6,0.4,3.6,1.1l-0.9,1.6c-0.8-0.6-1.8-0.9-2.8-1
	c-0.6-0.1-1.2,0.3-1.4,0.9c0,0,0,0.1,0,0.1l0,0c0,0.7,1.1,1,2.2,1.4c1.4,0.5,3.1,1.1,3.1,2.9l0,0
	C418.4,160.2,416.8,161.2,414.7,161.2z"/>
<path class="st1" d="M420.7,149.5v-2.2h2.4v2.2L420.7,149.5L420.7,149.5z M420.8,161.1v-10h2.3v10H420.8z"/>
<path class="st1" d="M430.4,164.2c-1.6,0-3.1-0.4-4.4-1.2l0.8-1.7c1,0.7,2.3,1.1,3.5,1.1c1.5,0.2,2.9-0.9,3.1-2.4c0-0.2,0-0.4,0-0.6
	v-0.8c-0.8,1.2-2.1,1.9-3.5,1.8c-2.6-0.2-4.6-2.4-4.4-5c0.2-2.4,2-4.3,4.4-4.4c1.4,0,2.7,0.6,3.5,1.7v-1.5h2.3v8
	C435.8,162.6,433.9,164.2,430.4,164.2z M430.6,152.8c-1.5,0-2.8,1.2-2.8,2.8c0,1.5,1.2,2.8,2.8,2.8c1.5,0.1,2.9-1.1,3-2.6
	s-1.1-2.9-2.6-3C430.9,152.8,430.7,152.8,430.6,152.8L430.6,152.8z"/>
<path class="st1" d="M440.9,161.1h-2.3v-10h2.3v1.6c0.6-1.1,1.8-1.8,3.1-1.8c2.2,0,3.5,1.5,3.5,3.9v6.4h-2.3v-5.7
	c0-1.6-0.8-2.5-2.1-2.5c-1.2,0-2.2,1-2.2,2.2c0,0.1,0,0.2,0,0.3V161.1L440.9,161.1z"/>
<path class="st1" d="M450.2,149.5v-2.2h2.4v2.2L450.2,149.5L450.2,149.5z M450.3,161.1v-10h2.3v10H450.3z"/>
<path class="st1" d="M460.9,151.1v1.9h-2.6v8h-2.3V153h-1.3v-1.9h1.3v-0.7c0-2.2,1.1-3.3,3-3.3c0.6,0,1.2,0.1,1.8,0.3v1.9
	c-0.4-0.2-0.9-0.2-1.3-0.2c-0.7,0-1.3,0.5-1.3,1.2c0,0.1,0,0.2,0,0.4v0.5L460.9,151.1L460.9,151.1z"/>
<path class="st1" d="M462.7,149.5v-2.2h2.4v2.2L462.7,149.5L462.7,149.5z M462.8,161.1v-10h2.3v10H462.8z"/>
<path class="st1" d="M472.6,161.3c-2.8,0-5.1-2.2-5.1-5.1c0-0.1,0-0.1,0-0.2c-0.1-2.8,2.2-5.2,5-5.3c0,0,0.1,0,0.1,0
	c1.5-0.1,3,0.6,4,1.7l-1.4,1.5c-0.6-0.8-1.6-1.2-2.6-1.2c-1.7,0.1-2.9,1.5-2.9,3.1c0,0,0,0,0,0.1c-0.1,1.7,1.1,3.1,2.7,3.2
	c0.1,0,0.2,0,0.3,0c1,0,1.9-0.5,2.6-1.2l1.4,1.4C475.7,160.7,474.2,161.4,472.6,161.3z"/>
<path class="st1" d="M484.8,161.1v-1.2c-0.8,1-2,1.5-3.2,1.4c-1.9,0-3.5-1.1-3.5-3.1l0,0c0-2.2,1.7-3.2,4-3.2c0.9,0,1.9,0.1,2.7,0.4
	v-0.2c0-1.4-0.9-2.2-2.4-2.2c-1,0-1.9,0.2-2.8,0.6l-0.6-1.8c1.2-0.6,2.5-0.9,3.8-0.8c2.9,0,4.4,1.6,4.4,4.2v6L484.8,161.1
	L484.8,161.1z M484.8,156.8c-0.7-0.3-1.5-0.4-2.3-0.4c-1.4,0-2.3,0.6-2.3,1.6l0,0c0.1,0.9,0.9,1.6,1.8,1.5c0,0,0.1,0,0.1,0
	c1.5,0,2.6-0.8,2.6-2.1L484.8,156.8L484.8,156.8z"/>
<path class="st1" d="M492,161.1h-2.3v-10h2.3v1.6c0.6-1.1,1.8-1.8,3.1-1.8c2.2,0,3.5,1.5,3.5,3.9v6.4h-2.3v-5.7
	c0-1.6-0.8-2.5-2.1-2.5c-1.2,0-2.2,1-2.2,2.2c0,0.1,0,0.2,0,0.3V161.1L492,161.1z"/>
<path class="st1" d="M504.1,158c-0.1,0.6,0.3,1.2,0.9,1.2c0.1,0,0.2,0,0.3,0c0.5,0,1-0.1,1.4-0.3v1.9c-0.6,0.3-1.3,0.5-2,0.5
	c-1.7,0-2.9-0.7-2.9-2.9V153h-1.3v-2h1.3v-2.8h2.3v2.8h2.7v2H504L504.1,158L504.1,158z"/>
<path class="st1" d="M509.1,161.1v-13.9h2.3v13.9L509.1,161.1L509.1,161.1z"/>
<path class="st1" d="M519.7,161.4c-0.8,2-1.7,2.8-3.3,2.8c-0.8,0-1.6-0.2-2.3-0.6l0.8-1.7c0.4,0.2,0.9,0.4,1.3,0.4
	c0.7,0,1.3-0.5,1.4-1.2l-4.1-10h2.4l2.8,7.5l2.6-7.5h2.4L519.7,161.4z"/>
<path class="st1" d="M332.2,184.1c-1.3,0-2.6-0.7-3.4-1.8v1.6h-2.3V170h2.3v5.5c0.7-1.2,2-1.9,3.4-1.9c2.3,0,4.6,1.9,4.6,5.2
	S334.6,184.1,332.2,184.1z M331.7,175.7c-1.8,0.2-3.1,1.8-2.9,3.6c0.2,1.5,1.4,2.7,2.9,2.9c1.8-0.2,3.1-1.9,2.8-3.6
	C334.3,177,333.2,175.8,331.7,175.7L331.7,175.7z"/>
<path class="st1" d="M343.7,182.2c1,0,2-0.4,2.7-1.2l1.3,1.2c-1.9,2.2-5.2,2.4-7.3,0.5c-2.2-1.9-2.4-5.2-0.5-7.3
	c0.9-1,2.2-1.7,3.6-1.8c3.1,0,4.7,2.5,4.7,5.4c0,0.2,0,0.4,0,0.6h-7.3C341,181.1,342.3,182.3,343.7,182.2z M345.9,178.2
	c0-1.4-1.1-2.6-2.5-2.6c-1.4,0.1-2.5,1.2-2.6,2.6H345.9z"/>
<path class="st1" d="M353.2,180.8c-0.1,0.6,0.3,1.2,0.9,1.2c0.1,0,0.2,0,0.3,0c0.5,0,1-0.1,1.4-0.3v1.9c-0.6,0.3-1.3,0.5-2,0.5
	c-1.7,0-2.9-0.7-2.9-2.9v-5.3h-1.3v-2h1.3v-2.8h2.3v2.8h2.7v2h-2.7L353.2,180.8L353.2,180.8z"/>
<path class="st1" d="M360.9,180.8c-0.1,0.6,0.3,1.2,0.9,1.2c0.1,0,0.2,0,0.3,0c0.5,0,1-0.1,1.4-0.3v1.9c-0.6,0.3-1.3,0.5-2,0.5
	c-1.7,0-2.9-0.7-2.9-2.9v-5.3h-1.3v-2h1.3v-2.8h2.3v2.8h2.7v2H361L360.9,180.8L360.9,180.8z"/>
<path class="st1" d="M370.2,182.2c1,0,2-0.4,2.7-1.2l1.3,1.2c-1.9,2.2-5.2,2.4-7.3,0.5c-2.2-1.9-2.4-5.2-0.5-7.3
	c0.9-1,2.2-1.7,3.6-1.8c3.1,0,4.7,2.5,4.7,5.4c0,0.2,0,0.4,0,0.6h-7.3C367.5,181.1,368.7,182.3,370.2,182.2z M372.4,178.2
	c0-1.4-1.1-2.6-2.5-2.6c-1.4,0.1-2.5,1.2-2.6,2.6H372.4z"/>
<path class="st1" d="M379.2,183.9h-2.3v-10h2.3v2.3c0.5-1.5,1.9-2.5,3.5-2.5v2.4h-0.1c-2,0-3.4,1.3-3.4,4L379.2,183.9L379.2,183.9z"
	/>
<path class="st1" d="M400.1,180.7l2-6.9h2.3l-3.2,10.1h-2l-2.2-6.9l-2.2,6.9h-2l-3.2-10.1h2.3l2,6.9l2.2-6.9h1.9L400.1,180.7z"/>
<path class="st1" d="M408.7,183.9h-2.3V170h2.3v5.4c0.6-1.1,1.8-1.8,3.1-1.8c2.2,0,3.5,1.5,3.5,3.9v6.4H413v-5.7
	c0-1.6-0.8-2.5-2.1-2.5c-1.2,0-2.2,1-2.2,2.2c0,0.1,0,0.2,0,0.3V183.9L408.7,183.9z"/>
<path class="st1" d="M422.6,182.2c1,0,2-0.4,2.7-1.2l1.3,1.2c-1.9,2.2-5.2,2.4-7.3,0.5c-2.2-1.9-2.4-5.2-0.5-7.3
	c0.9-1,2.2-1.7,3.6-1.8c3.1,0,4.7,2.5,4.7,5.4c0,0.2,0,0.4,0,0.6h-7.3C419.9,181.1,421.2,182.3,422.6,182.2z M424.8,178.2
	c0-1.4-1.1-2.6-2.5-2.6c-1.4,0.1-2.5,1.2-2.6,2.6H424.8z"/>
<path class="st1" d="M431.6,183.9h-2.3v-10h2.3v1.6c0.6-1.1,1.8-1.8,3.1-1.8c2.2,0,3.5,1.5,3.5,3.9v6.4H436v-5.7
	c0-1.6-0.8-2.5-2.1-2.5c-1.2,0-2.2,1-2.2,2.2c0,0.1,0,0.2,0,0.3V183.9L431.6,183.9z"/>
<path class="st1" d="M449.4,180.8c-0.1,0.6,0.3,1.2,0.9,1.2c0.1,0,0.2,0,0.3,0c0.5,0,1-0.1,1.4-0.3v1.9c-0.6,0.3-1.3,0.5-2,0.5
	c-1.7,0-2.9-0.7-2.9-2.9v-5.3h-1.3v-2h1.3v-2.8h2.3v2.8h2.7v2h-2.7L449.4,180.8L449.4,180.8z"/>
<path class="st1" d="M458.6,182.2c1,0,2-0.4,2.7-1.2l1.3,1.2c-1.9,2.2-5.2,2.4-7.3,0.5c-2.2-1.9-2.4-5.2-0.5-7.3
	c0.9-1,2.2-1.7,3.6-1.8c3.1,0,4.7,2.5,4.7,5.4c0,0.2,0,0.4,0,0.6h-7.3C455.9,181.1,457.1,182.3,458.6,182.2z M460.8,178.2
	c0-1.4-1.1-2.6-2.5-2.6c-1.4,0.1-2.5,1.2-2.6,2.6H460.8z"/>
<path class="st1" d="M471.4,183.9v-1.2c-0.8,1-2,1.5-3.2,1.4c-1.9,0-3.5-1.1-3.5-3.1l0,0c0-2.2,1.7-3.2,4-3.2c0.9,0,1.9,0.1,2.7,0.4
	v-0.2c0-1.4-0.9-2.2-2.4-2.2c-1,0-1.9,0.2-2.8,0.6l-0.6-1.8c1.2-0.6,2.5-0.9,3.8-0.8c2.9,0,4.4,1.6,4.4,4.2v6L471.4,183.9
	L471.4,183.9z M471.5,179.6c-0.7-0.3-1.5-0.4-2.3-0.4c-1.4,0-2.3,0.6-2.3,1.6l0,0c0.1,0.9,0.9,1.6,1.8,1.5c0,0,0.1,0,0.1,0
	c1.5,0,2.6-0.9,2.6-2.1L471.5,179.6L471.5,179.6z"/>
<path class="st1" d="M480.9,184.1c-2.8,0-5.1-2.2-5.1-5.1c0-0.1,0-0.1,0-0.2c-0.1-2.8,2.2-5.2,5-5.3c0,0,0.1,0,0.1,0
	c1.5-0.1,3,0.6,4,1.7l-1.4,1.5c-0.6-0.8-1.6-1.2-2.6-1.2c-1.7,0.1-2.9,1.5-2.9,3.1c0,0,0,0,0,0.1c-0.1,1.7,1.1,3.1,2.7,3.2
	c0.1,0,0.2,0,0.3,0c1,0,1.9-0.5,2.6-1.2l1.4,1.4C484.1,183.5,482.5,184.2,480.9,184.1z"/>
<path class="st1" d="M489.3,183.9h-2.3V170h2.3v5.4c0.6-1.1,1.8-1.8,3.1-1.8c2.2,0,3.5,1.5,3.5,3.9v6.4h-2.3v-5.7
	c0-1.6-0.8-2.5-2.1-2.5c-1.2,0-2.2,1-2.2,2.2c0,0.1,0,0.2,0,0.3V183.9L489.3,183.9z"/>
<path class="st1" d="M498.7,172.3v-2.2h2.4v2.2L498.7,172.3L498.7,172.3z M498.8,183.9v-10h2.3v10H498.8z"/>
<path class="st1" d="M506.3,183.9h-2.3v-10h2.3v1.6c0.6-1.1,1.8-1.8,3.1-1.8c2.2,0,3.5,1.5,3.5,3.9v6.4h-2.3v-5.7
	c0-1.6-0.8-2.5-2.1-2.5c-1.2,0-2.2,1-2.2,2.2c0,0.1,0,0.2,0,0.3V183.9L506.3,183.9z"/>
<path class="st1" d="M520.1,187c-1.6,0-3.1-0.4-4.4-1.2l0.8-1.7c1,0.7,2.3,1.1,3.5,1.1c1.5,0.2,2.9-0.9,3.1-2.4c0-0.2,0-0.4,0-0.7
	v-0.8c-0.8,1.2-2.1,1.9-3.5,1.8c-2.6-0.2-4.6-2.4-4.4-5c0.2-2.4,2-4.3,4.4-4.4c1.4,0,2.7,0.6,3.5,1.7v-1.5h2.3v8
	C525.4,185.4,523.5,187,520.1,187z M520.3,175.6c-1.5,0-2.8,1.2-2.8,2.8c0,1.5,1.2,2.8,2.8,2.8c1.5,0.1,2.9-1,3-2.5
	c0.1-1.5-1-2.9-2.5-3C520.6,175.6,520.4,175.6,520.3,175.6L520.3,175.6z"/>
<path class="st1" d="M341.1,195.1v-2.2h2.4v2.2L341.1,195.1L341.1,195.1z M341.1,206.7v-10h2.3v10H341.1z"/>
<path class="st1" d="M349.8,206.9c-1.5,0-3-0.5-4.2-1.5l1-1.6c0.9,0.8,2.1,1.2,3.2,1.2c1,0,1.5-0.4,1.5-1.1l0,0c0-0.8-1-1-2.2-1.4
	c-1.5-0.4-3.1-1-3.1-3l0,0c0-1.9,1.6-3.1,3.5-3.1c1.3,0,2.6,0.4,3.6,1.1l-0.9,1.6c-0.8-0.6-1.8-0.9-2.8-1c-0.6-0.1-1.2,0.3-1.4,0.9
	c0,0,0,0.1,0,0.1l0,0c0,0.7,1.1,1,2.2,1.4c1.4,0.5,3.1,1.1,3.1,2.9l0,0C353.4,205.8,351.8,206.9,349.8,206.9z"/>
<path class="st1" d="M364.1,203.6c-0.1,0.6,0.3,1.2,0.9,1.2c0.1,0,0.2,0,0.3,0c0.5,0,1-0.1,1.4-0.3v1.9c-0.6,0.3-1.3,0.5-2,0.5
	c-1.7,0-2.9-0.7-2.9-2.9v-5.3h-1.3v-2h1.3v-2.8h2.3v2.8h2.7v2h-2.7L364.1,203.6L364.1,203.6z"/>
<path class="st1" d="M375.1,206.7v-1.2c-0.8,1-2,1.5-3.2,1.4c-1.9,0-3.5-1.1-3.5-3.1l0,0c0-2.2,1.7-3.2,4-3.2c0.9,0,1.9,0.1,2.7,0.4
	v-0.2c0-1.4-0.9-2.2-2.4-2.2c-1,0-1.9,0.2-2.8,0.6l-0.6-1.8c1.2-0.6,2.5-0.9,3.8-0.8c2.9,0,4.4,1.6,4.4,4.2v6L375.1,206.7
	L375.1,206.7z M375.2,202.4c-0.7-0.3-1.5-0.4-2.3-0.4c-1.4,0-2.3,0.6-2.3,1.6l0,0c0.1,0.9,0.9,1.6,1.8,1.5c0,0,0.1,0,0.1,0
	c1.5,0,2.6-0.9,2.6-2.1L375.2,202.4L375.2,202.4z"/>
<path class="st1" d="M380.1,195.1v-2.2h2.4v2.2L380.1,195.1L380.1,195.1z M380.2,206.7v-10h2.3v10H380.2L380.2,206.7z"/>
<path class="st1" d="M385.6,206.7v-13.9h2.3v13.9H385.6z"/>
<path class="st1" d="M395.5,206.9c-2.8,0-5.2-2.2-5.2-5.1c0,0,0-0.1,0-0.1c0-2.9,2.3-5.3,5.2-5.3c2.9,0,5.3,2.3,5.3,5.2
	C400.8,204.5,398.5,206.9,395.5,206.9C395.6,206.9,395.5,206.9,395.5,206.9z M395.5,198.5c-1.7,0-3,1.3-3,3c0,0.1,0,0.1,0,0.2
	c-0.1,1.7,1.2,3.2,2.9,3.2c0,0,0.1,0,0.1,0c1.7,0,3-1.3,3-3c0-0.1,0-0.1,0-0.2C398.6,200,397.3,198.6,395.5,198.5
	C395.6,198.5,395.5,198.5,395.5,198.5z"/>
<path class="st1" d="M405.4,206.7h-2.3v-10h2.3v2.3c0.5-1.5,1.9-2.5,3.5-2.5v2.4h-0.1c-2,0-3.4,1.3-3.4,4L405.4,206.7L405.4,206.7z"
	/>
<path class="st1" d="M415.1,205c1,0,2-0.4,2.7-1.2l1.3,1.2c-1.9,2.2-5.2,2.4-7.3,0.5c-2.2-1.9-2.4-5.2-0.5-7.3
	c0.9-1,2.2-1.7,3.6-1.8c3.1,0,4.7,2.5,4.7,5.4c0,0.2,0,0.4,0,0.6h-7.3C412.4,203.9,413.6,205.1,415.1,205z M417.3,201
	c0-1.4-1.1-2.6-2.5-2.6c-1.4,0.1-2.5,1.2-2.6,2.6H417.3z"/>
<path class="st1" d="M429.3,206.7V205c-0.7,1.2-2,1.9-3.4,1.9c-2.3,0-4.6-1.9-4.6-5.2s2.2-5.2,4.6-5.2c1.4,0,2.6,0.7,3.4,1.8v-5.4
	h2.3v13.9L429.3,206.7L429.3,206.7z M426.5,198.5c-1.6,0-2.9,1.4-2.9,3c0,0.1,0,0.2,0,0.2c-0.1,1.7,1.1,3.1,2.8,3.2c0,0,0.1,0,0.1,0
	c1.8-0.2,3.1-1.8,2.9-3.6C429.2,199.8,428,198.6,426.5,198.5L426.5,198.5z"/>
<path class="st1" d="M442.8,203.6c-0.1,0.6,0.3,1.2,0.9,1.2c0.1,0,0.2,0,0.3,0c0.5,0,1-0.1,1.4-0.3v1.9c-0.6,0.3-1.3,0.5-2,0.5
	c-1.7,0-2.9-0.7-2.9-2.9v-5.3h-1.3v-2h1.2v-2.8h2.3v2.8h2.7v2h-2.7V203.6z"/>
<path class="st1" d="M452.1,206.9c-2.8,0-5.2-2.2-5.2-5.1c0,0,0-0.1,0-0.1c0-2.9,2.3-5.3,5.2-5.3c2.9,0,5.3,2.3,5.3,5.2
	C457.5,204.5,455.2,206.9,452.1,206.9C452.2,206.9,452.2,206.9,452.1,206.9z M452.1,198.5c-1.7,0-3,1.3-3,3c0,0.1,0,0.1,0,0.2
	c-0.1,1.7,1.2,3.2,2.9,3.2c0,0,0.1,0,0.1,0c1.7,0,3-1.3,3-3c0-0.1,0-0.1,0-0.2C455.2,200,453.9,198.6,452.1,198.5
	C452.2,198.5,452.2,198.5,452.1,198.5z"/>
<path class="st1" d="M468.1,203.6c-0.1,0.6,0.3,1.2,0.9,1.2c0.1,0,0.2,0,0.3,0c0.5,0,1-0.1,1.4-0.3v1.9c-0.6,0.3-1.3,0.5-2,0.5
	c-1.7,0-2.9-0.7-2.9-2.9v-5.3h-1.3v-2h1.3v-2.8h2.3v2.8h2.7v2h-2.7L468.1,203.6L468.1,203.6z"/>
<path class="st1" d="M475.3,206.7h-2.3v-13.9h2.3v5.4c0.6-1.1,1.8-1.8,3.1-1.8c2.2,0,3.5,1.5,3.5,3.9v6.4h-2.3V201
	c0-1.6-0.8-2.5-2.1-2.5c-1.2,0-2.2,1-2.2,2.2c0,0.1,0,0.2,0,0.3V206.7L475.3,206.7z"/>
<path class="st1" d="M489.3,205c1,0,2-0.4,2.7-1.2l1.3,1.2c-1.9,2.2-5.2,2.4-7.3,0.5c-2.2-1.9-2.4-5.2-0.5-7.3
	c0.9-1,2.2-1.7,3.6-1.8c3.1,0,4.7,2.5,4.7,5.4c0,0.2,0,0.4,0,0.6h-7.3C486.6,203.9,487.8,205.1,489.3,205z M491.5,201
	c0-1.4-1.1-2.6-2.5-2.6c-1.4,0.1-2.5,1.2-2.6,2.6H491.5L491.5,201z"/>
<path class="st1" d="M507.6,196.5c2.2,0,3.5,1.4,3.5,3.8v6.4h-2.3V201c0-1.6-0.7-2.5-2-2.5s-2.1,0.9-2.1,2.5v5.7h-2.3V201
	c0-1.6-0.8-2.4-2-2.4s-2.1,1-2.1,2.5v5.6H496v-10h2.3v1.5c0.6-1.1,1.8-1.7,3-1.7c1.2-0.1,2.4,0.6,2.9,1.8
	C505,197.1,506.3,196.4,507.6,196.5z"/>
<g>
	<path d="M190.6,143.6L190.6,143.6l-1.5,0.8l-0.2-0.9l1.9-1h1v8.7h-1.1V143.6z"/>
</g>
<g>
	<path d="M513.4,200.3v-0.6l0.8-0.8c2-1.9,2.9-2.9,2.9-4.1c0-0.8-0.4-1.5-1.5-1.5c-0.7,0-1.3,0.4-1.7,0.7l-0.3-0.7
		c0.5-0.5,1.3-0.8,2.2-0.8c1.7,0,2.4,1.2,2.4,2.3c0,1.4-1,2.6-2.7,4.2l-0.6,0.6v0h3.5v0.9H513.4z"/>
</g>
<g>
	<path d="M296.5,425.4c0.3,0.2,1,0.5,1.7,0.5c1.4,0,1.8-0.9,1.8-1.5c0-1.1-1-1.6-2-1.6h-0.6V422h0.6c0.8,0,1.7-0.4,1.7-1.3
		c0-0.6-0.4-1.2-1.4-1.2c-0.6,0-1.2,0.3-1.6,0.5l-0.3-0.8c0.4-0.3,1.2-0.6,2-0.6c1.5,0,2.2,0.9,2.2,1.9c0,0.8-0.5,1.5-1.4,1.8v0
		c1,0.2,1.7,0.9,1.7,2c0,1.2-1,2.3-2.8,2.3c-0.9,0-1.6-0.3-2-0.5L296.5,425.4z"/>
</g>
</svg>
