<svg id="Layer_1" data-name="Layer 1" xmlns="http://www.w3.org/2000/svg" viewBox="0 0 537.02 472.42"><defs><style>.cls-1{fill:#e0e0e0;}.cls-2{fill:#4474b8;}.cls-3{fill:#231f20;}</style></defs><title>elizabeth-story</title><circle class="cls-1" cx="110" cy="110" r="110"/><path class="cls-2" d="M94.51,652.07H88.59v-5.76h18.56v5.76h-5.92v14.62H94.51V652.07Z" transform="translate(-13.17 -581.54)"/><path class="cls-2" d="M105.71,658.83v-0.06a8,8,0,0,1,8.07-8.36c5.57,0,8.16,3.93,8.16,8.76,0,0.35,0,.76,0,1.11H111.83a2.94,2.94,0,0,0,3,2.13,4.35,4.35,0,0,0,3.19-1.63l3.51,2.82a8.45,8.45,0,0,1-7.15,3.46C109.19,667.07,105.71,663.78,105.71,658.83ZM116,657.37c-0.14-1.51-1-2.39-2.18-2.39s-1.87.93-2.07,2.39H116Z" transform="translate(-13.17 -581.54)"/><path class="cls-2" d="M122.89,658.83v-0.06a8,8,0,0,1,8.07-8.36c5.57,0,8.16,3.93,8.16,8.76,0,0.35,0,.76,0,1.11H129a2.94,2.94,0,0,0,3,2.13,4.35,4.35,0,0,0,3.19-1.63l3.51,2.82a8.45,8.45,0,0,1-7.15,3.46C126.37,667.07,122.89,663.78,122.89,658.83Zm10.29-1.46c-0.14-1.51-1-2.39-2.18-2.39s-1.87.93-2.07,2.39h4.25Z" transform="translate(-13.17 -581.54)"/><path class="cls-2" d="M140.56,650.79h6.52V653a6,6,0,0,1,4.8-2.59c3.3,0,5.37,2.21,5.37,5.79v10.48h-6.52v-8.36a1.89,1.89,0,0,0-1.78-2.15,2,2,0,0,0-1.87,2.15v8.36h-6.52v-15.9Z" transform="translate(-13.17 -581.54)"/><path class="cls-2" d="M45.55,670.31H54.6c5.34,0,9,2.42,9,7.25v0.06c0,4.92-3.71,7.54-9.14,7.54H52.27v5.53H45.55V670.31Zm8.53,10c1.72,0,2.87-.79,2.87-2.24V678c0-1.49-1.06-2.24-2.84-2.24H52.27v4.54h1.81Z" transform="translate(-13.17 -581.54)"/><path class="cls-2" d="M64.85,674.79h6.52V678c0.89-2.15,2.33-3.55,4.91-3.44v7H75.6c-2.76,0-4.22,1.54-4.22,5.07v4H64.85v-15.9Z" transform="translate(-13.17 -581.54)"/><path class="cls-2" d="M76.77,682.83v-0.06a8,8,0,0,1,8.07-8.36c5.57,0,8.16,3.93,8.16,8.76,0,0.35,0,.76,0,1.11H82.89a2.94,2.94,0,0,0,3,2.13A4.35,4.35,0,0,0,89,684.78l3.51,2.82a8.45,8.45,0,0,1-7.15,3.46C80.25,691.07,76.77,687.78,76.77,682.83Zm10.29-1.46c-0.14-1.51-1-2.39-2.18-2.39s-1.87.93-2.07,2.39h4.25Z" transform="translate(-13.17 -581.54)"/><path class="cls-2" d="M94.1,693.42l2-4a11.58,11.58,0,0,0,5.66,1.51c2.44,0,3.74-1.28,3.74-3.49V687a5.94,5.94,0,0,1-4.54,2.18c-4.05,0-7-2.91-7-7.31v-0.06c0-4.45,3-7.39,6.61-7.39a6.12,6.12,0,0,1,4.8,2.07v-1.69h6.52v11.88c0,2.94-.6,4.95-2,6.41s-3.56,2.33-7.07,2.33A18.43,18.43,0,0,1,94.1,693.42Zm11.44-11.59v-0.06a2.62,2.62,0,0,0-5.23.06v0.06A2.62,2.62,0,0,0,105.53,681.84Z" transform="translate(-13.17 -581.54)"/><path class="cls-2" d="M113.86,674.79h6.52V677a6,6,0,0,1,4.8-2.59c3.3,0,5.37,2.21,5.37,5.79v10.48H124v-8.36a1.89,1.89,0,0,0-1.78-2.15,2,2,0,0,0-1.87,2.15v8.36h-6.52v-15.9Z" transform="translate(-13.17 -581.54)"/><path class="cls-2" d="M131.78,686.17v-0.06c0-3.17,2.33-4.95,6-4.95a12,12,0,0,1,3.71.58v-0.26c0-1.46-.89-2.3-2.9-2.3a11.24,11.24,0,0,0-4.34.9l-1.15-4.4a17.72,17.72,0,0,1,6.61-1.17c3.19,0,5.26.67,6.64,2.07,1.18,1.19,1.64,2.74,1.64,5v9.05h-6.52v-1.6a5.88,5.88,0,0,1-4.51,2C133.91,691.07,131.78,689.32,131.78,686.17Zm9.74-1.37v-0.67a4.44,4.44,0,0,0-1.49-.26,1.79,1.79,0,0,0-2,1.78v0.06a1.47,1.47,0,0,0,1.49,1.54C140.66,687.25,141.52,686.32,141.52,684.81Z" transform="translate(-13.17 -581.54)"/><path class="cls-2" d="M149.8,674.79h6.52V677a6,6,0,0,1,4.8-2.59c3.3,0,5.37,2.21,5.37,5.79v10.48H160v-8.36a1.89,1.89,0,0,0-1.78-2.15,2,2,0,0,0-1.87,2.15v8.36H149.8v-15.9Z" transform="translate(-13.17 -581.54)"/><path class="cls-2" d="M167.84,682.83v-0.06a8.3,8.3,0,0,1,8.56-8.33,7.49,7.49,0,0,1,7.1,4.4l-4.68,2.68a2.52,2.52,0,0,0-2.3-1.6,2.58,2.58,0,0,0-2.41,2.79v0.06c0,1.66,1,2.85,2.33,2.85a2.71,2.71,0,0,0,2.44-1.6l4.74,2.74a7.9,7.9,0,0,1-7.53,4.34A8.19,8.19,0,0,1,167.84,682.83Z" transform="translate(-13.17 -581.54)"/><path class="cls-2" d="M183.61,693.77l1.9-4.51a7,7,0,0,0,2.87,1,2.26,2.26,0,0,0,1.06-.23l-6.15-15.29H190l2.73,8.38,2.5-8.38h6.64l-5.43,14.79c-1.52,4.16-3.19,5.85-6.81,5.85A12.26,12.26,0,0,1,183.61,693.77Z" transform="translate(-13.17 -581.54)"/><path class="cls-3" d="M59.73,701.32v-2.07H62v2.07H59.73Zm0.09,11v-9.51H62v9.51H59.82Z" transform="translate(-13.17 -581.54)"/><path class="cls-3" d="M68,712.47A6.53,6.53,0,0,1,64,711l1-1.48A5.22,5.22,0,0,0,68,710.74c0.92,0,1.46-.4,1.46-1v0c0-.74-1-1-2.1-1.33-1.39-.4-2.93-1-2.93-2.79v0c0-1.8,1.47-2.9,3.34-2.9a6.44,6.44,0,0,1,3.45,1.08l-0.85,1.55a5.39,5.39,0,0,0-2.65-.9,1.09,1.09,0,0,0-1.31,1v0c0,0.68,1,1,2.11,1.33,1.37,0.43,2.91,1.06,2.91,2.77v0C71.47,711.48,69.94,712.47,68,712.47Z" transform="translate(-13.17 -581.54)"/><path class="cls-3" d="M81.58,709.32a1,1,0,0,0,1.15,1.19,2.86,2.86,0,0,0,1.33-.32V712a3.72,3.72,0,0,1-1.94.49c-1.58,0-2.7-.7-2.7-2.79v-5H78.24v-1.87h1.19v-2.61h2.15v2.61H84.1v1.87H81.58v4.66Z" transform="translate(-13.17 -581.54)"/><path class="cls-3" d="M88.42,712.29H86.27V699.14h2.15v5.11a3.37,3.37,0,0,1,2.93-1.67c2.11,0,3.34,1.44,3.34,3.66v6H92.54v-5.4c0-1.48-.73-2.32-2-2.32a2.1,2.1,0,0,0-2.11,2.36v5.37Z" transform="translate(-13.17 -581.54)"/><path class="cls-3" d="M101.62,710.72a3.39,3.39,0,0,0,2.54-1.13l1.26,1.13a4.93,4.93,0,1,1-4.07-8.14c3,0,4.49,2.38,4.49,5.13,0,0.2,0,.38,0,0.59H98.92A2.64,2.64,0,0,0,101.62,710.72Zm2.1-3.85a2.45,2.45,0,0,0-2.38-2.5,2.56,2.56,0,0,0-2.43,2.5h4.81Z" transform="translate(-13.17 -581.54)"/><path class="cls-3" d="M121.81,704.38l-0.51,3.13h1.78v1.87H121l-0.5,2.9h-1.9l0.5-2.9h-2.91l-0.48,2.9h-1.9l0.5-2.9h-1.6v-1.87h1.92l0.52-3.13h-1.78v-1.87h2.1l0.48-2.83h1.9l-0.48,2.83h2.91l0.46-2.83h1.9l-0.48,2.83h1.58v1.87h-1.9Zm-4.8,0-0.53,3.13h2.91l0.53-3.13H117Z" transform="translate(-13.17 -581.54)"/><path class="cls-3" d="M128.23,699.59h1.53v12.69h-2.17V701.84l-2.24.63-0.46-1.8Z" transform="translate(-13.17 -581.54)"/><path class="cls-3" d="M142.47,712.5a4.83,4.83,0,0,1-4.85-4.93,4.87,4.87,0,0,1,4.87-5,4.66,4.66,0,0,1,3.75,1.64l-1.33,1.46a3.14,3.14,0,0,0-2.43-1.19,2.84,2.84,0,0,0-2.7,3,2.88,2.88,0,0,0,2.81,3.08,3.28,3.28,0,0,0,2.43-1.19l1.3,1.3A4.72,4.72,0,0,1,142.47,712.5Z" transform="translate(-13.17 -581.54)"/><path class="cls-3" d="M154,712.29v-1.17a3.77,3.77,0,0,1-3,1.37c-1.78,0-3.34-1-3.34-2.94v0c0-2.05,1.62-3.06,3.8-3.06a7.79,7.79,0,0,1,2.59.4v-0.23c0-1.31-.82-2-2.31-2a6.45,6.45,0,0,0-2.68.59l-0.59-1.75a7.94,7.94,0,0,1,3.57-.79c2.77,0,4.12,1.48,4.12,4v5.64H154Zm0.05-4a6.07,6.07,0,0,0-2.15-.38c-1.35,0-2.15.56-2.15,1.53v0a1.56,1.56,0,0,0,1.81,1.4c1.42,0,2.49-.81,2.49-2v-0.59Z" transform="translate(-13.17 -581.54)"/><path class="cls-3" d="M164.88,702.78H167v9.51h-2.15v-1.48a3.37,3.37,0,0,1-2.93,1.67c-2.11,0-3.34-1.44-3.34-3.66v-6h2.15v5.4c0,1.48.73,2.32,2,2.32a2.1,2.1,0,0,0,2.11-2.36v-5.37Z" transform="translate(-13.17 -581.54)"/><path class="cls-3" d="M172.94,712.47a6.53,6.53,0,0,1-4-1.42l1-1.48a5.22,5.22,0,0,0,3.07,1.17c0.92,0,1.46-.4,1.46-1v0c0-.74-1-1-2.1-1.33-1.39-.4-2.93-1-2.93-2.79v0c0-1.8,1.47-2.9,3.34-2.9a6.44,6.44,0,0,1,3.45,1.08l-0.85,1.55a5.39,5.39,0,0,0-2.65-.9,1.09,1.09,0,0,0-1.31,1v0c0,0.68,1,1,2.11,1.33,1.37,0.43,2.91,1.06,2.91,2.77v0C176.42,711.48,174.9,712.47,172.94,712.47Z" transform="translate(-13.17 -581.54)"/><path class="cls-3" d="M182.94,710.72a3.39,3.39,0,0,0,2.54-1.13l1.26,1.13a4.93,4.93,0,1,1-4.07-8.14c3,0,4.49,2.38,4.49,5.13,0,0.2,0,.38,0,0.59h-6.89A2.64,2.64,0,0,0,182.94,710.72Zm2.1-3.85a2.45,2.45,0,0,0-2.38-2.5,2.56,2.56,0,0,0-2.43,2.5H185Z" transform="translate(-13.17 -581.54)"/><path class="cls-3" d="M43.62,734.1a4.89,4.89,0,0,1-5-4.93A5,5,0,1,1,43.62,734.1Zm0-8a2.84,2.84,0,0,0-2.82,3,2.92,2.92,0,0,0,2.86,3.08,2.85,2.85,0,0,0,2.84-3A2.93,2.93,0,0,0,43.62,726.09Z" transform="translate(-13.17 -581.54)"/><path class="cls-3" d="M55.92,724.45v1.8H53.47v7.63H51.32v-7.63H50.13v-1.82h1.19v-0.68c0-2.09,1-3.12,2.88-3.12a5.69,5.69,0,0,1,1.74.25v1.84a3.72,3.72,0,0,0-1.26-.23,1.19,1.19,0,0,0-1.24,1.44v0.52h2.49Z" transform="translate(-13.17 -581.54)"/><path class="cls-3" d="M67.93,724.45v1.8H65.47v7.63H63.33v-7.63H62.14v-1.82h1.19v-0.68c0-2.09,1-3.12,2.88-3.12a5.69,5.69,0,0,1,1.74.25v1.84a3.72,3.72,0,0,0-1.26-.23,1.19,1.19,0,0,0-1.24,1.44v0.52h2.49Z" transform="translate(-13.17 -581.54)"/><path class="cls-3" d="M73.68,732.32a3.39,3.39,0,0,0,2.54-1.13l1.26,1.13a4.93,4.93,0,1,1-4.07-8.14c3,0,4.49,2.38,4.49,5.13,0,0.2,0,.38,0,0.59H71A2.64,2.64,0,0,0,73.68,732.32Zm2.1-3.85A2.45,2.45,0,0,0,73.4,726a2.55,2.55,0,0,0-2.43,2.5h4.81Z" transform="translate(-13.17 -581.54)"/><path class="cls-3" d="M91.05,724.18c2,0,3.29,1.31,3.29,3.64v6.07H92.19v-5.4c0-1.51-.69-2.32-1.9-2.32s-2,.83-2,2.36v5.37H86.13v-5.42c0-1.48-.71-2.3-1.9-2.3s-2,.9-2,2.38v5.35H80.08v-9.51h2.15v1.44a3.35,3.35,0,0,1,2.86-1.64,2.94,2.94,0,0,1,2.79,1.67A3.81,3.81,0,0,1,91.05,724.18Z" transform="translate(-13.17 -581.54)"/><path class="cls-3" d="M102.69,733.89v-1.17a3.77,3.77,0,0,1-3,1.37c-1.78,0-3.34-1-3.34-2.93v0c0-2.05,1.62-3.06,3.8-3.06a7.79,7.79,0,0,1,2.59.4v-0.23c0-1.31-.82-2-2.31-2a6.45,6.45,0,0,0-2.68.59L97.13,725a7.94,7.94,0,0,1,3.57-.79c2.77,0,4.12,1.48,4.12,4v5.64h-2.13Zm0.05-4a6.07,6.07,0,0,0-2.15-.38c-1.35,0-2.15.56-2.15,1.53v0a1.56,1.56,0,0,0,1.81,1.4c1.42,0,2.49-.81,2.49-2v-0.59Z" transform="translate(-13.17 -581.54)"/><path class="cls-3" d="M107.51,733.89V720.74h2.15v13.14h-2.15Z" transform="translate(-13.17 -581.54)"/><path class="cls-3" d="M116.8,732.32a3.39,3.39,0,0,0,2.54-1.13l1.26,1.13a4.93,4.93,0,1,1-4.07-8.14c3,0,4.49,2.38,4.49,5.13,0,0.2,0,.38,0,0.59H114.1A2.64,2.64,0,0,0,116.8,732.32Zm2.1-3.85a2.45,2.45,0,0,0-2.38-2.5,2.55,2.55,0,0,0-2.43,2.5h4.81Z" transform="translate(-13.17 -581.54)"/><path class="cls-3" d="M135.59,733.89V732.3a3.74,3.74,0,0,1-3.2,1.78c-2.2,0-4.35-1.78-4.35-5s2.11-5,4.35-5a3.87,3.87,0,0,1,3.2,1.67v-5.11h2.15v13.14h-2.15Zm-2.68-7.81a2.78,2.78,0,0,0-2.7,3.06,2.81,2.81,0,0,0,2.7,3.06A3.08,3.08,0,0,0,132.91,726.07Z" transform="translate(-13.17 -581.54)"/><path class="cls-3" d="M142.57,733.89h-2.15v-9.51h2.15v2.14a3.33,3.33,0,0,1,3.32-2.32v2.3h-0.12c-1.88,0-3.2,1.24-3.2,3.76v3.62Z" transform="translate(-13.17 -581.54)"/><path class="cls-3" d="M151.9,734.1a4.89,4.89,0,0,1-5-4.93A5,5,0,1,1,151.9,734.1Zm0-8a2.84,2.84,0,0,0-2.82,3,2.92,2.92,0,0,0,2.86,3.08,2.85,2.85,0,0,0,2.84-3A2.93,2.93,0,0,0,151.9,726.09Z" transform="translate(-13.17 -581.54)"/><path class="cls-3" d="M164.44,734.09a3.81,3.81,0,0,1-3.18-1.67v4.36h-2.15V724.38h2.15V726a3.73,3.73,0,0,1,3.18-1.78c2.22,0,4.37,1.78,4.37,5S166.68,734.09,164.44,734.09Zm-0.5-8a3.08,3.08,0,0,0,0,6.12A3.09,3.09,0,0,0,163.94,726.07Z" transform="translate(-13.17 -581.54)"/><path class="cls-3" d="M175.47,734.1a4.89,4.89,0,0,1-5-4.93A5,5,0,1,1,175.47,734.1Zm0-8a2.84,2.84,0,0,0-2.82,3,2.92,2.92,0,0,0,2.86,3.08,2.85,2.85,0,0,0,2.84-3A2.93,2.93,0,0,0,175.47,726.09Z" transform="translate(-13.17 -581.54)"/><path class="cls-3" d="M188.85,724.38H191v9.51h-2.15v-1.48a3.37,3.37,0,0,1-2.93,1.67c-2.11,0-3.34-1.44-3.34-3.66v-6h2.15v5.4c0,1.48.73,2.32,2,2.32a2.1,2.1,0,0,0,2.11-2.36v-5.37Z" transform="translate(-13.17 -581.54)"/><path class="cls-3" d="M196.29,730.92a1,1,0,0,0,1.15,1.19,2.86,2.86,0,0,0,1.33-.32v1.78a3.72,3.72,0,0,1-1.94.49c-1.58,0-2.7-.7-2.7-2.79v-5H193v-1.87h1.19v-2.61h2.15v2.61h2.52v1.87h-2.52v4.66Z" transform="translate(-13.17 -581.54)"/><path class="cls-3" d="M204.2,734.07a6.53,6.53,0,0,1-4-1.42l1-1.48a5.22,5.22,0,0,0,3.07,1.17c0.92,0,1.46-.4,1.46-1v0c0-.74-1-1-2.1-1.33-1.39-.4-2.93-1-2.93-2.79v0c0-1.8,1.47-2.9,3.34-2.9a6.44,6.44,0,0,1,3.45,1.08l-0.85,1.55a5.39,5.39,0,0,0-2.65-.9,1.09,1.09,0,0,0-1.31,1v0c0,0.68,1,1,2.11,1.33,1.37,0.43,2.91,1.06,2.91,2.77v0C207.68,733.08,206.15,734.07,204.2,734.07Z" transform="translate(-13.17 -581.54)"/><circle class="cls-1" cx="227.79" cy="362.42" r="110"/><path class="cls-2" d="M206,909.48l-5.41,1.2-2-8.32,9.92-2.74h8.4v33.92H206V909.48Z" transform="translate(-13.17 -581.54)"/><path class="cls-2" d="M222.71,906h6.5v4.07h-6.5V906Zm0.11,5.16h6.28v15.31h-6.28V911.2Z" transform="translate(-13.17 -581.54)"/><path class="cls-2" d="M231,911.2h6.28v2.13a5.83,5.83,0,0,1,4.62-2.5c3.18,0,5.18,2.13,5.18,5.58v10.1h-6.28v-8a1.82,1.82,0,0,0-1.72-2.08,1.88,1.88,0,0,0-1.8,2.08v8H231V911.2Z" transform="translate(-13.17 -581.54)"/><path class="cls-2" d="M267.23,927.71h-16l-1.8-7.89,16.23-20.21H278v20.16h4v7.94h-4v5.82H267.23v-5.82Zm0-7.79V911l-7.07,8.95h7.07Z" transform="translate(-13.17 -581.54)"/><path class="cls-3" d="M176.34,955.66a1.22,1.22,0,0,0,1.37,1.41,3.4,3.4,0,0,0,1.58-.38v2.12a4.43,4.43,0,0,1-2.3.58c-1.88,0-3.21-.83-3.21-3.31v-5.94h-1.41V947.9h1.41v-3.1h2.55v3.1h3v2.22h-3v5.54Z" transform="translate(-13.17 -581.54)"/><path class="cls-3" d="M186.74,957.33a4,4,0,0,0,3-1.35l1.5,1.35A5.8,5.8,0,0,1,181,953.57c0-3.25,2.26-5.9,5.44-5.9,3.54,0,5.34,2.82,5.34,6.09,0,0.24,0,.45,0,0.71h-8.19A3.14,3.14,0,0,0,186.74,957.33Zm2.49-4.58c-0.17-1.67-1.14-3-2.83-3s-2.66,1.22-2.89,3h5.72Z" transform="translate(-13.17 -581.54)"/><path class="cls-3" d="M199.48,957.33a4,4,0,0,0,3-1.35l1.5,1.35a5.8,5.8,0,0,1-10.28-3.76c0-3.25,2.26-5.9,5.44-5.9,3.54,0,5.34,2.82,5.34,6.09,0,0.24,0,.45,0,0.71h-8.19A3.14,3.14,0,0,0,199.48,957.33Zm2.49-4.58c-0.17-1.67-1.14-3-2.83-3s-2.66,1.22-2.89,3H202Z" transform="translate(-13.17 -581.54)"/><path class="cls-3" d="M209.63,959.19h-2.55V947.9h2.55v1.75a4,4,0,0,1,3.48-2c2.51,0,4,1.71,4,4.34v7.18h-2.55v-6.41c0-1.75-.87-2.76-2.38-2.76a2.5,2.5,0,0,0-2.51,2.8v6.37Z" transform="translate(-13.17 -581.54)"/><path class="cls-3" d="M227,959.19V957.8a4.48,4.48,0,0,1-3.61,1.63c-2.11,0-4-1.22-4-3.48v0c0-2.44,1.92-3.63,4.52-3.63a9.29,9.29,0,0,1,3.08.47v-0.28c0-1.56-1-2.42-2.74-2.42a7.68,7.68,0,0,0-3.19.71l-0.7-2.07a9.46,9.46,0,0,1,4.24-.94c3.29,0,4.9,1.75,4.9,4.77v6.69H227ZM227,954.4a7.2,7.2,0,0,0-2.55-.45c-1.6,0-2.55.66-2.55,1.82v0c0,1.07,1,1.67,2.15,1.67,1.69,0,3-1,3-2.37V954.4Z" transform="translate(-13.17 -581.54)"/><path class="cls-3" d="M237.5,962.65a9.5,9.5,0,0,1-5-1.35l0.95-1.95a7.18,7.18,0,0,0,4,1.2c2.28,0,3.52-1.2,3.52-3.46v-0.88a4.65,4.65,0,0,1-3.92,2.07,5.32,5.32,0,0,1,0-10.62,4.79,4.79,0,0,1,3.9,1.92V947.9h2.55v9C243.5,960.88,241.34,962.65,237.5,962.65Zm0.21-12.81a3.13,3.13,0,1,0,0,6.26A3.13,3.13,0,1,0,237.72,949.85Z" transform="translate(-13.17 -581.54)"/><path class="cls-3" d="M251.83,957.33a4,4,0,0,0,3-1.35l1.5,1.35a5.8,5.8,0,0,1-10.28-3.76c0-3.25,2.26-5.9,5.44-5.9,3.54,0,5.34,2.82,5.34,6.09,0,0.24,0,.45,0,0.71h-8.19A3.14,3.14,0,0,0,251.83,957.33Zm2.49-4.58c-0.17-1.67-1.14-3-2.83-3s-2.66,1.22-2.89,3h5.72Z" transform="translate(-13.17 -581.54)"/><path class="cls-3" d="M270.72,962.65a9.5,9.5,0,0,1-5-1.35l0.95-1.95a7.18,7.18,0,0,0,4,1.2c2.28,0,3.52-1.2,3.52-3.46v-0.88a4.65,4.65,0,0,1-3.92,2.07,5.32,5.32,0,0,1,0-10.62,4.79,4.79,0,0,1,3.9,1.92V947.9h2.55v9C276.71,960.88,274.56,962.65,270.72,962.65Zm0.21-12.81a3.13,3.13,0,1,0,0,6.26A3.13,3.13,0,1,0,270.93,949.85Z" transform="translate(-13.17 -581.54)"/><path class="cls-3" d="M279.94,946.17v-2.46h2.74v2.46h-2.74Zm0.11,13V947.9h2.55v11.29H280Z" transform="translate(-13.17 -581.54)"/><path class="cls-3" d="M288.48,959.19h-2.55V947.9h2.55v2.54a4,4,0,0,1,3.95-2.76v2.74h-0.15c-2.24,0-3.8,1.48-3.8,4.47v4.3Z" transform="translate(-13.17 -581.54)"/><path class="cls-3" d="M294.79,959.19V943.58h2.55v15.61h-2.55Z" transform="translate(-13.17 -581.54)"/><path class="cls-3" d="M304.5,959.4a7.77,7.77,0,0,1-4.73-1.69l1.14-1.75a6.21,6.21,0,0,0,3.65,1.39c1.1,0,1.73-.47,1.73-1.22v0c0-.88-1.18-1.18-2.49-1.58-1.65-.47-3.48-1.15-3.48-3.31v0c0-2.14,1.75-3.44,4-3.44a7.65,7.65,0,0,1,4.09,1.28l-1,1.84a6.4,6.4,0,0,0-3.14-1.07c-1,0-1.56.47-1.56,1.13v0c0,0.81,1.2,1.16,2.51,1.58,1.63,0.51,3.46,1.26,3.46,3.29v0C308.63,958.23,306.82,959.4,304.5,959.4Z" transform="translate(-13.17 -581.54)"/><path class="cls-3" d="M154.5,985.08a4.52,4.52,0,0,1-3.78-2v1.75h-2.55V969.24h2.55v6.2a4.44,4.44,0,0,1,3.78-2.12c2.64,0,5.19,2.12,5.19,5.88S157.16,985.08,154.5,985.08Zm-0.59-9.51a3.66,3.66,0,0,0,0,7.27c1.75,0,3.19-1.39,3.19-3.63A3.32,3.32,0,0,0,153.91,975.57Z" transform="translate(-13.17 -581.54)"/><path class="cls-3" d="M167.45,983a4,4,0,0,0,3-1.35L172,983a5.8,5.8,0,0,1-10.28-3.76c0-3.25,2.26-5.9,5.44-5.9,3.54,0,5.34,2.82,5.34,6.09,0,0.24,0,.45,0,0.71h-8.19A3.14,3.14,0,0,0,167.45,983Zm2.49-4.58c-0.17-1.67-1.14-3-2.83-3s-2.66,1.22-2.89,3h5.72Z" transform="translate(-13.17 -581.54)"/><path class="cls-3" d="M180.2,985.1a5.73,5.73,0,0,1-5.76-5.86,5.79,5.79,0,0,1,5.78-5.92,5.53,5.53,0,0,1,4.45,1.95L183.09,977a3.73,3.73,0,0,0-2.89-1.41A3.38,3.38,0,0,0,177,979.2a3.42,3.42,0,0,0,3.33,3.66,3.9,3.9,0,0,0,2.89-1.41l1.54,1.54A5.61,5.61,0,0,1,180.2,985.1Z" transform="translate(-13.17 -581.54)"/><path class="cls-3" d="M192.08,985.1a5.8,5.8,0,0,1-5.91-5.86A5.94,5.94,0,1,1,192.08,985.1Zm0-9.51a3.37,3.37,0,0,0-3.36,3.61,3.47,3.47,0,0,0,3.4,3.66,3.38,3.38,0,0,0,3.38-3.61A3.47,3.47,0,0,0,192.08,975.59Z" transform="translate(-13.17 -581.54)"/><path class="cls-3" d="M213.68,973.32c2.43,0,3.9,1.56,3.9,4.32v7.2H215v-6.41c0-1.8-.82-2.76-2.26-2.76s-2.38,1-2.38,2.8v6.37h-2.55v-6.43c0-1.75-.84-2.74-2.26-2.74s-2.38,1.07-2.38,2.82v6.35h-2.55V973.56h2.55v1.71a4,4,0,0,1,3.4-1.95,3.5,3.5,0,0,1,3.31,2A4.53,4.53,0,0,1,213.68,973.32Z" transform="translate(-13.17 -581.54)"/><path class="cls-3" d="M225.84,983a4,4,0,0,0,3-1.35l1.5,1.35a5.8,5.8,0,0,1-10.28-3.76c0-3.25,2.26-5.9,5.44-5.9,3.54,0,5.34,2.82,5.34,6.09,0,0.24,0,.45,0,0.71h-8.19A3.14,3.14,0,0,0,225.84,983Zm2.49-4.58c-0.17-1.67-1.14-3-2.83-3s-2.66,1.22-2.89,3h5.72Z" transform="translate(-13.17 -581.54)"/><path class="cls-3" d="M246.09,985.08a4.52,4.52,0,0,1-3.78-2v5.17h-2.55V973.56h2.55v1.88a4.44,4.44,0,0,1,3.78-2.12c2.64,0,5.19,2.12,5.19,5.88S248.75,985.08,246.09,985.08Zm-0.59-9.51a3.66,3.66,0,0,0,0,7.27c1.75,0,3.19-1.39,3.19-3.63A3.32,3.32,0,0,0,245.5,975.57Z" transform="translate(-13.17 -581.54)"/><path class="cls-3" d="M256.45,984.84H253.9V973.56h2.55v2.54a4,4,0,0,1,3.95-2.76v2.74h-0.15c-2.24,0-3.8,1.48-3.8,4.47v4.3Z" transform="translate(-13.17 -581.54)"/><path class="cls-3" d="M267.38,983a4,4,0,0,0,3-1.35l1.5,1.35a5.8,5.8,0,0,1-10.28-3.76c0-3.25,2.26-5.9,5.44-5.9,3.54,0,5.34,2.82,5.34,6.09,0,0.24,0,.45,0,0.71h-8.19A3.14,3.14,0,0,0,267.38,983Zm2.49-4.58c-0.17-1.67-1.14-3-2.83-3s-2.66,1.22-2.89,3h5.72Z" transform="translate(-13.17 -581.54)"/><path class="cls-3" d="M279.94,988.31a9.5,9.5,0,0,1-5-1.35L275.9,985a7.18,7.18,0,0,0,4,1.2c2.28,0,3.52-1.2,3.52-3.46v-0.88a4.65,4.65,0,0,1-3.92,2.07,5.32,5.32,0,0,1,0-10.62,4.79,4.79,0,0,1,3.9,1.92v-1.69h2.55v9C285.93,986.53,283.77,988.31,279.94,988.31Zm0.21-12.81a3.13,3.13,0,1,0,0,6.26A3.13,3.13,0,1,0,280.15,975.5Z" transform="translate(-13.17 -581.54)"/><path class="cls-3" d="M291.67,984.84h-2.55V973.56h2.55v1.75a4,4,0,0,1,3.48-2c2.51,0,4,1.71,4,4.34v7.18h-2.55v-6.41c0-1.75-.87-2.76-2.38-2.76a2.5,2.5,0,0,0-2.51,2.8v6.37Z" transform="translate(-13.17 -581.54)"/><path class="cls-3" d="M309,984.84v-1.39a4.48,4.48,0,0,1-3.61,1.63c-2.11,0-4-1.22-4-3.48v0c0-2.44,1.92-3.63,4.52-3.63a9.29,9.29,0,0,1,3.08.47v-0.28c0-1.56-1-2.42-2.74-2.42a7.68,7.68,0,0,0-3.19.71l-0.7-2.07a9.46,9.46,0,0,1,4.24-.94c3.29,0,4.9,1.75,4.9,4.77v6.69H309Zm0.06-4.79a7.2,7.2,0,0,0-2.55-.45c-1.6,0-2.55.66-2.55,1.82v0c0,1.07.95,1.67,2.15,1.67,1.69,0,3-1,3-2.37v-0.71Z" transform="translate(-13.17 -581.54)"/><path class="cls-3" d="M317.13,984.84h-2.55V973.56h2.55v1.75a4,4,0,0,1,3.48-2c2.51,0,4,1.71,4,4.34v7.18H322v-6.41c0-1.75-.87-2.76-2.38-2.76a2.5,2.5,0,0,0-2.51,2.8v6.37Z" transform="translate(-13.17 -581.54)"/><path class="cls-3" d="M330.74,981.32a1.22,1.22,0,0,0,1.37,1.41,3.4,3.4,0,0,0,1.58-.38v2.12a4.43,4.43,0,0,1-2.3.58c-1.88,0-3.21-.83-3.21-3.31v-5.94h-1.41v-2.22h1.41v-3.1h2.55v3.1h3v2.22h-3v5.54Z" transform="translate(-13.17 -581.54)"/><circle class="cls-1" cx="427.02" cy="156.03" r="110"/><path class="cls-2" d="M402.91,691.76H387.77v-9.29H415v8.47l-14.43,25.21H388.53Z" transform="translate(-13.17 -581.54)"/><path class="cls-2" d="M415.92,699.41v-0.1c0-9.29,6-17.56,16-17.56s16,8.18,16,17.46v0.1c0,9.29-6,17.56-16,17.56S415.92,708.7,415.92,699.41Zm21,0v-0.1c0-4.62-2-7.79-5-7.79s-4.94,3.08-4.94,7.7v0.1c0,4.62,2,7.79,5,7.79S436.9,704,436.9,699.41Z" transform="translate(-13.17 -581.54)"/><path class="cls-2" d="M450.44,691.48v-0.1c0-5.15,3.51-9.43,9.07-9.43s9.07,4.28,9.07,9.43v0.1c0,5.15-3.66,9.43-9.07,9.43S450.44,696.62,450.44,691.48Zm31-9h7.17l-27,33.68h-7.17Zm-19.42,9v-0.1c0-2-1.14-3.32-2.47-3.32s-2.47,1.25-2.47,3.32v0.1c0,2,1.23,3.32,2.47,3.32S462,693.55,462,691.48Zm12.44,15.78v-0.1c0-5.15,3.51-9.43,9.07-9.43s9.07,4.28,9.07,9.43v0.1c0,5.15-3.66,9.43-9.07,9.43S474.41,712.4,474.41,707.26Zm11.54,0v-0.1c0-2-1.14-3.32-2.47-3.32s-2.47,1.25-2.47,3.32v0.1c0,2,1.23,3.32,2.47,3.32S485.94,709.33,485.94,707.26Z" transform="translate(-13.17 -581.54)"/><path class="cls-3" d="M364,742.07a5.8,5.8,0,0,1-5.91-5.86A5.94,5.94,0,1,1,364,742.07Zm0-9.51a3.38,3.38,0,0,0-3.36,3.61,3.47,3.47,0,0,0,3.4,3.66,3.38,3.38,0,0,0,3.38-3.61A3.48,3.48,0,0,0,364,732.56Z" transform="translate(-13.17 -581.54)"/><path class="cls-3" d="M378.64,730.61v2.14h-2.91v9.06h-2.55v-9.06h-1.41v-2.16h1.41v-0.81c0-2.48,1.22-3.7,3.42-3.7a6.75,6.75,0,0,1,2.07.3v2.18a4.41,4.41,0,0,0-1.5-.28c-1,0-1.48.53-1.48,1.71v0.62h3Z" transform="translate(-13.17 -581.54)"/><path class="cls-3" d="M389.95,738.29a1.22,1.22,0,0,0,1.37,1.41,3.41,3.41,0,0,0,1.58-.38v2.12a4.43,4.43,0,0,1-2.3.58c-1.88,0-3.21-.83-3.21-3.31v-5.94H386v-2.22h1.41v-3.1h2.55v3.1h3v2.22h-3v5.54Z" transform="translate(-13.17 -581.54)"/><path class="cls-3" d="M400.35,740a4,4,0,0,0,3-1.35l1.5,1.35a5.8,5.8,0,0,1-10.28-3.76c0-3.25,2.26-5.9,5.44-5.9,3.54,0,5.34,2.82,5.34,6.09,0,0.23,0,.45,0,0.71h-8.19A3.14,3.14,0,0,0,400.35,740Zm2.49-4.57c-0.17-1.67-1.14-3-2.83-3s-2.66,1.22-2.89,3h5.72Z" transform="translate(-13.17 -581.54)"/><path class="cls-3" d="M413.09,740a4,4,0,0,0,3-1.35l1.5,1.35a5.8,5.8,0,0,1-10.28-3.76c0-3.25,2.26-5.9,5.44-5.9,3.54,0,5.34,2.82,5.34,6.09,0,0.23,0,.45,0,0.71h-8.19A3.14,3.14,0,0,0,413.09,740Zm2.49-4.57c-0.17-1.67-1.14-3-2.83-3s-2.66,1.22-2.89,3h5.72Z" transform="translate(-13.17 -581.54)"/><path class="cls-3" d="M423.24,741.81h-2.55V730.52h2.55v1.75a4,4,0,0,1,3.48-2c2.51,0,4,1.71,4,4.34v7.18h-2.55V735.4c0-1.75-.87-2.76-2.38-2.76a2.5,2.5,0,0,0-2.51,2.8v6.37Z" transform="translate(-13.17 -581.54)"/><path class="cls-3" d="M440.58,741.81v-1.39A4.48,4.48,0,0,1,437,742c-2.11,0-4-1.22-4-3.49v0c0-2.44,1.92-3.63,4.52-3.63a9.26,9.26,0,0,1,3.08.47v-0.28c0-1.56-1-2.42-2.74-2.42a7.67,7.67,0,0,0-3.19.71L434,731.3a9.44,9.44,0,0,1,4.24-.94c3.29,0,4.9,1.75,4.9,4.77v6.69h-2.53Zm0.06-4.79a7.23,7.23,0,0,0-2.55-.45c-1.6,0-2.55.66-2.55,1.82v0c0,1.07,1,1.67,2.15,1.67,1.69,0,3-1,3-2.37V737Z" transform="translate(-13.17 -581.54)"/><path class="cls-3" d="M451.11,745.28a9.51,9.51,0,0,1-5-1.35l0.95-1.95a7.19,7.19,0,0,0,4,1.2c2.28,0,3.52-1.2,3.52-3.46v-0.88a4.65,4.65,0,0,1-3.92,2.07,5.32,5.32,0,0,1,0-10.62,4.79,4.79,0,0,1,3.9,1.92v-1.69h2.55v9C457.11,743.5,455,745.28,451.11,745.28Zm0.21-12.8a3.13,3.13,0,1,0,0,6.26A3.13,3.13,0,1,0,451.32,732.47Z" transform="translate(-13.17 -581.54)"/><path class="cls-3" d="M465.44,740a4,4,0,0,0,3-1.35L470,740a5.8,5.8,0,0,1-10.28-3.76c0-3.25,2.26-5.9,5.44-5.9,3.54,0,5.34,2.82,5.34,6.09,0,0.23,0,.45,0,0.71h-8.19A3.14,3.14,0,0,0,465.44,740Zm2.49-4.57c-0.17-1.67-1.14-3-2.83-3s-2.66,1.22-2.89,3h5.72Z" transform="translate(-13.17 -581.54)"/><path class="cls-3" d="M484.32,745.28a9.51,9.51,0,0,1-5-1.35l0.95-1.95a7.19,7.19,0,0,0,4,1.2c2.28,0,3.52-1.2,3.52-3.46v-0.88a4.65,4.65,0,0,1-3.92,2.07,5.32,5.32,0,0,1,0-10.62,4.79,4.79,0,0,1,3.9,1.92v-1.69h2.55v9C490.32,743.5,488.16,745.28,484.32,745.28Zm0.21-12.8a3.13,3.13,0,1,0,0,6.26A3.13,3.13,0,1,0,484.53,732.47Z" transform="translate(-13.17 -581.54)"/><path class="cls-3" d="M493.54,728.79v-2.46h2.74v2.46h-2.74Zm0.11,13V730.52h2.55v11.29h-2.55Z" transform="translate(-13.17 -581.54)"/><path class="cls-3" d="M502.09,741.81h-2.55V730.52h2.55v2.54a4,4,0,0,1,3.95-2.76V733h-0.15c-2.24,0-3.8,1.47-3.8,4.47v4.3Z" transform="translate(-13.17 -581.54)"/><path class="cls-3" d="M508.4,741.81V726.21H511v15.61H508.4Z" transform="translate(-13.17 -581.54)"/><path class="cls-3" d="M518.1,742a7.76,7.76,0,0,1-4.73-1.69l1.14-1.75a6.2,6.2,0,0,0,3.65,1.39c1.1,0,1.73-.47,1.73-1.22v0c0-.88-1.18-1.18-2.49-1.58-1.65-.47-3.48-1.15-3.48-3.31v0c0-2.14,1.75-3.44,4-3.44a7.65,7.65,0,0,1,4.09,1.28l-1,1.84a6.41,6.41,0,0,0-3.14-1.07c-1,0-1.56.47-1.56,1.13v0c0,0.81,1.2,1.15,2.51,1.58,1.63,0.51,3.46,1.26,3.46,3.29v0C522.24,740.85,520.43,742,518.1,742Z" transform="translate(-13.17 -581.54)"/><path class="cls-3" d="M376.23,763.92l2.28-7.74h2.55l-3.65,11.37h-2.28l-2.49-7.72-2.51,7.72h-2.28l-3.61-11.37h2.62l2.24,7.74,2.47-7.78h2.17Z" transform="translate(-13.17 -581.54)"/><path class="cls-3" d="M385.89,767.47h-2.55V751.86h2.55v6.07a4,4,0,0,1,3.48-2c2.51,0,4,1.71,4,4.34v7.18h-2.55v-6.41c0-1.75-.87-2.76-2.38-2.76a2.5,2.5,0,0,0-2.51,2.8v6.37Z" transform="translate(-13.17 -581.54)"/><path class="cls-3" d="M401.72,767.72a5.8,5.8,0,0,1-5.91-5.86A5.94,5.94,0,1,1,401.72,767.72Zm0-9.51a3.38,3.38,0,0,0-3.36,3.61,3.47,3.47,0,0,0,3.4,3.66,3.38,3.38,0,0,0,3.38-3.61A3.48,3.48,0,0,0,401.72,758.21Z" transform="translate(-13.17 -581.54)"/><path class="cls-3" d="M421.57,770.93a9.51,9.51,0,0,1-5-1.35l0.95-1.95a7.19,7.19,0,0,0,4,1.2c2.28,0,3.52-1.2,3.52-3.46V764.5a4.65,4.65,0,0,1-3.92,2.07,5.32,5.32,0,0,1,0-10.62,4.79,4.79,0,0,1,3.9,1.92v-1.69h2.55v9C427.57,769.16,425.41,770.93,421.57,770.93Zm0.21-12.8a3.13,3.13,0,1,0,0,6.26A3.13,3.13,0,1,0,421.79,758.13Z" transform="translate(-13.17 -581.54)"/><path class="cls-3" d="M430.79,754.45V752h2.74v2.46h-2.74Zm0.11,13V756.18h2.55v11.29H430.9Z" transform="translate(-13.17 -581.54)"/><path class="cls-3" d="M444.49,756.18h2.68l-4.56,11.37h-2.3l-4.58-11.37h2.74l3,8.29Z" transform="translate(-13.17 -581.54)"/><path class="cls-3" d="M453.86,765.61a4,4,0,0,0,3-1.35l1.5,1.35a5.8,5.8,0,0,1-10.28-3.76c0-3.25,2.26-5.9,5.44-5.9,3.54,0,5.34,2.82,5.34,6.09,0,0.23,0,.45,0,0.71h-8.19A3.14,3.14,0,0,0,453.86,765.61Zm2.49-4.57c-0.17-1.67-1.14-3-2.83-3s-2.66,1.22-2.89,3h5.72Z" transform="translate(-13.17 -581.54)"/><path class="cls-3" d="M474.11,767.7a4.53,4.53,0,0,1-3.78-2v1.75h-2.55V751.86h2.55v6.2a4.44,4.44,0,0,1,3.78-2.12c2.64,0,5.19,2.12,5.19,5.88S476.77,767.7,474.11,767.7Zm-0.59-9.51a3.66,3.66,0,0,0,0,7.27c1.75,0,3.19-1.39,3.19-3.63A3.32,3.32,0,0,0,473.52,758.19Z" transform="translate(-13.17 -581.54)"/><path class="cls-3" d="M482,754.45V752h2.74v2.46H482Zm0.11,13V756.18h2.55v11.29h-2.55Z" transform="translate(-13.17 -581.54)"/><path class="cls-3" d="M490.51,767.47H488V756.18h2.55v2.54a4,4,0,0,1,3.95-2.76v2.74h-0.15c-2.24,0-3.8,1.47-3.8,4.47v4.3Z" transform="translate(-13.17 -581.54)"/><path class="cls-3" d="M499.75,763.94a1.22,1.22,0,0,0,1.37,1.41,3.41,3.41,0,0,0,1.58-.38v2.12a4.43,4.43,0,0,1-2.3.58c-1.88,0-3.21-.83-3.21-3.31V758.4h-1.41v-2.22h1.41v-3.1h2.55v3.1h3v2.22h-3v5.54Z" transform="translate(-13.17 -581.54)"/><path class="cls-3" d="M507.87,767.47h-2.55V751.86h2.55v6.07a4,4,0,0,1,3.48-2c2.51,0,4,1.71,4,4.34v7.18h-2.55v-6.41c0-1.75-.87-2.76-2.38-2.76a2.5,2.5,0,0,0-2.51,2.8v6.37Z" transform="translate(-13.17 -581.54)"/><path class="cls-3" d="M376.35,793.12V777.52h2.55v15.61h-2.55Z" transform="translate(-13.17 -581.54)"/><path class="cls-3" d="M387.38,791.26a4,4,0,0,0,3-1.35l1.5,1.35a5.8,5.8,0,0,1-10.28-3.76c0-3.25,2.26-5.9,5.44-5.9,3.54,0,5.34,2.82,5.34,6.09,0,0.23,0,.45,0,0.71h-8.19A3.14,3.14,0,0,0,387.38,791.26Zm2.49-4.57c-0.17-1.67-1.14-3-2.83-3s-2.66,1.22-2.89,3h5.72Z" transform="translate(-13.17 -581.54)"/><path class="cls-3" d="M401.79,793.12v-1.39a4.48,4.48,0,0,1-3.61,1.63c-2.11,0-4-1.22-4-3.49v0c0-2.44,1.92-3.63,4.52-3.63a9.26,9.26,0,0,1,3.08.47v-0.28c0-1.56-1-2.42-2.74-2.42a7.67,7.67,0,0,0-3.19.71l-0.7-2.07a9.44,9.44,0,0,1,4.24-.94c3.29,0,4.9,1.75,4.9,4.77v6.69h-2.53Zm0.06-4.79a7.23,7.23,0,0,0-2.55-.45c-1.6,0-2.55.66-2.55,1.82v0c0,1.07.95,1.67,2.15,1.67,1.69,0,3-1,3-2.37v-0.71Z" transform="translate(-13.17 -581.54)"/><path class="cls-3" d="M414.64,781.84h2.68l-4.56,11.37h-2.3l-4.58-11.37h2.74l3,8.29Z" transform="translate(-13.17 -581.54)"/><path class="cls-3" d="M424,791.26a4,4,0,0,0,3-1.35l1.5,1.35a5.8,5.8,0,0,1-10.28-3.76c0-3.25,2.26-5.9,5.44-5.9,3.54,0,5.34,2.82,5.34,6.09,0,0.23,0,.45,0,0.71H420.8A3.14,3.14,0,0,0,424,791.26Zm2.49-4.57c-0.17-1.67-1.14-3-2.83-3s-2.66,1.22-2.89,3h5.72Z" transform="translate(-13.17 -581.54)"/><path class="cls-3" d="M441.75,793.34a7.76,7.76,0,0,1-4.73-1.69l1.14-1.75a6.2,6.2,0,0,0,3.65,1.39c1.1,0,1.73-.47,1.73-1.22v0c0-.88-1.18-1.18-2.49-1.58-1.65-.47-3.48-1.15-3.48-3.31v0c0-2.14,1.75-3.44,4-3.44a7.65,7.65,0,0,1,4.09,1.28l-1,1.84a6.41,6.41,0,0,0-3.14-1.07c-1,0-1.56.47-1.56,1.13v0c0,0.81,1.2,1.15,2.51,1.58,1.63,0.51,3.46,1.26,3.46,3.29v0C445.89,792.16,444.08,793.34,441.75,793.34Z" transform="translate(-13.17 -581.54)"/><path class="cls-3" d="M453.63,793.38a5.73,5.73,0,0,1-5.76-5.86,5.79,5.79,0,0,1,5.78-5.92,5.53,5.53,0,0,1,4.45,1.95l-1.58,1.73a3.73,3.73,0,0,0-2.89-1.41,3.38,3.38,0,0,0-3.21,3.61,3.42,3.42,0,0,0,3.33,3.66,3.9,3.9,0,0,0,2.89-1.41l1.54,1.54A5.61,5.61,0,0,1,453.63,793.38Z" transform="translate(-13.17 -581.54)"/><path class="cls-3" d="M463.09,793.12h-2.55V777.52h2.55v6.07a4,4,0,0,1,3.48-2c2.51,0,4,1.71,4,4.34v7.18H468v-6.41c0-1.75-.87-2.76-2.38-2.76a2.5,2.5,0,0,0-2.51,2.8v6.37Z" transform="translate(-13.17 -581.54)"/><path class="cls-3" d="M478.91,793.38a5.8,5.8,0,0,1-5.91-5.86A5.94,5.94,0,1,1,478.91,793.38Zm0-9.51a3.38,3.38,0,0,0-3.36,3.61,3.47,3.47,0,0,0,3.4,3.66,3.38,3.38,0,0,0,3.38-3.61A3.48,3.48,0,0,0,478.91,783.87Z" transform="translate(-13.17 -581.54)"/><path class="cls-3" d="M492.77,793.38a5.8,5.8,0,0,1-5.91-5.86A5.94,5.94,0,1,1,492.77,793.38Zm0-9.51a3.38,3.38,0,0,0-3.36,3.61,3.47,3.47,0,0,0,3.4,3.66,3.38,3.38,0,0,0,3.38-3.61A3.48,3.48,0,0,0,492.77,783.87Z" transform="translate(-13.17 -581.54)"/><path class="cls-3" d="M501.49,793.12V777.52H504v15.61h-2.55Z" transform="translate(-13.17 -581.54)"/></svg>