<?xml version="1.0" encoding="utf-8"?>
<!-- Generator: Adobe Illustrator 19.2.0, SVG Export Plug-In . SVG Version: 6.00 Build 0)  -->
<svg version="1.1" id="Layer_1" xmlns="http://www.w3.org/2000/svg" xmlns:xlink="http://www.w3.org/1999/xlink" x="0px" y="0px"
	 viewBox="0 0 537 472.4" style="enable-background:new 0 0 537 472.4;" xml:space="preserve">
<style type="text/css">
	.st0{fill:#E0E0E0;}
	.st1{fill:#4474B8;}
	.st2{fill:#231F20;}
</style>
<title>elizabeth-story</title>
<circle class="st0" cx="110" cy="110" r="110"/>
<path class="st1" d="M81.3,70.5h-5.9v-5.8H94v5.8h-5.9v14.6h-6.7V70.5z"/>
<path class="st1" d="M92.5,77.3L92.5,77.3c-0.2-4.5,3.2-8.2,7.6-8.4c0.1,0,0.3,0,0.4,0c5.6,0,8.2,3.9,8.2,8.8c0,0.3,0,0.8,0,1.1
	H98.7c0.4,1.3,1.6,2.2,3,2.1c1.2-0.1,2.4-0.7,3.2-1.6l3.5,2.8c-1.7,2.3-4.3,3.6-7.2,3.5C96,85.5,92.5,82.2,92.5,77.3z M102.8,75.8
	c-0.1-1.5-1-2.4-2.2-2.4s-1.9,0.9-2.1,2.4H102.8z"/>
<path class="st1" d="M109.7,77.3L109.7,77.3c-0.2-4.5,3.2-8.2,7.6-8.4c0.1,0,0.3,0,0.4,0c5.6,0,8.2,3.9,8.2,8.8c0,0.3,0,0.8,0,1.1
	h-10.1c0.4,1.3,1.6,2.2,3,2.1c1.2-0.1,2.4-0.7,3.2-1.6l3.5,2.8c-1.7,2.3-4.3,3.6-7.1,3.5C113.2,85.5,109.7,82.2,109.7,77.3z
	 M120,75.8c-0.1-1.5-1-2.4-2.2-2.4s-1.9,0.9-2.1,2.4H120z"/>
<path class="st1" d="M127.4,69.2h6.5v2.2c1.1-1.6,2.9-2.5,4.8-2.6c3.3,0,5.4,2.2,5.4,5.8v10.5h-6.5v-8.4c0.1-1-0.6-2-1.6-2.1
	c-0.1,0-0.1,0-0.2,0c-1.1,0.1-1.9,1-1.9,2.1c0,0,0,0,0,0v8.4h-6.5V69.2L127.4,69.2z"/>
<path class="st1" d="M32.4,88.8h9.1c5.3,0,9,2.4,9,7.2v0.1c0,4.9-3.7,7.5-9.1,7.5h-2.2v5.5h-6.7V88.8z M40.9,98.8
	c1.7,0,2.9-0.8,2.9-2.2v-0.1c0-1.5-1.1-2.2-2.8-2.2h-1.8v4.5L40.9,98.8L40.9,98.8z"/>
<path class="st1" d="M51.7,93.2h6.5v3.2c0.9-2.2,2.3-3.5,4.9-3.4v7h-0.7c-2.8,0-4.2,1.5-4.2,5.1v4h-6.5V93.2L51.7,93.2z"/>
<path class="st1" d="M63.6,101.3L63.6,101.3c-0.2-4.5,3.2-8.2,7.6-8.4c0.1,0,0.3,0,0.4,0c5.6,0,8.2,3.9,8.2,8.8c0,0.3,0,0.8,0,1.1
	H69.7c0.4,1.3,1.6,2.2,3,2.1c1.2-0.1,2.3-0.7,3.1-1.6l3.5,2.8c-1.7,2.3-4.3,3.6-7.2,3.5C67.1,109.5,63.6,106.2,63.6,101.3z
	 M73.9,99.8c-0.1-1.5-1-2.4-2.2-2.4s-1.9,0.9-2.1,2.4H73.9z"/>
<path class="st1" d="M80.9,111.9l2-4c1.7,1,3.7,1.5,5.7,1.5c2.4,0,3.7-1.3,3.7-3.5v-0.4c-1.1,1.4-2.8,2.2-4.5,2.2
	c-4.1,0-7-2.9-7-7.3v-0.1c0-4.5,3-7.4,6.6-7.4c1.8-0.1,3.6,0.7,4.8,2.1v-1.7h6.5v11.9c0,2.9-0.6,5-2,6.4s-3.6,2.3-7.1,2.3
	C86.6,113.9,83.6,113.3,80.9,111.9z M92.4,100.3L92.4,100.3c-0.1-1.5-1.4-2.6-2.8-2.5c-1.3,0.1-2.4,1.2-2.4,2.5v0.1
	c0.1,1.4,1.4,2.5,2.9,2.4C91.3,102.6,92.3,101.6,92.4,100.3L92.4,100.3z"/>
<path class="st1" d="M100.7,93.2h6.5v2.2c1.1-1.6,2.9-2.5,4.8-2.6c3.3,0,5.4,2.2,5.4,5.8v10.5h-6.6v-8.4c0.1-1-0.6-2-1.6-2.1
	c-0.1,0-0.1,0-0.2,0c-1.1,0.1-1.9,1-1.9,2.1c0,0,0,0,0,0v8.4h-6.5L100.7,93.2L100.7,93.2z"/>
<path class="st1" d="M118.6,104.6L118.6,104.6c0-3.2,2.3-5,6-5c1.3,0,2.5,0.2,3.7,0.6v-0.3c0-1.5-0.9-2.3-2.9-2.3
	c-1.5,0-3,0.3-4.3,0.9l-1.1-4.4c2.1-0.8,4.4-1.2,6.6-1.2c3.2,0,5.3,0.7,6.6,2.1c1.2,1.2,1.6,2.7,1.6,5v9h-6.5v-1.6
	c-1.1,1.3-2.8,2-4.5,2C120.7,109.5,118.6,107.8,118.6,104.6z M128.4,103.3v-0.7c-0.5-0.2-1-0.3-1.5-0.3c-1-0.1-1.9,0.6-2,1.6
	c0,0.1,0,0.1,0,0.2v0.1c0,0.8,0.6,1.5,1.4,1.5c0,0,0.1,0,0.1,0C127.5,105.7,128.4,104.8,128.4,103.3L128.4,103.3z"/>
<path class="st1" d="M136.6,93.2h6.5v2.2c1.1-1.6,2.9-2.5,4.8-2.6c3.3,0,5.4,2.2,5.4,5.8v10.5h-6.5v-8.4c0.1-1-0.6-2-1.6-2.1
	c-0.1,0-0.1,0-0.2,0c-1.1,0.1-1.9,1-1.9,2.1c0,0,0,0,0,0v8.4h-6.6V93.2L136.6,93.2z"/>
<path class="st1" d="M154.7,101.3L154.7,101.3c0-4.6,3.7-8.4,8.3-8.4c0.1,0,0.2,0,0.3,0c3-0.1,5.8,1.6,7.1,4.4l-4.7,2.7
	c-0.4-0.9-1.3-1.6-2.3-1.6c-1.4,0.1-2.5,1.3-2.4,2.7c0,0,0,0,0,0.1v0.1c0,1.7,1,2.8,2.3,2.8c1.1,0,2-0.6,2.4-1.6l4.7,2.7
	c-1.4,2.8-4.4,4.5-7.5,4.3c-4.5,0-8.2-3.6-8.3-8.1C154.7,101.4,154.7,101.3,154.7,101.3z"/>
<path class="st1" d="M170.4,112.2l1.9-4.5c0.9,0.5,1.9,0.9,2.9,1c0.4,0,0.7-0.1,1.1-0.2l-6.1-15.3h6.7l2.7,8.4l2.5-8.4h6.6
	l-5.4,14.8c-1.5,4.2-3.2,5.8-6.8,5.8C174.3,113.8,172.3,113.3,170.4,112.2z"/>
<path class="st2" d="M46.6,119.8v-2.1h2.3v2.1H46.6z M46.7,130.8v-9.5h2.2v9.5H46.7z"/>
<path class="st2" d="M54.8,130.9c-1.5,0-2.9-0.5-4-1.5l1-1.5c0.8,0.7,1.9,1.1,3,1.2c0.9,0,1.5-0.4,1.5-1l0,0c0-0.7-1-1-2.1-1.3
	c-1.4-0.4-2.9-1-2.9-2.8l0,0c0-1.8,1.5-2.9,3.3-2.9c1.2,0,2.4,0.4,3.4,1.1l-0.8,1.5c-0.8-0.5-1.7-0.8-2.7-0.9
	c-0.6-0.1-1.2,0.3-1.3,0.8c0,0.1,0,0.1,0,0.2l0,0c0,0.7,1,1,2.1,1.3c1.4,0.4,2.9,1.1,2.9,2.8l0,0C58.3,129.9,56.8,130.9,54.8,130.9z
	"/>
<path class="st2" d="M68.4,127.8c-0.1,0.5,0.2,1.1,0.8,1.2c0.1,0,0.3,0,0.4,0c0.5,0,0.9-0.1,1.3-0.3v1.8c-0.6,0.3-1.3,0.5-1.9,0.5
	c-1.6,0-2.7-0.7-2.7-2.8v-5h-1.2v-1.9h1.2v-2.6h2.2v2.6h2.5v1.9h-2.5V127.8L68.4,127.8z"/>
<path class="st2" d="M75.2,130.8h-2.2v-13.1h2.2v5.1c0.6-1,1.7-1.7,2.9-1.7c2.1,0,3.3,1.4,3.3,3.7v6h-2.1v-5.4c0-1.5-0.7-2.3-2-2.3
	c-1.2,0-2.1,0.9-2.1,2.1c0,0.1,0,0.2,0,0.3L75.2,130.8L75.2,130.8z"/>
<path class="st2" d="M88.5,129.2c1,0,1.9-0.4,2.5-1.1l1.3,1.1c-1.8,2.1-4.9,2.3-7,0.5c-2.1-1.8-2.3-4.9-0.5-7c0.9-1,2.1-1.6,3.4-1.7
	c3,0,4.5,2.4,4.5,5.1c0,0.2,0,0.4,0,0.6h-6.9C85.9,128.2,87.1,129.2,88.5,129.2z M90.6,125.3c0-1.3-1-2.5-2.4-2.5
	c-1.3,0.1-2.4,1.2-2.4,2.5H90.6z"/>
<path class="st2" d="M108.6,122.8l-0.5,3.1h1.8v1.9h-2.1l-0.5,2.9h-1.9l0.5-2.9H103l-0.5,2.9h-1.9l0.5-2.9h-1.6V126h1.9l0.5-3.1
	h-1.8V121h2.1l0.5-2.8h1.9l-0.5,2.8h2.9l0.5-2.8h1.9L109,121h1.6v1.9H108.6L108.6,122.8z M103.8,122.8l-0.5,3.1h2.9l0.5-3.1H103.8
	L103.8,122.8z"/>
<path class="st2" d="M115.1,118.1h1.5v12.7h-2.2v-10.4l-2.2,0.6l-0.5-1.8L115.1,118.1z"/>
<path class="st2" d="M129.3,131c-2.7,0-4.8-2.1-4.9-4.8c0,0,0-0.1,0-0.1c-0.1-2.7,2-4.9,4.7-5c0,0,0.1,0,0.1,0
	c1.4-0.1,2.8,0.5,3.8,1.6l-1.3,1.5c-0.6-0.7-1.5-1.2-2.4-1.2c-1.6,0.1-2.8,1.4-2.7,3c0,0,0,0,0,0c-0.1,1.6,1.1,3,2.7,3.1
	c0,0,0.1,0,0.1,0c0.9,0,1.8-0.5,2.4-1.2l1.3,1.3C132.2,130.3,130.8,131,129.3,131z"/>
<path class="st2" d="M140.8,130.8v-1.2c-0.7,0.9-1.8,1.4-3,1.4c-1.8,0-3.3-1-3.3-2.9l0,0c0-2,1.6-3.1,3.8-3.1c0.9,0,1.8,0.1,2.6,0.4
	v-0.2c0-1.3-0.8-2-2.3-2c-0.9,0-1.8,0.2-2.7,0.6l-0.6-1.8c1.1-0.5,2.3-0.8,3.6-0.8c2.8,0,4.1,1.5,4.1,4v5.6L140.8,130.8L140.8,130.8
	z M140.9,126.8c-0.7-0.3-1.4-0.4-2.1-0.4c-1.4,0-2.1,0.6-2.1,1.5l0,0c0.1,0.9,0.8,1.5,1.7,1.4c0,0,0.1,0,0.1,0c1.4,0,2.5-0.8,2.5-2
	L140.9,126.8L140.9,126.8z"/>
<path class="st2" d="M151.7,121.2h2.1v9.5h-2.1v-1.5c-0.6,1-1.7,1.7-2.9,1.7c-2.1,0-3.3-1.4-3.3-3.7v-6h2.1v5.4c0,1.5,0.7,2.3,2,2.3
	c1.2,0,2.1-0.9,2.1-2.1c0-0.1,0-0.2,0-0.3L151.7,121.2L151.7,121.2z"/>
<path class="st2" d="M159.8,130.9c-1.5,0-2.9-0.5-4-1.4l1-1.5c0.9,0.7,1.9,1.1,3.1,1.2c0.9,0,1.5-0.4,1.5-1l0,0c0-0.7-1-1-2.1-1.3
	c-1.4-0.4-2.9-1-2.9-2.8l0,0c0-1.8,1.5-2.9,3.3-2.9c1.2,0,2.4,0.4,3.4,1.1l-0.9,1.5c-0.8-0.5-1.7-0.8-2.6-0.9
	c-0.6-0.1-1.2,0.3-1.3,0.8c0,0.1,0,0.1,0,0.2l0,0c0,0.7,1,1,2.1,1.3c1.4,0.4,2.9,1.1,2.9,2.8l0,0
	C163.2,129.9,161.7,130.9,159.8,130.9z"/>
<path class="st2" d="M169.8,129.2c1,0,1.9-0.4,2.5-1.1l1.3,1.1c-1.8,2.1-4.9,2.3-7,0.5c-2.1-1.8-2.3-4.9-0.5-7
	c0.9-1,2.1-1.6,3.4-1.7c3,0,4.5,2.4,4.5,5.1c0,0.2,0,0.4,0,0.6h-6.9C167.2,128.1,168.4,129.2,169.8,129.2z M171.9,125.3
	c0-1.3-1-2.5-2.4-2.5c-1.3,0.1-2.4,1.2-2.4,2.5H171.9L171.9,125.3z"/>
<path class="st2" d="M30.4,152.6c-2.7,0.1-4.9-2.1-5-4.8c0-0.1,0-0.1,0-0.2c0-2.8,2.2-5,4.9-5.1c2.8,0,5,2.2,5.1,4.9
	S33.3,152.5,30.4,152.6C30.5,152.6,30.5,152.6,30.4,152.6z M30.4,144.6c-1.6,0-2.8,1.3-2.8,2.9c0,0,0,0.1,0,0.1
	c-0.1,1.6,1.1,3,2.8,3.1c0,0,0.1,0,0.1,0c1.6,0,2.8-1.3,2.8-2.9c0,0,0-0.1,0-0.1c0.1-1.6-1.1-3-2.8-3.1
	C30.5,144.6,30.5,144.6,30.4,144.6L30.4,144.6z"/>
<path class="st2" d="M42.8,142.9v1.8h-2.4v7.6h-2.2v-7.6H37v-1.8h1.2v-0.7c0-2.1,1-3.1,2.9-3.1c0.6,0,1.2,0.1,1.7,0.2v1.8
	c-0.4-0.1-0.8-0.2-1.3-0.2c-0.7,0-1.2,0.5-1.3,1.1c0,0.1,0,0.2,0,0.3v0.5L42.8,142.9L42.8,142.9z"/>
<path class="st2" d="M54.8,142.9v1.8h-2.5v7.6h-2.1v-7.6H49v-1.8h1.2v-0.7c0-2.1,1-3.1,2.9-3.1c0.6,0,1.2,0.1,1.7,0.2v1.8
	c-0.4-0.1-0.8-0.2-1.3-0.2c-0.7,0-1.2,0.5-1.3,1.1c0,0.1,0,0.2,0,0.3v0.5L54.8,142.9L54.8,142.9z"/>
<path class="st2" d="M60.5,150.8c1,0,1.9-0.4,2.5-1.1l1.3,1.1c-1.8,2.1-4.9,2.3-7,0.5c-2.1-1.8-2.3-4.9-0.5-7c0.9-1,2.1-1.6,3.4-1.7
	c3,0,4.5,2.4,4.5,5.1c0,0.2,0,0.4,0,0.6h-6.9C57.9,149.7,59.1,150.8,60.5,150.8z M62.6,146.9c0-1.3-1-2.4-2.4-2.5
	c-1.3,0.1-2.4,1.2-2.4,2.5L62.6,146.9L62.6,146.9z"/>
<path class="st2" d="M77.9,142.6c2,0,3.3,1.3,3.3,3.6v6.1H79V147c0-1.5-0.7-2.3-1.9-2.3s-2,0.8-2,2.4v5.4H73v-5.4
	c0-1.5-0.7-2.3-1.9-2.3s-2,0.9-2,2.4v5.3h-2.1v-9.5h2.2v1.4c0.6-1,1.7-1.6,2.9-1.6c1.2-0.1,2.3,0.6,2.8,1.7
	C75.4,143.3,76.6,142.6,77.9,142.6z"/>
<path class="st2" d="M89.5,152.4v-1.2c-0.7,0.9-1.8,1.4-3,1.4c-1.8,0-3.3-1-3.3-2.9l0,0c0-2,1.6-3.1,3.8-3.1c0.9,0,1.8,0.1,2.6,0.4
	v-0.2c0-1.3-0.8-2-2.3-2c-0.9,0-1.8,0.2-2.7,0.6l-0.6-1.9c1.1-0.5,2.3-0.8,3.6-0.8c2.8,0,4.1,1.5,4.1,4v5.6L89.5,152.4L89.5,152.4z
	 M89.6,148.4c-0.7-0.3-1.4-0.4-2.2-0.4c-1.3,0-2.2,0.6-2.2,1.5l0,0c0.1,0.9,0.8,1.5,1.7,1.4c0,0,0.1,0,0.1,0c1.4,0,2.5-0.8,2.5-2
	L89.6,148.4L89.6,148.4z"/>
<path class="st2" d="M94.3,152.4v-13.2h2.2v13.1L94.3,152.4L94.3,152.4z"/>
<path class="st2" d="M103.6,150.8c1,0,1.9-0.4,2.5-1.1l1.3,1.1c-1.8,2.1-4.9,2.3-7,0.5c-2.1-1.8-2.3-4.9-0.5-7
	c0.9-1,2.1-1.6,3.4-1.7c3,0,4.5,2.4,4.5,5.1c0,0.2,0,0.4,0,0.6h-6.9C101,149.8,102.2,150.8,103.6,150.8z M105.7,146.9
	c0-1.3-1-2.5-2.4-2.5c-1.3,0.1-2.4,1.2-2.4,2.5H105.7z"/>
<path class="st2" d="M122.4,152.4v-1.6c-0.7,1.1-1.9,1.8-3.2,1.8c-2.2,0-4.4-1.8-4.4-5s2.1-5,4.4-5c1.3,0,2.5,0.6,3.2,1.7v-5.1h2.1
	v13.1h-2.1V152.4z M119.7,144.5c-1.5,0-2.7,1.3-2.7,2.8c0,0.1,0,0.1,0,0.2c-0.1,1.5,1,2.9,2.5,3.1c0.1,0,0.1,0,0.2,0
	c1.7-0.2,2.9-1.7,2.8-3.4C122.4,145.8,121.2,144.7,119.7,144.5L119.7,144.5z"/>
<path class="st2" d="M129.4,152.4h-2.1v-9.5h2.1v2.1c0.5-1.4,1.8-2.4,3.3-2.3v2.3h-0.1c-1.9,0-3.2,1.2-3.2,3.8L129.4,152.4
	L129.4,152.4z"/>
<path class="st2" d="M138.7,152.6c-2.7,0.1-4.9-2.1-5-4.8c0-0.1,0-0.1,0-0.2c0-2.8,2.2-5,4.9-5.1c2.8,0,5,2.2,5.1,4.9
	S141.6,152.5,138.7,152.6C138.8,152.6,138.8,152.6,138.7,152.6z M138.7,144.6c-1.6,0-2.8,1.3-2.8,2.9c0,0,0,0.1,0,0.1
	c-0.1,1.6,1.1,3,2.8,3.1c0,0,0.1,0,0.1,0c1.6,0,2.8-1.3,2.8-2.9c0,0,0-0.1,0-0.1c0.1-1.6-1.1-3-2.8-3.1
	C138.8,144.6,138.8,144.6,138.7,144.6L138.7,144.6z"/>
<path class="st2" d="M151.3,152.6c-1.3,0-2.5-0.6-3.2-1.7v4.4h-2.1v-12.4h2.1v1.6c0.7-1.1,1.9-1.8,3.2-1.8c2.2,0,4.4,1.8,4.4,5
	S153.5,152.6,151.3,152.6z M150.8,144.6c-1.7,0.2-2.9,1.7-2.7,3.4c0.2,1.4,1.3,2.5,2.7,2.7c1.7-0.2,2.9-1.7,2.7-3.4
	C153.3,145.8,152.2,144.7,150.8,144.6L150.8,144.6z"/>
<path class="st2" d="M162.3,152.6c-2.7,0.1-4.9-2.1-5-4.8c0-0.1,0-0.1,0-0.2c0-2.8,2.2-5,4.9-5.1c2.8,0,5,2.2,5.1,4.9
	S165.1,152.5,162.3,152.6C162.3,152.6,162.3,152.6,162.3,152.6z M162.3,144.6c-1.6,0-2.8,1.3-2.8,2.9c0,0,0,0.1,0,0.1
	c-0.1,1.6,1.1,3,2.8,3.1c0,0,0.1,0,0.1,0c1.6,0,2.8-1.3,2.8-2.9c0,0,0-0.1,0-0.1c0.1-1.6-1.1-3-2.8-3.1
	C162.4,144.6,162.3,144.6,162.3,144.6L162.3,144.6z"/>
<path class="st2" d="M175.7,142.8h2.1v9.5h-2.1v-1.5c-0.6,1-1.7,1.7-2.9,1.7c-2.1,0-3.3-1.4-3.3-3.7v-6h2.1v5.4c0,1.5,0.7,2.3,2,2.3
	c1.2,0,2.1-0.9,2.1-2.1c0-0.1,0-0.2,0-0.3L175.7,142.8L175.7,142.8z"/>
<path class="st2" d="M183.1,149.4c-0.1,0.5,0.2,1.1,0.8,1.2c0.1,0,0.3,0,0.4,0c0.5,0,0.9-0.1,1.3-0.3v1.8c-0.6,0.3-1.3,0.5-1.9,0.5
	c-1.6,0-2.7-0.7-2.7-2.8v-5h-1.1v-1.9h1.2v-2.6h2.1v2.6h2.5v1.9h-2.5L183.1,149.4L183.1,149.4z"/>
<path class="st2" d="M191,152.5c-1.5,0-2.9-0.5-4-1.4l1-1.5c0.9,0.7,1.9,1.1,3.1,1.2c0.9,0,1.5-0.4,1.5-1l0,0c0-0.7-1-1-2.1-1.3
	c-1.4-0.4-2.9-1-2.9-2.8l0,0c0-1.8,1.5-2.9,3.3-2.9c1.2,0,2.4,0.4,3.4,1.1l-0.9,1.5c-0.8-0.5-1.7-0.8-2.6-0.9
	c-0.6-0.1-1.2,0.3-1.3,0.8c0,0.1,0,0.1,0,0.2l0,0c0,0.7,1,1,2.1,1.3c1.4,0.4,2.9,1.1,2.9,2.8l0,0C194.5,151.5,193,152.5,191,152.5z"
	/>
<circle class="st0" cx="227.8" cy="362.4" r="110"/>
<path class="st1" d="M192.8,327.9l-5.4,1.2l-2-8.3l9.9-2.7h8.4V352h-10.9V327.9z"/>
<path class="st1" d="M209.5,324.5h6.5v4.1h-6.5V324.5z M209.7,329.6h6.3v15.3h-6.3V329.6L209.7,329.6z"/>
<path class="st1" d="M217.8,329.7h6.3v2.1c1.1-1.5,2.8-2.4,4.6-2.5c3.2,0,5.2,2.1,5.2,5.6V345h-6.3v-8c0.1-1-0.5-1.9-1.5-2.1
	c-0.1,0-0.1,0-0.2,0c-1,0-1.8,0.9-1.8,1.9c0,0,0,0.1,0,0.1v8h-6.3V329.7z"/>
<path class="st1" d="M254.1,346.2h-16l-1.8-7.9l16.2-20.2h12.3v20.2h4v7.9h-4v5.8h-10.8V346.2L254.1,346.2z M254.1,338.4v-8.9
	l-7.1,9L254.1,338.4L254.1,338.4z"/>
<path class="st2" d="M163.2,374.1c-0.1,0.7,0.3,1.3,1,1.4c0.1,0,0.2,0,0.4,0c0.5,0,1.1-0.1,1.6-0.4v2.1c-0.7,0.4-1.5,0.6-2.3,0.6
	c-1.9,0-3.2-0.8-3.2-3.3v-5.9h-1.4v-2.2h1.4v-3.1h2.6v3.1h3v2.2h-3L163.2,374.1L163.2,374.1z"/>
<path class="st2" d="M173.6,375.8c1.1,0,2.2-0.5,3-1.3l1.5,1.3c-2.1,2.5-5.7,2.8-8.2,0.7c-1.3-1.1-2.1-2.7-2.1-4.5
	c0-3.2,2.3-5.9,5.4-5.9c3.5,0,5.3,2.8,5.3,6.1c0,0.2,0,0.5,0,0.7h-8.2C170.6,374.6,171.9,375.8,173.6,375.8z M176.1,371.2
	c-0.2-1.7-1.1-3-2.8-3s-2.7,1.2-2.9,3H176.1z"/>
<path class="st2" d="M186.3,375.8c1.1,0,2.2-0.5,3-1.3l1.5,1.3c-2,2.5-5.7,2.8-8.2,0.8c-1.4-1.1-2.1-2.8-2.1-4.6
	c0-3.2,2.3-5.9,5.4-5.9c3.5,0,5.3,2.8,5.3,6.1c0,0.2,0,0.5,0,0.7h-8.2C183.3,374.6,184.7,375.8,186.3,375.8z M188.8,371.2
	c-0.2-1.7-1.1-3-2.8-3s-2.7,1.2-2.9,3H188.8L188.8,371.2z"/>
<path class="st2" d="M196.5,377.7h-2.6v-11.3h2.6v1.8c0.7-1.2,2-2,3.5-2c2.5,0,4,1.7,4,4.3v7.2h-2.6v-6.4c0-1.8-0.9-2.8-2.4-2.8
	c-1.4,0-2.5,1.1-2.5,2.5c0,0.1,0,0.2,0,0.3L196.5,377.7L196.5,377.7z"/>
<path class="st2" d="M213.8,377.7v-1.4c-0.9,1.1-2.2,1.7-3.6,1.6c-2.1,0-4-1.2-4-3.5l0,0c0-2.4,1.9-3.6,4.5-3.6c1,0,2.1,0.1,3.1,0.5
	V371c0-1.6-1-2.4-2.7-2.4c-1.1,0-2.2,0.2-3.2,0.7l-0.7-2.1c1.3-0.6,2.8-1,4.2-0.9c3.3,0,4.9,1.8,4.9,4.8v6.7L213.8,377.7
	L213.8,377.7z M213.8,372.9c-0.8-0.3-1.7-0.5-2.6-0.5c-1.6,0-2.6,0.7-2.6,1.8l0,0c0,1.1,1,1.7,2.1,1.7c1.7,0,3-1,3-2.4L213.8,372.9
	L213.8,372.9z"/>
<path class="st2" d="M224.3,381.1c-1.8,0-3.5-0.4-5-1.3l0.9-2c1.2,0.8,2.6,1.2,4,1.2c2.3,0,3.5-1.2,3.5-3.5v-0.9
	c-0.9,1.3-2.3,2.1-3.9,2.1c-2.9-0.2-5.2-2.7-5-5.6c0.2-2.7,2.3-4.8,5-5c1.5,0,3,0.7,3.9,1.9v-1.7h2.6v9
	C230.3,379.3,228.2,381.1,224.3,381.1z M224.5,368.3c-1.7,0-3.1,1.4-3.1,3.1s1.4,3.1,3.1,3.1c1.7,0.1,3.2-1.2,3.3-2.9
	c0.1-1.7-1.2-3.2-2.9-3.3C224.8,368.3,224.7,368.3,224.5,368.3L224.5,368.3z"/>
<path class="st2" d="M238.7,375.8c1.1,0,2.2-0.5,3-1.3l1.5,1.3c-2,2.5-5.7,2.8-8.2,0.8c-1.4-1.1-2.1-2.8-2.1-4.6
	c0-3.2,2.3-5.9,5.4-5.9c3.5,0,5.3,2.8,5.3,6.1c0,0.2,0,0.5,0,0.7h-8.2C235.6,374.6,237,375.8,238.7,375.8z M241.2,371.2
	c-0.2-1.7-1.1-3-2.8-3s-2.7,1.2-2.9,3H241.2z"/>
<path class="st2" d="M257.5,381.1c-1.8,0-3.5-0.4-5-1.3l1-2c1.2,0.8,2.6,1.2,4,1.2c2.3,0,3.5-1.2,3.5-3.5v-0.9
	c-0.9,1.3-2.3,2.1-3.9,2.1c-2.9-0.2-5.2-2.7-5-5.6c0.2-2.7,2.3-4.8,5-5c1.5,0,3,0.7,3.9,1.9v-1.7h2.5v9
	C263.5,379.3,261.4,381.1,257.5,381.1z M257.8,368.3c-1.7,0-3.1,1.4-3.1,3.1s1.4,3.1,3.1,3.1c1.7,0.1,3.2-1.2,3.3-2.9
	c0.1-1.7-1.2-3.2-2.9-3.3C258,368.3,257.9,368.3,257.8,368.3L257.8,368.3z"/>
<path class="st2" d="M266.8,364.6v-2.5h2.7v2.5H266.8z M266.9,377.6v-11.3h2.5v11.3L266.9,377.6L266.9,377.6z"/>
<path class="st2" d="M275.3,377.7h-2.5v-11.3h2.5v2.5c0.6-1.7,2.2-2.8,4-2.8v2.7h-0.1c-2.2,0-3.8,1.5-3.8,4.5L275.3,377.7
	L275.3,377.7z"/>
<path class="st2" d="M281.6,377.7V362h2.5v15.6H281.6z"/>
<path class="st2" d="M291.3,377.9c-1.7,0-3.4-0.6-4.7-1.7l1.1-1.8c1,0.8,2.3,1.3,3.6,1.4c1.1,0,1.7-0.5,1.7-1.2l0,0
	c0-0.9-1.2-1.2-2.5-1.6c-1.6-0.5-3.5-1.2-3.5-3.3l0,0c0-2.1,1.8-3.4,4-3.4c1.5,0,2.9,0.5,4.1,1.3l-1,1.8c-0.9-0.6-2-1-3.1-1.1
	c-1,0-1.6,0.5-1.6,1.1l0,0c0,0.8,1.2,1.2,2.5,1.6c1.6,0.5,3.5,1.3,3.5,3.3l0,0C295.5,376.7,293.6,377.9,291.3,377.9z"/>
<path class="st2" d="M141.3,403.5c-1.5,0-2.9-0.7-3.8-2v1.8H135v-15.6h2.6v6.2c0.8-1.3,2.2-2.1,3.8-2.1c2.6,0,5.2,2.1,5.2,5.9
	S144,403.5,141.3,403.5z M140.7,394c-2,0.2-3.4,2.1-3.2,4.1c0.2,1.7,1.5,3,3.2,3.2c1.8,0,3.2-1.4,3.2-3.6c0.2-1.8-1.2-3.4-3-3.6
	C140.9,394,140.8,394,140.7,394z"/>
<path class="st2" d="M154.3,401.5c1.1,0,2.2-0.5,3-1.3l1.6,1.3c-2,2.5-5.7,2.8-8.2,0.8c-1.4-1.1-2.1-2.8-2.1-4.6
	c0-3.2,2.3-5.9,5.4-5.9c3.5,0,5.3,2.8,5.3,6.1c0,0.2,0,0.5,0,0.7h-8.2C151.3,400.2,152.6,401.5,154.3,401.5z M156.8,396.9
	c-0.2-1.7-1.1-3-2.8-3s-2.7,1.2-2.9,3H156.8z"/>
<path class="st2" d="M167,403.6c-3.2,0-5.7-2.5-5.8-5.7c0-0.1,0-0.1,0-0.2c-0.1-3.2,2.5-5.8,5.7-5.9c0,0,0.1,0,0.1,0
	c1.7-0.1,3.3,0.6,4.4,2l-1.6,1.7c-0.7-0.9-1.8-1.4-2.9-1.4c-1.9,0.1-3.3,1.7-3.2,3.5c0,0,0,0,0,0.1c-0.1,1.9,1.3,3.5,3.2,3.7
	c0.1,0,0.1,0,0.2,0c1.1,0,2.2-0.5,2.9-1.4l1.5,1.5C170.5,402.8,168.8,403.6,167,403.6z"/>
<path class="st2" d="M178.9,403.6c-3.2,0.1-5.8-2.5-5.9-5.7c0-0.1,0-0.1,0-0.2c0-3.3,2.6-6,5.9-6c3.3,0,6,2.6,6,5.9
	c0,3.3-2.6,6-5.9,6C179,403.6,178.9,403.6,178.9,403.6z M178.9,394c-1.9,0-3.4,1.5-3.4,3.4c0,0.1,0,0.2,0,0.2
	c-0.1,1.9,1.4,3.6,3.3,3.7c0,0,0.1,0,0.1,0c1.9,0,3.4-1.5,3.4-3.4c0-0.1,0-0.2,0-0.2c0.1-1.9-1.4-3.5-3.3-3.7
	C179,394.1,179,394.1,178.9,394L178.9,394z"/>
<path class="st2" d="M200.5,391.8c2.4,0,3.9,1.6,3.9,4.3v7.2h-2.6v-6.4c0-1.8-0.8-2.8-2.3-2.8s-2.4,1-2.4,2.8v6.4h-2.6v-6.4
	c0-1.8-0.8-2.7-2.3-2.7s-2.4,1.1-2.4,2.8v6.3h-2.6V392h2.6v1.7c0.7-1.2,2-1.9,3.4-2c1.4-0.1,2.7,0.7,3.3,2
	C197.6,392.5,199,391.8,200.5,391.8z"/>
<path class="st2" d="M212.7,401.5c1.1,0,2.2-0.5,3-1.3l1.5,1.3c-2,2.5-5.7,2.8-8.2,0.8c-1.4-1.1-2.1-2.8-2.1-4.6
	c0-3.2,2.3-5.9,5.4-5.9c3.5,0,5.3,2.8,5.3,6.1c0,0.2,0,0.5,0,0.7h-8.2C209.6,400.2,211,401.5,212.7,401.5z M215.2,396.9
	c-0.2-1.7-1.1-3-2.8-3s-2.7,1.2-2.9,3H215.2z"/>
<path class="st2" d="M232.9,403.5c-1.5,0-2.9-0.7-3.8-2v5.2h-2.6V392h2.6v1.9c0.8-1.3,2.2-2.1,3.8-2.1c2.6,0,5.2,2.1,5.2,5.9
	S235.6,403.5,232.9,403.5z M232.3,394c-2,0.2-3.4,2.1-3.2,4.1c0.2,1.7,1.5,3,3.2,3.2c1.8,0,3.2-1.4,3.2-3.6c0.2-1.8-1.2-3.4-3-3.6
	C232.5,394,232.4,394,232.3,394z"/>
<path class="st2" d="M243.3,403.3h-2.6V392h2.5v2.5c0.6-1.7,2.2-2.8,4-2.8v2.7h-0.1c-2.2,0-3.8,1.5-3.8,4.5V403.3L243.3,403.3z"/>
<path class="st2" d="M254.2,401.5c1.1,0,2.2-0.5,3-1.3l1.5,1.3c-2,2.5-5.7,2.8-8.2,0.8c-1.4-1.1-2.1-2.8-2.1-4.6
	c0-3.2,2.3-5.9,5.4-5.9c3.5,0,5.3,2.8,5.3,6.1c0,0.2,0,0.5,0,0.7H251C251.2,400.2,252.6,401.5,254.2,401.5z M256.7,396.9
	c-0.2-1.7-1.1-3-2.8-3s-2.7,1.2-2.9,3H256.7z"/>
<path class="st2" d="M266.8,406.8c-1.8,0-3.5-0.4-5-1.3l1-2c1.2,0.8,2.6,1.2,4,1.2c2.3,0,3.5-1.2,3.5-3.5v-0.9
	c-0.9,1.3-2.3,2.1-3.9,2.1c-2.9-0.2-5.2-2.7-5-5.6c0.2-2.7,2.3-4.8,5-5c1.5,0,3,0.7,3.9,1.9V392h2.5v9
	C272.8,405,270.6,406.8,266.8,406.8z M267,394c-1.7,0-3.1,1.4-3.1,3.1s1.4,3.1,3.1,3.1s3.1-1.4,3.1-3.1S268.7,394,267,394z"/>
<path class="st2" d="M278.5,403.3H276V392h2.5v1.8c0.7-1.2,2-2,3.5-2c2.5,0,4,1.7,4,4.3v7.2h-2.5v-6.4c0-1.8-0.9-2.8-2.4-2.8
	c-1.4,0-2.5,1.1-2.5,2.5c0,0.1,0,0.2,0,0.3L278.5,403.3L278.5,403.3z"/>
<path class="st2" d="M295.8,403.3v-1.4c-0.9,1.1-2.2,1.7-3.6,1.6c-2.1,0-4-1.2-4-3.5l0,0c0-2.4,1.9-3.6,4.5-3.6c1,0,2.1,0.1,3.1,0.5
	v-0.3c0-1.6-1-2.4-2.7-2.4c-1.1,0-2.2,0.2-3.2,0.7l-0.7-2.1c1.3-0.6,2.8-1,4.2-0.9c3.3,0,4.9,1.8,4.9,4.8v6.7L295.8,403.3
	L295.8,403.3z M295.9,398.5c-0.8-0.3-1.7-0.5-2.5-0.5c-1.6,0-2.5,0.7-2.5,1.8l0,0c0,1.1,1,1.7,2.1,1.7c1.7,0,3-1,3-2.4L295.9,398.5
	L295.9,398.5z"/>
<path class="st2" d="M304,403.3h-2.5V392h2.5v1.8c0.7-1.2,2-2,3.5-2c2.5,0,4,1.7,4,4.3v7.2h-2.6v-6.4c0-1.8-0.9-2.8-2.4-2.8
	c-1.4,0-2.5,1.1-2.5,2.5c0,0.1,0,0.2,0,0.3L304,403.3L304,403.3z"/>
<path class="st2" d="M317.6,399.8c-0.1,0.7,0.3,1.3,1,1.4c0.1,0,0.2,0,0.4,0c0.5,0,1.1-0.1,1.6-0.4v2.1c-0.7,0.4-1.5,0.6-2.3,0.6
	c-1.9,0-3.2-0.8-3.2-3.3v-5.9h-1.4V392h1.4v-3.1h2.5v3.1h3v2.2h-3L317.6,399.8L317.6,399.8z"/>
<circle class="st0" cx="427" cy="156" r="110"/>
<path class="st1" d="M389.7,110.2h-15.1v-9.3h27.2v8.5l-14.4,25.2h-12L389.7,110.2z"/>
<path class="st1" d="M402.8,117.9L402.8,117.9c0-9.4,6-17.7,16-17.7s16,8.2,16,17.5v0.1c0,9.3-6,17.6-16,17.6
	S402.8,127.2,402.8,117.9z M423.8,117.9L423.8,117.9c0-4.7-2-7.9-5-7.9s-4.9,3.1-4.9,7.7v0.1c0,4.6,2,7.8,5,7.8
	S423.7,122.5,423.8,117.9L423.8,117.9z"/>
<path class="st1" d="M437.3,109.9L437.3,109.9c0-5.2,3.5-9.5,9.1-9.5s9.1,4.3,9.1,9.4v0.1c0,5.2-3.7,9.4-9.1,9.4
	S437.3,115.1,437.3,109.9z M468.3,100.9h7.2l-27,33.7h-7.2L468.3,100.9z M448.8,109.9L448.8,109.9c0-2.1-1.1-3.4-2.5-3.4
	s-2.5,1.2-2.5,3.3v0.1c0,2,1.2,3.3,2.5,3.3S448.8,112,448.8,109.9L448.8,109.9z M461.3,125.7L461.3,125.7c0-5.2,3.5-9.5,9.1-9.5
	s9.1,4.3,9.1,9.4v0.1c0,5.2-3.7,9.4-9.1,9.4S461.2,130.9,461.3,125.7L461.3,125.7z M472.8,125.7L472.8,125.7c0-2.1-1.1-3.4-2.5-3.4
	s-2.5,1.2-2.5,3.3v0.1c0,2,1.2,3.3,2.5,3.3S472.8,127.8,472.8,125.7L472.8,125.7z"/>
<path class="st2" d="M350.8,160.5c-3.2,0.1-5.8-2.5-5.9-5.7c0-0.1,0-0.1,0-0.2c0-3.3,2.6-6,5.9-6s6,2.6,6,5.9c0,3.3-2.6,6-5.9,6
	C350.9,160.5,350.9,160.5,350.8,160.5z M350.8,151c-1.9,0-3.4,1.5-3.4,3.4c0,0.1,0,0.1,0,0.2c-0.1,1.9,1.4,3.6,3.3,3.7
	c0,0,0.1,0,0.1,0c1.9,0,3.4-1.5,3.4-3.4c0-0.1,0-0.2,0-0.2c0.1-1.9-1.4-3.6-3.3-3.7C350.9,151,350.9,151,350.8,151z"/>
<path class="st2" d="M365.5,149.1v2.1h-2.9v9.1H360v-9.1h-1.4v-2.2h1.4v-0.8c0-2.5,1.2-3.7,3.4-3.7c0.7,0,1.4,0.1,2.1,0.3v2.2
	c-0.5-0.2-1-0.3-1.5-0.3c-1,0-1.5,0.5-1.5,1.7v0.6H365.5L365.5,149.1z"/>
<path class="st2" d="M376.8,156.8c-0.1,0.7,0.3,1.3,1,1.4c0.1,0,0.2,0,0.4,0c0.5,0,1.1-0.1,1.6-0.4v2.1c-0.7,0.4-1.5,0.6-2.3,0.6
	c-1.9,0-3.2-0.8-3.2-3.3v-5.9h-1.4V149h1.4v-3.1h2.5v3.1h3v2.2h-3L376.8,156.8L376.8,156.8z"/>
<path class="st2" d="M387.2,158.5c1.1,0,2.2-0.5,3-1.3l1.5,1.3c-2,2.5-5.7,2.8-8.2,0.8c-1.4-1.1-2.1-2.8-2.1-4.6
	c0-3.2,2.3-5.9,5.4-5.9c3.5,0,5.3,2.8,5.3,6.1c0,0.2,0,0.5,0,0.7H384C384.1,157.2,385.5,158.5,387.2,158.5z M389.7,153.9
	c-0.2-1.7-1.1-3-2.8-3s-2.7,1.2-2.9,3H389.7z"/>
<path class="st2" d="M399.9,158.5c1.1,0,2.2-0.5,3-1.3l1.5,1.3c-2,2.5-5.7,2.8-8.2,0.8c-1.4-1.1-2.1-2.8-2.1-4.6
	c0-3.2,2.3-5.9,5.4-5.9c3.5,0,5.3,2.8,5.3,6.1c0,0.2,0,0.5,0,0.7h-8.2C396.9,157.2,398.3,158.5,399.9,158.5z M402.4,153.9
	c-0.2-1.7-1.1-3-2.8-3s-2.7,1.2-2.9,3H402.4z"/>
<path class="st2" d="M410.1,160.3h-2.5V149h2.5v1.8c0.7-1.2,2-2,3.5-2c2.5,0,4,1.7,4,4.3v7.2H415v-6.4c0-1.8-0.9-2.8-2.4-2.8
	c-1.4,0-2.5,1.1-2.5,2.5c0,0.1,0,0.2,0,0.3L410.1,160.3L410.1,160.3z"/>
<path class="st2" d="M427.4,160.3v-1.4c-0.9,1-2.2,1.6-3.6,1.6c-2.1,0-4-1.2-4-3.5l0,0c0-2.4,1.9-3.6,4.5-3.6c1,0,2.1,0.1,3.1,0.5
	v-0.3c0-1.6-1-2.4-2.7-2.4c-1.1,0-2.2,0.2-3.2,0.7l-0.7-2.1c1.3-0.6,2.8-1,4.2-0.9c3.3,0,4.9,1.8,4.9,4.8v6.7L427.4,160.3
	L427.4,160.3z M427.5,155.5c-0.8-0.3-1.7-0.5-2.5-0.5c-1.6,0-2.5,0.7-2.5,1.8l0,0c0,1.1,1,1.7,2.1,1.7c1.7,0,3-1,3-2.4L427.5,155.5
	L427.5,155.5z"/>
<path class="st2" d="M437.9,163.7c-1.8,0-3.5-0.4-5-1.3l1-2c1.2,0.8,2.6,1.2,4,1.2c2.3,0,3.5-1.2,3.5-3.5v-0.9
	c-0.9,1.3-2.3,2.1-3.9,2.1c-2.9-0.2-5.2-2.7-5-5.6c0.2-2.7,2.3-4.8,5-5c1.5,0,3,0.7,3.9,1.9V149h2.5v9
	C443.9,162,441.8,163.7,437.9,163.7z M438.1,150.9c-1.7,0-3.1,1.4-3.1,3.1s1.4,3.1,3.1,3.1l0,0c1.5,0.8,3.6-0.1,4.5-1.6
	s0.3-3.4-1.3-4.2C440.4,150.8,439.3,150.8,438.1,150.9L438.1,150.9z"/>
<path class="st2" d="M452.3,158.5c1.1,0,2.2-0.5,3-1.3l1.6,1.3c-2,2.5-5.7,2.8-8.2,0.8c-1.4-1.1-2.1-2.8-2.1-4.6
	c0-3.2,2.3-5.9,5.4-5.9c3.5,0,5.3,2.8,5.3,6.1c0,0.2,0,0.5,0,0.7h-8.2C449.3,157.2,450.6,158.5,452.3,158.5z M454.8,153.9
	c-0.2-1.7-1.1-3-2.8-3s-2.7,1.2-2.9,3H454.8z"/>
<path class="st2" d="M471.1,163.7c-1.8,0-3.5-0.4-5-1.3l1-2c1.2,0.8,2.6,1.2,4,1.2c2.3,0,3.5-1.2,3.5-3.5v-0.9
	c-0.9,1.3-2.3,2.1-3.9,2.1c-2.9-0.2-5.2-2.7-5-5.6c0.2-2.7,2.3-4.8,5-5c1.5,0,3,0.7,3.9,1.9V149h2.5v9
	C477.1,162,475,163.7,471.1,163.7z M471.4,150.9c-1.7,0-3.1,1.4-3.1,3.1s1.4,3.1,3.1,3.1l0,0c1.7,0,3.1-1.4,3.1-3.1
	C474.5,152.3,473.1,150.9,471.4,150.9L471.4,150.9z"/>
<path class="st2" d="M480.4,147.2v-2.5h2.7v2.5H480.4z M480.5,160.2V149h2.5v11.3L480.5,160.2L480.5,160.2z"/>
<path class="st2" d="M488.9,160.3h-2.5V149h2.5v2.5c0.6-1.7,2.2-2.8,4-2.8v2.7h-0.1c-2.2,0-3.8,1.5-3.8,4.5L488.9,160.3L488.9,160.3
	z"/>
<path class="st2" d="M495.2,160.3v-15.6h2.6v15.6L495.2,160.3L495.2,160.3z"/>
<path class="st2" d="M504.9,160.5c-1.7,0-3.4-0.6-4.7-1.7l1.1-1.8c1,0.8,2.3,1.3,3.7,1.4c1.1,0,1.7-0.5,1.7-1.2l0,0
	c0-0.9-1.2-1.2-2.5-1.6c-1.7-0.5-3.5-1.2-3.5-3.3l0,0c0-2.1,1.8-3.4,4-3.4c1.5,0,2.9,0.5,4.1,1.3l-1,1.8c-0.9-0.6-2-1-3.1-1.1
	c-1,0-1.6,0.5-1.6,1.1l0,0c0,0.8,1.2,1.2,2.5,1.6c1.6,0.5,3.5,1.3,3.5,3.3l0,0C509.1,159.3,507.3,160.5,504.9,160.5z"/>
<path class="st2" d="M363.1,182.4l2.3-7.7h2.5l-3.6,11.4H362l-2.5-7.7L357,186h-2.3l-3.6-11.4h2.6l2.2,7.7l2.5-7.8h2.2L363.1,182.4z
	"/>
<path class="st2" d="M372.7,185.9h-2.5v-15.6h2.5v6.1c0.7-1.2,2-2,3.5-2c2.5,0,4,1.7,4,4.3v7.2h-2.5v-6.4c0-1.8-0.9-2.8-2.4-2.8
	c-1.4,0-2.5,1.1-2.5,2.5c0,0.1,0,0.2,0,0.3L372.7,185.9L372.7,185.9z"/>
<path class="st2" d="M388.5,186.2c-3.2,0.1-5.8-2.5-5.9-5.7c0-0.1,0-0.1,0-0.2c0-3.3,2.6-6,5.9-6s6,2.6,6,5.9c0,3.3-2.6,6-5.9,6
	C388.6,186.2,388.6,186.2,388.5,186.2z M388.5,176.7c-1.9,0-3.4,1.5-3.4,3.4c0,0.1,0,0.1,0,0.2c-0.1,1.9,1.4,3.6,3.3,3.7
	c0,0,0.1,0,0.1,0c1.9,0,3.4-1.5,3.4-3.4c0-0.1,0-0.2,0-0.2c0.1-1.9-1.4-3.6-3.3-3.7C388.6,176.7,388.6,176.7,388.5,176.7
	L388.5,176.7z"/>
<path class="st2" d="M408.4,189.4c-1.8,0-3.5-0.4-5-1.3l1-2c1.2,0.8,2.6,1.2,4,1.2c2.3,0,3.5-1.2,3.5-3.5V183
	c-0.9,1.3-2.3,2.1-3.9,2.1c-2.9-0.2-5.2-2.7-5-5.6c0.2-2.7,2.3-4.8,5-5c1.5,0,3,0.7,3.9,1.9v-1.7h2.5v9
	C414.4,187.6,412.2,189.4,408.4,189.4z M408.6,176.6c-1.7,0-3.1,1.4-3.1,3.1s1.4,3.1,3.1,3.1l0,0c1.7,0,3.1-1.4,3.1-3.1
	C411.7,178,410.3,176.6,408.6,176.6L408.6,176.6z"/>
<path class="st2" d="M417.6,172.9v-2.5h2.7v2.5L417.6,172.9L417.6,172.9z M417.7,185.9v-11.3h2.5v11.3L417.7,185.9L417.7,185.9z"/>
<path class="st2" d="M431.3,174.6h2.7l-4.6,11.4h-2.3l-4.6-11.4h2.7l3,8.3L431.3,174.6z"/>
<path class="st2" d="M440.7,184.1c1.1,0,2.2-0.5,3-1.3l1.5,1.3c-2,2.5-5.7,2.8-8.2,0.8c-1.4-1.1-2.1-2.8-2.1-4.6
	c0-3.2,2.3-5.9,5.4-5.9c3.5,0,5.3,2.8,5.3,6.1c0,0.2,0,0.5,0,0.7h-8.2C437.6,182.9,439,184.1,440.7,184.1z M443.2,179.5
	c-0.2-1.7-1.1-3-2.8-3s-2.7,1.2-2.9,3H443.2z"/>
<path class="st2" d="M460.9,186.2c-1.5,0-2.9-0.7-3.8-2v1.8h-2.5v-15.6h2.5v6.2c0.8-1.3,2.2-2.1,3.8-2.1c2.6,0,5.2,2.1,5.2,5.9
	S463.6,186.2,460.9,186.2z M460.3,176.7c-2,0.2-3.4,2.1-3.2,4.1c0.2,1.7,1.5,3,3.2,3.2c1.8,0,3.2-1.4,3.2-3.6c0.2-1.8-1.2-3.4-3-3.6
	C460.5,176.7,460.4,176.7,460.3,176.7z"/>
<path class="st2" d="M468.8,172.9v-2.5h2.7v2.5L468.8,172.9L468.8,172.9z M468.9,185.9v-11.3h2.5v11.3L468.9,185.9L468.9,185.9z"/>
<path class="st2" d="M477.3,185.9h-2.5v-11.3h2.5v2.5c0.6-1.7,2.2-2.8,4-2.8v2.7h-0.1c-2.2,0-3.8,1.5-3.8,4.5L477.3,185.9
	L477.3,185.9z"/>
<path class="st2" d="M486.6,182.4c-0.1,0.7,0.3,1.3,1,1.4c0.1,0,0.2,0,0.4,0c0.5,0,1.1-0.1,1.6-0.4v2.1c-0.7,0.4-1.5,0.6-2.3,0.6
	c-1.9,0-3.2-0.8-3.2-3.3v-6h-1.4v-2.2h1.4v-3.1h2.5v3.1h3v2.2h-3L486.6,182.4L486.6,182.4z"/>
<path class="st2" d="M494.7,185.9h-2.5v-15.6h2.5v6.1c0.7-1.2,2-2,3.5-2c2.5,0,4,1.7,4,4.3v7.2h-2.5v-6.4c0-1.8-0.9-2.8-2.4-2.8
	c-1.4,0-2.5,1.1-2.5,2.5c0,0.1,0,0.2,0,0.3L494.7,185.9L494.7,185.9z"/>
<path class="st2" d="M363.2,211.6V196h2.5v15.6L363.2,211.6L363.2,211.6z"/>
<path class="st2" d="M374.2,209.7c1.1,0,2.2-0.5,3-1.3l1.5,1.3c-2,2.5-5.7,2.8-8.2,0.8c-1.4-1.1-2.1-2.8-2.1-4.6
	c0-3.2,2.3-5.9,5.4-5.9c3.5,0,5.3,2.8,5.3,6.1c0,0.2,0,0.5,0,0.7H371C371.2,208.5,372.6,209.8,374.2,209.7z M376.7,205.2
	c-0.2-1.7-1.1-3-2.8-3s-2.7,1.2-2.9,3H376.7z"/>
<path class="st2" d="M388.6,211.6v-1.4c-0.9,1.1-2.2,1.7-3.6,1.6c-2.1,0-4-1.2-4-3.5l0,0c0-2.4,1.9-3.6,4.5-3.6c1,0,2.1,0.1,3.1,0.5
	v-0.3c0-1.6-1-2.4-2.7-2.4c-1.1,0-2.2,0.2-3.2,0.7l-0.7-2.1c1.3-0.6,2.8-1,4.2-0.9c3.3,0,4.9,1.8,4.9,4.8v6.7L388.6,211.6
	L388.6,211.6z M388.7,206.8c-0.8-0.3-1.7-0.5-2.5-0.5c-1.6,0-2.5,0.7-2.5,1.8l0,0c0,1.1,1,1.7,2.1,1.7c1.7,0,3-1,3-2.4L388.7,206.8
	L388.7,206.8z"/>
<path class="st2" d="M401.5,200.3h2.7l-4.6,11.4h-2.3l-4.6-11.4h2.7l3,8.3L401.5,200.3z"/>
<path class="st2" d="M410.8,209.7c1.1,0,2.2-0.5,3-1.3l1.5,1.3c-2,2.5-5.7,2.8-8.2,0.8c-1.4-1.1-2.1-2.8-2.1-4.6
	c0-3.2,2.3-5.9,5.4-5.9c3.5,0,5.3,2.8,5.3,6.1c0,0.2,0,0.5,0,0.7h-8.2C407.8,208.5,409.2,209.8,410.8,209.7z M413.3,205.2
	c-0.2-1.7-1.1-3-2.8-3s-2.7,1.2-2.9,3H413.3z"/>
<path class="st2" d="M428.6,211.8c-1.7,0-3.4-0.6-4.7-1.7l1.1-1.8c1,0.8,2.3,1.3,3.6,1.4c1.1,0,1.7-0.5,1.7-1.2l0,0
	c0-0.9-1.2-1.2-2.5-1.6c-1.6-0.5-3.5-1.2-3.5-3.3l0,0c0-2.1,1.8-3.4,4-3.4c1.5,0,2.9,0.5,4.1,1.3l-1,1.8c-0.9-0.6-2-1-3.1-1.1
	c-1,0-1.6,0.5-1.6,1.1l0,0c0,0.8,1.2,1.2,2.5,1.6c1.6,0.5,3.5,1.3,3.5,3.3l0,0C432.7,210.6,430.9,211.8,428.6,211.8z"/>
<path class="st2" d="M440.5,211.8c-3.2,0-5.7-2.5-5.8-5.7c0-0.1,0-0.1,0-0.2c-0.1-3.2,2.5-5.8,5.7-5.9c0,0,0.1,0,0.1,0
	c1.7-0.1,3.3,0.6,4.5,2l-1.6,1.7c-0.7-0.9-1.8-1.4-2.9-1.4c-1.9,0.1-3.3,1.7-3.2,3.5c0,0,0,0,0,0.1c-0.1,1.9,1.3,3.5,3.2,3.7
	c0.1,0,0.1,0,0.2,0c1.1,0,2.2-0.5,2.9-1.4l1.5,1.5C443.9,211.1,442.2,211.9,440.5,211.8z"/>
<path class="st2" d="M449.9,211.6h-2.5V196h2.5v6.1c0.7-1.2,2-2,3.5-2c2.5,0,4,1.7,4,4.3v7.2h-2.6v-6.4c0-1.8-0.9-2.8-2.4-2.8
	c-1.4,0-2.5,1.1-2.5,2.5c0,0.1,0,0.2,0,0.3L449.9,211.6L449.9,211.6z"/>
<path class="st2" d="M465.7,211.8c-3.2,0.1-5.8-2.5-5.9-5.7c0-0.1,0-0.1,0-0.2c0-3.3,2.6-6,5.9-6s6,2.6,6,5.9c0,3.3-2.6,6-5.9,6
	C465.8,211.8,465.8,211.8,465.7,211.8z M465.7,202.3c-1.9,0-3.4,1.5-3.4,3.4c0,0.1,0,0.1,0,0.2c-0.1,1.9,1.4,3.6,3.3,3.7
	c0,0,0.1,0,0.1,0c1.9,0,3.4-1.5,3.4-3.4c0-0.1,0-0.2,0-0.2c0.1-1.9-1.4-3.6-3.3-3.7C465.8,202.3,465.8,202.3,465.7,202.3z"/>
<path class="st2" d="M479.6,211.8c-3.2,0.1-5.8-2.5-5.9-5.7c0-0.1,0-0.1,0-0.2c0-3.3,2.6-6,5.9-6s6,2.6,6,5.9c0,3.3-2.6,6-5.9,6
	C479.7,211.8,479.6,211.8,479.6,211.8z M479.6,202.3c-1.9,0-3.4,1.5-3.4,3.4c0,0.1,0,0.1,0,0.2c-0.1,1.9,1.4,3.6,3.3,3.7
	c0,0,0.1,0,0.1,0c1.9,0,3.4-1.5,3.4-3.4c0-0.1,0-0.2,0-0.2c0.1-1.9-1.4-3.6-3.3-3.7C479.7,202.3,479.6,202.3,479.6,202.3z"/>
<path class="st2" d="M488.3,211.6V196h2.5v15.6L488.3,211.6L488.3,211.6z"/>
<g>
	<path d="M199.7,138.7L199.7,138.7l-1.5,0.8l-0.2-0.9l1.9-1h1v8.7h-1.1V138.7z"/>
</g>
<g>
	<path d="M324.5,388.6L324.5,388.6l-1.5,0.8l-0.2-0.9l1.9-1h1v8.7h-1.1V388.6z"/>
</g>
<g>
	<path d="M498.1,196.7L498.1,196.7l-1.5,0.8l-0.2-0.9l1.9-1h1v8.7h-1.1V196.7z"/>
</g>
</svg>
