<?xml version="1.0" encoding="utf-8"?>
<!-- Generator: Adobe Illustrator 19.2.0, SVG Export Plug-In . SVG Version: 6.00 Build 0)  -->
<svg version="1.1" id="Layer_1" xmlns="http://www.w3.org/2000/svg" xmlns:xlink="http://www.w3.org/1999/xlink" x="0px" y="0px"
	 viewBox="0 0 1864 634" style="enable-background:new 0 0 1864 634;" xml:space="preserve">
<style type="text/css">
	.st0{fill:#FFFFFF;}
</style>
<g id="Layer_2">
</g>
<g>
	<g>
		<g>
			<path class="st0" d="M874.6,558.5c0-9.7,0.6-18.9-0.2-27.9c-1-11.6,2.6-21,9.1-30.6c35.9-53.4,71.3-107.2,106.7-160.9
				c1.7-2.5,3.4-3.6,6.6-3.6c27,0.1,54,0.1,81,0.1c1.4,0,2.8,0,4.7,0c0,57.3,0,114.3,0,171.6c12.6,0,24.7,0,37.2,0
				c0,17.2,0,34,0,51.3c-5.5,0-11.1,0-16.6,0c-5.6,0-11.2,0.1-16.8-0.1c-2.9-0.1-3.8,0.8-3.7,3.7c0.1,20.4,0.1,40.8,0.1,61.2
				c0,1.6,0,3.1,0,4.9c-23,0-45.7,0-69,0c0-1.5,0-3,0-4.6c0-20.3-0.1-40.5,0.1-60.8c0-3.6-1-4.6-4.6-4.6
				c-43.1,0.1-86.2,0.1-129.4,0.1C878.3,558.5,876.8,558.5,874.6,558.5z M1014.8,386.6c-11.8,21-22.6,41.6-34.6,61.4
				c-12,19.9-25.2,39.1-38,59c24.3,0,47.7,0,71.1,0C1013.7,467.1,1014.2,427.5,1014.8,386.6z"/>
			<path class="st0" d="M1682.1,405.4c7.2,0.4,14.6,1.5,21.7,1c10.5-0.7,21.2-1.7,31.5-4.1c20.5-4.7,38,2,54.7,12.8
				c0.9,0.6,1.6,1.3,2.4,2c9,8.5,7.5,18.7-3.7,24.1c-8.7,4.2-18.1,4.9-27.6,5.9c-17,1.7-34.1,3.2-51,5.6c-5.7,0.8-11.2,3.9-16.3,6.8
				c-5.4,3-8.4,8.2-9.6,14.4c-1.2,6.3,0.5,10.7,6.7,12.6c6.6,2,13.6,3,20.5,4.1c12.3,1.8,23.1-2.2,33.5-8.5c6-3.6,12.7-6.2,19.4-8.5
				c5.6-1.9,11,0,15.8,3.2c14,9.2,23.8,36,19,52c-0.5,1.8-1.4,3.6-2.2,5.4c-1.9,4-5,5.8-9.4,5.1c-4-0.6-8-0.8-11.9-1.9
				c-10.5-2.9-21.2-3.7-32-2.8c-13.3,1-26.6,2.5-39.9,3.8c-1.2,0.1-2.3,0.5-3.4,0.8c-11,2.2-9.6,8.8-4.5,15.5
				c4.3,5.8,11.3,6.5,17.9,6.9c10.8,0.7,21-2.5,31.4-4.8c5.8-1.3,11.6-2.5,17.5-3.4c6-0.9,11.8-0.2,17.4,2.7
				c9.3,4.9,17.6,11.1,24.7,18.7c7.3,7.8,8.3,14.7,3.8,24.2c-3.4,7-8.1,13-14.9,17.1c-1.2,0.7-3.5,0.9-4.8,0.3
				c-16.1-7.3-33.1-10.8-50.5-11.7c-20.3-1.1-40.7-1.2-61.1-1.2c-4.2,0-8.5,1.8-12.6,3.4c-11.4,4.4-21.9,0.4-26.9-10.9
				c-3.9-8.8-4.4-18.1-3.4-27.5c2.3-21.4,4.5-42.8,7.1-64.2c2.2-18.5,0.7-36.6-4.6-54.5c-1.9-6.6-2.5-13.8-2.4-20.7
				c0.2-9.7,6.4-15.8,15-19.5c7.8-3.3,16-4.1,24.3-4.3c2.7-0.1,5.5,0,8.2,0C1682.1,405.4,1682.1,405.4,1682.1,405.4z"/>
			<path class="st0" d="M750.1,262.3c-35.2-13.2-70.4-26.4-106.6-40c38.6,1.5,76,2.9,113.5,4.3c0.2-0.4,0.3-0.7,0.5-1
				c-30.4-21.2-60.7-42.5-91.1-63.7c0.1-0.3,0.3-0.5,0.4-0.8c35.5,10.6,71,21.1,106.5,31.7c0.2-0.3,0.4-0.6,0.6-0.9
				c-24.2-28.2-48.3-56.3-72.5-84.5c0.2-0.2,0.3-0.4,0.5-0.7c31.7,19,63.5,38.1,95.2,57.1c0.3-0.3,0.6-0.6,0.9-0.8
				c-16.4-33.3-32.8-66.5-49.2-99.8c0.2-0.2,0.4-0.3,0.5-0.5c26.2,26.5,52.3,53,78.5,79.5c0.3-0.1,0.6-0.3,1-0.4
				c-7.6-36.3-15.2-72.6-22.8-108.8c0.3-0.1,0.5-0.2,0.8-0.3c18.7,32.1,37.4,64.2,55.9,96c-9.1,3.7-18.2,6.7-26.7,11
				c-40.9,21.3-65.6,54.7-72.9,100.4c-1.3,8.3-1.2,16.8-1.5,25.2c0,1.2,1.4,3.1,2.6,3.4c48.3,14.4,93.2,36.7,138.2,58.8
				c6.4,3.1,9.3,9.2,7.7,15.3c-1.6,6.1-7.1,10.3-13.2,9.8c-2.2-0.2-4.5-1.1-6.6-2c-30.9-14.1-61.4-29-92.6-42.3
				c-31.3-13.4-64-22.1-97.6-28c-41.4-7.2-82-3-121.3,11.4c-28.3,10.4-55.9,22.6-83.8,34.1c-21.8,9-43.8,17.5-66.7,23.1
				c-1.4,0.4-3.1,0.5-4.5,0c-15.1-5.5-30.1-11.2-45.1-16.9c-0.2-0.1-0.4-0.3-0.8-0.7c42.8-3.8,82.1-18.8,120.9-35.7
				c28.1-12.2,56.2-24.7,85.7-33.4c28.8-8.5,58.2-12.6,88.3-11.2c24,1.1,47.5,6,70.7,11.8c2,0.5,4.1,0.5,6.2,0.8
				C749.8,263.2,749.9,262.8,750.1,262.3z"/>
			<path class="st0" d="M937.1,129.9c2.3-3.4,4.8-6.7,7-10.2c17-27.8,33.9-55.6,50.8-83.4c0.5-0.8,1-1.5,2.1-2
				c-8.4,36.2-16.7,72.5-25,108.7c0.3,0.2,0.6,0.4,0.9,0.6c26.8-26.1,53.6-52.2,80.5-78.4c0.2,0.1,0.3,0.2,0.5,0.3
				c-17.2,33.2-34.3,66.4-51.5,99.5c0.3,0.3,0.5,0.5,0.7,0.8c32.5-18.6,64.9-37.2,97.4-55.8c0.1,0.1,0.2,0.3,0.3,0.4
				c-24.9,27.9-49.9,55.8-74.8,83.7c0.2,0.3,0.4,0.6,0.5,1c35.7-9.8,71.3-19.7,107-29.5c0.1,0.3,0.3,0.6,0.4,0.8
				c-30.7,20.6-61.5,41.2-92.2,61.8c0.1,0.3,0.2,0.7,0.2,1c37.3-0.7,74.5-1.3,111.8-2c0.1,0.2,0.1,0.4,0.2,0.6c-34,12-68,24-102,36
				c0.1,0.3,0.1,0.5,0.2,0.8c5.6-0.9,11.1-1.9,16.7-2.6c17.1-2.3,34.2-3.1,51.6-1.5c43,4,82.9,18.6,122.1,35.5
				c24.5,10.6,49.1,21,74.1,30.3c20.4,7.6,41.9,11.6,63.6,14c14.7,1.6,29.4,2.6,43.8,3.9c-0.5,0.3-1.5,0.9-2.6,1.5
				c-10.1,5.4-20.3,10.4-30.1,16.2c-6.5,3.9-12.8,5-20.3,3.8c-30.3-4.8-59.9-11.8-88.3-23.8c-23.7-10-47.3-20.5-71.1-30.5
				c-26-10.9-52.8-19.2-80.7-23.5c-23.6-3.7-47-2.7-70.4,1.8c-40.1,7.7-78.4,21-115.8,37.2c-6.5,2.8-12.7,1.6-16.6-3.2
				c-3.5-4.3-4-11.1-0.6-15.6c1.6-2.1,3.9-3.9,6.3-5c30.5-13.5,61.8-24.7,94.1-32.9c3.4-0.9,4.5-2.1,4.6-5.7
				c1.3-39.8-12.1-73.8-40.2-101.9c-14.6-14.6-32-25-51.7-31.6C939.5,131,938.3,130.3,937.1,129.9L937.1,129.9z"/>
			<path class="st0" d="M235.9,425c14.3,2.1,30.1,0.4,46-3.1c18.8-4.1,35.1,2.6,49.2,14.4c7.8,6.4,6.2,15.5-2.7,20.4
				c-8.5,4.7-18.1,5.1-27.5,6.1c-14.8,1.5-29.7,2.8-44.4,4.8c-7.1,1-13.6,4.1-18.7,9.6c-3.4,3.8-4.9,8.2-4.9,13.2
				c0,3.7,2.2,6.2,5.4,7.4c4.4,1.5,8.9,2.7,13.5,3.5c12.7,2.1,24.7,0.8,35.6-6.8c4.3-3,9.3-5.2,14.2-7.1c7.8-2.9,15.4-1.6,21.2,4.5
				c11.6,12.4,17.5,26.9,14.1,44.1c-1.7,8.4-4.9,10.3-13.5,9.5c-2.1-0.2-4.2-0.4-6.1-1c-16.1-4.8-32.4-3.1-48.7-1.7
				c-6.8,0.6-13.7,1.4-20.4,2.8c-2.8,0.6-6.8,2.4-7.4,4.5c-1.3,4,0.5,8.7,4.3,10.8c4.2,2.3,9,4,13.7,4.6c9.9,1.2,19.5-1.9,29.1-4
				c6.1-1.3,12.2-3.1,18.3-3.2c4.7-0.1,10.2,0.8,14,3.2c7.7,4.8,15,10.6,21.8,16.7c6.5,5.8,7.2,13.2,3.4,20.9
				c-3.2,6.5-7.5,12.1-13.8,15.9c-1,0.6-2.8,0.8-3.8,0.3c-17.5-8-36.2-10.6-55.2-11.5c-13.6-0.6-27.3-0.2-40.9-0.5
				c-5.7-0.1-11.1,0.6-16.1,3.3c-10.1,5.3-19.9-1.3-23.6-8.5c-4.5-8.9-4.5-18.3-3.6-27.8c2-19.5,4.1-38.9,6.6-58.3
				c2.1-16.6-0.2-32.5-4.8-48.3c-1.3-4.3-1.9-8.9-2-13.4c-0.4-10.9,4.8-18,15.2-21.9C213.3,424.7,223.6,424.9,235.9,425z"/>
			<path class="st0" d="M622.8,527.1c8.9,5.1,17.4,9.9,25.7,14.9c8.6,5.2,15.6,11.9,20.5,20.8c1.2,2.2,1.5,3.9,0.2,6.4
				c-3.4,6.3-4.3,13.3-4,20.4c0.2,4.3-1.9,7.2-4.2,10.1c-0.7,0.9-3.6,1.1-4.8,0.4c-7.5-4.1-15.1-8-22.1-12.8
				c-11.7-8.2-22.6-17.4-34.3-25.6c-4.8-3.4-10.4-5.9-15.9-7.9c-10.7-3.8-17.6,0.8-18.5,12.2c-0.6,7.9-0.6,15.8-0.7,23.7
				c-0.1,9.1-4.4,13.4-13.4,14.2c-7.1,0.6-11.9-1.8-15.8-7.9c-8-12.4-10.2-26-8.7-40.2c1.8-16.5,4.4-32.9,6.1-49.4
				c1.8-16.3-0.4-31.6-10.9-45.3c-2.3-3-2-8.7-1.5-13c1.2-11.4,8.1-19.4,17.4-25.4c14.8-9.6,31.4-14.6,48.8-16.6
				c14.3-1.7,28.5-1.6,42.3,3.1c11.9,4,22.6,10.1,30.5,20c11.1,14,12,29.8,5.8,45.9c-8.1,21.1-21.4,38.4-40.5,50.9
				C624.3,526.2,623.7,526.5,622.8,527.1z M589.8,488.8c-5.5,0.5-9.9,0.6-14.2,1.4c-4.6,0.8-7.5,4-6.9,8c0.7,5.1,1.9,10.1,3.3,15.1
				c0.9,3.2,3.4,4.6,6.9,4.2c12.5-1.4,22-8,29.9-17.2c3.4-4,2.1-7.8-3.1-9.1C600.1,489.8,594.4,489.4,589.8,488.8z"/>
			<path class="st0" d="M516,556.1c-9.5,7.6-6.7,17.3-5,26.9c0.8,4.3,1.7,8.7,1.9,13.1c0.3,5.9-2.9,8.6-8.8,7.6
				c-1.8-0.3-3.6-0.5-5.3-1.1c-1.1-0.4-2.4-1.3-2.7-2.2c-7.1-19.1-21.8-30.3-40-37.3c-17.9-6.8-36-12.8-54.4-19.3
				c-12.1,25.9-15.1,54.1-23,81.6c-6.2-3.5-12.3-6.4-17.9-10c-5.6-3.6-6.9-9.8-7.4-16c-1.3-15.5,0.7-30.8,3.5-46
				c4.9-26.9,14.6-52.3,23.3-78c4.6-13.5,9.2-26.9,13.8-40.4c0.4-1,1-2.3,1.8-2.7c7.3-3.3,11.8-9.5,16.6-15.5c2.4-3,4.9-6,7.8-8.6
				c4.6-4.2,8-4.4,12.2,0.1c5.8,6.3,11.3,12.9,16,20c15.1,22.7,27.1,47.1,39.2,71.5C496.9,518.4,506.4,537,516,556.1z M448.1,505.1
				c-0.9-4.7-1.2-8-2.2-11c-1.4-4.3-2.8-8.6-5.1-12.5c-2.8-4.7-7.1-5.1-10.5-1c-3.3,3.9-6.2,8.3-8.5,12.8c-2.5,4.9-0.9,8.7,4.4,9.6
				C433.1,504.4,440.2,504.5,448.1,505.1z"/>
			<path class="st0" d="M800.4,522c4.5-10.9,4.8-21.4,0.6-31.8c-3.1-7.7-7.1-15-10.1-22.7c-2.8-7.1-5.4-14.3-7.2-21.6
				c-2.1-8.2,1.4-15.1,7-20.8c4.1-4.1,8.8-7.6,13.2-11.5c2.4-2.1,5-2,7-0.1c3.1,3,6.4,6.2,8.4,10c6,11.2,8.4,23.6,10.3,36
				c4.3,28.1,5.9,56.5,6.4,84.9c0.3,16.7,0.9,33.5,1.4,50.2c0.2,6.4-4.7,12.8-11.1,13.6c-2.1,0.3-5.4-0.6-6.4-2.1
				c-16.4-23.9-37.8-42.6-61.2-59.3c-11.4-8.1-22.9-16.1-34.8-24.5c-2.6,6.7-3.5,13.2-2.1,19.7c2.8,13.5,6.5,26.9,9.2,40.5
				c1.3,6.3,1.9,12.9,1.3,19.2c-1,10.9-8.9,15.2-18.9,10.3c-11-5.3-17.5-14.7-19.9-26.4c-1.5-7.6-0.9-15.5-1.7-23.2
				c-1.5-15.1-3.2-30.2-5.1-45.2c-2.7-22.1-5-44.1-2.7-66.3c0.1-1.1,0.4-2.3,1-3.2c6.9-10.3,22.1-12.1,30.8-3.2
				c11.9,12.1,23.5,24.6,35.3,36.8C765.7,496.7,782,510.2,800.4,522z"/>
			<path class="st0" d="M1459.5,608c-16.1-6.4-31.8-4.5-47.6-3.1c-12.4,1.1-24.8,2.5-37.2,2.6c-13.4,0.1-25.7-4.3-36.2-13.1
				c-6.8-5.7-10.2-13.2-10.8-22c-0.4-5.8,2.4-10,7.5-12c5.5-2.1,11.4-3.2,17.1-4.9c6.8-2,13.7-3.9,20.5-6c3-0.9,3.8-3,4.1-6.2
				c0.9-11.6,2.2-23.2,3.4-34.8c1.6-15.5,3.1-31-1.8-46.3c-1.8-5.7-1.9-5.9-7.9-4.7c-6.1,1.2-12.1,2.7-18.2,3.9
				c-14.1,2.7-22.4-2-27.1-15.5c-3.1-8.9-4-17.9-2.2-27.2c0.6-3,1.7-4.8,5.4-5.3c8.9-1.1,17.7-2.6,26.4-4.4
				c9.1-1.9,17.2-5.5,23.1-13.2c0.7-0.9,2.2-1.8,3.1-1.6c11.5,1.9,22.3-1.7,33.4-3.5c6.1-1,12.4-0.4,18.6-0.3c0.9,0,2,1,2.8,1.8
				c11.2,12.3,17.3,26.7,17.5,43.3c0,3.9-1.6,7.8-2.5,12.1c-3.8-0.7-7-1.5-10.3-2c-12.5-2.2-20.8,3.2-22.3,15.9
				c-1,9.1-1,18.4,0.1,27.5c1.7,14.2,2,28.1-2.1,42c-0.9,3.2-0.4,7.3,0.6,10.6c1.3,4.6,5.6,6.1,10,7c5.3,1,10.7,1.9,16,3.2
				c4.5,1.1,8,3.8,9.9,8.1c5.2,12,8.9,24.4,8.9,37.5C1461.6,600.8,1460.3,604.3,1459.5,608z"/>
			<path class="st0" d="M1506.7,587.5c0,8.4,0.2,16.9-0.1,25.3c-0.1,4.8-2.2,6.2-7,5.6c-10-1.3-19.5-10.4-19.9-20.5
				c-0.5-13.8-5-26.3-9.4-39.1c-3.4-9.9-5.9-20.1-8.2-30.3c-0.9-3.9,0.1-8.2,0.5-12.3c0.1-0.9,1.1-2.1,2-2.5
				c10.9-5.8,15.6-15.5,17.2-27.1c1.3-10.2,2.2-20.4,3.4-30.5c2.3-19.9,13.7-33.1,31-41.9c7.1-3.6,14.6-6.8,22.2-9.1
				c16.1-4.9,32.4-9.1,48.6-13.4c4-1,8.2-1.1,12.3-1.5c7.5-0.6,12.8,3,16.2,9.3c7.1,13.2,8.4,27.4,5.6,41.9
				c-1.3,6.7-4.8,9.4-11.6,8.9c-10.2-0.8-20.3-2.4-30.5-3.5c-18.3-2.1-35.8-0.3-51,11.3c-12.8,9.7-18.5,23.1-18.7,38.8
				c0,3.1,2.5,6.4,4.3,9.2c0.4,0.7,2.9,0.4,4.4,0c9.6-2.5,19.1-5.7,28.9-7.6c6.1-1.3,12.7-1.8,18.9-1c12,1.5,19.5,9.2,22.5,20.8
				c2.5,9.6,1.9,19.3-0.7,28.8c-0.8,3.1-2.3,4.2-5.7,4.3c-11.9,0.1-23.9-0.1-35.8,1.2c-12.6,1.5-24.9,4.6-37.4,7
				c-2.4,0.5-2.7,1.9-2.7,3.9c0,8,0,16.1,0,24.1C1506.3,587.5,1506.5,587.5,1506.7,587.5z"/>
			<path class="st0" d="M132.3,606.2c-19.5-1.9-38.1,3.3-56.8,7.4c-12.4,2.7-24.8,4.2-37.3,0.4c-12.8-3.8-21.4-12.9-21.6-23.6
				c-0.2-7.9,0.1-15.8,0.5-23.7c1.7-35.8,7.4-71.1,13.3-106.4c3.5-20.5,6.7-41.1,10.4-61.7c1.4-8,6.8-11.2,14.9-9.6
				c9.3,1.8,16.7,6.9,23.1,13.5c8.4,8.7,15.4,18.3,16.9,30.8c1.2,9.7-0.8,19.3-4.2,28.2c-5.2,13.5-11.2,26.7-17,39.9
				c-5.8,13-11.7,26.1-13.7,40.3c-0.9,6.2-1.1,12.7-0.2,18.9c1.9,12.9,10.9,18.7,23.8,16.4c10.6-1.9,20.2-6.4,29.8-10.9
				c7.2-3.3,14.5-6.2,21.8-9.2c6.2-2.6,12-1.5,17.2,2.6c10.1,8,18.1,17.8,23.5,29.5c0.3,0.7,0.6,1.5,0.8,2.2
				c2.1,6.7,0.8,10.2-6.1,11.6c-8.7,1.8-17.7,2.4-26.5,3.2C140.7,606.5,136.5,606.2,132.3,606.2z"/>
			<path class="st0" d="M1282.1,597.5c-19.9-1.6-38.9,3-58,7.4c-12.7,2.9-25.5,4.5-38.4,0.6c-15.1-4.6-21.9-13.5-21.7-29.1
				c0.3-24.4,2.4-48.7,6-72.8c5.3-35.2,11-70.4,16.6-105.5c0.5-3.1,1.2-6.1,2-9.1c1.6-6.5,6.8-9.7,13.5-8.6
				c8.1,1.4,14.9,5.1,20.8,10.6c9.7,8.9,17.8,19,20,32.5c1.7,10.3-0.3,20.3-4,29.7c-5.8,14.8-12.4,29.3-18.8,43.8
				c-5.2,12-10.3,24.1-12.1,37.2c-0.8,5.7-1,11.7-0.2,17.4c1.9,13.7,11.2,20.2,24.8,16.7c9.5-2.4,18.5-6.5,27.6-10
				c9-3.5,17.9-7.4,27.1-10.5c2.5-0.8,6.2-0.5,8.5,0.9c14.2,8.3,24,20.4,29.3,35.9c1.8,5.3,0.2,8.3-5.3,9.7
				c-6.5,1.7-13.2,2.6-19.9,3.2C1294.1,597.9,1288.1,597.5,1282.1,597.5z"/>
			<path class="st0" d="M469.3,364.5c10.6-3.5,20.9-6.4,30.8-10.2c25.7-9.9,51.3-20.3,76.9-30.3c20.8-8.1,42.1-14.5,64.3-17.5
				c20.6-2.8,41.1-1.8,61.5,1.8c58.5,10.4,113.1,32.2,166.2,58c7.9,3.8,10.6,11.2,7,18.3c-3.4,6.7-11.1,8.9-18.7,5.1
				c-28.1-13.8-56.9-26.2-86.6-36.5c-24.9-8.6-50.1-15.5-76.1-19.9c-30.3-5.2-60-1.9-88.8,8.3c-25.6,9.1-50.7,19.6-76,29.4
				c-6.4,2.5-12.8,5-19.3,7.3c-1.4,0.5-3.3,0.5-4.7,0c-11.6-4.2-23-8.6-34.5-13C470.8,365.1,470.3,364.9,469.3,364.5z"/>
			<path class="st0" d="M937.2,129.8c-5.3-1.1-10.6-2.4-15.9-3.2c-6.5-1-13-1.6-20.2-2.5c11-36.2,22-72,33.3-109
				C935.3,54.2,936.2,92.1,937.2,129.8L937.2,129.8z"/>
			<path class="st0" d="M863.9,128.3c1.7-37.2,3.3-74.7,5-112.3c0.1,0,0.3-0.1,0.5-0.1c10.2,36,20.4,71.9,30.5,107.9
				C887.8,125.3,876.1,126.8,863.9,128.3z"/>
			<path class="st0" d="M1835.7,416.9c-11.2,0-19.6-8.1-19.7-19.1c-0.1-10.9,8.3-19.2,19.5-19.3c11.3-0.1,19.8,8,19.9,18.9
				C1855.5,408.5,1847.1,416.8,1835.7,416.9z M1821,397.6c0,8.6,6.4,15.3,14.7,15.3c8.2,0,14.9-7,14.8-15.3
				c-0.1-8.4-6.8-15.1-15.1-15.1C1827.4,382.5,1821,389.2,1821,397.6z"/>
			<path class="st0" d="M1828.3,387.8c3.4,0,6.7-0.5,9.8,0.2c2.1,0.4,4.7,2,5.5,3.8c0.7,1.6-0.7,4.2-2,6c1.1,3.1,2.2,6.1,3.3,9.2
				c-3.7,1.3-5.6,0.4-6-3.2c-0.4-3.3-2.6-4.1-6-3.5c0,2.3,0,4.5,0,7c-1.6,0.1-2.9,0.1-4.4,0.2
				C1828.3,401.1,1828.3,394.8,1828.3,387.8z M1832.9,391.2c0,1.9,0,3.6,0,5.3c2.5-0.1,5.8,1,5.9-2.6
				C1838.9,390.5,1835.7,391,1832.9,391.2z"/>
		</g>
	</g>
</g>
</svg>
